ISO-10303-21;
HEADER;
/* Generated by software containing ST-Developer
 * from STEP Tools, Inc. (www.steptools.com) 
 */
/* OPTION: using custom renumber hook */

FILE_DESCRIPTION(
/* description */ ('STEP AP214'),
/* implementation_level */ '2;1');

FILE_NAME(
/* name */ 'BAU6201Z',
/* time_stamp */ '2026-07-24T16:12:04+02:00',
/* author */ ('License CC BY-ND 4.0'),
/* organization */ ('CADENAS'),
/* preprocessor_version */ 'ST-DEVELOPER v20',
/* originating_system */ 'PARTsolutions',
/* authorisation */ '  ');

FILE_SCHEMA (('AUTOMOTIVE_DESIGN {1 0 10303 214 3 1 1}'));
ENDSEC;

DATA;
#10=PROPERTY_DEFINITION_REPRESENTATION(#14,#12);
#11=PROPERTY_DEFINITION_REPRESENTATION(#15,#13);
#12=REPRESENTATION('',(#16),#1655);
#13=REPRESENTATION('',(#17),#1655);
#14=PROPERTY_DEFINITION('pmi validation property','',#1660);
#15=PROPERTY_DEFINITION('pmi validation property','',#1660);
#16=VALUE_REPRESENTATION_ITEM('number of annotations',COUNT_MEASURE(0.));
#17=VALUE_REPRESENTATION_ITEM('number of views',COUNT_MEASURE(0.));
#18=SHAPE_REPRESENTATION_RELATIONSHIP('','',#849,#19);
#19=ADVANCED_BREP_SHAPE_REPRESENTATION('',(#847),#1655);
#20=SPHERICAL_SURFACE('',#935,2.5);
#21=SPHERICAL_SURFACE('',#936,2.5);
#22=SPHERICAL_SURFACE('',#937,2.5);
#23=SPHERICAL_SURFACE('',#938,2.5);
#24=SPHERICAL_SURFACE('',#939,2.5);
#25=SPHERICAL_SURFACE('',#940,2.5);
#26=SPHERICAL_SURFACE('',#941,2.5);
#27=SPHERICAL_SURFACE('',#942,2.5);
#28=SPHERICAL_SURFACE('',#943,2.5);
#29=PLANE('',#902);
#30=PLANE('',#907);
#31=PLANE('',#911);
#32=PLANE('',#916);
#33=PLANE('',#925);
#34=PLANE('',#933);
#35=CYLINDRICAL_SURFACE('',#899,16.);
#36=CYLINDRICAL_SURFACE('',#905,12.6666666666667);
#37=CYLINDRICAL_SURFACE('',#909,9.33333333333333);
#38=CYLINDRICAL_SURFACE('',#913,6.);
#39=CYLINDRICAL_SURFACE('',#919,9.33333333333333);
#40=CYLINDRICAL_SURFACE('',#923,9.33333333333333);
#41=CYLINDRICAL_SURFACE('',#927,12.6666666666667);
#42=CYLINDRICAL_SURFACE('',#931,12.6666666666667);
#43=B_SPLINE_CURVE_WITH_KNOTS('',3,(#1149,#1150,#1151,#1152,#1153),
 .UNSPECIFIED.,.F.,.F.,(4,1,4),(2.94591709551835E-7,0.00207548912204332,
0.00415068365237708),.UNSPECIFIED.);
#44=B_SPLINE_CURVE_WITH_KNOTS('',3,(#1157,#1158,#1159,#1160,#1161),
 .UNSPECIFIED.,.F.,.F.,(4,1,4),(2.94591709553758E-7,0.00207548912204332,
0.00415068365237709),.UNSPECIFIED.);
#45=B_SPLINE_CURVE_WITH_KNOTS('',3,(#1166,#1167,#1168,#1169,#1170),
 .UNSPECIFIED.,.F.,.F.,(4,1,4),(2.94591709663298E-7,0.00207548912204343,
0.0041506836523772),.UNSPECIFIED.);
#46=B_SPLINE_CURVE_WITH_KNOTS('',3,(#1174,#1175,#1176,#1177,#1178),
 .UNSPECIFIED.,.F.,.F.,(4,1,4),(2.94591709552898E-7,0.00207548912204332,
0.00415068365237709),.UNSPECIFIED.);
#47=B_SPLINE_CURVE_WITH_KNOTS('',3,(#1183,#1184,#1185,#1186,#1187),
 .UNSPECIFIED.,.F.,.F.,(4,1,4),(2.94591709552143E-7,0.00207548912204332,
0.00415068365237709),.UNSPECIFIED.);
#48=B_SPLINE_CURVE_WITH_KNOTS('',3,(#1191,#1192,#1193,#1194,#1195),
 .UNSPECIFIED.,.F.,.F.,(4,1,4),(2.94591709551034E-7,0.00207548912204332,
0.00415068365237709),.UNSPECIFIED.);
#49=B_SPLINE_CURVE_WITH_KNOTS('',3,(#1200,#1201,#1202,#1203,#1204),
 .UNSPECIFIED.,.F.,.F.,(4,1,4),(2.94591709561741E-7,0.00207548912204333,
0.0041506836523771),.UNSPECIFIED.);
#50=B_SPLINE_CURVE_WITH_KNOTS('',3,(#1208,#1209,#1210,#1211,#1212),
 .UNSPECIFIED.,.F.,.F.,(4,1,4),(2.94591709663298E-7,0.00207548912204343,
0.0041506836523772),.UNSPECIFIED.);
#51=B_SPLINE_CURVE_WITH_KNOTS('',3,(#1217,#1218,#1219,#1220,#1221),
 .UNSPECIFIED.,.F.,.F.,(4,1,4),(2.94591709551026E-7,0.00207548912204332,
0.00415068365237708),.UNSPECIFIED.);
#52=B_SPLINE_CURVE_WITH_KNOTS('',3,(#1225,#1226,#1227,#1228,#1229),
 .UNSPECIFIED.,.F.,.F.,(4,1,4),(2.94591709551495E-7,0.00207548912204332,
0.00415068365237709),.UNSPECIFIED.);
#53=B_SPLINE_CURVE_WITH_KNOTS('',3,(#1234,#1235,#1236,#1237,#1238),
 .UNSPECIFIED.,.F.,.F.,(4,1,4),(2.94591709699436E-7,0.00207548912204347,
0.00415068365237724),.UNSPECIFIED.);
#54=B_SPLINE_CURVE_WITH_KNOTS('',3,(#1242,#1243,#1244,#1245,#1246),
 .UNSPECIFIED.,.F.,.F.,(4,1,4),(2.94591709551209E-7,0.00207548912204332,
0.00415068365237709),.UNSPECIFIED.);
#55=B_SPLINE_CURVE_WITH_KNOTS('',3,(#1251,#1252,#1253,#1254,#1255),
 .UNSPECIFIED.,.F.,.F.,(4,1,4),(2.94591709559361E-7,0.00207548912204332,
0.00415068365237709),.UNSPECIFIED.);
#56=B_SPLINE_CURVE_WITH_KNOTS('',3,(#1259,#1260,#1261,#1262,#1263),
 .UNSPECIFIED.,.F.,.F.,(4,1,4),(2.94591709598114E-7,0.00207548912204337,
0.00415068365237714),.UNSPECIFIED.);
#57=B_SPLINE_CURVE_WITH_KNOTS('',3,(#1268,#1269,#1270,#1271,#1272),
 .UNSPECIFIED.,.F.,.F.,(4,1,4),(2.94591709699946E-7,0.00207548912204347,
0.00415068365237724),.UNSPECIFIED.);
#58=B_SPLINE_CURVE_WITH_KNOTS('',3,(#1276,#1277,#1278,#1279,#1280),
 .UNSPECIFIED.,.F.,.F.,(4,1,4),(2.9459170955172E-7,0.00207548912204332,
0.00415068365237708),.UNSPECIFIED.);
#59=B_SPLINE_CURVE_WITH_KNOTS('',3,(#1285,#1286,#1287,#1288,#1289),
 .UNSPECIFIED.,.F.,.F.,(4,1,4),(2.94589025808209E-7,0.0020754804994712,
0.00415066640991659),.UNSPECIFIED.);
#60=B_SPLINE_CURVE_WITH_KNOTS('',3,(#1293,#1294,#1295,#1296,#1297),
 .UNSPECIFIED.,.F.,.F.,(4,1,4),(2.9458902580821E-7,0.0020754804994712,0.0041506664099166),
 .UNSPECIFIED.);
#61=B_SPLINE_CURVE_WITH_KNOTS('',3,(#1302,#1303,#1304,#1305,#1306),
 .UNSPECIFIED.,.F.,.F.,(4,1,4),(2.94589025799931E-7,0.00207548049947119,
0.00415066640991658),.UNSPECIFIED.);
#62=B_SPLINE_CURVE_WITH_KNOTS('',3,(#1310,#1311,#1312,#1313,#1314),
 .UNSPECIFIED.,.F.,.F.,(4,1,4),(2.94589025809378E-7,0.0020754804994712,
0.00415066640991659),.UNSPECIFIED.);
#63=B_SPLINE_CURVE_WITH_KNOTS('',3,(#1319,#1320,#1321,#1322,#1323),
 .UNSPECIFIED.,.F.,.F.,(4,1,4),(2.94589025749289E-7,0.00207548049947114,
0.00415066640991653),.UNSPECIFIED.);
#64=B_SPLINE_CURVE_WITH_KNOTS('',3,(#1327,#1328,#1329,#1330,#1331),
 .UNSPECIFIED.,.F.,.F.,(4,1,4),(2.94589026082247E-7,0.00207548049947134,
0.00415066640991659),.UNSPECIFIED.);
#65=B_SPLINE_CURVE_WITH_KNOTS('',3,(#1336,#1337,#1338,#1339,#1340),
 .UNSPECIFIED.,.F.,.F.,(4,1,4),(2.94589025763319E-7,0.00207548049947115,
0.00415066640991654),.UNSPECIFIED.);
#66=B_SPLINE_CURVE_WITH_KNOTS('',3,(#1344,#1345,#1346,#1347,#1348),
 .UNSPECIFIED.,.F.,.F.,(4,1,4),(2.94589026077521E-7,0.00207548049947133,
0.00415066640991659),.UNSPECIFIED.);
#67=B_SPLINE_CURVE_WITH_KNOTS('',3,(#1353,#1354,#1355,#1356,#1357),
 .UNSPECIFIED.,.F.,.F.,(4,1,4),(2.94589025812213E-7,0.0020754804994712,
0.00415066640991659),.UNSPECIFIED.);
#68=B_SPLINE_CURVE_WITH_KNOTS('',3,(#1361,#1362,#1363,#1364,#1365),
 .UNSPECIFIED.,.F.,.F.,(4,1,4),(2.94589026024022E-7,0.00207548049947128,
0.00415066640991654),.UNSPECIFIED.);
#69=B_SPLINE_CURVE_WITH_KNOTS('',3,(#1370,#1371,#1372,#1373,#1374),
 .UNSPECIFIED.,.F.,.F.,(4,1,4),(2.94589025807837E-7,0.0020754804994712,
0.00415066640991659),.UNSPECIFIED.);
#70=B_SPLINE_CURVE_WITH_KNOTS('',3,(#1378,#1379,#1380,#1381,#1382),
 .UNSPECIFIED.,.F.,.F.,(4,1,4),(2.94589025971176E-7,0.00207548049947123,
0.00415066640991648),.UNSPECIFIED.);
#71=B_SPLINE_CURVE_WITH_KNOTS('',3,(#1387,#1388,#1389,#1390,#1391),
 .UNSPECIFIED.,.F.,.F.,(4,1,4),(2.94589025807479E-7,0.0020754804994712,
0.00415066640991659),.UNSPECIFIED.);
#72=B_SPLINE_CURVE_WITH_KNOTS('',3,(#1395,#1396,#1397,#1398,#1399),
 .UNSPECIFIED.,.F.,.F.,(4,1,4),(2.94589026078648E-7,0.00207548049947133,
0.00415066640991659),.UNSPECIFIED.);
#73=B_SPLINE_CURVE_WITH_KNOTS('',3,(#1404,#1405,#1406,#1407,#1408),
 .UNSPECIFIED.,.F.,.F.,(4,1,4),(2.94589025808753E-7,0.0020754804994712,
0.00415066640991659),.UNSPECIFIED.);
#74=B_SPLINE_CURVE_WITH_KNOTS('',3,(#1412,#1413,#1414,#1415,#1416),
 .UNSPECIFIED.,.F.,.F.,(4,1,4),(2.94589025805901E-7,0.0020754804994712,
0.00415066640991659),.UNSPECIFIED.);
#75=B_SPLINE_CURVE_WITH_KNOTS('',3,(#1450,#1451,#1452,#1453),
 .UNSPECIFIED.,.F.,.F.,(4,4),(1.51970007688839E-6,0.000413025468156209),
 .UNSPECIFIED.);
#76=B_SPLINE_CURVE_WITH_KNOTS('',3,(#1454,#1455,#1456,#1457),
 .UNSPECIFIED.,.F.,.F.,(4,4),(1.51970007582572E-6,0.000413025468155003),
 .UNSPECIFIED.);
#77=B_SPLINE_CURVE_WITH_KNOTS('',3,(#1458,#1459,#1460,#1461),
 .UNSPECIFIED.,.F.,.F.,(4,4),(1.51970007582528E-6,0.000413025468155047),
 .UNSPECIFIED.);
#78=B_SPLINE_CURVE_WITH_KNOTS('',3,(#1462,#1463,#1464,#1465),
 .UNSPECIFIED.,.F.,.F.,(4,4),(1.5197000758318E-6,0.000413025468155057),
 .UNSPECIFIED.);
#79=B_SPLINE_CURVE_WITH_KNOTS('',3,(#1466,#1467,#1468,#1469),
 .UNSPECIFIED.,.F.,.F.,(4,4),(1.5197000758382E-6,0.00041302546815505),
 .UNSPECIFIED.);
#80=B_SPLINE_CURVE_WITH_KNOTS('',3,(#1470,#1471,#1472,#1473),
 .UNSPECIFIED.,.F.,.F.,(4,4),(1.519700096102E-6,0.000413025468175324),
 .UNSPECIFIED.);
#81=B_SPLINE_CURVE_WITH_KNOTS('',3,(#1474,#1475,#1476,#1477),
 .UNSPECIFIED.,.F.,.F.,(4,4),(1.5197000950867E-6,0.000413025468174457),
 .UNSPECIFIED.);
#82=B_SPLINE_CURVE_WITH_KNOTS('',3,(#1478,#1479,#1480,#1481),
 .UNSPECIFIED.,.F.,.F.,(4,4),(1.5197000951298E-6,0.000413025468174257),
 .UNSPECIFIED.);
#83=B_SPLINE_CURVE_WITH_KNOTS('',3,(#1485,#1486,#1487,#1488),
 .UNSPECIFIED.,.F.,.F.,(4,4),(1.5197001033572E-6,0.000413025468182654),
 .UNSPECIFIED.);
#84=B_SPLINE_CURVE_WITH_KNOTS('',3,(#1493,#1494,#1495,#1496,#1497),
 .UNSPECIFIED.,.F.,.F.,(4,1,4),(2.94591709574432E-7,0.00207548912204334,
0.00415068365237711),.UNSPECIFIED.);
#85=B_SPLINE_CURVE_WITH_KNOTS('',3,(#1498,#1499,#1500,#1501,#1502),
 .UNSPECIFIED.,.F.,.F.,(4,1,4),(2.94591709710723E-7,0.00207548912204348,
0.00415068365237726),.UNSPECIFIED.);
#86=B_SPLINE_CURVE_WITH_KNOTS('',3,(#1504,#1505,#1506,#1507),
 .UNSPECIFIED.,.F.,.F.,(4,4),(1.51970009608816E-6,0.000413025468175436),
 .UNSPECIFIED.);
#87=B_SPLINE_CURVE_WITH_KNOTS('',3,(#1508,#1509,#1510,#1511),
 .UNSPECIFIED.,.F.,.F.,(4,4),(1.51970008412704E-6,0.000413025468163449),
 .UNSPECIFIED.);
#88=B_SPLINE_CURVE_WITH_KNOTS('',3,(#1512,#1513,#1514,#1515),
 .UNSPECIFIED.,.F.,.F.,(4,4),(1.51970007588535E-6,0.000413025468155211),
 .UNSPECIFIED.);
#89=B_SPLINE_CURVE_WITH_KNOTS('',3,(#1516,#1517,#1518,#1519),
 .UNSPECIFIED.,.F.,.F.,(4,4),(1.51970007585777E-6,0.000413025468155263),
 .UNSPECIFIED.);
#90=B_SPLINE_CURVE_WITH_KNOTS('',3,(#1520,#1521,#1522,#1523),
 .UNSPECIFIED.,.F.,.F.,(4,4),(1.51970007686729E-6,0.000413025468156275),
 .UNSPECIFIED.);
#91=B_SPLINE_CURVE_WITH_KNOTS('',3,(#1524,#1525,#1526,#1527),
 .UNSPECIFIED.,.F.,.F.,(4,4),(1.51970007580786E-6,0.000413025468155221),
 .UNSPECIFIED.);
#92=B_SPLINE_CURVE_WITH_KNOTS('',3,(#1528,#1529,#1530,#1531),
 .UNSPECIFIED.,.F.,.F.,(4,4),(1.51970009501577E-6,0.000413025468174452),
 .UNSPECIFIED.);
#93=B_SPLINE_CURVE_WITH_KNOTS('',3,(#1532,#1533,#1534,#1535),
 .UNSPECIFIED.,.F.,.F.,(4,4),(1.519700095033E-6,0.000413025468174422),
 .UNSPECIFIED.);
#94=B_SPLINE_CURVE_WITH_KNOTS('',3,(#1536,#1537,#1538,#1539),
 .UNSPECIFIED.,.F.,.F.,(4,4),(1.51970007580162E-6,0.00041302546815518),
 .UNSPECIFIED.);
#95=B_SPLINE_CURVE_WITH_KNOTS('',3,(#1546,#1547,#1548,#1549),
 .UNSPECIFIED.,.F.,.F.,(4,4),(1.77048258024295E-6,0.000481167860177871),
 .UNSPECIFIED.);
#96=B_SPLINE_CURVE_WITH_KNOTS('',3,(#1550,#1551,#1552,#1553),
 .UNSPECIFIED.,.F.,.F.,(4,4),(1.77048261402351E-6,0.000481167860211618),
 .UNSPECIFIED.);
#97=B_SPLINE_CURVE_WITH_KNOTS('',3,(#1554,#1555,#1556,#1557),
 .UNSPECIFIED.,.F.,.F.,(4,4),(1.77048258415012E-6,0.000481167860181729),
 .UNSPECIFIED.);
#98=B_SPLINE_CURVE_WITH_KNOTS('',3,(#1558,#1559,#1560,#1561),
 .UNSPECIFIED.,.F.,.F.,(4,4),(1.7704825794326E-6,0.000481167860176843),
 .UNSPECIFIED.);
#99=B_SPLINE_CURVE_WITH_KNOTS('',3,(#1562,#1563,#1564,#1565),
 .UNSPECIFIED.,.F.,.F.,(4,4),(1.77048262076634E-6,0.000481167860218331),
 .UNSPECIFIED.);
#100=B_SPLINE_CURVE_WITH_KNOTS('',3,(#1566,#1567,#1568,#1569),
 .UNSPECIFIED.,.F.,.F.,(4,4),(1.77048258700075E-6,0.000481167860184411),
 .UNSPECIFIED.);
#101=B_SPLINE_CURVE_WITH_KNOTS('',3,(#1570,#1571,#1572,#1573),
 .UNSPECIFIED.,.F.,.F.,(4,4),(1.77048258623567E-6,0.000481167860183792),
 .UNSPECIFIED.);
#102=B_SPLINE_CURVE_WITH_KNOTS('',3,(#1577,#1578,#1579,#1580),
 .UNSPECIFIED.,.F.,.F.,(4,4),(1.77048258634987E-6,0.000481167860184007),
 .UNSPECIFIED.);
#103=B_SPLINE_CURVE_WITH_KNOTS('',3,(#1581,#1582,#1583,#1584),
 .UNSPECIFIED.,.F.,.F.,(4,4),(1.77048257947198E-6,0.000481167860177127),
 .UNSPECIFIED.);
#104=B_SPLINE_CURVE_WITH_KNOTS('',3,(#1586,#1587,#1588,#1589,#1590),
 .UNSPECIFIED.,.F.,.F.,(4,1,4),(2.94589025500964E-7,0.00207548049947088,
0.00415066640991627),.UNSPECIFIED.);
#105=B_SPLINE_CURVE_WITH_KNOTS('',3,(#1594,#1595,#1596,#1597,#1598),
 .UNSPECIFIED.,.F.,.F.,(4,1,4),(2.94589025992975E-7,0.00207548049947125,
0.0041506664099165),.UNSPECIFIED.);
#106=B_SPLINE_CURVE_WITH_KNOTS('',3,(#1600,#1601,#1602,#1603),
 .UNSPECIFIED.,.F.,.F.,(4,4),(1.77048258694713E-6,0.000481167860184503),
 .UNSPECIFIED.);
#107=B_SPLINE_CURVE_WITH_KNOTS('',3,(#1604,#1605,#1606,#1607),
 .UNSPECIFIED.,.F.,.F.,(4,4),(1.77048257941045E-6,0.000481167860176975),
 .UNSPECIFIED.);
#108=B_SPLINE_CURVE_WITH_KNOTS('',3,(#1608,#1609,#1610,#1611),
 .UNSPECIFIED.,.F.,.F.,(4,4),(1.77048262551277E-6,0.000481167860177146),
 .UNSPECIFIED.);
#109=B_SPLINE_CURVE_WITH_KNOTS('',3,(#1612,#1613,#1614,#1615),
 .UNSPECIFIED.,.F.,.F.,(4,4),(1.77048262537942E-6,0.000481167860176928),
 .UNSPECIFIED.);
#110=B_SPLINE_CURVE_WITH_KNOTS('',3,(#1616,#1617,#1618,#1619),
 .UNSPECIFIED.,.F.,.F.,(4,4),(1.77048262614093E-6,0.000481167860177679),
 .UNSPECIFIED.);
#111=B_SPLINE_CURVE_WITH_KNOTS('',3,(#1620,#1621,#1622,#1623),
 .UNSPECIFIED.,.F.,.F.,(4,4),(1.77048265993973E-6,0.000481167860211474),
 .UNSPECIFIED.);
#112=B_SPLINE_CURVE_WITH_KNOTS('',3,(#1624,#1625,#1626,#1627),
 .UNSPECIFIED.,.F.,.F.,(4,4),(1.77048263209663E-6,0.000481167860183619),
 .UNSPECIFIED.);
#113=B_SPLINE_CURVE_WITH_KNOTS('',3,(#1628,#1629,#1630,#1631),
 .UNSPECIFIED.,.F.,.F.,(4,4),(1.77048263682815E-6,0.00048116786018837),
 .UNSPECIFIED.);
#114=B_SPLINE_CURVE_WITH_KNOTS('',3,(#1632,#1633,#1634,#1635),
 .UNSPECIFIED.,.F.,.F.,(4,4),(1.77048262074848E-6,0.000481167860218259),
 .UNSPECIFIED.);
#115=ORIENTED_EDGE('',*,*,#363,.F.);
#116=ORIENTED_EDGE('',*,*,#364,.T.);
#117=ORIENTED_EDGE('',*,*,#365,.T.);
#118=ORIENTED_EDGE('',*,*,#366,.T.);
#119=ORIENTED_EDGE('',*,*,#367,.F.);
#120=ORIENTED_EDGE('',*,*,#368,.T.);
#121=ORIENTED_EDGE('',*,*,#369,.T.);
#122=ORIENTED_EDGE('',*,*,#370,.T.);
#123=ORIENTED_EDGE('',*,*,#371,.F.);
#124=ORIENTED_EDGE('',*,*,#372,.T.);
#125=ORIENTED_EDGE('',*,*,#373,.T.);
#126=ORIENTED_EDGE('',*,*,#374,.T.);
#127=ORIENTED_EDGE('',*,*,#375,.F.);
#128=ORIENTED_EDGE('',*,*,#376,.T.);
#129=ORIENTED_EDGE('',*,*,#377,.T.);
#130=ORIENTED_EDGE('',*,*,#378,.T.);
#131=ORIENTED_EDGE('',*,*,#379,.F.);
#132=ORIENTED_EDGE('',*,*,#380,.T.);
#133=ORIENTED_EDGE('',*,*,#381,.T.);
#134=ORIENTED_EDGE('',*,*,#382,.T.);
#135=ORIENTED_EDGE('',*,*,#383,.F.);
#136=ORIENTED_EDGE('',*,*,#384,.T.);
#137=ORIENTED_EDGE('',*,*,#385,.T.);
#138=ORIENTED_EDGE('',*,*,#386,.T.);
#139=ORIENTED_EDGE('',*,*,#387,.F.);
#140=ORIENTED_EDGE('',*,*,#388,.T.);
#141=ORIENTED_EDGE('',*,*,#389,.T.);
#142=ORIENTED_EDGE('',*,*,#390,.T.);
#143=ORIENTED_EDGE('',*,*,#391,.T.);
#144=ORIENTED_EDGE('',*,*,#392,.T.);
#145=ORIENTED_EDGE('',*,*,#393,.F.);
#146=ORIENTED_EDGE('',*,*,#394,.T.);
#147=ORIENTED_EDGE('',*,*,#395,.T.);
#148=ORIENTED_EDGE('',*,*,#396,.T.);
#149=ORIENTED_EDGE('',*,*,#397,.F.);
#150=ORIENTED_EDGE('',*,*,#398,.T.);
#151=ORIENTED_EDGE('',*,*,#399,.F.);
#152=ORIENTED_EDGE('',*,*,#400,.T.);
#153=ORIENTED_EDGE('',*,*,#401,.T.);
#154=ORIENTED_EDGE('',*,*,#402,.T.);
#155=ORIENTED_EDGE('',*,*,#403,.F.);
#156=ORIENTED_EDGE('',*,*,#404,.T.);
#157=ORIENTED_EDGE('',*,*,#405,.T.);
#158=ORIENTED_EDGE('',*,*,#406,.T.);
#159=ORIENTED_EDGE('',*,*,#407,.F.);
#160=ORIENTED_EDGE('',*,*,#408,.T.);
#161=ORIENTED_EDGE('',*,*,#409,.T.);
#162=ORIENTED_EDGE('',*,*,#410,.T.);
#163=ORIENTED_EDGE('',*,*,#411,.F.);
#164=ORIENTED_EDGE('',*,*,#412,.T.);
#165=ORIENTED_EDGE('',*,*,#413,.T.);
#166=ORIENTED_EDGE('',*,*,#414,.T.);
#167=ORIENTED_EDGE('',*,*,#415,.F.);
#168=ORIENTED_EDGE('',*,*,#416,.T.);
#169=ORIENTED_EDGE('',*,*,#417,.T.);
#170=ORIENTED_EDGE('',*,*,#418,.T.);
#171=ORIENTED_EDGE('',*,*,#419,.F.);
#172=ORIENTED_EDGE('',*,*,#420,.T.);
#173=ORIENTED_EDGE('',*,*,#421,.T.);
#174=ORIENTED_EDGE('',*,*,#422,.T.);
#175=ORIENTED_EDGE('',*,*,#423,.T.);
#176=ORIENTED_EDGE('',*,*,#424,.T.);
#177=ORIENTED_EDGE('',*,*,#425,.F.);
#178=ORIENTED_EDGE('',*,*,#426,.T.);
#179=ORIENTED_EDGE('',*,*,#427,.T.);
#180=ORIENTED_EDGE('',*,*,#428,.T.);
#181=ORIENTED_EDGE('',*,*,#429,.T.);
#182=ORIENTED_EDGE('',*,*,#430,.T.);
#183=ORIENTED_EDGE('',*,*,#431,.T.);
#184=ORIENTED_EDGE('',*,*,#430,.F.);
#185=ORIENTED_EDGE('',*,*,#432,.T.);
#186=ORIENTED_EDGE('',*,*,#431,.F.);
#187=ORIENTED_EDGE('',*,*,#433,.T.);
#188=ORIENTED_EDGE('',*,*,#432,.F.);
#189=ORIENTED_EDGE('',*,*,#434,.T.);
#190=ORIENTED_EDGE('',*,*,#433,.F.);
#191=ORIENTED_EDGE('',*,*,#435,.T.);
#192=ORIENTED_EDGE('',*,*,#436,.T.);
#193=ORIENTED_EDGE('',*,*,#437,.T.);
#194=ORIENTED_EDGE('',*,*,#438,.T.);
#195=ORIENTED_EDGE('',*,*,#439,.F.);
#196=ORIENTED_EDGE('',*,*,#363,.T.);
#197=ORIENTED_EDGE('',*,*,#440,.F.);
#198=ORIENTED_EDGE('',*,*,#367,.T.);
#199=ORIENTED_EDGE('',*,*,#441,.F.);
#200=ORIENTED_EDGE('',*,*,#371,.T.);
#201=ORIENTED_EDGE('',*,*,#442,.F.);
#202=ORIENTED_EDGE('',*,*,#375,.T.);
#203=ORIENTED_EDGE('',*,*,#443,.F.);
#204=ORIENTED_EDGE('',*,*,#379,.T.);
#205=ORIENTED_EDGE('',*,*,#444,.F.);
#206=ORIENTED_EDGE('',*,*,#383,.T.);
#207=ORIENTED_EDGE('',*,*,#445,.F.);
#208=ORIENTED_EDGE('',*,*,#387,.T.);
#209=ORIENTED_EDGE('',*,*,#446,.F.);
#210=ORIENTED_EDGE('',*,*,#447,.T.);
#211=ORIENTED_EDGE('',*,*,#448,.F.);
#212=ORIENTED_EDGE('',*,*,#393,.T.);
#213=ORIENTED_EDGE('',*,*,#438,.F.);
#214=ORIENTED_EDGE('',*,*,#449,.T.);
#215=ORIENTED_EDGE('',*,*,#450,.T.);
#216=ORIENTED_EDGE('',*,*,#447,.F.);
#217=ORIENTED_EDGE('',*,*,#451,.T.);
#218=ORIENTED_EDGE('',*,*,#452,.F.);
#219=ORIENTED_EDGE('',*,*,#391,.F.);
#220=ORIENTED_EDGE('',*,*,#453,.F.);
#221=ORIENTED_EDGE('',*,*,#449,.F.);
#222=ORIENTED_EDGE('',*,*,#454,.F.);
#223=ORIENTED_EDGE('',*,*,#389,.F.);
#224=ORIENTED_EDGE('',*,*,#455,.F.);
#225=ORIENTED_EDGE('',*,*,#385,.F.);
#226=ORIENTED_EDGE('',*,*,#456,.F.);
#227=ORIENTED_EDGE('',*,*,#381,.F.);
#228=ORIENTED_EDGE('',*,*,#457,.F.);
#229=ORIENTED_EDGE('',*,*,#377,.F.);
#230=ORIENTED_EDGE('',*,*,#458,.F.);
#231=ORIENTED_EDGE('',*,*,#373,.F.);
#232=ORIENTED_EDGE('',*,*,#459,.F.);
#233=ORIENTED_EDGE('',*,*,#369,.F.);
#234=ORIENTED_EDGE('',*,*,#460,.F.);
#235=ORIENTED_EDGE('',*,*,#365,.F.);
#236=ORIENTED_EDGE('',*,*,#461,.T.);
#237=ORIENTED_EDGE('',*,*,#462,.T.);
#238=ORIENTED_EDGE('',*,*,#461,.F.);
#239=ORIENTED_EDGE('',*,*,#463,.F.);
#240=ORIENTED_EDGE('',*,*,#399,.T.);
#241=ORIENTED_EDGE('',*,*,#464,.F.);
#242=ORIENTED_EDGE('',*,*,#403,.T.);
#243=ORIENTED_EDGE('',*,*,#465,.F.);
#244=ORIENTED_EDGE('',*,*,#407,.T.);
#245=ORIENTED_EDGE('',*,*,#466,.F.);
#246=ORIENTED_EDGE('',*,*,#411,.T.);
#247=ORIENTED_EDGE('',*,*,#467,.F.);
#248=ORIENTED_EDGE('',*,*,#415,.T.);
#249=ORIENTED_EDGE('',*,*,#468,.F.);
#250=ORIENTED_EDGE('',*,*,#419,.T.);
#251=ORIENTED_EDGE('',*,*,#469,.F.);
#252=ORIENTED_EDGE('',*,*,#470,.T.);
#253=ORIENTED_EDGE('',*,*,#471,.F.);
#254=ORIENTED_EDGE('',*,*,#425,.T.);
#255=ORIENTED_EDGE('',*,*,#472,.F.);
#256=ORIENTED_EDGE('',*,*,#397,.T.);
#257=ORIENTED_EDGE('',*,*,#462,.F.);
#258=ORIENTED_EDGE('',*,*,#470,.F.);
#259=ORIENTED_EDGE('',*,*,#473,.T.);
#260=ORIENTED_EDGE('',*,*,#474,.T.);
#261=ORIENTED_EDGE('',*,*,#475,.T.);
#262=ORIENTED_EDGE('',*,*,#476,.F.);
#263=ORIENTED_EDGE('',*,*,#395,.F.);
#264=ORIENTED_EDGE('',*,*,#477,.F.);
#265=ORIENTED_EDGE('',*,*,#423,.F.);
#266=ORIENTED_EDGE('',*,*,#478,.F.);
#267=ORIENTED_EDGE('',*,*,#474,.F.);
#268=ORIENTED_EDGE('',*,*,#479,.F.);
#269=ORIENTED_EDGE('',*,*,#421,.F.);
#270=ORIENTED_EDGE('',*,*,#480,.F.);
#271=ORIENTED_EDGE('',*,*,#417,.F.);
#272=ORIENTED_EDGE('',*,*,#481,.F.);
#273=ORIENTED_EDGE('',*,*,#413,.F.);
#274=ORIENTED_EDGE('',*,*,#482,.F.);
#275=ORIENTED_EDGE('',*,*,#409,.F.);
#276=ORIENTED_EDGE('',*,*,#483,.F.);
#277=ORIENTED_EDGE('',*,*,#405,.F.);
#278=ORIENTED_EDGE('',*,*,#484,.F.);
#279=ORIENTED_EDGE('',*,*,#401,.F.);
#280=ORIENTED_EDGE('',*,*,#485,.T.);
#281=ORIENTED_EDGE('',*,*,#486,.T.);
#282=ORIENTED_EDGE('',*,*,#485,.F.);
#283=ORIENTED_EDGE('',*,*,#451,.F.);
#284=ORIENTED_EDGE('',*,*,#446,.T.);
#285=ORIENTED_EDGE('',*,*,#390,.F.);
#286=ORIENTED_EDGE('',*,*,#454,.T.);
#287=ORIENTED_EDGE('',*,*,#426,.F.);
#288=ORIENTED_EDGE('',*,*,#471,.T.);
#289=ORIENTED_EDGE('',*,*,#475,.F.);
#290=ORIENTED_EDGE('',*,*,#478,.T.);
#291=ORIENTED_EDGE('',*,*,#394,.F.);
#292=ORIENTED_EDGE('',*,*,#448,.T.);
#293=ORIENTED_EDGE('',*,*,#450,.F.);
#294=ORIENTED_EDGE('',*,*,#453,.T.);
#295=ORIENTED_EDGE('',*,*,#398,.F.);
#296=ORIENTED_EDGE('',*,*,#472,.T.);
#297=ORIENTED_EDGE('',*,*,#424,.F.);
#298=ORIENTED_EDGE('',*,*,#477,.T.);
#299=ORIENTED_EDGE('',*,*,#388,.F.);
#300=ORIENTED_EDGE('',*,*,#445,.T.);
#301=ORIENTED_EDGE('',*,*,#386,.F.);
#302=ORIENTED_EDGE('',*,*,#455,.T.);
#303=ORIENTED_EDGE('',*,*,#473,.F.);
#304=ORIENTED_EDGE('',*,*,#469,.T.);
#305=ORIENTED_EDGE('',*,*,#422,.F.);
#306=ORIENTED_EDGE('',*,*,#479,.T.);
#307=ORIENTED_EDGE('',*,*,#384,.F.);
#308=ORIENTED_EDGE('',*,*,#444,.T.);
#309=ORIENTED_EDGE('',*,*,#382,.F.);
#310=ORIENTED_EDGE('',*,*,#456,.T.);
#311=ORIENTED_EDGE('',*,*,#420,.F.);
#312=ORIENTED_EDGE('',*,*,#468,.T.);
#313=ORIENTED_EDGE('',*,*,#418,.F.);
#314=ORIENTED_EDGE('',*,*,#480,.T.);
#315=ORIENTED_EDGE('',*,*,#380,.F.);
#316=ORIENTED_EDGE('',*,*,#443,.T.);
#317=ORIENTED_EDGE('',*,*,#378,.F.);
#318=ORIENTED_EDGE('',*,*,#457,.T.);
#319=ORIENTED_EDGE('',*,*,#416,.F.);
#320=ORIENTED_EDGE('',*,*,#467,.T.);
#321=ORIENTED_EDGE('',*,*,#414,.F.);
#322=ORIENTED_EDGE('',*,*,#481,.T.);
#323=ORIENTED_EDGE('',*,*,#376,.F.);
#324=ORIENTED_EDGE('',*,*,#442,.T.);
#325=ORIENTED_EDGE('',*,*,#374,.F.);
#326=ORIENTED_EDGE('',*,*,#458,.T.);
#327=ORIENTED_EDGE('',*,*,#412,.F.);
#328=ORIENTED_EDGE('',*,*,#466,.T.);
#329=ORIENTED_EDGE('',*,*,#410,.F.);
#330=ORIENTED_EDGE('',*,*,#482,.T.);
#331=ORIENTED_EDGE('',*,*,#372,.F.);
#332=ORIENTED_EDGE('',*,*,#441,.T.);
#333=ORIENTED_EDGE('',*,*,#370,.F.);
#334=ORIENTED_EDGE('',*,*,#459,.T.);
#335=ORIENTED_EDGE('',*,*,#408,.F.);
#336=ORIENTED_EDGE('',*,*,#465,.T.);
#337=ORIENTED_EDGE('',*,*,#406,.F.);
#338=ORIENTED_EDGE('',*,*,#483,.T.);
#339=ORIENTED_EDGE('',*,*,#368,.F.);
#340=ORIENTED_EDGE('',*,*,#440,.T.);
#341=ORIENTED_EDGE('',*,*,#366,.F.);
#342=ORIENTED_EDGE('',*,*,#460,.T.);
#343=ORIENTED_EDGE('',*,*,#404,.F.);
#344=ORIENTED_EDGE('',*,*,#464,.T.);
#345=ORIENTED_EDGE('',*,*,#402,.F.);
#346=ORIENTED_EDGE('',*,*,#484,.T.);
#347=ORIENTED_EDGE('',*,*,#364,.F.);
#348=ORIENTED_EDGE('',*,*,#439,.T.);
#349=ORIENTED_EDGE('',*,*,#392,.F.);
#350=ORIENTED_EDGE('',*,*,#452,.T.);
#351=ORIENTED_EDGE('',*,*,#400,.F.);
#352=ORIENTED_EDGE('',*,*,#463,.T.);
#353=ORIENTED_EDGE('',*,*,#396,.F.);
#354=ORIENTED_EDGE('',*,*,#476,.T.);
#355=ORIENTED_EDGE('',*,*,#435,.F.);
#356=ORIENTED_EDGE('',*,*,#434,.F.);
#357=ORIENTED_EDGE('',*,*,#437,.F.);
#358=ORIENTED_EDGE('',*,*,#436,.F.);
#359=ORIENTED_EDGE('',*,*,#427,.F.);
#360=ORIENTED_EDGE('',*,*,#486,.F.);
#361=ORIENTED_EDGE('',*,*,#429,.F.);
#362=ORIENTED_EDGE('',*,*,#428,.F.);
#363=EDGE_CURVE('',#487,#488,#575,.T.);
#364=EDGE_CURVE('',#487,#489,#43,.T.);
#365=EDGE_CURVE('',#489,#490,#576,.T.);
#366=EDGE_CURVE('',#490,#488,#44,.T.);
#367=EDGE_CURVE('',#491,#492,#577,.T.);
#368=EDGE_CURVE('',#491,#493,#45,.T.);
#369=EDGE_CURVE('',#493,#494,#578,.T.);
#370=EDGE_CURVE('',#494,#492,#46,.T.);
#371=EDGE_CURVE('',#495,#496,#579,.T.);
#372=EDGE_CURVE('',#495,#497,#47,.T.);
#373=EDGE_CURVE('',#497,#498,#580,.T.);
#374=EDGE_CURVE('',#498,#496,#48,.T.);
#375=EDGE_CURVE('',#499,#500,#581,.T.);
#376=EDGE_CURVE('',#499,#501,#49,.T.);
#377=EDGE_CURVE('',#501,#502,#582,.T.);
#378=EDGE_CURVE('',#502,#500,#50,.T.);
#379=EDGE_CURVE('',#503,#504,#583,.T.);
#380=EDGE_CURVE('',#503,#505,#51,.T.);
#381=EDGE_CURVE('',#505,#506,#584,.T.);
#382=EDGE_CURVE('',#506,#504,#52,.T.);
#383=EDGE_CURVE('',#507,#508,#585,.T.);
#384=EDGE_CURVE('',#507,#509,#53,.T.);
#385=EDGE_CURVE('',#509,#510,#586,.T.);
#386=EDGE_CURVE('',#510,#508,#54,.T.);
#387=EDGE_CURVE('',#511,#512,#587,.T.);
#388=EDGE_CURVE('',#511,#513,#55,.T.);
#389=EDGE_CURVE('',#513,#514,#588,.T.);
#390=EDGE_CURVE('',#514,#512,#56,.T.);
#391=EDGE_CURVE('',#515,#516,#589,.T.);
#392=EDGE_CURVE('',#516,#517,#57,.T.);
#393=EDGE_CURVE('',#518,#517,#590,.T.);
#394=EDGE_CURVE('',#518,#515,#58,.T.);
#395=EDGE_CURVE('',#519,#520,#591,.T.);
#396=EDGE_CURVE('',#520,#521,#59,.T.);
#397=EDGE_CURVE('',#522,#521,#592,.T.);
#398=EDGE_CURVE('',#522,#519,#60,.T.);
#399=EDGE_CURVE('',#523,#524,#593,.T.);
#400=EDGE_CURVE('',#523,#525,#61,.T.);
#401=EDGE_CURVE('',#525,#526,#594,.T.);
#402=EDGE_CURVE('',#526,#524,#62,.T.);
#403=EDGE_CURVE('',#527,#528,#595,.T.);
#404=EDGE_CURVE('',#527,#529,#63,.T.);
#405=EDGE_CURVE('',#529,#530,#596,.T.);
#406=EDGE_CURVE('',#530,#528,#64,.T.);
#407=EDGE_CURVE('',#531,#532,#597,.T.);
#408=EDGE_CURVE('',#531,#533,#65,.T.);
#409=EDGE_CURVE('',#533,#534,#598,.T.);
#410=EDGE_CURVE('',#534,#532,#66,.T.);
#411=EDGE_CURVE('',#535,#536,#599,.T.);
#412=EDGE_CURVE('',#535,#537,#67,.T.);
#413=EDGE_CURVE('',#537,#538,#600,.T.);
#414=EDGE_CURVE('',#538,#536,#68,.T.);
#415=EDGE_CURVE('',#539,#540,#601,.T.);
#416=EDGE_CURVE('',#539,#541,#69,.T.);
#417=EDGE_CURVE('',#541,#542,#602,.T.);
#418=EDGE_CURVE('',#542,#540,#70,.T.);
#419=EDGE_CURVE('',#543,#544,#603,.T.);
#420=EDGE_CURVE('',#543,#545,#71,.T.);
#421=EDGE_CURVE('',#545,#546,#604,.T.);
#422=EDGE_CURVE('',#546,#544,#72,.T.);
#423=EDGE_CURVE('',#547,#548,#605,.T.);
#424=EDGE_CURVE('',#548,#549,#73,.T.);
#425=EDGE_CURVE('',#550,#549,#606,.T.);
#426=EDGE_CURVE('',#550,#547,#74,.T.);
#427=EDGE_CURVE('',#551,#551,#607,.F.);
#428=EDGE_CURVE('',#552,#552,#608,.F.);
#429=EDGE_CURVE('',#553,#553,#609,.T.);
#430=EDGE_CURVE('',#554,#554,#610,.T.);
#431=EDGE_CURVE('',#555,#555,#611,.T.);
#432=EDGE_CURVE('',#556,#556,#612,.T.);
#433=EDGE_CURVE('',#557,#557,#613,.T.);
#434=EDGE_CURVE('',#558,#558,#614,.F.);
#435=EDGE_CURVE('',#559,#559,#615,.T.);
#436=EDGE_CURVE('',#560,#560,#616,.T.);
#437=EDGE_CURVE('',#561,#561,#617,.F.);
#438=EDGE_CURVE('',#562,#562,#618,.T.);
#439=EDGE_CURVE('',#487,#517,#75,.T.);
#440=EDGE_CURVE('',#491,#488,#76,.T.);
#441=EDGE_CURVE('',#495,#492,#77,.T.);
#442=EDGE_CURVE('',#499,#496,#78,.T.);
#443=EDGE_CURVE('',#503,#500,#79,.T.);
#444=EDGE_CURVE('',#507,#504,#80,.T.);
#445=EDGE_CURVE('',#511,#508,#81,.T.);
#446=EDGE_CURVE('',#563,#512,#82,.T.);
#447=EDGE_CURVE('',#563,#564,#619,.T.);
#448=EDGE_CURVE('',#518,#564,#83,.T.);
#449=EDGE_CURVE('',#565,#566,#620,.T.);
#450=EDGE_CURVE('',#566,#564,#84,.T.);
#451=EDGE_CURVE('',#563,#565,#85,.T.);
#452=EDGE_CURVE('',#516,#489,#86,.T.);
#453=EDGE_CURVE('',#566,#515,#87,.T.);
#454=EDGE_CURVE('',#514,#565,#88,.T.);
#455=EDGE_CURVE('',#510,#513,#89,.T.);
#456=EDGE_CURVE('',#506,#509,#90,.T.);
#457=EDGE_CURVE('',#502,#505,#91,.T.);
#458=EDGE_CURVE('',#498,#501,#92,.T.);
#459=EDGE_CURVE('',#494,#497,#93,.T.);
#460=EDGE_CURVE('',#490,#493,#94,.T.);
#461=EDGE_CURVE('',#567,#567,#621,.T.);
#462=EDGE_CURVE('',#568,#568,#622,.T.);
#463=EDGE_CURVE('',#523,#521,#95,.T.);
#464=EDGE_CURVE('',#527,#524,#96,.T.);
#465=EDGE_CURVE('',#531,#528,#97,.T.);
#466=EDGE_CURVE('',#535,#532,#98,.T.);
#467=EDGE_CURVE('',#539,#536,#99,.T.);
#468=EDGE_CURVE('',#543,#540,#100,.T.);
#469=EDGE_CURVE('',#569,#544,#101,.T.);
#470=EDGE_CURVE('',#569,#570,#623,.T.);
#471=EDGE_CURVE('',#550,#570,#102,.T.);
#472=EDGE_CURVE('',#522,#549,#103,.T.);
#473=EDGE_CURVE('',#569,#571,#104,.T.);
#474=EDGE_CURVE('',#571,#572,#624,.T.);
#475=EDGE_CURVE('',#572,#570,#105,.T.);
#476=EDGE_CURVE('',#520,#525,#106,.T.);
#477=EDGE_CURVE('',#548,#519,#107,.T.);
#478=EDGE_CURVE('',#572,#547,#108,.T.);
#479=EDGE_CURVE('',#546,#571,#109,.T.);
#480=EDGE_CURVE('',#542,#545,#110,.T.);
#481=EDGE_CURVE('',#538,#541,#111,.T.);
#482=EDGE_CURVE('',#534,#537,#112,.T.);
#483=EDGE_CURVE('',#530,#533,#113,.T.);
#484=EDGE_CURVE('',#526,#529,#114,.T.);
#485=EDGE_CURVE('',#573,#573,#625,.T.);
#486=EDGE_CURVE('',#574,#574,#626,.T.);
#487=VERTEX_POINT('',#1147);
#488=VERTEX_POINT('',#1148);
#489=VERTEX_POINT('',#1154);
#490=VERTEX_POINT('',#1156);
#491=VERTEX_POINT('',#1164);
#492=VERTEX_POINT('',#1165);
#493=VERTEX_POINT('',#1171);
#494=VERTEX_POINT('',#1173);
#495=VERTEX_POINT('',#1181);
#496=VERTEX_POINT('',#1182);
#497=VERTEX_POINT('',#1188);
#498=VERTEX_POINT('',#1190);
#499=VERTEX_POINT('',#1198);
#500=VERTEX_POINT('',#1199);
#501=VERTEX_POINT('',#1205);
#502=VERTEX_POINT('',#1207);
#503=VERTEX_POINT('',#1215);
#504=VERTEX_POINT('',#1216);
#505=VERTEX_POINT('',#1222);
#506=VERTEX_POINT('',#1224);
#507=VERTEX_POINT('',#1232);
#508=VERTEX_POINT('',#1233);
#509=VERTEX_POINT('',#1239);
#510=VERTEX_POINT('',#1241);
#511=VERTEX_POINT('',#1249);
#512=VERTEX_POINT('',#1250);
#513=VERTEX_POINT('',#1256);
#514=VERTEX_POINT('',#1258);
#515=VERTEX_POINT('',#1266);
#516=VERTEX_POINT('',#1267);
#517=VERTEX_POINT('',#1273);
#518=VERTEX_POINT('',#1275);
#519=VERTEX_POINT('',#1283);
#520=VERTEX_POINT('',#1284);
#521=VERTEX_POINT('',#1290);
#522=VERTEX_POINT('',#1292);
#523=VERTEX_POINT('',#1300);
#524=VERTEX_POINT('',#1301);
#525=VERTEX_POINT('',#1307);
#526=VERTEX_POINT('',#1309);
#527=VERTEX_POINT('',#1317);
#528=VERTEX_POINT('',#1318);
#529=VERTEX_POINT('',#1324);
#530=VERTEX_POINT('',#1326);
#531=VERTEX_POINT('',#1334);
#532=VERTEX_POINT('',#1335);
#533=VERTEX_POINT('',#1341);
#534=VERTEX_POINT('',#1343);
#535=VERTEX_POINT('',#1351);
#536=VERTEX_POINT('',#1352);
#537=VERTEX_POINT('',#1358);
#538=VERTEX_POINT('',#1360);
#539=VERTEX_POINT('',#1368);
#540=VERTEX_POINT('',#1369);
#541=VERTEX_POINT('',#1375);
#542=VERTEX_POINT('',#1377);
#543=VERTEX_POINT('',#1385);
#544=VERTEX_POINT('',#1386);
#545=VERTEX_POINT('',#1392);
#546=VERTEX_POINT('',#1394);
#547=VERTEX_POINT('',#1402);
#548=VERTEX_POINT('',#1403);
#549=VERTEX_POINT('',#1409);
#550=VERTEX_POINT('',#1411);
#551=VERTEX_POINT('',#1419);
#552=VERTEX_POINT('',#1421);
#553=VERTEX_POINT('',#1424);
#554=VERTEX_POINT('',#1426);
#555=VERTEX_POINT('',#1429);
#556=VERTEX_POINT('',#1432);
#557=VERTEX_POINT('',#1435);
#558=VERTEX_POINT('',#1438);
#559=VERTEX_POINT('',#1441);
#560=VERTEX_POINT('',#1443);
#561=VERTEX_POINT('',#1446);
#562=VERTEX_POINT('',#1448);
#563=VERTEX_POINT('',#1482);
#564=VERTEX_POINT('',#1484);
#565=VERTEX_POINT('',#1491);
#566=VERTEX_POINT('',#1492);
#567=VERTEX_POINT('',#1541);
#568=VERTEX_POINT('',#1544);
#569=VERTEX_POINT('',#1574);
#570=VERTEX_POINT('',#1576);
#571=VERTEX_POINT('',#1591);
#572=VERTEX_POINT('',#1593);
#573=VERTEX_POINT('',#1637);
#574=VERTEX_POINT('',#1640);
#575=CIRCLE('',#852,9.33333333333333);
#576=CIRCLE('',#853,9.33333333333333);
#577=CIRCLE('',#855,9.33333333333333);
#578=CIRCLE('',#856,9.33333333333333);
#579=CIRCLE('',#858,9.33333333333333);
#580=CIRCLE('',#859,9.33333333333333);
#581=CIRCLE('',#861,9.33333333333333);
#582=CIRCLE('',#862,9.33333333333333);
#583=CIRCLE('',#864,9.33333333333333);
#584=CIRCLE('',#865,9.33333333333333);
#585=CIRCLE('',#867,9.33333333333333);
#586=CIRCLE('',#868,9.33333333333333);
#587=CIRCLE('',#870,9.33333333333333);
#588=CIRCLE('',#871,9.33333333333333);
#589=CIRCLE('',#873,9.33333333333333);
#590=CIRCLE('',#874,9.33333333333333);
#591=CIRCLE('',#876,12.6666666666667);
#592=CIRCLE('',#877,12.6666666666667);
#593=CIRCLE('',#879,12.6666666666667);
#594=CIRCLE('',#880,12.6666666666667);
#595=CIRCLE('',#882,12.6666666666667);
#596=CIRCLE('',#883,12.6666666666667);
#597=CIRCLE('',#885,12.6666666666667);
#598=CIRCLE('',#886,12.6666666666667);
#599=CIRCLE('',#888,12.6666666666667);
#600=CIRCLE('',#889,12.6666666666667);
#601=CIRCLE('',#891,12.6666666666667);
#602=CIRCLE('',#892,12.6666666666667);
#603=CIRCLE('',#894,12.6666666666667);
#604=CIRCLE('',#895,12.6666666666667);
#605=CIRCLE('',#897,12.6666666666667);
#606=CIRCLE('',#898,12.6666666666667);
#607=CIRCLE('',#900,16.);
#608=CIRCLE('',#901,16.);
#609=CIRCLE('',#903,15.4);
#610=CIRCLE('',#904,12.6666666666667);
#611=CIRCLE('',#906,12.6666666666667);
#612=CIRCLE('',#908,9.33333333333333);
#613=CIRCLE('',#910,9.33333333333333);
#614=CIRCLE('',#912,6.6);
#615=CIRCLE('',#914,6.);
#616=CIRCLE('',#915,6.);
#617=CIRCLE('',#917,6.6);
#618=CIRCLE('',#918,9.33333333333333);
#619=CIRCLE('',#920,9.33333333333333);
#620=CIRCLE('',#922,9.33333333333333);
#621=CIRCLE('',#924,9.33333333333333);
#622=CIRCLE('',#926,12.6666666666667);
#623=CIRCLE('',#928,12.6666666666667);
#624=CIRCLE('',#930,12.6666666666667);
#625=CIRCLE('',#932,12.6666666666667);
#626=CIRCLE('',#934,15.4);
#627=EDGE_LOOP('',(#115,#116,#117,#118));
#628=EDGE_LOOP('',(#119,#120,#121,#122));
#629=EDGE_LOOP('',(#123,#124,#125,#126));
#630=EDGE_LOOP('',(#127,#128,#129,#130));
#631=EDGE_LOOP('',(#131,#132,#133,#134));
#632=EDGE_LOOP('',(#135,#136,#137,#138));
#633=EDGE_LOOP('',(#139,#140,#141,#142));
#634=EDGE_LOOP('',(#143,#144,#145,#146));
#635=EDGE_LOOP('',(#147,#148,#149,#150));
#636=EDGE_LOOP('',(#151,#152,#153,#154));
#637=EDGE_LOOP('',(#155,#156,#157,#158));
#638=EDGE_LOOP('',(#159,#160,#161,#162));
#639=EDGE_LOOP('',(#163,#164,#165,#166));
#640=EDGE_LOOP('',(#167,#168,#169,#170));
#641=EDGE_LOOP('',(#171,#172,#173,#174));
#642=EDGE_LOOP('',(#175,#176,#177,#178));
#643=EDGE_LOOP('',(#179));
#644=EDGE_LOOP('',(#180));
#645=EDGE_LOOP('',(#181));
#646=EDGE_LOOP('',(#182));
#647=EDGE_LOOP('',(#183));
#648=EDGE_LOOP('',(#184));
#649=EDGE_LOOP('',(#185));
#650=EDGE_LOOP('',(#186));
#651=EDGE_LOOP('',(#187));
#652=EDGE_LOOP('',(#188));
#653=EDGE_LOOP('',(#189));
#654=EDGE_LOOP('',(#190));
#655=EDGE_LOOP('',(#191));
#656=EDGE_LOOP('',(#192));
#657=EDGE_LOOP('',(#193));
#658=EDGE_LOOP('',(#194));
#659=EDGE_LOOP('',(#195,#196,#197,#198,#199,#200,#201,#202,#203,#204,#205,
#206,#207,#208,#209,#210,#211,#212));
#660=EDGE_LOOP('',(#213));
#661=EDGE_LOOP('',(#214,#215,#216,#217));
#662=EDGE_LOOP('',(#218,#219,#220,#221,#222,#223,#224,#225,#226,#227,#228,
#229,#230,#231,#232,#233,#234,#235));
#663=EDGE_LOOP('',(#236));
#664=EDGE_LOOP('',(#237));
#665=EDGE_LOOP('',(#238));
#666=EDGE_LOOP('',(#239,#240,#241,#242,#243,#244,#245,#246,#247,#248,#249,
#250,#251,#252,#253,#254,#255,#256));
#667=EDGE_LOOP('',(#257));
#668=EDGE_LOOP('',(#258,#259,#260,#261));
#669=EDGE_LOOP('',(#262,#263,#264,#265,#266,#267,#268,#269,#270,#271,#272,
#273,#274,#275,#276,#277,#278,#279));
#670=EDGE_LOOP('',(#280));
#671=EDGE_LOOP('',(#281));
#672=EDGE_LOOP('',(#282));
#673=EDGE_LOOP('',(#283,#284,#285,#286));
#674=EDGE_LOOP('',(#287,#288,#289,#290));
#675=EDGE_LOOP('',(#291,#292,#293,#294));
#676=EDGE_LOOP('',(#295,#296,#297,#298));
#677=EDGE_LOOP('',(#299,#300,#301,#302));
#678=EDGE_LOOP('',(#303,#304,#305,#306));
#679=EDGE_LOOP('',(#307,#308,#309,#310));
#680=EDGE_LOOP('',(#311,#312,#313,#314));
#681=EDGE_LOOP('',(#315,#316,#317,#318));
#682=EDGE_LOOP('',(#319,#320,#321,#322));
#683=EDGE_LOOP('',(#323,#324,#325,#326));
#684=EDGE_LOOP('',(#327,#328,#329,#330));
#685=EDGE_LOOP('',(#331,#332,#333,#334));
#686=EDGE_LOOP('',(#335,#336,#337,#338));
#687=EDGE_LOOP('',(#339,#340,#341,#342));
#688=EDGE_LOOP('',(#343,#344,#345,#346));
#689=EDGE_LOOP('',(#347,#348,#349,#350));
#690=EDGE_LOOP('',(#351,#352,#353,#354));
#691=EDGE_LOOP('',(#355));
#692=EDGE_LOOP('',(#356));
#693=EDGE_LOOP('',(#357));
#694=EDGE_LOOP('',(#358));
#695=EDGE_LOOP('',(#359));
#696=EDGE_LOOP('',(#360));
#697=EDGE_LOOP('',(#361));
#698=EDGE_LOOP('',(#362));
#699=FACE_BOUND('',#627,.T.);
#700=FACE_BOUND('',#628,.T.);
#701=FACE_BOUND('',#629,.T.);
#702=FACE_BOUND('',#630,.T.);
#703=FACE_BOUND('',#631,.T.);
#704=FACE_BOUND('',#632,.T.);
#705=FACE_BOUND('',#633,.T.);
#706=FACE_BOUND('',#634,.T.);
#707=FACE_BOUND('',#635,.T.);
#708=FACE_BOUND('',#636,.T.);
#709=FACE_BOUND('',#637,.T.);
#710=FACE_BOUND('',#638,.T.);
#711=FACE_BOUND('',#639,.T.);
#712=FACE_BOUND('',#640,.T.);
#713=FACE_BOUND('',#641,.T.);
#714=FACE_BOUND('',#642,.T.);
#715=FACE_BOUND('',#643,.T.);
#716=FACE_BOUND('',#644,.T.);
#717=FACE_BOUND('',#645,.T.);
#718=FACE_BOUND('',#646,.T.);
#719=FACE_BOUND('',#647,.T.);
#720=FACE_BOUND('',#648,.T.);
#721=FACE_BOUND('',#649,.T.);
#722=FACE_BOUND('',#650,.T.);
#723=FACE_BOUND('',#651,.T.);
#724=FACE_BOUND('',#652,.T.);
#725=FACE_BOUND('',#653,.T.);
#726=FACE_BOUND('',#654,.T.);
#727=FACE_BOUND('',#655,.T.);
#728=FACE_BOUND('',#656,.T.);
#729=FACE_BOUND('',#657,.T.);
#730=FACE_BOUND('',#658,.T.);
#731=FACE_BOUND('',#659,.T.);
#732=FACE_BOUND('',#660,.T.);
#733=FACE_BOUND('',#661,.T.);
#734=FACE_BOUND('',#662,.T.);
#735=FACE_BOUND('',#663,.T.);
#736=FACE_BOUND('',#664,.T.);
#737=FACE_BOUND('',#665,.T.);
#738=FACE_BOUND('',#666,.T.);
#739=FACE_BOUND('',#667,.T.);
#740=FACE_BOUND('',#668,.T.);
#741=FACE_BOUND('',#669,.T.);
#742=FACE_BOUND('',#670,.T.);
#743=FACE_BOUND('',#671,.T.);
#744=FACE_BOUND('',#672,.T.);
#745=FACE_BOUND('',#673,.T.);
#746=FACE_BOUND('',#674,.T.);
#747=FACE_BOUND('',#675,.T.);
#748=FACE_BOUND('',#676,.T.);
#749=FACE_BOUND('',#677,.T.);
#750=FACE_BOUND('',#678,.T.);
#751=FACE_BOUND('',#679,.T.);
#752=FACE_BOUND('',#680,.T.);
#753=FACE_BOUND('',#681,.T.);
#754=FACE_BOUND('',#682,.T.);
#755=FACE_BOUND('',#683,.T.);
#756=FACE_BOUND('',#684,.T.);
#757=FACE_BOUND('',#685,.T.);
#758=FACE_BOUND('',#686,.T.);
#759=FACE_BOUND('',#687,.T.);
#760=FACE_BOUND('',#688,.T.);
#761=FACE_BOUND('',#689,.T.);
#762=FACE_BOUND('',#690,.T.);
#763=FACE_BOUND('',#691,.T.);
#764=FACE_BOUND('',#692,.T.);
#765=FACE_BOUND('',#693,.T.);
#766=FACE_BOUND('',#694,.T.);
#767=FACE_BOUND('',#695,.T.);
#768=FACE_BOUND('',#696,.T.);
#769=FACE_BOUND('',#697,.T.);
#770=FACE_BOUND('',#698,.T.);
#771=TOROIDAL_SURFACE('',#851,11.,2.49);
#772=TOROIDAL_SURFACE('',#854,11.,2.49);
#773=TOROIDAL_SURFACE('',#857,11.,2.49);
#774=TOROIDAL_SURFACE('',#860,11.,2.49);
#775=TOROIDAL_SURFACE('',#863,11.,2.49);
#776=TOROIDAL_SURFACE('',#866,11.,2.49);
#777=TOROIDAL_SURFACE('',#869,11.,2.49);
#778=TOROIDAL_SURFACE('',#872,11.,2.49);
#779=TOROIDAL_SURFACE('',#875,11.,2.49);
#780=TOROIDAL_SURFACE('',#878,11.,2.49);
#781=TOROIDAL_SURFACE('',#881,11.,2.49);
#782=TOROIDAL_SURFACE('',#884,11.,2.49);
#783=TOROIDAL_SURFACE('',#887,11.,2.49);
#784=TOROIDAL_SURFACE('',#890,11.,2.49);
#785=TOROIDAL_SURFACE('',#893,11.,2.49);
#786=TOROIDAL_SURFACE('',#896,11.,2.49);
#787=TOROIDAL_SURFACE('',#921,11.,2.49);
#788=TOROIDAL_SURFACE('',#929,11.,2.49);
#789=TOROIDAL_SURFACE('',#944,6.6,0.6);
#790=TOROIDAL_SURFACE('',#945,6.6,0.6);
#791=TOROIDAL_SURFACE('',#946,15.4,0.6);
#792=TOROIDAL_SURFACE('',#947,15.4,0.6);
#793=ADVANCED_FACE('',(#699),#771,.F.);
#794=ADVANCED_FACE('',(#700),#772,.F.);
#795=ADVANCED_FACE('',(#701),#773,.F.);
#796=ADVANCED_FACE('',(#702),#774,.F.);
#797=ADVANCED_FACE('',(#703),#775,.F.);
#798=ADVANCED_FACE('',(#704),#776,.F.);
#799=ADVANCED_FACE('',(#705),#777,.F.);
#800=ADVANCED_FACE('',(#706),#778,.F.);
#801=ADVANCED_FACE('',(#707),#779,.F.);
#802=ADVANCED_FACE('',(#708),#780,.F.);
#803=ADVANCED_FACE('',(#709),#781,.F.);
#804=ADVANCED_FACE('',(#710),#782,.F.);
#805=ADVANCED_FACE('',(#711),#783,.F.);
#806=ADVANCED_FACE('',(#712),#784,.F.);
#807=ADVANCED_FACE('',(#713),#785,.F.);
#808=ADVANCED_FACE('',(#714),#786,.F.);
#809=ADVANCED_FACE('',(#715,#716),#35,.T.);
#810=ADVANCED_FACE('',(#717,#718),#29,.T.);
#811=ADVANCED_FACE('',(#719,#720),#36,.F.);
#812=ADVANCED_FACE('',(#721,#722),#30,.T.);
#813=ADVANCED_FACE('',(#723,#724),#37,.T.);
#814=ADVANCED_FACE('',(#725,#726),#31,.T.);
#815=ADVANCED_FACE('',(#727,#728),#38,.F.);
#816=ADVANCED_FACE('',(#729,#730),#32,.T.);
#817=ADVANCED_FACE('',(#731,#732),#39,.T.);
#818=ADVANCED_FACE('',(#733),#787,.F.);
#819=ADVANCED_FACE('',(#734,#735),#40,.T.);
#820=ADVANCED_FACE('',(#736,#737),#33,.T.);
#821=ADVANCED_FACE('',(#738,#739),#41,.F.);
#822=ADVANCED_FACE('',(#740),#788,.F.);
#823=ADVANCED_FACE('',(#741,#742),#42,.F.);
#824=ADVANCED_FACE('',(#743,#744),#34,.T.);
#825=ADVANCED_FACE('',(#745,#746),#20,.T.);
#826=ADVANCED_FACE('',(#747,#748),#21,.T.);
#827=ADVANCED_FACE('',(#749,#750),#22,.T.);
#828=ADVANCED_FACE('',(#751,#752),#23,.T.);
#829=ADVANCED_FACE('',(#753,#754),#24,.T.);
#830=ADVANCED_FACE('',(#755,#756),#25,.T.);
#831=ADVANCED_FACE('',(#757,#758),#26,.T.);
#832=ADVANCED_FACE('',(#759,#760),#27,.T.);
#833=ADVANCED_FACE('',(#761,#762),#28,.T.);
#834=ADVANCED_FACE('',(#763,#764),#789,.T.);
#835=ADVANCED_FACE('',(#765,#766),#790,.T.);
#836=ADVANCED_FACE('',(#767,#768),#791,.T.);
#837=ADVANCED_FACE('',(#769,#770),#792,.T.);
#838=CLOSED_SHELL('',(#793,#794,#795,#796,#797,#798,#799,#800,#801,#802,
#803,#804,#805,#806,#807,#808,#809,#810,#811,#812,#813,#814,#815,#816,#817,
#818,#819,#820,#821,#822,#823,#824,#825,#826,#827,#828,#829,#830,#831,#832,
#833,#834,#835,#836,#837));
#839=STYLED_ITEM('',(#840),#847);
#840=PRESENTATION_STYLE_ASSIGNMENT((#841));
#841=SURFACE_STYLE_USAGE(.BOTH.,#842);
#842=SURFACE_SIDE_STYLE('',(#843));
#843=SURFACE_STYLE_FILL_AREA(#844);
#844=FILL_AREA_STYLE('',(#845));
#845=FILL_AREA_STYLE_COLOUR('',#846);
#846=COLOUR_RGB('',0.689999997615814,0.689999997615814,0.689999997615814);
#847=MANIFOLD_SOLID_BREP('BAU6201Z',#838);
#848=SHAPE_DEFINITION_REPRESENTATION(#1660,#849);
#849=SHAPE_REPRESENTATION('BAU6201Z',(#850),#1655);
#850=AXIS2_PLACEMENT_3D('',#1144,#948,#949);
#851=AXIS2_PLACEMENT_3D('',#1145,#950,#951);
#852=AXIS2_PLACEMENT_3D('',#1146,#952,#953);
#853=AXIS2_PLACEMENT_3D('',#1155,#954,#955);
#854=AXIS2_PLACEMENT_3D('',#1162,#956,#957);
#855=AXIS2_PLACEMENT_3D('',#1163,#958,#959);
#856=AXIS2_PLACEMENT_3D('',#1172,#960,#961);
#857=AXIS2_PLACEMENT_3D('',#1179,#962,#963);
#858=AXIS2_PLACEMENT_3D('',#1180,#964,#965);
#859=AXIS2_PLACEMENT_3D('',#1189,#966,#967);
#860=AXIS2_PLACEMENT_3D('',#1196,#968,#969);
#861=AXIS2_PLACEMENT_3D('',#1197,#970,#971);
#862=AXIS2_PLACEMENT_3D('',#1206,#972,#973);
#863=AXIS2_PLACEMENT_3D('',#1213,#974,#975);
#864=AXIS2_PLACEMENT_3D('',#1214,#976,#977);
#865=AXIS2_PLACEMENT_3D('',#1223,#978,#979);
#866=AXIS2_PLACEMENT_3D('',#1230,#980,#981);
#867=AXIS2_PLACEMENT_3D('',#1231,#982,#983);
#868=AXIS2_PLACEMENT_3D('',#1240,#984,#985);
#869=AXIS2_PLACEMENT_3D('',#1247,#986,#987);
#870=AXIS2_PLACEMENT_3D('',#1248,#988,#989);
#871=AXIS2_PLACEMENT_3D('',#1257,#990,#991);
#872=AXIS2_PLACEMENT_3D('',#1264,#992,#993);
#873=AXIS2_PLACEMENT_3D('',#1265,#994,#995);
#874=AXIS2_PLACEMENT_3D('',#1274,#996,#997);
#875=AXIS2_PLACEMENT_3D('',#1281,#998,#999);
#876=AXIS2_PLACEMENT_3D('',#1282,#1000,#1001);
#877=AXIS2_PLACEMENT_3D('',#1291,#1002,#1003);
#878=AXIS2_PLACEMENT_3D('',#1298,#1004,#1005);
#879=AXIS2_PLACEMENT_3D('',#1299,#1006,#1007);
#880=AXIS2_PLACEMENT_3D('',#1308,#1008,#1009);
#881=AXIS2_PLACEMENT_3D('',#1315,#1010,#1011);
#882=AXIS2_PLACEMENT_3D('',#1316,#1012,#1013);
#883=AXIS2_PLACEMENT_3D('',#1325,#1014,#1015);
#884=AXIS2_PLACEMENT_3D('',#1332,#1016,#1017);
#885=AXIS2_PLACEMENT_3D('',#1333,#1018,#1019);
#886=AXIS2_PLACEMENT_3D('',#1342,#1020,#1021);
#887=AXIS2_PLACEMENT_3D('',#1349,#1022,#1023);
#888=AXIS2_PLACEMENT_3D('',#1350,#1024,#1025);
#889=AXIS2_PLACEMENT_3D('',#1359,#1026,#1027);
#890=AXIS2_PLACEMENT_3D('',#1366,#1028,#1029);
#891=AXIS2_PLACEMENT_3D('',#1367,#1030,#1031);
#892=AXIS2_PLACEMENT_3D('',#1376,#1032,#1033);
#893=AXIS2_PLACEMENT_3D('',#1383,#1034,#1035);
#894=AXIS2_PLACEMENT_3D('',#1384,#1036,#1037);
#895=AXIS2_PLACEMENT_3D('',#1393,#1038,#1039);
#896=AXIS2_PLACEMENT_3D('',#1400,#1040,#1041);
#897=AXIS2_PLACEMENT_3D('',#1401,#1042,#1043);
#898=AXIS2_PLACEMENT_3D('',#1410,#1044,#1045);
#899=AXIS2_PLACEMENT_3D('',#1417,#1046,#1047);
#900=AXIS2_PLACEMENT_3D('',#1418,#1048,#1049);
#901=AXIS2_PLACEMENT_3D('',#1420,#1050,#1051);
#902=AXIS2_PLACEMENT_3D('',#1422,#1052,#1053);
#903=AXIS2_PLACEMENT_3D('',#1423,#1054,#1055);
#904=AXIS2_PLACEMENT_3D('',#1425,#1056,#1057);
#905=AXIS2_PLACEMENT_3D('',#1427,#1058,#1059);
#906=AXIS2_PLACEMENT_3D('',#1428,#1060,#1061);
#907=AXIS2_PLACEMENT_3D('',#1430,#1062,#1063);
#908=AXIS2_PLACEMENT_3D('',#1431,#1064,#1065);
#909=AXIS2_PLACEMENT_3D('',#1433,#1066,#1067);
#910=AXIS2_PLACEMENT_3D('',#1434,#1068,#1069);
#911=AXIS2_PLACEMENT_3D('',#1436,#1070,#1071);
#912=AXIS2_PLACEMENT_3D('',#1437,#1072,#1073);
#913=AXIS2_PLACEMENT_3D('',#1439,#1074,#1075);
#914=AXIS2_PLACEMENT_3D('',#1440,#1076,#1077);
#915=AXIS2_PLACEMENT_3D('',#1442,#1078,#1079);
#916=AXIS2_PLACEMENT_3D('',#1444,#1080,#1081);
#917=AXIS2_PLACEMENT_3D('',#1445,#1082,#1083);
#918=AXIS2_PLACEMENT_3D('',#1447,#1084,#1085);
#919=AXIS2_PLACEMENT_3D('',#1449,#1086,#1087);
#920=AXIS2_PLACEMENT_3D('',#1483,#1088,#1089);
#921=AXIS2_PLACEMENT_3D('',#1489,#1090,#1091);
#922=AXIS2_PLACEMENT_3D('',#1490,#1092,#1093);
#923=AXIS2_PLACEMENT_3D('',#1503,#1094,#1095);
#924=AXIS2_PLACEMENT_3D('',#1540,#1096,#1097);
#925=AXIS2_PLACEMENT_3D('',#1542,#1098,#1099);
#926=AXIS2_PLACEMENT_3D('',#1543,#1100,#1101);
#927=AXIS2_PLACEMENT_3D('',#1545,#1102,#1103);
#928=AXIS2_PLACEMENT_3D('',#1575,#1104,#1105);
#929=AXIS2_PLACEMENT_3D('',#1585,#1106,#1107);
#930=AXIS2_PLACEMENT_3D('',#1592,#1108,#1109);
#931=AXIS2_PLACEMENT_3D('',#1599,#1110,#1111);
#932=AXIS2_PLACEMENT_3D('',#1636,#1112,#1113);
#933=AXIS2_PLACEMENT_3D('',#1638,#1114,#1115);
#934=AXIS2_PLACEMENT_3D('',#1639,#1116,#1117);
#935=AXIS2_PLACEMENT_3D('',#1641,#1118,#1119);
#936=AXIS2_PLACEMENT_3D('',#1642,#1120,#1121);
#937=AXIS2_PLACEMENT_3D('',#1643,#1122,#1123);
#938=AXIS2_PLACEMENT_3D('',#1644,#1124,#1125);
#939=AXIS2_PLACEMENT_3D('',#1645,#1126,#1127);
#940=AXIS2_PLACEMENT_3D('',#1646,#1128,#1129);
#941=AXIS2_PLACEMENT_3D('',#1647,#1130,#1131);
#942=AXIS2_PLACEMENT_3D('',#1648,#1132,#1133);
#943=AXIS2_PLACEMENT_3D('',#1649,#1134,#1135);
#944=AXIS2_PLACEMENT_3D('',#1650,#1136,#1137);
#945=AXIS2_PLACEMENT_3D('',#1651,#1138,#1139);
#946=AXIS2_PLACEMENT_3D('',#1652,#1140,#1141);
#947=AXIS2_PLACEMENT_3D('',#1653,#1142,#1143);
#948=DIRECTION('',(0.,0.,1.));
#949=DIRECTION('',(1.,0.,0.));
#950=DIRECTION('',(1.,0.,0.));
#951=DIRECTION('',(0.,0.,-1.));
#952=DIRECTION('',(1.,0.,0.));
#953=DIRECTION('',(0.,0.,-1.));
#954=DIRECTION('',(1.,0.,0.));
#955=DIRECTION('',(0.,0.,-1.));
#956=DIRECTION('',(1.,0.,0.));
#957=DIRECTION('',(0.,0.,-1.));
#958=DIRECTION('',(1.,0.,0.));
#959=DIRECTION('',(0.,0.,-1.));
#960=DIRECTION('',(1.,0.,0.));
#961=DIRECTION('',(0.,0.,-1.));
#962=DIRECTION('',(1.,0.,0.));
#963=DIRECTION('',(0.,0.,-1.));
#964=DIRECTION('',(1.,0.,0.));
#965=DIRECTION('',(0.,0.,-1.));
#966=DIRECTION('',(1.,0.,0.));
#967=DIRECTION('',(0.,0.,-1.));
#968=DIRECTION('',(1.,0.,0.));
#969=DIRECTION('',(0.,0.,-1.));
#970=DIRECTION('',(1.,0.,0.));
#971=DIRECTION('',(0.,0.,-1.));
#972=DIRECTION('',(1.,0.,0.));
#973=DIRECTION('',(0.,0.,-1.));
#974=DIRECTION('',(1.,0.,0.));
#975=DIRECTION('',(0.,0.,-1.));
#976=DIRECTION('',(1.,0.,0.));
#977=DIRECTION('',(0.,0.,-1.));
#978=DIRECTION('',(1.,0.,0.));
#979=DIRECTION('',(0.,0.,-1.));
#980=DIRECTION('',(1.,0.,0.));
#981=DIRECTION('',(0.,0.,-1.));
#982=DIRECTION('',(1.,0.,0.));
#983=DIRECTION('',(0.,0.,-1.));
#984=DIRECTION('',(1.,0.,0.));
#985=DIRECTION('',(0.,0.,-1.));
#986=DIRECTION('',(1.,0.,0.));
#987=DIRECTION('',(0.,0.,-1.));
#988=DIRECTION('',(1.,0.,0.));
#989=DIRECTION('',(0.,0.,-1.));
#990=DIRECTION('',(1.,0.,0.));
#991=DIRECTION('',(0.,0.,-1.));
#992=DIRECTION('',(1.,0.,0.));
#993=DIRECTION('',(0.,0.,-1.));
#994=DIRECTION('',(1.,0.,0.));
#995=DIRECTION('',(0.,0.,-1.));
#996=DIRECTION('',(1.,0.,0.));
#997=DIRECTION('',(0.,0.,-1.));
#998=DIRECTION('',(1.,0.,0.));
#999=DIRECTION('',(0.,0.,-1.));
#1000=DIRECTION('',(1.,0.,0.));
#1001=DIRECTION('',(0.,0.,-1.));
#1002=DIRECTION('',(1.,0.,0.));
#1003=DIRECTION('',(0.,0.,-1.));
#1004=DIRECTION('',(1.,0.,0.));
#1005=DIRECTION('',(0.,0.,-1.));
#1006=DIRECTION('',(1.,0.,0.));
#1007=DIRECTION('',(0.,0.,-1.));
#1008=DIRECTION('',(1.,0.,0.));
#1009=DIRECTION('',(0.,0.,-1.));
#1010=DIRECTION('',(1.,0.,0.));
#1011=DIRECTION('',(0.,0.,-1.));
#1012=DIRECTION('',(1.,0.,0.));
#1013=DIRECTION('',(0.,0.,-1.));
#1014=DIRECTION('',(1.,0.,0.));
#1015=DIRECTION('',(0.,0.,-1.));
#1016=DIRECTION('',(1.,0.,0.));
#1017=DIRECTION('',(0.,0.,-1.));
#1018=DIRECTION('',(1.,0.,0.));
#1019=DIRECTION('',(0.,0.,-1.));
#1020=DIRECTION('',(1.,0.,0.));
#1021=DIRECTION('',(0.,0.,-1.));
#1022=DIRECTION('',(1.,0.,0.));
#1023=DIRECTION('',(0.,0.,-1.));
#1024=DIRECTION('',(1.,0.,0.));
#1025=DIRECTION('',(0.,0.,-1.));
#1026=DIRECTION('',(1.,0.,0.));
#1027=DIRECTION('',(0.,0.,-1.));
#1028=DIRECTION('',(1.,0.,0.));
#1029=DIRECTION('',(0.,0.,-1.));
#1030=DIRECTION('',(1.,0.,0.));
#1031=DIRECTION('',(0.,0.,-1.));
#1032=DIRECTION('',(1.,0.,0.));
#1033=DIRECTION('',(0.,0.,-1.));
#1034=DIRECTION('',(1.,0.,0.));
#1035=DIRECTION('',(0.,0.,-1.));
#1036=DIRECTION('',(1.,0.,0.));
#1037=DIRECTION('',(0.,0.,-1.));
#1038=DIRECTION('',(1.,0.,0.));
#1039=DIRECTION('',(0.,0.,-1.));
#1040=DIRECTION('',(1.,0.,0.));
#1041=DIRECTION('',(0.,0.,-1.));
#1042=DIRECTION('',(1.,0.,0.));
#1043=DIRECTION('',(0.,0.,-1.));
#1044=DIRECTION('',(1.,0.,0.));
#1045=DIRECTION('',(0.,0.,-1.));
#1046=DIRECTION('',(1.,0.,0.));
#1047=DIRECTION('',(0.,0.,-1.));
#1048=DIRECTION('',(1.,0.,0.));
#1049=DIRECTION('',(0.,0.,-1.));
#1050=DIRECTION('',(-1.,0.,0.));
#1051=DIRECTION('',(0.,0.,1.));
#1052=DIRECTION('',(-1.,0.,0.));
#1053=DIRECTION('',(0.,0.,1.));
#1054=DIRECTION('',(-1.,0.,0.));
#1055=DIRECTION('',(0.,0.,1.));
#1056=DIRECTION('',(1.,0.,0.));
#1057=DIRECTION('',(0.,0.,-1.));
#1058=DIRECTION('',(1.,0.,0.));
#1059=DIRECTION('',(0.,0.,-1.));
#1060=DIRECTION('',(1.,0.,0.));
#1061=DIRECTION('',(0.,0.,-1.));
#1062=DIRECTION('',(-1.,0.,0.));
#1063=DIRECTION('',(0.,0.,1.));
#1064=DIRECTION('',(1.,0.,0.));
#1065=DIRECTION('',(0.,0.,-1.));
#1066=DIRECTION('',(1.,0.,0.));
#1067=DIRECTION('',(0.,0.,-1.));
#1068=DIRECTION('',(1.,0.,0.));
#1069=DIRECTION('',(0.,0.,-1.));
#1070=DIRECTION('',(-1.,0.,0.));
#1071=DIRECTION('',(0.,0.,1.));
#1072=DIRECTION('',(-1.,0.,0.));
#1073=DIRECTION('',(0.,0.,1.));
#1074=DIRECTION('',(1.,0.,0.));
#1075=DIRECTION('',(0.,0.,-1.));
#1076=DIRECTION('',(-1.,0.,0.));
#1077=DIRECTION('',(0.,0.,1.));
#1078=DIRECTION('',(1.,0.,0.));
#1079=DIRECTION('',(0.,0.,-1.));
#1080=DIRECTION('',(1.,0.,0.));
#1081=DIRECTION('',(0.,0.,-1.));
#1082=DIRECTION('',(1.,0.,0.));
#1083=DIRECTION('',(0.,0.,-1.));
#1084=DIRECTION('',(1.,0.,0.));
#1085=DIRECTION('',(0.,0.,-1.));
#1086=DIRECTION('',(1.,0.,0.));
#1087=DIRECTION('',(0.,0.,-1.));
#1088=DIRECTION('',(1.,0.,0.));
#1089=DIRECTION('',(0.,0.,-1.));
#1090=DIRECTION('',(1.,0.,0.));
#1091=DIRECTION('',(0.,0.,-1.));
#1092=DIRECTION('',(1.,0.,0.));
#1093=DIRECTION('',(0.,0.,-1.));
#1094=DIRECTION('',(1.,0.,0.));
#1095=DIRECTION('',(0.,0.,-1.));
#1096=DIRECTION('',(1.,0.,0.));
#1097=DIRECTION('',(0.,0.,-1.));
#1098=DIRECTION('',(1.,0.,0.));
#1099=DIRECTION('',(0.,0.,-1.));
#1100=DIRECTION('',(1.,0.,0.));
#1101=DIRECTION('',(0.,0.,-1.));
#1102=DIRECTION('',(1.,0.,0.));
#1103=DIRECTION('',(0.,0.,-1.));
#1104=DIRECTION('',(1.,0.,0.));
#1105=DIRECTION('',(0.,0.,-1.));
#1106=DIRECTION('',(1.,0.,0.));
#1107=DIRECTION('',(0.,0.,-1.));
#1108=DIRECTION('',(1.,0.,0.));
#1109=DIRECTION('',(0.,0.,-1.));
#1110=DIRECTION('',(1.,0.,0.));
#1111=DIRECTION('',(0.,0.,-1.));
#1112=DIRECTION('',(1.,0.,0.));
#1113=DIRECTION('',(0.,0.,-1.));
#1114=DIRECTION('',(1.,0.,0.));
#1115=DIRECTION('',(0.,0.,-1.));
#1116=DIRECTION('',(1.,0.,0.));
#1117=DIRECTION('',(0.,0.,-1.));
#1118=DIRECTION('',(1.,0.,0.));
#1119=DIRECTION('',(0.,-1.,0.));
#1120=DIRECTION('',(1.,0.,0.));
#1121=DIRECTION('',(0.,-1.,0.));
#1122=DIRECTION('',(1.,0.,0.));
#1123=DIRECTION('',(0.,-1.,0.));
#1124=DIRECTION('',(1.,0.,0.));
#1125=DIRECTION('',(0.,-1.,0.));
#1126=DIRECTION('',(1.,0.,0.));
#1127=DIRECTION('',(0.,-1.,0.));
#1128=DIRECTION('',(1.,0.,0.));
#1129=DIRECTION('',(0.,-1.,0.));
#1130=DIRECTION('',(1.,0.,0.));
#1131=DIRECTION('',(0.,-1.,0.));
#1132=DIRECTION('',(1.,0.,0.));
#1133=DIRECTION('',(0.,-1.,0.));
#1134=DIRECTION('',(1.,0.,0.));
#1135=DIRECTION('',(0.,-1.,0.));
#1136=DIRECTION('',(-1.,0.,0.));
#1137=DIRECTION('',(0.,0.,1.));
#1138=DIRECTION('',(1.,0.,0.));
#1139=DIRECTION('',(0.,0.,-1.));
#1140=DIRECTION('',(1.,0.,0.));
#1141=DIRECTION('',(0.,0.,-1.));
#1142=DIRECTION('',(-1.,0.,0.));
#1143=DIRECTION('',(0.,0.,1.));
#1144=CARTESIAN_POINT('',(0.,0.,0.));
#1145=CARTESIAN_POINT('',(-1.0842021724855E-16,0.,0.));
#1146=CARTESIAN_POINT('',(1.84995195132798,0.,0.));
#1147=CARTESIAN_POINT('',(1.84995195132798,1.41769542384513,9.22503391843736));
#1148=CARTESIAN_POINT('',(1.84995195132798,-4.48734535127745,8.18381590759957));
#1149=CARTESIAN_POINT('',(1.84995195132799,1.41769542384514,9.22503391843735));
#1150=CARTESIAN_POINT('',(1.38030497865482,1.33283291735499,8.71066105838874));
#1151=CARTESIAN_POINT('',(0.000388262552274447,1.23490678077805,8.11453195877098));
#1152=CARTESIAN_POINT('',(-1.38030462366039,1.33283285320952,8.71066066958713));
#1153=CARTESIAN_POINT('',(-1.84995195132798,1.41769542384513,9.22503391843736));
#1154=CARTESIAN_POINT('',(-1.84995195132798,1.41769542384512,9.22503391843736));
#1155=CARTESIAN_POINT('',(-1.84995195132798,0.,0.));
#1156=CARTESIAN_POINT('',(-1.84995195132798,-4.48734535127729,8.18381590759966));
#1157=CARTESIAN_POINT('',(-1.84995195132799,-4.4873453512773,8.18381590759965));
#1158=CARTESIAN_POINT('',(-1.38030497865482,-4.23167480083045,7.72948821331217));
#1159=CARTESIAN_POINT('',(-0.000388262552274664,-3.93576617281515,7.20280280863299));
#1160=CARTESIAN_POINT('',(1.38030462366039,-4.23167460757547,7.72948786989719));
#1161=CARTESIAN_POINT('',(1.84995195132799,-4.48734535127731,8.18381590759964));
#1162=CARTESIAN_POINT('',(-1.0842021724855E-16,0.,0.));
#1163=CARTESIAN_POINT('',(1.84995195132798,0.,0.));
#1164=CARTESIAN_POINT('',(1.84995195132798,-4.84371980023784,7.97806302355998));
#1165=CARTESIAN_POINT('',(1.84995195132798,-8.69796143606246,3.38475670733974));
#1166=CARTESIAN_POINT('',(1.84995195132798,-4.84371980023785,7.97806302355997));
#1167=CARTESIAN_POINT('',(1.38030497865482,-4.57809575056551,7.52948198472971));
#1168=CARTESIAN_POINT('',(0.000388262552274013,-4.26992712431847,7.00987489332987));
#1169=CARTESIAN_POINT('',(-1.38030462366039,-4.5780955497869,7.52948164565849));
#1170=CARTESIAN_POINT('',(-1.84995195132799,-4.84371980023784,7.97806302355998));
#1171=CARTESIAN_POINT('',(-1.84995195132799,-4.84371980023786,7.97806302355997));
#1172=CARTESIAN_POINT('',(-1.84995195132798,0.,0.));
#1173=CARTESIAN_POINT('',(-1.84995195132798,-8.6979614360624,3.38475670733989));
#1174=CARTESIAN_POINT('',(-1.84995195132798,-8.69796143606241,3.38475670733988));
#1175=CARTESIAN_POINT('',(-1.38030497865482,-8.21007021899797,3.20106336376488));
#1176=CARTESIAN_POINT('',(-0.000388262552275206,-7.64484420650538,2.98780533592607));
#1177=CARTESIAN_POINT('',(1.38030462366039,-8.21006985021317,3.20106322491565));
#1178=CARTESIAN_POINT('',(1.84995195132799,-8.69796143606241,3.38475670733988));
#1179=CARTESIAN_POINT('',(-1.0842021724855E-16,0.,0.));
#1180=CARTESIAN_POINT('',(1.84995195132798,0.,0.));
#1181=CARTESIAN_POINT('',(1.84995195132798,-8.83870469784025,2.99806777366486));
#1182=CARTESIAN_POINT('',(1.84995195132798,-8.83870469784021,-2.99806777366499));
#1183=CARTESIAN_POINT('',(1.84995195132799,-8.83870469784025,2.99806777366487));
#1184=CARTESIAN_POINT('',(1.38030497865482,-8.34688253692958,2.82517460954454));
#1185=CARTESIAN_POINT('',(0.000388262552274881,-7.77681467299238,2.62521945921815));
#1186=CARTESIAN_POINT('',(-1.38030462366039,-8.34688216517348,2.8251744788589));
#1187=CARTESIAN_POINT('',(-1.84995195132799,-8.83870469784025,2.99806777366486));
#1188=CARTESIAN_POINT('',(-1.84995195132799,-8.83870469784026,2.99806777366485));
#1189=CARTESIAN_POINT('',(-1.84995195132798,0.,0.));
#1190=CARTESIAN_POINT('',(-1.84995195132798,-8.83870469784027,-2.99806777366482));
#1191=CARTESIAN_POINT('',(-1.84995195132798,-8.83870469784026,-2.99806777366484));
#1192=CARTESIAN_POINT('',(-1.38030497865482,-8.34688253692959,-2.82517460954451));
#1193=CARTESIAN_POINT('',(-0.000388262552275206,-7.77681467299238,-2.62521945921815));
#1194=CARTESIAN_POINT('',(1.38030462366039,-8.34688216517348,-2.82517447885889));
#1195=CARTESIAN_POINT('',(1.84995195132799,-8.83870469784026,-2.99806777366484));
#1196=CARTESIAN_POINT('',(-1.0842021724855E-16,0.,0.));
#1197=CARTESIAN_POINT('',(1.84995195132798,0.,0.));
#1198=CARTESIAN_POINT('',(1.84995195132798,-8.69796143606241,-3.38475670733988));
#1199=CARTESIAN_POINT('',(1.84995195132798,-4.84371980023773,-7.97806302356005));
#1200=CARTESIAN_POINT('',(1.84995195132799,-8.69796143606241,-3.38475670733987));
#1201=CARTESIAN_POINT('',(1.38030497865482,-8.21007021899797,-3.20106336376487));
#1202=CARTESIAN_POINT('',(0.000388262552277049,-7.64484420650536,-2.98780533592612));
#1203=CARTESIAN_POINT('',(-1.38030462366039,-8.21006985021317,-3.20106322491565));
#1204=CARTESIAN_POINT('',(-1.84995195132798,-8.69796143606241,-3.38475670733987));
#1205=CARTESIAN_POINT('',(-1.84995195132798,-8.6979614360624,-3.3847567073399));
#1206=CARTESIAN_POINT('',(-1.84995195132798,0.,0.));
#1207=CARTESIAN_POINT('',(-1.84995195132798,-4.84371980023788,-7.97806302355996));
#1208=CARTESIAN_POINT('',(-1.84995195132798,-4.84371980023787,-7.97806302355996));
#1209=CARTESIAN_POINT('',(-1.38030497865482,-4.57809575056553,-7.52948198472969));
#1210=CARTESIAN_POINT('',(-0.000388262552272387,-4.26992712431849,-7.00987489332986));
#1211=CARTESIAN_POINT('',(1.38030462366039,-4.57809554978692,-7.52948164565848));
#1212=CARTESIAN_POINT('',(1.84995195132799,-4.84371980023786,-7.97806302355997));
#1213=CARTESIAN_POINT('',(-1.0842021724855E-16,0.,0.));
#1214=CARTESIAN_POINT('',(1.84995195132798,0.,0.));
#1215=CARTESIAN_POINT('',(1.84995195132798,-4.4873453512773,-8.18381590759965));
#1216=CARTESIAN_POINT('',(1.84995195132798,1.41769542384526,-9.22503391843734));
#1217=CARTESIAN_POINT('',(1.84995195132799,-4.48734535127729,-8.18381590759966));
#1218=CARTESIAN_POINT('',(1.38030497865482,-4.23167480083043,-7.72948821331218));
#1219=CARTESIAN_POINT('',(0.000388262552276399,-3.93576617281513,-7.202802808633));
#1220=CARTESIAN_POINT('',(-1.38030462366039,-4.23167460757543,-7.7294878698972));
#1221=CARTESIAN_POINT('',(-1.84995195132798,-4.48734535127728,-8.18381590759966));
#1222=CARTESIAN_POINT('',(-1.84995195132798,-4.48734535127728,-8.18381590759966));
#1223=CARTESIAN_POINT('',(-1.84995195132798,0.,0.));
#1224=CARTESIAN_POINT('',(-1.84995195132798,1.41769542384508,-9.22503391843737));
#1225=CARTESIAN_POINT('',(-1.84995195132798,1.4176954238451,-9.22503391843736));
#1226=CARTESIAN_POINT('',(-1.38030497865482,1.33283291735494,-8.71066105838875));
#1227=CARTESIAN_POINT('',(-0.000388262552274989,1.23490678077801,-8.11453195877098));
#1228=CARTESIAN_POINT('',(1.38030462366039,1.3328328532095,-8.71066066958713));
#1229=CARTESIAN_POINT('',(1.84995195132799,1.41769542384511,-9.22503391843736));
#1230=CARTESIAN_POINT('',(-1.0842021724855E-16,0.,0.));
#1231=CARTESIAN_POINT('',(1.84995195132798,0.,0.));
#1232=CARTESIAN_POINT('',(1.84995195132798,1.82294949465892,-9.15357669171095));
#1233=CARTESIAN_POINT('',(1.84995195132798,7.01575520318135,-6.15550891804609));
#1234=CARTESIAN_POINT('',(1.84995195132798,1.82294949465891,-9.15357669171095));
#1235=CARTESIAN_POINT('',(1.38030497865483,1.72676828647245,-8.64119962415799));
#1236=CARTESIAN_POINT('',(0.000388262552271411,1.61490059430403,-8.04752879694404));
#1237=CARTESIAN_POINT('',(-1.38030462366039,1.72676821377147,-8.64119923686494));
#1238=CARTESIAN_POINT('',(-1.84995195132799,1.82294949465891,-9.15357669171095));
#1239=CARTESIAN_POINT('',(-1.84995195132798,1.82294949465892,-9.15357669171095));
#1240=CARTESIAN_POINT('',(-1.84995195132798,0.,0.));
#1241=CARTESIAN_POINT('',(-1.84995195132798,7.01575520318133,-6.15550891804611));
#1242=CARTESIAN_POINT('',(-1.84995195132799,7.01575520318135,-6.15550891804609));
#1243=CARTESIAN_POINT('',(-1.38030497865482,6.62011425045714,-5.81602501461345));
#1244=CARTESIAN_POINT('',(-0.000388262552274881,6.16191407868836,-5.42230933772589));
#1245=CARTESIAN_POINT('',(1.38030462366039,6.620113951402,-5.81602475800605));
#1246=CARTESIAN_POINT('',(1.84995195132798,7.01575520318134,-6.15550891804611));
#1247=CARTESIAN_POINT('',(-1.0842021724855E-16,0.,0.));
#1248=CARTESIAN_POINT('',(1.84995195132798,0.,0.));
#1249=CARTESIAN_POINT('',(1.84995195132798,7.28026601221731,-5.84027721109748));
#1250=CARTESIAN_POINT('',(1.84995195132798,9.33106515151516,-0.205752884039489));
#1251=CARTESIAN_POINT('',(1.84995195132798,7.28026601221731,-5.84027721109748));
#1252=CARTESIAN_POINT('',(1.38030497865482,6.87723730164304,-5.50959769462388));
#1253=CARTESIAN_POINT('',(0.000388262552275423,6.40993742572739,-5.12672662284489));
#1254=CARTESIAN_POINT('',(-1.38030462366039,6.87723699700369,-5.50959744467147));
#1255=CARTESIAN_POINT('',(-1.84995195132798,7.28026601221732,-5.84027721109747));
#1256=CARTESIAN_POINT('',(-1.84995195132798,7.28026601221732,-5.84027721109747));
#1257=CARTESIAN_POINT('',(-1.84995195132798,0.,0.));
#1258=CARTESIAN_POINT('',(-1.84995195132798,9.33106515151515,-0.205752884039664));
#1259=CARTESIAN_POINT('',(-1.84995195132799,9.33106515151515,-0.205752884039639));
#1260=CARTESIAN_POINT('',(-1.38030497865482,8.80977055139595,-0.200006228582416));
#1261=CARTESIAN_POINT('',(-0.000388262552274989,8.20569329713364,-0.192927915303093));
#1262=CARTESIAN_POINT('',(1.38030462366039,8.80977015736237,-0.200006224238666));
#1263=CARTESIAN_POINT('',(1.84995195132799,9.33106515151515,-0.205752884039644));
#1264=CARTESIAN_POINT('',(-1.0842021724855E-16,0.,0.));
#1265=CARTESIAN_POINT('',(-1.84995195132798,0.,0.));
#1266=CARTESIAN_POINT('',(-1.84995195132799,7.01575520318137,6.15550891804607));
#1267=CARTESIAN_POINT('',(-1.84995195132798,1.8229494946589,9.15357669171095));
#1268=CARTESIAN_POINT('',(-1.84995195132798,1.82294949465888,9.15357669171095));
#1269=CARTESIAN_POINT('',(-1.38030497865483,1.72676828647242,8.641199624158));
#1270=CARTESIAN_POINT('',(-0.000388262552271628,1.61490059430394,8.04752879694406));
#1271=CARTESIAN_POINT('',(1.38030462366039,1.72676821377143,8.64119923686495));
#1272=CARTESIAN_POINT('',(1.84995195132799,1.82294949465888,9.15357669171095));
#1273=CARTESIAN_POINT('',(1.84995195132798,1.82294949465889,9.15357669171095));
#1274=CARTESIAN_POINT('',(1.84995195132798,0.,0.));
#1275=CARTESIAN_POINT('',(1.84995195132798,7.01575520318137,6.15550891804607));
#1276=CARTESIAN_POINT('',(1.84995195132798,7.01575520318137,6.15550891804607));
#1277=CARTESIAN_POINT('',(1.38030497865482,6.62011425045716,5.81602501461343));
#1278=CARTESIAN_POINT('',(0.000388262552276073,6.1619140786884,5.42230933772584));
#1279=CARTESIAN_POINT('',(-1.38030462366039,6.62011395140203,5.81602475800601));
#1280=CARTESIAN_POINT('',(-1.84995195132798,7.01575520318137,6.15550891804607));
#1281=CARTESIAN_POINT('',(-3.25260651745651E-16,0.,0.));
#1282=CARTESIAN_POINT('',(1.84995195132798,0.,0.));
#1283=CARTESIAN_POINT('',(1.84995195132799,9.54741673754462,8.32413827877079));
#1284=CARTESIAN_POINT('',(1.84995195132798,2.43520684525768,12.4303745746158));
#1285=CARTESIAN_POINT('',(1.84995195132799,2.43520684525766,12.4303745746158));
#1286=CARTESIAN_POINT('',(1.38030265119793,2.53058705649502,12.9428955028057));
#1287=CARTESIAN_POINT('',(0.000388370911092351,2.64087075941378,13.5368403868772));
#1288=CARTESIAN_POINT('',(-1.38030230214915,2.53058712738269,12.9428958837171));
#1289=CARTESIAN_POINT('',(-1.84995195132798,2.43520684525765,12.4303745746158));
#1290=CARTESIAN_POINT('',(-1.84995195132798,2.43520684525778,12.4303745746158));
#1291=CARTESIAN_POINT('',(-1.84995195132798,0.,0.));
#1292=CARTESIAN_POINT('',(-1.84995195132798,9.54741673754464,8.32413827877078));
#1293=CARTESIAN_POINT('',(-1.84995195132799,9.54741673754465,8.32413827877077));
#1294=CARTESIAN_POINT('',(-1.38030265119793,9.94358277570958,8.66300042881559));
#1295=CARTESIAN_POINT('',(-0.000388370911089966,10.4028122823039,9.05548135920245));
#1296=CARTESIAN_POINT('',(1.38030230214916,9.94358307014472,8.66300068066187));
#1297=CARTESIAN_POINT('',(1.84995195132799,9.54741673754463,8.32413827877079));
#1298=CARTESIAN_POINT('',(-3.25260651745651E-16,0.,0.));
#1299=CARTESIAN_POINT('',(-1.84995195132798,0.,0.));
#1300=CARTESIAN_POINT('',(-1.84995195132798,1.96309259102591,12.5136210556139));
#1301=CARTESIAN_POINT('',(-1.84995195132798,-6.1246140886706,11.0875401559274));
#1302=CARTESIAN_POINT('',(-1.84995195132798,1.96309259102591,12.5136210556139));
#1303=CARTESIAN_POINT('',(-1.38030265119793,2.04875699167407,13.0278551433501));
#1304=CARTESIAN_POINT('',(-0.00038837091109311,2.14826532422593,13.6237000159444));
#1305=CARTESIAN_POINT('',(1.38030230214915,2.04875705534084,13.0278555255348));
#1306=CARTESIAN_POINT('',(1.84995195132799,1.96309259102591,12.5136210556139));
#1307=CARTESIAN_POINT('',(1.84995195132798,1.96309259102589,12.5136210556139));
#1308=CARTESIAN_POINT('',(1.84995195132798,0.,0.));
#1309=CARTESIAN_POINT('',(1.84995195132798,-6.12461408867069,11.0875401559273));
#1310=CARTESIAN_POINT('',(1.84995195132798,-6.12461408867071,11.0875401559273));
#1311=CARTESIAN_POINT('',(1.38030265119793,-6.38099071021431,11.541463182942));
#1312=CARTESIAN_POINT('',(0.000388370911092893,-6.67828890474462,12.0673403586905));
#1313=CARTESIAN_POINT('',(-1.38030230214915,-6.38099090075638,11.5414635203028));
#1314=CARTESIAN_POINT('',(-1.84995195132799,-6.12461408867072,11.0875401559273));
#1315=CARTESIAN_POINT('',(-3.25260651745651E-16,0.,0.));
#1316=CARTESIAN_POINT('',(-1.84995195132798,0.,0.));
#1317=CARTESIAN_POINT('',(-1.84995195132798,-6.53978439617777,10.8478414671286));
#1318=CARTESIAN_POINT('',(-1.84995195132798,-11.8186600230064,4.5567224739976));
#1319=CARTESIAN_POINT('',(-1.84995195132799,-6.53978439617776,10.8478414671286));
#1320=CARTESIAN_POINT('',(-1.38030265119793,-6.80470495816341,11.2968316478291));
#1321=CARTESIAN_POINT('',(-0.000388370911094085,-7.11147885436685,11.8172380246658));
#1322=CARTESIAN_POINT('',(1.38030230214915,-6.80470515505544,11.2968319815238));
#1323=CARTESIAN_POINT('',(1.84995195132798,-6.53978439617777,10.8478414671286));
#1324=CARTESIAN_POINT('',(1.84995195132798,-6.53978439617778,10.8478414671286));
#1325=CARTESIAN_POINT('',(1.84995195132798,0.,0.));
#1326=CARTESIAN_POINT('',(1.84995195132798,-11.818660023023,4.55672247395463));
#1327=CARTESIAN_POINT('',(1.8499519513278,-11.8186600230066,4.55672247399755));
#1328=CARTESIAN_POINT('',(1.38030265119772,-12.3068320068021,4.73965197070434));
#1329=CARTESIAN_POINT('',(0.00038837091093731,-12.8726029694593,4.95139766312322));
#1330=CARTESIAN_POINT('',(-1.38030230214919,-12.306832369617,4.73965210665959));
#1331=CARTESIAN_POINT('',(-1.84995195132799,-11.8186600230065,4.55672247399747));
#1332=CARTESIAN_POINT('',(-3.25260651745651E-16,0.,0.));
#1333=CARTESIAN_POINT('',(-1.84995195132798,0.,0.));
#1334=CARTESIAN_POINT('',(-1.84995195132798,-11.9826235828023,4.10623629584504));
#1335=CARTESIAN_POINT('',(-1.84995195132798,-11.9826235828023,-4.10623629584506));
#1336=CARTESIAN_POINT('',(-1.84995195132799,-11.9826235828023,4.10623629584505));
#1337=CARTESIAN_POINT('',(-1.38030265119793,-12.4741698322046,4.27989507399011));
#1338=CARTESIAN_POINT('',(-0.000388370911094953,-13.0436830417177,4.48135902767473));
#1339=CARTESIAN_POINT('',(1.38030230214915,-12.4741701975274,4.27989520305533));
#1340=CARTESIAN_POINT('',(1.84995195132798,-11.9826235828023,4.10623629584505));
#1341=CARTESIAN_POINT('',(1.84995195132798,-11.9826235828023,4.10623629584503));
#1342=CARTESIAN_POINT('',(1.84995195132798,0.,0.));
#1343=CARTESIAN_POINT('',(1.84995195132798,-11.9826235827874,-4.1062362958885));
#1344=CARTESIAN_POINT('',(1.8499519513278,-11.9826235828025,-4.10623629584512));
#1345=CARTESIAN_POINT('',(1.38030265119772,-12.4741698322047,-4.27989507399016));
#1346=CARTESIAN_POINT('',(0.00038837091093796,-13.0436830417176,-4.48135902767476));
#1347=CARTESIAN_POINT('',(-1.38030230214919,-12.4741701975274,-4.27989520305531));
#1348=CARTESIAN_POINT('',(-1.84995195132799,-11.9826235828023,-4.10623629584505));
#1349=CARTESIAN_POINT('',(-3.25260651745651E-16,0.,0.));
#1350=CARTESIAN_POINT('',(-1.84995195132798,0.,0.));
#1351=CARTESIAN_POINT('',(-1.84995195132798,-11.8186600230065,-4.55672247399746));
#1352=CARTESIAN_POINT('',(-1.84995195132798,-6.53978439617786,-10.8478414671285));
#1353=CARTESIAN_POINT('',(-1.84995195132798,-11.8186600230065,-4.55672247399746));
#1354=CARTESIAN_POINT('',(-1.38030265119793,-12.306832006802,-4.73965197070428));
#1355=CARTESIAN_POINT('',(-0.000388370911091375,-12.8726029694593,-4.95139766312323));
#1356=CARTESIAN_POINT('',(1.38030230214915,-12.306832369617,-4.73965210665958));
#1357=CARTESIAN_POINT('',(1.84995195132798,-11.8186600230065,-4.55672247399746));
#1358=CARTESIAN_POINT('',(1.84995195132798,-11.8186600230064,-4.55672247399748));
#1359=CARTESIAN_POINT('',(1.84995195132798,0.,0.));
#1360=CARTESIAN_POINT('',(1.84995195132798,-6.53978439613842,-10.8478414671523));
#1361=CARTESIAN_POINT('',(1.8499519513278,-6.53978439617785,-10.8478414671288));
#1362=CARTESIAN_POINT('',(1.38030265119772,-6.80470495816345,-11.2968316478292));
#1363=CARTESIAN_POINT('',(0.00038837091093796,-7.11147885436681,-11.8172380246658));
#1364=CARTESIAN_POINT('',(-1.38030230214918,-6.80470515505539,-11.2968319815238));
#1365=CARTESIAN_POINT('',(-1.84995195132799,-6.53978439617775,-10.8478414671286));
#1366=CARTESIAN_POINT('',(-3.25260651745651E-16,0.,0.));
#1367=CARTESIAN_POINT('',(-1.84995195132798,0.,0.));
#1368=CARTESIAN_POINT('',(-1.84995195132798,-6.12461408867073,-11.0875401559273));
#1369=CARTESIAN_POINT('',(-1.84995195132798,1.96309259102594,-12.5136210556139));
#1370=CARTESIAN_POINT('',(-1.84995195132799,-6.12461408867076,-11.0875401559273));
#1371=CARTESIAN_POINT('',(-1.38030265119793,-6.38099071021437,-11.541463182942));
#1372=CARTESIAN_POINT('',(-0.000388370911093218,-6.67828890474467,-12.0673403586904));
#1373=CARTESIAN_POINT('',(1.38030230214915,-6.38099090075641,-11.5414635203028));
#1374=CARTESIAN_POINT('',(1.84995195132799,-6.12461408867074,-11.0875401559273));
#1375=CARTESIAN_POINT('',(1.84995195132798,-6.12461408867072,-11.0875401559273));
#1376=CARTESIAN_POINT('',(1.84995195132798,0.,0.));
#1377=CARTESIAN_POINT('',(1.84995195132798,1.9630925910713,-12.5136210556068));
#1378=CARTESIAN_POINT('',(1.8499519513278,1.96309259102598,-12.5136210556141));
#1379=CARTESIAN_POINT('',(1.38030265119772,2.04875699167413,-13.0278551433502));
#1380=CARTESIAN_POINT('',(0.000388370910939478,2.148265324226,-13.6237000159443));
#1381=CARTESIAN_POINT('',(-1.38030230214918,2.04875705534087,-13.0278555255348));
#1382=CARTESIAN_POINT('',(-1.84995195132799,1.96309259102594,-12.5136210556139));
#1383=CARTESIAN_POINT('',(-3.25260651745651E-16,0.,0.));
#1384=CARTESIAN_POINT('',(-1.84995195132798,0.,0.));
#1385=CARTESIAN_POINT('',(-1.84995195132798,2.4352068452576,-12.4303745746158));
#1386=CARTESIAN_POINT('',(-1.84995195132798,9.54741673754457,-8.32413827877085));
#1387=CARTESIAN_POINT('',(-1.84995195132799,2.4352068452576,-12.4303745746158));
#1388=CARTESIAN_POINT('',(-1.38030265119793,2.53058705649495,-12.9428955028057));
#1389=CARTESIAN_POINT('',(-0.000388370911093435,2.64087075941376,-13.5368403868771));
#1390=CARTESIAN_POINT('',(1.38030230214915,2.53058712738262,-12.9428958837171));
#1391=CARTESIAN_POINT('',(1.84995195132799,2.4352068452576,-12.4303745746158));
#1392=CARTESIAN_POINT('',(1.84995195132798,2.43520684525762,-12.4303745746158));
#1393=CARTESIAN_POINT('',(1.84995195132798,0.,0.));
#1394=CARTESIAN_POINT('',(1.84995195132798,9.54741673757484,-8.32413827873614));
#1395=CARTESIAN_POINT('',(1.8499519513278,9.54741673754482,-8.32413827877089));
#1396=CARTESIAN_POINT('',(1.38030265119772,9.94358277570968,-8.66300042881563));
#1397=CARTESIAN_POINT('',(0.000388370910936334,10.4028122823039,-9.05548135920239));
#1398=CARTESIAN_POINT('',(-1.38030230214919,9.94358307014474,-8.66300068066179));
#1399=CARTESIAN_POINT('',(-1.84995195132799,9.54741673754467,-8.32413827877075));
#1400=CARTESIAN_POINT('',(-3.25260651745651E-16,0.,0.));
#1401=CARTESIAN_POINT('',(1.84995195132798,0.,0.));
#1402=CARTESIAN_POINT('',(1.84995195132798,12.6643984848485,0.239698688798785));
#1403=CARTESIAN_POINT('',(1.84995195132798,9.85556743198056,7.95689858161637));
#1404=CARTESIAN_POINT('',(1.84995195132799,9.85556743198054,7.9568985816164));
#1405=CARTESIAN_POINT('',(1.38030265119793,10.2580750151279,8.28820317264577));
#1406=CARTESIAN_POINT('',(0.000388370911092784,10.7243376452333,8.67230235282108));
#1407=CARTESIAN_POINT('',(-1.38030230214916,10.2580753142762,8.28820341887516));
#1408=CARTESIAN_POINT('',(-1.84995195132799,9.85556743198053,7.9568985816164));
#1409=CARTESIAN_POINT('',(-1.84995195132798,9.85556743198063,7.95689858161628));
#1410=CARTESIAN_POINT('',(-1.84995195132798,0.,0.));
#1411=CARTESIAN_POINT('',(-1.84995195132798,12.6643984848485,0.239698688798761));
#1412=CARTESIAN_POINT('',(-1.84995195132798,12.6643984848485,0.23969868879878));
#1413=CARTESIAN_POINT('',(-1.38030265119793,13.1856956683777,0.244631535112947));
#1414=CARTESIAN_POINT('',(-0.00038837091109376,13.7897677591115,0.25010233402465));
#1415=CARTESIAN_POINT('',(1.38030230214915,13.1856960558118,0.244631538779081));
#1416=CARTESIAN_POINT('',(1.84995195132798,12.6643984848485,0.239698688798767));
#1417=CARTESIAN_POINT('',(50.,0.,0.));
#1418=CARTESIAN_POINT('',(4.4,0.,0.));
#1419=CARTESIAN_POINT('',(4.4,0.,-16.));
#1420=CARTESIAN_POINT('',(-4.4,0.,0.));
#1421=CARTESIAN_POINT('',(-4.4,0.,16.));
#1422=CARTESIAN_POINT('',(-5.,16.,0.));
#1423=CARTESIAN_POINT('',(-5.,0.,0.));
#1424=CARTESIAN_POINT('',(-5.,0.,15.4));
#1425=CARTESIAN_POINT('',(-5.,0.,0.));
#1426=CARTESIAN_POINT('',(-5.,0.,-12.6666666666667));
#1427=CARTESIAN_POINT('',(50.,0.,0.));
#1428=CARTESIAN_POINT('',(-4.5,0.,0.));
#1429=CARTESIAN_POINT('',(-4.5,0.,-12.6666666666667));
#1430=CARTESIAN_POINT('',(-4.5,12.6666666666667,0.));
#1431=CARTESIAN_POINT('',(-4.5,0.,0.));
#1432=CARTESIAN_POINT('',(-4.5,0.,-9.33333333333333));
#1433=CARTESIAN_POINT('',(50.,0.,0.));
#1434=CARTESIAN_POINT('',(-5.,0.,0.));
#1435=CARTESIAN_POINT('',(-5.,0.,-9.33333333333333));
#1436=CARTESIAN_POINT('',(-5.,9.33333333333333,0.));
#1437=CARTESIAN_POINT('',(-5.,0.,0.));
#1438=CARTESIAN_POINT('',(-5.,0.,6.6));
#1439=CARTESIAN_POINT('',(50.,0.,0.));
#1440=CARTESIAN_POINT('',(-4.4,0.,0.));
#1441=CARTESIAN_POINT('',(-4.4,0.,6.));
#1442=CARTESIAN_POINT('',(4.4,0.,0.));
#1443=CARTESIAN_POINT('',(4.4,0.,-6.));
#1444=CARTESIAN_POINT('',(5.,6.,0.));
#1445=CARTESIAN_POINT('',(5.,0.,0.));
#1446=CARTESIAN_POINT('',(5.,0.,-6.6));
#1447=CARTESIAN_POINT('',(5.,0.,0.));
#1448=CARTESIAN_POINT('',(5.,0.,-9.33333333333333));
#1449=CARTESIAN_POINT('',(50.,0.,0.));
#1450=CARTESIAN_POINT('',(1.84995195132799,1.41769542384513,9.22503391843736));
#1451=CARTESIAN_POINT('',(1.86793658592859,1.55330533212915,9.20419350222836));
#1452=CARTESIAN_POINT('',(1.86793658592856,1.6883900224004,9.18037442665289));
#1453=CARTESIAN_POINT('',(1.84995195132799,1.82294949465889,9.15357669171095));
#1454=CARTESIAN_POINT('',(1.84995195132799,-4.84371980023784,7.97806302355998));
#1455=CARTESIAN_POINT('',(1.86793658592857,-4.72644062224528,8.0492667073264));
#1456=CARTESIAN_POINT('',(1.86793658592857,-4.60764913925848,8.11785100200627));
#1457=CARTESIAN_POINT('',(1.84995195132801,-4.48734535127745,8.18381590759957));
#1458=CARTESIAN_POINT('',(1.84995195132799,-8.83870469784026,2.99806777366486));
#1459=CARTESIAN_POINT('',(1.86793658592859,-8.79463248093455,3.12799856243169));
#1460=CARTESIAN_POINT('',(1.86793658592856,-8.74771806034195,3.25689487365665));
#1461=CARTESIAN_POINT('',(1.84995195132801,-8.69796143606246,3.38475670733974));
#1462=CARTESIAN_POINT('',(1.84995195132799,-8.69796143606241,-3.38475670733988));
#1463=CARTESIAN_POINT('',(1.86793658592859,-8.74771806034198,-3.25689487365657));
#1464=CARTESIAN_POINT('',(1.86793658592856,-8.79463248093457,-3.12799856243161));
#1465=CARTESIAN_POINT('',(1.84995195132801,-8.83870469784021,-2.99806777366499));
#1466=CARTESIAN_POINT('',(1.84995195132799,-4.4873453512773,-8.18381590759965));
#1467=CARTESIAN_POINT('',(1.86793658592857,-4.60764913925835,-8.11785100200635));
#1468=CARTESIAN_POINT('',(1.86793658592858,-4.72644062224516,-8.04926670732648));
#1469=CARTESIAN_POINT('',(1.84995195132801,-4.84371980023773,-7.97806302356005));
#1470=CARTESIAN_POINT('',(1.84995195132799,1.82294949465892,-9.15357669171095));
#1471=CARTESIAN_POINT('',(1.86793658592856,1.68839002240046,-9.18037442665288));
#1472=CARTESIAN_POINT('',(1.86793658592859,1.55330533212924,-9.20419350222835));
#1473=CARTESIAN_POINT('',(1.84995195132801,1.41769542384525,-9.22503391843734));
#1474=CARTESIAN_POINT('',(1.84995195132798,7.28026601221731,-5.84027721109748));
#1475=CARTESIAN_POINT('',(1.86793658592856,7.194412728213,-5.94729862857166));
#1476=CARTESIAN_POINT('',(1.86793658592859,7.10624245853435,-6.0523758642212));
#1477=CARTESIAN_POINT('',(1.84995195132799,7.01575520318135,-6.15550891804609));
#1478=CARTESIAN_POINT('',(1.84995195132799,9.33106515151515,0.205752884039638));
#1479=CARTESIAN_POINT('',(1.86793658592855,9.33408976150363,0.0685842946800425));
#1480=CARTESIAN_POINT('',(1.86793658592858,9.33408976150363,-0.0685842946796666));
#1481=CARTESIAN_POINT('',(1.84995195132801,9.33106515151516,-0.205752884039489));
#1482=CARTESIAN_POINT('',(1.84995195132798,9.33106515151515,0.205752884039638));
#1483=CARTESIAN_POINT('',(1.84995195132798,0.,0.));
#1484=CARTESIAN_POINT('',(1.84995195132798,7.28026601221729,5.84027721109751));
#1485=CARTESIAN_POINT('',(1.84995195132799,7.01575520318137,6.15550891804607));
#1486=CARTESIAN_POINT('',(1.86793658592856,7.10624245853421,6.05237586422136));
#1487=CARTESIAN_POINT('',(1.86793658592858,7.19441272821285,5.94729862857185));
#1488=CARTESIAN_POINT('',(1.84995195132799,7.28026601221729,5.84027721109751));
#1489=CARTESIAN_POINT('',(-1.0842021724855E-16,0.,0.));
#1490=CARTESIAN_POINT('',(-1.84995195132798,0.,0.));
#1491=CARTESIAN_POINT('',(-1.84995195132798,9.33106515151515,0.205752884039661));
#1492=CARTESIAN_POINT('',(-1.84995195132798,7.2802660122173,5.8402772110975));
#1493=CARTESIAN_POINT('',(-1.84995195132799,7.28026601221728,5.84027721109752));
#1494=CARTESIAN_POINT('',(-1.38030497865482,6.877237301643,5.50959769462392));
#1495=CARTESIAN_POINT('',(-0.000388262552275098,6.40993742572735,5.12672662284495));
#1496=CARTESIAN_POINT('',(1.38030462366039,6.87723699700365,5.50959744467151));
#1497=CARTESIAN_POINT('',(1.84995195132798,7.28026601221729,5.84027721109751));
#1498=CARTESIAN_POINT('',(1.84995195132799,9.33106515151515,0.205752884039644));
#1499=CARTESIAN_POINT('',(1.38030497865483,8.80977055139596,0.20000622858242));
#1500=CARTESIAN_POINT('',(0.000388262552270652,8.20569329713364,0.192927915303091));
#1501=CARTESIAN_POINT('',(-1.38030462366039,8.80977015736237,0.200006224238662));
#1502=CARTESIAN_POINT('',(-1.84995195132799,9.33106515151515,0.205752884039639));
#1503=CARTESIAN_POINT('',(50.,0.,0.));
#1504=CARTESIAN_POINT('',(-1.84995195132798,1.8229494946589,9.15357669171095));
#1505=CARTESIAN_POINT('',(-1.86793658592856,1.6883900224004,9.18037442665289));
#1506=CARTESIAN_POINT('',(-1.86793658592859,1.55330533212914,9.20419350222837));
#1507=CARTESIAN_POINT('',(-1.84995195132798,1.41769542384512,9.22503391843736));
#1508=CARTESIAN_POINT('',(-1.84995195132798,7.2802660122173,5.8402772110975));
#1509=CARTESIAN_POINT('',(-1.86793658592858,7.19441272821286,5.94729862857184));
#1510=CARTESIAN_POINT('',(-1.86793658592856,7.10624245853421,6.05237586422136));
#1511=CARTESIAN_POINT('',(-1.84995195132799,7.01575520318137,6.15550891804607));
#1512=CARTESIAN_POINT('',(-1.84995195132798,9.33106515151515,-0.205752884039664));
#1513=CARTESIAN_POINT('',(-1.86793658592859,9.33408976150363,-0.068584294679776));
#1514=CARTESIAN_POINT('',(-1.86793658592856,9.33408976150363,0.0685842946799993));
#1515=CARTESIAN_POINT('',(-1.84995195132798,9.33106515151515,0.205752884039661));
#1516=CARTESIAN_POINT('',(-1.84995195132798,7.01575520318133,-6.15550891804611));
#1517=CARTESIAN_POINT('',(-1.86793658592859,7.10624245853435,-6.05237586422121));
#1518=CARTESIAN_POINT('',(-1.86793658592856,7.19441272821301,-5.94729862857166));
#1519=CARTESIAN_POINT('',(-1.84995195132798,7.28026601221732,-5.84027721109747));
#1520=CARTESIAN_POINT('',(-1.84995195132798,1.41769542384508,-9.22503391843737));
#1521=CARTESIAN_POINT('',(-1.86793658592859,1.55330533212912,-9.20419350222837));
#1522=CARTESIAN_POINT('',(-1.86793658592856,1.6883900224004,-9.18037442665289));
#1523=CARTESIAN_POINT('',(-1.84995195132798,1.82294949465892,-9.15357669171095));
#1524=CARTESIAN_POINT('',(-1.84995195132798,-4.84371980023788,-7.97806302355996));
#1525=CARTESIAN_POINT('',(-1.86793658592858,-4.72644062224525,-8.04926670732643));
#1526=CARTESIAN_POINT('',(-1.86793658592858,-4.60764913925839,-8.11785100200633));
#1527=CARTESIAN_POINT('',(-1.84995195132798,-4.48734535127728,-8.18381590759966));
#1528=CARTESIAN_POINT('',(-1.84995195132798,-8.83870469784027,-2.99806777366482));
#1529=CARTESIAN_POINT('',(-1.86793658592856,-8.79463248093461,-3.1279985624315));
#1530=CARTESIAN_POINT('',(-1.86793658592859,-8.74771806034199,-3.25689487365653));
#1531=CARTESIAN_POINT('',(-1.84995195132798,-8.6979614360624,-3.3847567073399));
#1532=CARTESIAN_POINT('',(-1.84995195132798,-8.6979614360624,3.38475670733989));
#1533=CARTESIAN_POINT('',(-1.86793658592856,-8.74771806034191,3.25689487365675));
#1534=CARTESIAN_POINT('',(-1.86793658592859,-8.79463248093453,3.12799856243173));
#1535=CARTESIAN_POINT('',(-1.84995195132799,-8.83870469784026,2.99806777366485));
#1536=CARTESIAN_POINT('',(-1.84995195132798,-4.48734535127729,8.18381590759966));
#1537=CARTESIAN_POINT('',(-1.86793658592857,-4.60764913925838,8.11785100200633));
#1538=CARTESIAN_POINT('',(-1.86793658592858,-4.72644062224524,8.04926670732643));
#1539=CARTESIAN_POINT('',(-1.84995195132799,-4.84371980023786,7.97806302355997));
#1540=CARTESIAN_POINT('',(-4.,0.,0.));
#1541=CARTESIAN_POINT('',(-4.,0.,-9.33333333333333));
#1542=CARTESIAN_POINT('',(-4.,9.33333333333333,0.));
#1543=CARTESIAN_POINT('',(-4.,0.,0.));
#1544=CARTESIAN_POINT('',(-4.,0.,-12.6666666666667));
#1545=CARTESIAN_POINT('',(50.,0.,0.));
#1546=CARTESIAN_POINT('',(-1.84995195132799,1.96309259102591,12.5136210556139));
#1547=CARTESIAN_POINT('',(-1.86793601067455,2.12098921031633,12.488850792706));
#1548=CARTESIAN_POINT('',(-1.86793601067454,2.27836062839362,12.4611019657067));
#1549=CARTESIAN_POINT('',(-1.84995195132797,2.43520684525778,12.4303745746158));
#1550=CARTESIAN_POINT('',(-1.84995195132799,-6.53978439617777,10.8478414671286));
#1551=CARTESIAN_POINT('',(-1.86793601067455,-6.40290655029722,10.9303603353647));
#1552=CARTESIAN_POINT('',(-1.86793601067454,-6.26451644779483,11.0102598982976));
#1553=CARTESIAN_POINT('',(-1.84995195132797,-6.12461408867061,11.0875401559274));
#1554=CARTESIAN_POINT('',(-1.84995195132798,-11.9826235828023,4.10623629584504));
#1555=CARTESIAN_POINT('',(-1.86793601067455,-11.9308111756469,4.25743279968237));
#1556=CARTESIAN_POINT('',(-1.86793601067454,-11.8761566557149,4.40759485906655));
#1557=CARTESIAN_POINT('',(-1.84995195132797,-11.8186600230064,4.5567224739976));
#1558=CARTESIAN_POINT('',(-1.84995195132799,-11.8186600230065,-4.55672247399746));
#1559=CARTESIAN_POINT('',(-1.86793601067454,-11.876156655715,-4.40759485906641));
#1560=CARTESIAN_POINT('',(-1.86793601067454,-11.9308111756469,-4.25743279968228));
#1561=CARTESIAN_POINT('',(-1.84995195132799,-11.9826235828023,-4.10623629584506));
#1562=CARTESIAN_POINT('',(-1.84995195132799,-6.12461408867073,-11.0875401559273));
#1563=CARTESIAN_POINT('',(-1.86793601067454,-6.26451644779495,-11.0102598982975));
#1564=CARTESIAN_POINT('',(-1.86793601067455,-6.40290655029732,-10.9303603353646));
#1565=CARTESIAN_POINT('',(-1.84995195132797,-6.53978439617786,-10.8478414671285));
#1566=CARTESIAN_POINT('',(-1.84995195132799,2.4352068452576,-12.4303745746158));
#1567=CARTESIAN_POINT('',(-1.86793601067454,2.27836062839351,-12.4611019657067));
#1568=CARTESIAN_POINT('',(-1.86793601067454,2.12098921031629,-12.488850792706));
#1569=CARTESIAN_POINT('',(-1.84995195132799,1.96309259102594,-12.5136210556139));
#1570=CARTESIAN_POINT('',(-1.84995195132799,9.85556743198051,-7.95689858161643));
#1571=CARTESIAN_POINT('',(-1.86793601067454,9.75516744539871,-8.08125593363962));
#1572=CARTESIAN_POINT('',(-1.86793601067455,9.6524505472534,-8.20366916602442));
#1573=CARTESIAN_POINT('',(-1.84995195132797,9.54741673754458,-8.32413827877085));
#1574=CARTESIAN_POINT('',(-1.84995195132798,9.85556743198051,-7.95689858161643));
#1575=CARTESIAN_POINT('',(-1.84995195132798,0.,0.));
#1576=CARTESIAN_POINT('',(-1.84995195132798,12.6643984848485,-0.239698688798896));
#1577=CARTESIAN_POINT('',(-1.84995195132799,12.6643984848485,0.239698688798761));
#1578=CARTESIAN_POINT('',(-1.86793601067455,12.6674229980922,0.0798995629329048));
#1579=CARTESIAN_POINT('',(-1.86793601067455,12.6674229980922,-0.079899562932981));
#1580=CARTESIAN_POINT('',(-1.84995195132797,12.6643984848485,-0.239698688798896));
#1581=CARTESIAN_POINT('',(-1.84995195132799,9.54741673754464,8.32413827877078));
#1582=CARTESIAN_POINT('',(-1.86793601067455,9.65245054725346,8.20366916602435));
#1583=CARTESIAN_POINT('',(-1.86793601067455,9.7551674453988,8.08125593363952));
#1584=CARTESIAN_POINT('',(-1.84995195132797,9.85556743198063,7.95689858161629));
#1585=CARTESIAN_POINT('',(-3.25260651745651E-16,0.,0.));
#1586=CARTESIAN_POINT('',(-1.84995195132799,9.85556743198051,-7.95689858161644));
#1587=CARTESIAN_POINT('',(-1.38030265119792,10.2580750151279,-8.28820317264582));
#1588=CARTESIAN_POINT('',(-0.000388370911101783,10.7243376452333,-8.67230235282112));
#1589=CARTESIAN_POINT('',(1.38030230214915,10.2580753142762,-8.2882034188752));
#1590=CARTESIAN_POINT('',(1.84995195132798,9.85556743198051,-7.95689858161643));
#1591=CARTESIAN_POINT('',(1.84995195132798,9.85556743198052,-7.95689858161641));
#1592=CARTESIAN_POINT('',(1.84995195132798,0.,0.));
#1593=CARTESIAN_POINT('',(1.84995195132798,12.6643984848494,-0.239698688752848));
#1594=CARTESIAN_POINT('',(1.8499519513278,12.6643984848487,-0.239698688798775));
#1595=CARTESIAN_POINT('',(1.38030265119772,13.1856956683778,-0.244631535112941));
#1596=CARTESIAN_POINT('',(0.000388370910939153,13.7897677591114,-0.250102334024657));
#1597=CARTESIAN_POINT('',(-1.38030230214919,13.1856960558118,-0.244631538779076));
#1598=CARTESIAN_POINT('',(-1.84995195132799,12.6643984848485,-0.239698688798761));
#1599=CARTESIAN_POINT('',(50.,0.,0.));
#1600=CARTESIAN_POINT('',(1.84995195132798,2.43520684525768,12.4303745746158));
#1601=CARTESIAN_POINT('',(1.86793601067455,2.27836062839355,12.4611019657067));
#1602=CARTESIAN_POINT('',(1.86793601067455,2.12098921031628,12.488850792706));
#1603=CARTESIAN_POINT('',(1.84995195132798,1.96309259102589,12.5136210556139));
#1604=CARTESIAN_POINT('',(1.84995195132798,9.85556743198056,7.95689858161637));
#1605=CARTESIAN_POINT('',(1.86793601067455,9.75516744539874,8.08125593363958));
#1606=CARTESIAN_POINT('',(1.86793601067455,9.65245054725343,8.20366916602439));
#1607=CARTESIAN_POINT('',(1.84995195132799,9.54741673754462,8.3241382787708));
#1608=CARTESIAN_POINT('',(1.84995195133315,12.6643984848494,-0.239698688752848));
#1609=CARTESIAN_POINT('',(1.8679360106745,12.6674229980922,-0.0798995629022743));
#1610=CARTESIAN_POINT('',(1.86793601067282,12.6674229980919,0.07989956294827));
#1611=CARTESIAN_POINT('',(1.84995195132798,12.6643984848485,0.239698688798785));
#1612=CARTESIAN_POINT('',(1.84995195133315,9.54741673757484,-8.32413827873614));
#1613=CARTESIAN_POINT('',(1.86793601067449,9.65245054727314,-8.2036691660009));
#1614=CARTESIAN_POINT('',(1.86793601067282,9.75516744540836,-8.08125593362766));
#1615=CARTESIAN_POINT('',(1.84995195132798,9.85556743198052,-7.95689858161641));
#1616=CARTESIAN_POINT('',(1.84995195133315,1.9630925910713,-12.5136210556068));
#1617=CARTESIAN_POINT('',(1.86793601067449,2.12098921034644,-12.4888507927007));
#1618=CARTESIAN_POINT('',(1.86793601067282,2.27836062840855,-12.4611019657037));
#1619=CARTESIAN_POINT('',(1.84995195132798,2.43520684525762,-12.4303745746158));
#1620=CARTESIAN_POINT('',(1.84995195133315,-6.53978439613842,-10.8478414671523));
#1621=CARTESIAN_POINT('',(1.86793601067449,-6.40290655027073,-10.93036033538));
#1622=CARTESIAN_POINT('',(1.86793601067282,-6.2645164477815,-11.010259898305));
#1623=CARTESIAN_POINT('',(1.84995195132798,-6.12461408867072,-11.0875401559273));
#1624=CARTESIAN_POINT('',(1.84995195133315,-11.9826235827874,-4.1062362958885));
#1625=CARTESIAN_POINT('',(1.86793601067449,-11.9308111756365,-4.25743279971104));
#1626=CARTESIAN_POINT('',(1.86793601067282,-11.8761566557095,-4.4075948590807));
#1627=CARTESIAN_POINT('',(1.84995195132798,-11.8186600230064,-4.55672247399748));
#1628=CARTESIAN_POINT('',(1.84995195133315,-11.818660023023,4.55672247395463));
#1629=CARTESIAN_POINT('',(1.86793601067449,-11.8761566557254,4.4075948590377));
#1630=CARTESIAN_POINT('',(1.86793601067282,-11.9308111756519,4.25743279966784));
#1631=CARTESIAN_POINT('',(1.84995195132798,-11.9826235828023,4.10623629584503));
#1632=CARTESIAN_POINT('',(1.84995195132798,-6.12461408867069,11.0875401559273));
#1633=CARTESIAN_POINT('',(1.86793601067454,-6.26451644779489,11.0102598982976));
#1634=CARTESIAN_POINT('',(1.86793601067455,-6.40290655029725,10.9303603353647));
#1635=CARTESIAN_POINT('',(1.84995195132798,-6.53978439617778,10.8478414671286));
#1636=CARTESIAN_POINT('',(5.,0.,0.));
#1637=CARTESIAN_POINT('',(5.,0.,-12.6666666666667));
#1638=CARTESIAN_POINT('',(5.,12.6666666666667,0.));
#1639=CARTESIAN_POINT('',(5.,0.,0.));
#1640=CARTESIAN_POINT('',(5.,0.,-15.4));
#1641=CARTESIAN_POINT('',(0.,11.,0.));
#1642=CARTESIAN_POINT('',(0.,8.42648887430876,7.07066370655193));
#1643=CARTESIAN_POINT('',(0.,8.42648887430875,-7.07066370655193));
#1644=CARTESIAN_POINT('',(0.,1.91012995433623,-10.8328852831343));
#1645=CARTESIAN_POINT('',(0.,-5.5,-9.52627944162882));
#1646=CARTESIAN_POINT('',(0.,-10.336618828645,-3.76222157658235));
#1647=CARTESIAN_POINT('',(0.,-10.336618828645,3.76222157658236));
#1648=CARTESIAN_POINT('',(0.,-5.5,9.52627944162882));
#1649=CARTESIAN_POINT('',(0.,1.91012995433624,10.8328852831343));
#1650=CARTESIAN_POINT('',(-4.4,0.,0.));
#1651=CARTESIAN_POINT('',(4.4,0.,0.));
#1652=CARTESIAN_POINT('',(4.4,0.,0.));
#1653=CARTESIAN_POINT('',(-4.4,0.,0.));
#1654=MECHANICAL_DESIGN_GEOMETRIC_PRESENTATION_REPRESENTATION('',(#839),
#1655);
#1655=(
GEOMETRIC_REPRESENTATION_CONTEXT(3)
GLOBAL_UNCERTAINTY_ASSIGNED_CONTEXT((#1656))
GLOBAL_UNIT_ASSIGNED_CONTEXT((#1659,#1658,#1657))
REPRESENTATION_CONTEXT('BAU6201Z','TOP_LEVEL_ASSEMBLY_PART')
);
#1656=UNCERTAINTY_MEASURE_WITH_UNIT(LENGTH_MEASURE(1.E-5),#1659,
'DISTANCE_ACCURACY_VALUE','Maximum Tolerance applied to model');
#1657=(
NAMED_UNIT(*)
SI_UNIT($,.STERADIAN.)
SOLID_ANGLE_UNIT()
);
#1658=(
NAMED_UNIT(*)
PLANE_ANGLE_UNIT()
SI_UNIT($,.RADIAN.)
);
#1659=(
LENGTH_UNIT()
NAMED_UNIT(*)
SI_UNIT(.MILLI.,.METRE.)
);
#1660=PRODUCT_DEFINITION_SHAPE('','',#1661);
#1661=PRODUCT_DEFINITION('','',#1663,#1662);
#1662=PRODUCT_DEFINITION_CONTEXT('',#1669,'design');
#1663=PRODUCT_DEFINITION_FORMATION_WITH_SPECIFIED_SOURCE('','',#1665,
 .NOT_KNOWN.);
#1664=PRODUCT_RELATED_PRODUCT_CATEGORY('','',(#1665));
#1665=PRODUCT('BAU6201Z','BAU6201Z','BAU6201Z',(#1667));
#1666=PRODUCT_CATEGORY('','');
#1667=PRODUCT_CONTEXT('',#1669,'mechanical');
#1668=APPLICATION_PROTOCOL_DEFINITION('international standard',
'automotive_design',2010,#1669);
#1669=APPLICATION_CONTEXT(
'core data for automotive mechanical design processes');
ENDSEC;
END-ISO-10303-21;
