ISO-10303-21;
HEADER;
/* Generated by software containing ST-Developer
 * from STEP Tools, Inc. (www.steptools.com) 
 */

FILE_DESCRIPTION(
/* description */ (
'\X2\6EDA52A88F74627F\X0\ - \X2\5E265BC65C01570876846DF16C9F74038F74627F\X0\ 
- \X2\59165F625C3A5BF8\X0\'),
/* implementation_level */ '2;1');

FILE_NAME(
/* name */ 
'C:\\Users\\86159\\Desktop\\P1\X2\673A68B056FE5143\X0\-\X2\9F7F8F6E8F7488C5914D7EC44EF6\X0\\\
\X2\8F74627F\X0\ 6004-2Z GB_T 276-94.stp',
/* time_stamp */ '2026-08-04T22:43:31+08:00',
/* author */ ('86159'),
/* organization */ (''),
/* preprocessor_version */ 'ST-DEVELOPER v18.1',
/* originating_system */ 'Autodesk Inventor 2021',
/* authorisation */ '');

FILE_SCHEMA (('AUTOMOTIVE_DESIGN { 1 0 10303 214 3 1 1 }'));
ENDSEC;

DATA;
#10=MECHANICAL_DESIGN_GEOMETRIC_PRESENTATION_REPRESENTATION('',(#73,#74,
#75,#76,#77,#78,#79,#80,#81,#82,#83),#1925);
#11=SHAPE_REPRESENTATION_RELATIONSHIP('SRR','None',#1932,#12);
#12=ADVANCED_BREP_SHAPE_REPRESENTATION('',(#84,#85,#86,#87,#88,#89,#90,
#91,#92,#93,#94),#1924);
#13=TOROIDAL_SURFACE('',#1103,15.5,2.86);
#14=TOROIDAL_SURFACE('',#1109,10.6,0.6);
#15=TOROIDAL_SURFACE('',#1121,10.6,0.6);
#16=TOROIDAL_SURFACE('',#1123,15.5,2.86);
#17=TOROIDAL_SURFACE('',#1125,15.5,2.86);
#18=TOROIDAL_SURFACE('',#1127,15.5,2.86);
#19=TOROIDAL_SURFACE('',#1129,15.5,2.86);
#20=TOROIDAL_SURFACE('',#1131,15.5,2.86);
#21=TOROIDAL_SURFACE('',#1133,15.5,2.86);
#22=TOROIDAL_SURFACE('',#1135,15.5,2.86);
#23=TOROIDAL_SURFACE('',#1137,15.5,2.86);
#24=TOROIDAL_SURFACE('',#1180,15.5,2.86);
#25=TOROIDAL_SURFACE('',#1186,20.4,0.6);
#26=TOROIDAL_SURFACE('',#1198,20.4,0.6);
#27=TOROIDAL_SURFACE('',#1200,15.5,2.86);
#28=TOROIDAL_SURFACE('',#1202,15.5,2.86);
#29=TOROIDAL_SURFACE('',#1204,15.5,2.86);
#30=TOROIDAL_SURFACE('',#1206,15.5,2.86);
#31=TOROIDAL_SURFACE('',#1208,15.5,2.86);
#32=TOROIDAL_SURFACE('',#1210,15.5,2.86);
#33=TOROIDAL_SURFACE('',#1212,15.5,2.86);
#34=TOROIDAL_SURFACE('',#1214,15.5,2.86);
#35=PLANE('',#1078);
#36=PLANE('',#1089);
#37=PLANE('',#1106);
#38=PLANE('',#1114);
#39=PLANE('',#1155);
#40=PLANE('',#1166);
#41=PLANE('',#1183);
#42=PLANE('',#1191);
#43=LINE('',#1687,#53);
#44=LINE('',#1705,#54);
#45=LINE('',#1715,#55);
#46=LINE('',#1726,#56);
#47=LINE('',#1769,#57);
#48=LINE('',#1807,#58);
#49=LINE('',#1837,#59);
#50=LINE('',#1844,#60);
#51=LINE('',#1866,#61);
#52=LINE('',#1903,#62);
#53=VECTOR('',#1295,13.586);
#54=VECTOR('',#1316,12.9067);
#55=VECTOR('',#1327,12.9067);
#56=VECTOR('',#1340,13.586);
#57=VECTOR('',#1391,10.);
#58=VECTOR('',#1444,17.414);
#59=VECTOR('',#1477,18.0933);
#60=VECTOR('',#1484,18.0933);
#61=VECTOR('',#1509,17.414);
#62=VECTOR('',#1554,21.);
#63=CYLINDRICAL_SURFACE('',#1065,13.586);
#64=CYLINDRICAL_SURFACE('',#1081,12.9067);
#65=CYLINDRICAL_SURFACE('',#1084,12.9067);
#66=CYLINDRICAL_SURFACE('',#1092,13.586);
#67=CYLINDRICAL_SURFACE('',#1117,10.);
#68=CYLINDRICAL_SURFACE('',#1142,17.414);
#69=CYLINDRICAL_SURFACE('',#1158,18.0933);
#70=CYLINDRICAL_SURFACE('',#1161,18.0933);
#71=CYLINDRICAL_SURFACE('',#1169,17.414);
#72=CYLINDRICAL_SURFACE('',#1194,21.);
#73=STYLED_ITEM('',(#1941),#84);
#74=STYLED_ITEM('',(#1941),#85);
#75=STYLED_ITEM('',(#1941),#86);
#76=STYLED_ITEM('',(#1941),#87);
#77=STYLED_ITEM('',(#1941),#88);
#78=STYLED_ITEM('',(#1941),#89);
#79=STYLED_ITEM('',(#1941),#90);
#80=STYLED_ITEM('',(#1941),#91);
#81=STYLED_ITEM('',(#1941),#92);
#82=STYLED_ITEM('',(#1941),#93);
#83=STYLED_ITEM('',(#1941),#94);
#84=MANIFOLD_SOLID_BREP('Solid1',#1003);
#85=MANIFOLD_SOLID_BREP('Solid1',#1004);
#86=MANIFOLD_SOLID_BREP('Solid1',#1005);
#87=MANIFOLD_SOLID_BREP('Solid1',#1006);
#88=MANIFOLD_SOLID_BREP('Solid1',#1007);
#89=MANIFOLD_SOLID_BREP('Solid1',#1008);
#90=MANIFOLD_SOLID_BREP('Solid1',#1009);
#91=MANIFOLD_SOLID_BREP('Solid1',#1010);
#92=MANIFOLD_SOLID_BREP('Solid1',#1011);
#93=MANIFOLD_SOLID_BREP('Solid1',#1012);
#94=MANIFOLD_SOLID_BREP('Solid1',#1013);
#95=FACE_BOUND('',#171,.T.);
#96=FACE_BOUND('',#172,.T.);
#97=FACE_BOUND('',#174,.T.);
#98=FACE_BOUND('',#175,.T.);
#99=FACE_BOUND('',#177,.T.);
#100=FACE_BOUND('',#178,.T.);
#101=FACE_BOUND('',#180,.T.);
#102=FACE_BOUND('',#181,.T.);
#103=FACE_BOUND('',#183,.T.);
#104=FACE_BOUND('',#184,.T.);
#105=FACE_BOUND('',#186,.T.);
#106=FACE_BOUND('',#187,.T.);
#107=FACE_BOUND('',#189,.T.);
#108=FACE_BOUND('',#190,.T.);
#109=FACE_BOUND('',#192,.T.);
#110=FACE_BOUND('',#193,.T.);
#111=FACE_BOUND('',#196,.T.);
#112=FACE_BOUND('',#200,.T.);
#113=FACE_BOUND('',#204,.T.);
#114=FACE_BOUND('',#207,.T.);
#115=FACE_BOUND('',#219,.T.);
#116=FACE_BOUND('',#220,.T.);
#117=FACE_BOUND('',#223,.T.);
#118=FACE_BOUND('',#227,.T.);
#119=FACE_BOUND('',#231,.T.);
#120=FACE_BOUND('',#234,.T.);
#121=FACE_OUTER_BOUND('',#170,.T.);
#122=FACE_OUTER_BOUND('',#173,.T.);
#123=FACE_OUTER_BOUND('',#176,.T.);
#124=FACE_OUTER_BOUND('',#179,.T.);
#125=FACE_OUTER_BOUND('',#182,.T.);
#126=FACE_OUTER_BOUND('',#185,.T.);
#127=FACE_OUTER_BOUND('',#188,.T.);
#128=FACE_OUTER_BOUND('',#191,.T.);
#129=FACE_OUTER_BOUND('',#194,.T.);
#130=FACE_OUTER_BOUND('',#195,.T.);
#131=FACE_OUTER_BOUND('',#197,.T.);
#132=FACE_OUTER_BOUND('',#198,.T.);
#133=FACE_OUTER_BOUND('',#199,.T.);
#134=FACE_OUTER_BOUND('',#201,.T.);
#135=FACE_OUTER_BOUND('',#202,.T.);
#136=FACE_OUTER_BOUND('',#203,.T.);
#137=FACE_OUTER_BOUND('',#205,.T.);
#138=FACE_OUTER_BOUND('',#206,.T.);
#139=FACE_OUTER_BOUND('',#208,.T.);
#140=FACE_OUTER_BOUND('',#209,.T.);
#141=FACE_OUTER_BOUND('',#210,.T.);
#142=FACE_OUTER_BOUND('',#211,.T.);
#143=FACE_OUTER_BOUND('',#212,.T.);
#144=FACE_OUTER_BOUND('',#213,.T.);
#145=FACE_OUTER_BOUND('',#214,.T.);
#146=FACE_OUTER_BOUND('',#215,.T.);
#147=FACE_OUTER_BOUND('',#216,.T.);
#148=FACE_OUTER_BOUND('',#217,.T.);
#149=FACE_OUTER_BOUND('',#218,.T.);
#150=FACE_OUTER_BOUND('',#221,.T.);
#151=FACE_OUTER_BOUND('',#222,.T.);
#152=FACE_OUTER_BOUND('',#224,.T.);
#153=FACE_OUTER_BOUND('',#225,.T.);
#154=FACE_OUTER_BOUND('',#226,.T.);
#155=FACE_OUTER_BOUND('',#228,.T.);
#156=FACE_OUTER_BOUND('',#229,.T.);
#157=FACE_OUTER_BOUND('',#230,.T.);
#158=FACE_OUTER_BOUND('',#232,.T.);
#159=FACE_OUTER_BOUND('',#233,.T.);
#160=FACE_OUTER_BOUND('',#235,.T.);
#161=FACE_OUTER_BOUND('',#236,.T.);
#162=FACE_OUTER_BOUND('',#237,.T.);
#163=FACE_OUTER_BOUND('',#238,.T.);
#164=FACE_OUTER_BOUND('',#239,.T.);
#165=FACE_OUTER_BOUND('',#240,.T.);
#166=FACE_OUTER_BOUND('',#241,.T.);
#167=FACE_OUTER_BOUND('',#242,.T.);
#168=FACE_OUTER_BOUND('',#243,.T.);
#169=FACE_OUTER_BOUND('',#244,.T.);
#170=EDGE_LOOP('',(#659,#660));
#171=EDGE_LOOP('',(#661,#662));
#172=EDGE_LOOP('',(#663,#664));
#173=EDGE_LOOP('',(#665,#666));
#174=EDGE_LOOP('',(#667,#668));
#175=EDGE_LOOP('',(#669,#670));
#176=EDGE_LOOP('',(#671,#672));
#177=EDGE_LOOP('',(#673,#674));
#178=EDGE_LOOP('',(#675,#676));
#179=EDGE_LOOP('',(#677,#678));
#180=EDGE_LOOP('',(#679,#680));
#181=EDGE_LOOP('',(#681,#682));
#182=EDGE_LOOP('',(#683,#684));
#183=EDGE_LOOP('',(#685,#686));
#184=EDGE_LOOP('',(#687,#688));
#185=EDGE_LOOP('',(#689,#690));
#186=EDGE_LOOP('',(#691,#692));
#187=EDGE_LOOP('',(#693,#694));
#188=EDGE_LOOP('',(#695,#696));
#189=EDGE_LOOP('',(#697,#698));
#190=EDGE_LOOP('',(#699,#700));
#191=EDGE_LOOP('',(#701,#702));
#192=EDGE_LOOP('',(#703,#704));
#193=EDGE_LOOP('',(#705,#706));
#194=EDGE_LOOP('',(#707,#708,#709,#710,#711,#712,#713,#714,#715,#716,#717,
#718,#719,#720));
#195=EDGE_LOOP('',(#721,#722));
#196=EDGE_LOOP('',(#723,#724));
#197=EDGE_LOOP('',(#725,#726,#727,#728,#729,#730));
#198=EDGE_LOOP('',(#731,#732,#733,#734,#735,#736));
#199=EDGE_LOOP('',(#737,#738));
#200=EDGE_LOOP('',(#739,#740));
#201=EDGE_LOOP('',(#741,#742,#743,#744,#745,#746,#747,#748,#749,#750,#751,
#752,#753,#754));
#202=EDGE_LOOP('',(#755,#756,#757,#758));
#203=EDGE_LOOP('',(#759,#760));
#204=EDGE_LOOP('',(#761,#762));
#205=EDGE_LOOP('',(#763,#764,#765,#766,#767,#768,#769));
#206=EDGE_LOOP('',(#770,#771));
#207=EDGE_LOOP('',(#772,#773));
#208=EDGE_LOOP('',(#774,#775,#776,#777,#778,#779,#780,#781));
#209=EDGE_LOOP('',(#782,#783,#784,#785,#786,#787,#788));
#210=EDGE_LOOP('',(#789,#790,#791,#792));
#211=EDGE_LOOP('',(#793,#794,#795,#796));
#212=EDGE_LOOP('',(#797,#798,#799,#800));
#213=EDGE_LOOP('',(#801,#802,#803,#804,#805,#806));
#214=EDGE_LOOP('',(#807,#808,#809,#810));
#215=EDGE_LOOP('',(#811,#812,#813,#814));
#216=EDGE_LOOP('',(#815,#816,#817,#818));
#217=EDGE_LOOP('',(#819,#820,#821,#822));
#218=EDGE_LOOP('',(#823,#824));
#219=EDGE_LOOP('',(#825,#826));
#220=EDGE_LOOP('',(#827,#828));
#221=EDGE_LOOP('',(#829,#830,#831,#832,#833,#834,#835,#836,#837,#838,#839,
#840,#841,#842));
#222=EDGE_LOOP('',(#843,#844));
#223=EDGE_LOOP('',(#845,#846));
#224=EDGE_LOOP('',(#847,#848,#849,#850,#851,#852));
#225=EDGE_LOOP('',(#853,#854,#855,#856,#857,#858));
#226=EDGE_LOOP('',(#859,#860));
#227=EDGE_LOOP('',(#861,#862));
#228=EDGE_LOOP('',(#863,#864,#865,#866,#867,#868,#869,#870,#871,#872,#873,
#874,#875,#876));
#229=EDGE_LOOP('',(#877,#878,#879,#880));
#230=EDGE_LOOP('',(#881,#882));
#231=EDGE_LOOP('',(#883,#884));
#232=EDGE_LOOP('',(#885,#886,#887,#888,#889,#890,#891));
#233=EDGE_LOOP('',(#892,#893));
#234=EDGE_LOOP('',(#894,#895));
#235=EDGE_LOOP('',(#896,#897,#898,#899,#900,#901,#902,#903));
#236=EDGE_LOOP('',(#904,#905,#906,#907,#908,#909,#910));
#237=EDGE_LOOP('',(#911,#912,#913,#914));
#238=EDGE_LOOP('',(#915,#916,#917,#918));
#239=EDGE_LOOP('',(#919,#920,#921,#922));
#240=EDGE_LOOP('',(#923,#924,#925,#926,#927,#928));
#241=EDGE_LOOP('',(#929,#930,#931,#932));
#242=EDGE_LOOP('',(#933,#934,#935,#936));
#243=EDGE_LOOP('',(#937,#938,#939,#940));
#244=EDGE_LOOP('',(#941,#942,#943,#944));
#245=CIRCLE('',#1034,2.86);
#246=CIRCLE('',#1035,2.86);
#247=CIRCLE('',#1036,2.86);
#248=CIRCLE('',#1038,2.86);
#249=CIRCLE('',#1039,2.86);
#250=CIRCLE('',#1040,2.86);
#251=CIRCLE('',#1042,2.86);
#252=CIRCLE('',#1043,2.86);
#253=CIRCLE('',#1044,2.86);
#254=CIRCLE('',#1046,2.86);
#255=CIRCLE('',#1047,2.86);
#256=CIRCLE('',#1048,2.86);
#257=CIRCLE('',#1050,2.86);
#258=CIRCLE('',#1051,2.86);
#259=CIRCLE('',#1052,2.86);
#260=CIRCLE('',#1054,2.86);
#261=CIRCLE('',#1055,2.86);
#262=CIRCLE('',#1056,2.86);
#263=CIRCLE('',#1058,2.86);
#264=CIRCLE('',#1059,2.86);
#265=CIRCLE('',#1060,2.86);
#266=CIRCLE('',#1062,2.86);
#267=CIRCLE('',#1063,2.86);
#268=CIRCLE('',#1064,2.86);
#269=CIRCLE('',#1066,13.586);
#270=CIRCLE('',#1067,13.586);
#271=CIRCLE('',#1068,13.586);
#272=CIRCLE('',#1069,13.586);
#273=CIRCLE('',#1070,13.586);
#274=CIRCLE('',#1071,13.586);
#275=CIRCLE('',#1072,13.586);
#276=CIRCLE('',#1073,13.586);
#277=CIRCLE('',#1074,13.586);
#278=CIRCLE('',#1075,13.586);
#279=CIRCLE('',#1076,13.586);
#280=CIRCLE('',#1077,13.586);
#281=CIRCLE('',#1079,12.9067);
#282=CIRCLE('',#1080,12.9067);
#283=CIRCLE('',#1082,12.9067);
#284=CIRCLE('',#1083,12.9067);
#285=CIRCLE('',#1085,12.9067);
#286=CIRCLE('',#1086,12.9067);
#287=CIRCLE('',#1087,12.9067);
#288=CIRCLE('',#1088,12.9067);
#289=CIRCLE('',#1090,13.586);
#290=CIRCLE('',#1091,13.586);
#291=CIRCLE('',#1093,13.586);
#292=CIRCLE('',#1094,13.586);
#293=CIRCLE('',#1095,13.586);
#294=CIRCLE('',#1096,13.586);
#295=CIRCLE('',#1097,13.586);
#296=CIRCLE('',#1098,13.586);
#297=CIRCLE('',#1099,13.586);
#298=CIRCLE('',#1100,13.586);
#299=CIRCLE('',#1101,13.586);
#300=CIRCLE('',#1102,13.586);
#301=CIRCLE('',#1104,2.86);
#302=CIRCLE('',#1105,2.86);
#303=CIRCLE('',#1107,10.6);
#304=CIRCLE('',#1108,10.6);
#305=CIRCLE('',#1110,10.);
#306=CIRCLE('',#1111,10.);
#307=CIRCLE('',#1112,0.6);
#308=CIRCLE('',#1113,10.);
#309=CIRCLE('',#1115,10.6);
#310=CIRCLE('',#1116,10.6);
#311=CIRCLE('',#1118,10.);
#312=CIRCLE('',#1119,10.);
#313=CIRCLE('',#1120,10.);
#314=CIRCLE('',#1122,0.6);
#315=CIRCLE('',#1124,2.86);
#316=CIRCLE('',#1126,2.86);
#317=CIRCLE('',#1128,2.86);
#318=CIRCLE('',#1130,2.86);
#319=CIRCLE('',#1132,2.86);
#320=CIRCLE('',#1134,2.86);
#321=CIRCLE('',#1136,2.86);
#322=CIRCLE('',#1139,2.86);
#323=CIRCLE('',#1140,2.86);
#324=CIRCLE('',#1141,2.86);
#325=CIRCLE('',#1143,17.414);
#326=CIRCLE('',#1144,17.414);
#327=CIRCLE('',#1145,17.414);
#328=CIRCLE('',#1146,17.414);
#329=CIRCLE('',#1147,17.414);
#330=CIRCLE('',#1148,17.414);
#331=CIRCLE('',#1149,17.414);
#332=CIRCLE('',#1150,17.414);
#333=CIRCLE('',#1151,17.414);
#334=CIRCLE('',#1152,17.414);
#335=CIRCLE('',#1153,17.414);
#336=CIRCLE('',#1154,17.414);
#337=CIRCLE('',#1156,18.0933);
#338=CIRCLE('',#1157,18.0933);
#339=CIRCLE('',#1159,18.0933);
#340=CIRCLE('',#1160,18.0933);
#341=CIRCLE('',#1162,18.0933);
#342=CIRCLE('',#1163,18.0933);
#343=CIRCLE('',#1164,18.0933);
#344=CIRCLE('',#1165,18.0933);
#345=CIRCLE('',#1167,17.414);
#346=CIRCLE('',#1168,17.414);
#347=CIRCLE('',#1170,17.414);
#348=CIRCLE('',#1171,17.414);
#349=CIRCLE('',#1172,17.414);
#350=CIRCLE('',#1173,17.414);
#351=CIRCLE('',#1174,17.414);
#352=CIRCLE('',#1175,17.414);
#353=CIRCLE('',#1176,17.414);
#354=CIRCLE('',#1177,17.414);
#355=CIRCLE('',#1178,17.414);
#356=CIRCLE('',#1179,17.414);
#357=CIRCLE('',#1181,2.86);
#358=CIRCLE('',#1182,2.86);
#359=CIRCLE('',#1184,20.4);
#360=CIRCLE('',#1185,20.4);
#361=CIRCLE('',#1187,21.);
#362=CIRCLE('',#1188,21.);
#363=CIRCLE('',#1189,0.6);
#364=CIRCLE('',#1190,21.);
#365=CIRCLE('',#1192,20.4);
#366=CIRCLE('',#1193,20.4);
#367=CIRCLE('',#1195,21.);
#368=CIRCLE('',#1196,21.);
#369=CIRCLE('',#1197,21.);
#370=CIRCLE('',#1199,0.6);
#371=CIRCLE('',#1201,2.86);
#372=CIRCLE('',#1203,2.86);
#373=CIRCLE('',#1205,2.86);
#374=CIRCLE('',#1207,2.86);
#375=CIRCLE('',#1209,2.86);
#376=CIRCLE('',#1211,2.86);
#377=CIRCLE('',#1213,2.86);
#378=VERTEX_POINT('',#1593);
#379=VERTEX_POINT('',#1594);
#380=VERTEX_POINT('',#1596);
#381=VERTEX_POINT('',#1597);
#382=VERTEX_POINT('',#1599);
#383=VERTEX_POINT('',#1600);
#384=VERTEX_POINT('',#1603);
#385=VERTEX_POINT('',#1604);
#386=VERTEX_POINT('',#1606);
#387=VERTEX_POINT('',#1607);
#388=VERTEX_POINT('',#1609);
#389=VERTEX_POINT('',#1610);
#390=VERTEX_POINT('',#1613);
#391=VERTEX_POINT('',#1614);
#392=VERTEX_POINT('',#1616);
#393=VERTEX_POINT('',#1617);
#394=VERTEX_POINT('',#1619);
#395=VERTEX_POINT('',#1620);
#396=VERTEX_POINT('',#1623);
#397=VERTEX_POINT('',#1624);
#398=VERTEX_POINT('',#1626);
#399=VERTEX_POINT('',#1627);
#400=VERTEX_POINT('',#1629);
#401=VERTEX_POINT('',#1630);
#402=VERTEX_POINT('',#1633);
#403=VERTEX_POINT('',#1634);
#404=VERTEX_POINT('',#1636);
#405=VERTEX_POINT('',#1637);
#406=VERTEX_POINT('',#1639);
#407=VERTEX_POINT('',#1640);
#408=VERTEX_POINT('',#1643);
#409=VERTEX_POINT('',#1644);
#410=VERTEX_POINT('',#1646);
#411=VERTEX_POINT('',#1647);
#412=VERTEX_POINT('',#1649);
#413=VERTEX_POINT('',#1650);
#414=VERTEX_POINT('',#1653);
#415=VERTEX_POINT('',#1654);
#416=VERTEX_POINT('',#1656);
#417=VERTEX_POINT('',#1657);
#418=VERTEX_POINT('',#1659);
#419=VERTEX_POINT('',#1660);
#420=VERTEX_POINT('',#1663);
#421=VERTEX_POINT('',#1664);
#422=VERTEX_POINT('',#1666);
#423=VERTEX_POINT('',#1667);
#424=VERTEX_POINT('',#1669);
#425=VERTEX_POINT('',#1670);
#426=VERTEX_POINT('',#1673);
#427=VERTEX_POINT('',#1674);
#428=VERTEX_POINT('',#1676);
#429=VERTEX_POINT('',#1678);
#430=VERTEX_POINT('',#1680);
#431=VERTEX_POINT('',#1682);
#432=VERTEX_POINT('',#1684);
#433=VERTEX_POINT('',#1686);
#434=VERTEX_POINT('',#1688);
#435=VERTEX_POINT('',#1691);
#436=VERTEX_POINT('',#1693);
#437=VERTEX_POINT('',#1695);
#438=VERTEX_POINT('',#1699);
#439=VERTEX_POINT('',#1700);
#440=VERTEX_POINT('',#1704);
#441=VERTEX_POINT('',#1706);
#442=VERTEX_POINT('',#1710);
#443=VERTEX_POINT('',#1711);
#444=VERTEX_POINT('',#1714);
#445=VERTEX_POINT('',#1716);
#446=VERTEX_POINT('',#1720);
#447=VERTEX_POINT('',#1721);
#448=VERTEX_POINT('',#1725);
#449=VERTEX_POINT('',#1727);
#450=VERTEX_POINT('',#1729);
#451=VERTEX_POINT('',#1731);
#452=VERTEX_POINT('',#1733);
#453=VERTEX_POINT('',#1735);
#454=VERTEX_POINT('',#1737);
#455=VERTEX_POINT('',#1739);
#456=VERTEX_POINT('',#1741);
#457=VERTEX_POINT('',#1743);
#458=VERTEX_POINT('',#1750);
#459=VERTEX_POINT('',#1751);
#460=VERTEX_POINT('',#1755);
#461=VERTEX_POINT('',#1756);
#462=VERTEX_POINT('',#1758);
#463=VERTEX_POINT('',#1763);
#464=VERTEX_POINT('',#1764);
#465=VERTEX_POINT('',#1768);
#466=VERTEX_POINT('',#1770);
#467=VERTEX_POINT('',#1772);
#468=VERTEX_POINT('',#1793);
#469=VERTEX_POINT('',#1794);
#470=VERTEX_POINT('',#1796);
#471=VERTEX_POINT('',#1797);
#472=VERTEX_POINT('',#1799);
#473=VERTEX_POINT('',#1800);
#474=VERTEX_POINT('',#1803);
#475=VERTEX_POINT('',#1804);
#476=VERTEX_POINT('',#1806);
#477=VERTEX_POINT('',#1808);
#478=VERTEX_POINT('',#1810);
#479=VERTEX_POINT('',#1812);
#480=VERTEX_POINT('',#1814);
#481=VERTEX_POINT('',#1816);
#482=VERTEX_POINT('',#1818);
#483=VERTEX_POINT('',#1820);
#484=VERTEX_POINT('',#1822);
#485=VERTEX_POINT('',#1824);
#486=VERTEX_POINT('',#1829);
#487=VERTEX_POINT('',#1830);
#488=VERTEX_POINT('',#1834);
#489=VERTEX_POINT('',#1835);
#490=VERTEX_POINT('',#1840);
#491=VERTEX_POINT('',#1841);
#492=VERTEX_POINT('',#1843);
#493=VERTEX_POINT('',#1845);
#494=VERTEX_POINT('',#1850);
#495=VERTEX_POINT('',#1851);
#496=VERTEX_POINT('',#1855);
#497=VERTEX_POINT('',#1856);
#498=VERTEX_POINT('',#1858);
#499=VERTEX_POINT('',#1860);
#500=VERTEX_POINT('',#1862);
#501=VERTEX_POINT('',#1864);
#502=VERTEX_POINT('',#1867);
#503=VERTEX_POINT('',#1869);
#504=VERTEX_POINT('',#1871);
#505=VERTEX_POINT('',#1873);
#506=VERTEX_POINT('',#1880);
#507=VERTEX_POINT('',#1881);
#508=VERTEX_POINT('',#1885);
#509=VERTEX_POINT('',#1886);
#510=VERTEX_POINT('',#1888);
#511=VERTEX_POINT('',#1893);
#512=VERTEX_POINT('',#1894);
#513=VERTEX_POINT('',#1898);
#514=VERTEX_POINT('',#1899);
#515=VERTEX_POINT('',#1901);
#516=EDGE_CURVE('',#378,#379,#245,.T.);
#517=EDGE_CURVE('',#380,#381,#246,.T.);
#518=EDGE_CURVE('',#382,#383,#247,.T.);
#519=EDGE_CURVE('',#384,#385,#248,.T.);
#520=EDGE_CURVE('',#386,#387,#249,.T.);
#521=EDGE_CURVE('',#388,#389,#250,.T.);
#522=EDGE_CURVE('',#390,#391,#251,.T.);
#523=EDGE_CURVE('',#392,#393,#252,.T.);
#524=EDGE_CURVE('',#394,#395,#253,.T.);
#525=EDGE_CURVE('',#396,#397,#254,.T.);
#526=EDGE_CURVE('',#398,#399,#255,.T.);
#527=EDGE_CURVE('',#400,#401,#256,.T.);
#528=EDGE_CURVE('',#402,#403,#257,.T.);
#529=EDGE_CURVE('',#404,#405,#258,.T.);
#530=EDGE_CURVE('',#406,#407,#259,.T.);
#531=EDGE_CURVE('',#408,#409,#260,.T.);
#532=EDGE_CURVE('',#410,#411,#261,.T.);
#533=EDGE_CURVE('',#412,#413,#262,.T.);
#534=EDGE_CURVE('',#414,#415,#263,.T.);
#535=EDGE_CURVE('',#416,#417,#264,.T.);
#536=EDGE_CURVE('',#418,#419,#265,.T.);
#537=EDGE_CURVE('',#420,#421,#266,.T.);
#538=EDGE_CURVE('',#422,#423,#267,.T.);
#539=EDGE_CURVE('',#424,#425,#268,.T.);
#540=EDGE_CURVE('',#426,#427,#269,.T.);
#541=EDGE_CURVE('',#428,#426,#270,.T.);
#542=EDGE_CURVE('',#429,#428,#271,.T.);
#543=EDGE_CURVE('',#430,#429,#272,.T.);
#544=EDGE_CURVE('',#431,#430,#273,.T.);
#545=EDGE_CURVE('',#432,#431,#274,.T.);
#546=EDGE_CURVE('',#432,#433,#43,.T.);
#547=EDGE_CURVE('',#433,#434,#275,.T.);
#548=EDGE_CURVE('',#434,#433,#276,.T.);
#549=EDGE_CURVE('',#435,#432,#277,.T.);
#550=EDGE_CURVE('',#436,#435,#278,.T.);
#551=EDGE_CURVE('',#437,#436,#279,.T.);
#552=EDGE_CURVE('',#427,#437,#280,.T.);
#553=EDGE_CURVE('',#438,#439,#281,.T.);
#554=EDGE_CURVE('',#439,#438,#282,.T.);
#555=EDGE_CURVE('',#439,#440,#44,.T.);
#556=EDGE_CURVE('',#440,#441,#283,.T.);
#557=EDGE_CURVE('',#441,#440,#284,.T.);
#558=EDGE_CURVE('',#442,#443,#285,.T.);
#559=EDGE_CURVE('',#443,#442,#286,.T.);
#560=EDGE_CURVE('',#443,#444,#45,.T.);
#561=EDGE_CURVE('',#444,#445,#287,.T.);
#562=EDGE_CURVE('',#445,#444,#288,.T.);
#563=EDGE_CURVE('',#446,#447,#289,.T.);
#564=EDGE_CURVE('',#447,#446,#290,.T.);
#565=EDGE_CURVE('',#447,#448,#46,.T.);
#566=EDGE_CURVE('',#448,#449,#291,.T.);
#567=EDGE_CURVE('',#449,#450,#292,.T.);
#568=EDGE_CURVE('',#450,#451,#293,.T.);
#569=EDGE_CURVE('',#451,#452,#294,.T.);
#570=EDGE_CURVE('',#452,#453,#295,.T.);
#571=EDGE_CURVE('',#453,#454,#296,.T.);
#572=EDGE_CURVE('',#454,#455,#297,.T.);
#573=EDGE_CURVE('',#455,#456,#298,.T.);
#574=EDGE_CURVE('',#456,#457,#299,.T.);
#575=EDGE_CURVE('',#457,#448,#300,.T.);
#576=EDGE_CURVE('',#428,#452,#301,.T.);
#577=EDGE_CURVE('',#429,#451,#302,.T.);
#578=EDGE_CURVE('',#458,#459,#303,.T.);
#579=EDGE_CURVE('',#459,#458,#304,.T.);
#580=EDGE_CURVE('',#460,#461,#305,.T.);
#581=EDGE_CURVE('',#461,#462,#306,.T.);
#582=EDGE_CURVE('',#462,#459,#307,.T.);
#583=EDGE_CURVE('',#462,#460,#308,.T.);
#584=EDGE_CURVE('',#463,#464,#309,.T.);
#585=EDGE_CURVE('',#464,#463,#310,.T.);
#586=EDGE_CURVE('',#461,#465,#47,.T.);
#587=EDGE_CURVE('',#466,#465,#311,.T.);
#588=EDGE_CURVE('',#467,#466,#312,.T.);
#589=EDGE_CURVE('',#465,#467,#313,.T.);
#590=EDGE_CURVE('',#464,#466,#314,.T.);
#591=EDGE_CURVE('',#426,#453,#315,.T.);
#592=EDGE_CURVE('',#430,#450,#316,.T.);
#593=EDGE_CURVE('',#431,#449,#317,.T.);
#594=EDGE_CURVE('',#435,#457,#318,.T.);
#595=EDGE_CURVE('',#436,#456,#319,.T.);
#596=EDGE_CURVE('',#437,#455,#320,.T.);
#597=EDGE_CURVE('',#427,#454,#321,.T.);
#598=EDGE_CURVE('',#468,#469,#322,.T.);
#599=EDGE_CURVE('',#470,#471,#323,.T.);
#600=EDGE_CURVE('',#472,#473,#324,.T.);
#601=EDGE_CURVE('',#474,#475,#325,.T.);
#602=EDGE_CURVE('',#475,#476,#48,.T.);
#603=EDGE_CURVE('',#477,#476,#326,.T.);
#604=EDGE_CURVE('',#478,#477,#327,.T.);
#605=EDGE_CURVE('',#479,#478,#328,.T.);
#606=EDGE_CURVE('',#480,#479,#329,.T.);
#607=EDGE_CURVE('',#481,#480,#330,.T.);
#608=EDGE_CURVE('',#482,#481,#331,.T.);
#609=EDGE_CURVE('',#483,#482,#332,.T.);
#610=EDGE_CURVE('',#484,#483,#333,.T.);
#611=EDGE_CURVE('',#485,#484,#334,.T.);
#612=EDGE_CURVE('',#476,#485,#335,.T.);
#613=EDGE_CURVE('',#475,#474,#336,.T.);
#614=EDGE_CURVE('',#486,#487,#337,.T.);
#615=EDGE_CURVE('',#487,#486,#338,.T.);
#616=EDGE_CURVE('',#488,#489,#339,.T.);
#617=EDGE_CURVE('',#489,#487,#49,.T.);
#618=EDGE_CURVE('',#489,#488,#340,.T.);
#619=EDGE_CURVE('',#490,#491,#341,.T.);
#620=EDGE_CURVE('',#491,#492,#50,.T.);
#621=EDGE_CURVE('',#493,#492,#342,.T.);
#622=EDGE_CURVE('',#492,#493,#343,.T.);
#623=EDGE_CURVE('',#491,#490,#344,.T.);
#624=EDGE_CURVE('',#494,#495,#345,.T.);
#625=EDGE_CURVE('',#495,#494,#346,.T.);
#626=EDGE_CURVE('',#496,#497,#347,.T.);
#627=EDGE_CURVE('',#497,#498,#348,.T.);
#628=EDGE_CURVE('',#498,#499,#349,.T.);
#629=EDGE_CURVE('',#499,#500,#350,.T.);
#630=EDGE_CURVE('',#500,#501,#351,.T.);
#631=EDGE_CURVE('',#501,#495,#51,.T.);
#632=EDGE_CURVE('',#501,#502,#352,.T.);
#633=EDGE_CURVE('',#502,#503,#353,.T.);
#634=EDGE_CURVE('',#503,#504,#354,.T.);
#635=EDGE_CURVE('',#504,#505,#355,.T.);
#636=EDGE_CURVE('',#505,#496,#356,.T.);
#637=EDGE_CURVE('',#482,#505,#357,.T.);
#638=EDGE_CURVE('',#483,#504,#358,.T.);
#639=EDGE_CURVE('',#506,#507,#359,.T.);
#640=EDGE_CURVE('',#507,#506,#360,.T.);
#641=EDGE_CURVE('',#508,#509,#361,.T.);
#642=EDGE_CURVE('',#509,#510,#362,.T.);
#643=EDGE_CURVE('',#510,#507,#363,.T.);
#644=EDGE_CURVE('',#510,#508,#364,.T.);
#645=EDGE_CURVE('',#511,#512,#365,.T.);
#646=EDGE_CURVE('',#512,#511,#366,.T.);
#647=EDGE_CURVE('',#513,#514,#367,.T.);
#648=EDGE_CURVE('',#515,#513,#368,.T.);
#649=EDGE_CURVE('',#515,#509,#52,.T.);
#650=EDGE_CURVE('',#514,#515,#369,.T.);
#651=EDGE_CURVE('',#512,#514,#370,.T.);
#652=EDGE_CURVE('',#481,#496,#371,.T.);
#653=EDGE_CURVE('',#484,#503,#372,.T.);
#654=EDGE_CURVE('',#485,#502,#373,.T.);
#655=EDGE_CURVE('',#477,#500,#374,.T.);
#656=EDGE_CURVE('',#478,#499,#375,.T.);
#657=EDGE_CURVE('',#479,#498,#376,.T.);
#658=EDGE_CURVE('',#480,#497,#377,.T.);
#659=ORIENTED_EDGE('',*,*,#516,.T.);
#660=ORIENTED_EDGE('',*,*,#516,.F.);
#661=ORIENTED_EDGE('',*,*,#517,.T.);
#662=ORIENTED_EDGE('',*,*,#517,.F.);
#663=ORIENTED_EDGE('',*,*,#518,.T.);
#664=ORIENTED_EDGE('',*,*,#518,.F.);
#665=ORIENTED_EDGE('',*,*,#519,.T.);
#666=ORIENTED_EDGE('',*,*,#519,.F.);
#667=ORIENTED_EDGE('',*,*,#520,.T.);
#668=ORIENTED_EDGE('',*,*,#520,.F.);
#669=ORIENTED_EDGE('',*,*,#521,.T.);
#670=ORIENTED_EDGE('',*,*,#521,.F.);
#671=ORIENTED_EDGE('',*,*,#522,.T.);
#672=ORIENTED_EDGE('',*,*,#522,.F.);
#673=ORIENTED_EDGE('',*,*,#523,.T.);
#674=ORIENTED_EDGE('',*,*,#523,.F.);
#675=ORIENTED_EDGE('',*,*,#524,.T.);
#676=ORIENTED_EDGE('',*,*,#524,.F.);
#677=ORIENTED_EDGE('',*,*,#525,.T.);
#678=ORIENTED_EDGE('',*,*,#525,.F.);
#679=ORIENTED_EDGE('',*,*,#526,.T.);
#680=ORIENTED_EDGE('',*,*,#526,.F.);
#681=ORIENTED_EDGE('',*,*,#527,.T.);
#682=ORIENTED_EDGE('',*,*,#527,.F.);
#683=ORIENTED_EDGE('',*,*,#528,.T.);
#684=ORIENTED_EDGE('',*,*,#528,.F.);
#685=ORIENTED_EDGE('',*,*,#529,.T.);
#686=ORIENTED_EDGE('',*,*,#529,.F.);
#687=ORIENTED_EDGE('',*,*,#530,.T.);
#688=ORIENTED_EDGE('',*,*,#530,.F.);
#689=ORIENTED_EDGE('',*,*,#531,.T.);
#690=ORIENTED_EDGE('',*,*,#531,.F.);
#691=ORIENTED_EDGE('',*,*,#532,.T.);
#692=ORIENTED_EDGE('',*,*,#532,.F.);
#693=ORIENTED_EDGE('',*,*,#533,.T.);
#694=ORIENTED_EDGE('',*,*,#533,.F.);
#695=ORIENTED_EDGE('',*,*,#534,.T.);
#696=ORIENTED_EDGE('',*,*,#534,.F.);
#697=ORIENTED_EDGE('',*,*,#535,.T.);
#698=ORIENTED_EDGE('',*,*,#535,.F.);
#699=ORIENTED_EDGE('',*,*,#536,.T.);
#700=ORIENTED_EDGE('',*,*,#536,.F.);
#701=ORIENTED_EDGE('',*,*,#537,.T.);
#702=ORIENTED_EDGE('',*,*,#537,.F.);
#703=ORIENTED_EDGE('',*,*,#538,.T.);
#704=ORIENTED_EDGE('',*,*,#538,.F.);
#705=ORIENTED_EDGE('',*,*,#539,.T.);
#706=ORIENTED_EDGE('',*,*,#539,.F.);
#707=ORIENTED_EDGE('',*,*,#540,.F.);
#708=ORIENTED_EDGE('',*,*,#541,.F.);
#709=ORIENTED_EDGE('',*,*,#542,.F.);
#710=ORIENTED_EDGE('',*,*,#543,.F.);
#711=ORIENTED_EDGE('',*,*,#544,.F.);
#712=ORIENTED_EDGE('',*,*,#545,.F.);
#713=ORIENTED_EDGE('',*,*,#546,.T.);
#714=ORIENTED_EDGE('',*,*,#547,.T.);
#715=ORIENTED_EDGE('',*,*,#548,.T.);
#716=ORIENTED_EDGE('',*,*,#546,.F.);
#717=ORIENTED_EDGE('',*,*,#549,.F.);
#718=ORIENTED_EDGE('',*,*,#550,.F.);
#719=ORIENTED_EDGE('',*,*,#551,.F.);
#720=ORIENTED_EDGE('',*,*,#552,.F.);
#721=ORIENTED_EDGE('',*,*,#548,.F.);
#722=ORIENTED_EDGE('',*,*,#547,.F.);
#723=ORIENTED_EDGE('',*,*,#553,.T.);
#724=ORIENTED_EDGE('',*,*,#554,.T.);
#725=ORIENTED_EDGE('',*,*,#553,.F.);
#726=ORIENTED_EDGE('',*,*,#554,.F.);
#727=ORIENTED_EDGE('',*,*,#555,.T.);
#728=ORIENTED_EDGE('',*,*,#556,.T.);
#729=ORIENTED_EDGE('',*,*,#557,.T.);
#730=ORIENTED_EDGE('',*,*,#555,.F.);
#731=ORIENTED_EDGE('',*,*,#558,.F.);
#732=ORIENTED_EDGE('',*,*,#559,.F.);
#733=ORIENTED_EDGE('',*,*,#560,.T.);
#734=ORIENTED_EDGE('',*,*,#561,.T.);
#735=ORIENTED_EDGE('',*,*,#562,.T.);
#736=ORIENTED_EDGE('',*,*,#560,.F.);
#737=ORIENTED_EDGE('',*,*,#563,.T.);
#738=ORIENTED_EDGE('',*,*,#564,.T.);
#739=ORIENTED_EDGE('',*,*,#562,.F.);
#740=ORIENTED_EDGE('',*,*,#561,.F.);
#741=ORIENTED_EDGE('',*,*,#563,.F.);
#742=ORIENTED_EDGE('',*,*,#564,.F.);
#743=ORIENTED_EDGE('',*,*,#565,.T.);
#744=ORIENTED_EDGE('',*,*,#566,.T.);
#745=ORIENTED_EDGE('',*,*,#567,.T.);
#746=ORIENTED_EDGE('',*,*,#568,.T.);
#747=ORIENTED_EDGE('',*,*,#569,.T.);
#748=ORIENTED_EDGE('',*,*,#570,.T.);
#749=ORIENTED_EDGE('',*,*,#571,.T.);
#750=ORIENTED_EDGE('',*,*,#572,.T.);
#751=ORIENTED_EDGE('',*,*,#573,.T.);
#752=ORIENTED_EDGE('',*,*,#574,.T.);
#753=ORIENTED_EDGE('',*,*,#575,.T.);
#754=ORIENTED_EDGE('',*,*,#565,.F.);
#755=ORIENTED_EDGE('',*,*,#576,.T.);
#756=ORIENTED_EDGE('',*,*,#569,.F.);
#757=ORIENTED_EDGE('',*,*,#577,.F.);
#758=ORIENTED_EDGE('',*,*,#542,.T.);
#759=ORIENTED_EDGE('',*,*,#558,.T.);
#760=ORIENTED_EDGE('',*,*,#559,.T.);
#761=ORIENTED_EDGE('',*,*,#578,.F.);
#762=ORIENTED_EDGE('',*,*,#579,.F.);
#763=ORIENTED_EDGE('',*,*,#580,.T.);
#764=ORIENTED_EDGE('',*,*,#581,.T.);
#765=ORIENTED_EDGE('',*,*,#582,.T.);
#766=ORIENTED_EDGE('',*,*,#579,.T.);
#767=ORIENTED_EDGE('',*,*,#578,.T.);
#768=ORIENTED_EDGE('',*,*,#582,.F.);
#769=ORIENTED_EDGE('',*,*,#583,.T.);
#770=ORIENTED_EDGE('',*,*,#557,.F.);
#771=ORIENTED_EDGE('',*,*,#556,.F.);
#772=ORIENTED_EDGE('',*,*,#584,.F.);
#773=ORIENTED_EDGE('',*,*,#585,.F.);
#774=ORIENTED_EDGE('',*,*,#580,.F.);
#775=ORIENTED_EDGE('',*,*,#583,.F.);
#776=ORIENTED_EDGE('',*,*,#581,.F.);
#777=ORIENTED_EDGE('',*,*,#586,.T.);
#778=ORIENTED_EDGE('',*,*,#587,.F.);
#779=ORIENTED_EDGE('',*,*,#588,.F.);
#780=ORIENTED_EDGE('',*,*,#589,.F.);
#781=ORIENTED_EDGE('',*,*,#586,.F.);
#782=ORIENTED_EDGE('',*,*,#584,.T.);
#783=ORIENTED_EDGE('',*,*,#590,.T.);
#784=ORIENTED_EDGE('',*,*,#587,.T.);
#785=ORIENTED_EDGE('',*,*,#589,.T.);
#786=ORIENTED_EDGE('',*,*,#588,.T.);
#787=ORIENTED_EDGE('',*,*,#590,.F.);
#788=ORIENTED_EDGE('',*,*,#585,.T.);
#789=ORIENTED_EDGE('',*,*,#576,.F.);
#790=ORIENTED_EDGE('',*,*,#541,.T.);
#791=ORIENTED_EDGE('',*,*,#591,.T.);
#792=ORIENTED_EDGE('',*,*,#570,.F.);
#793=ORIENTED_EDGE('',*,*,#577,.T.);
#794=ORIENTED_EDGE('',*,*,#568,.F.);
#795=ORIENTED_EDGE('',*,*,#592,.F.);
#796=ORIENTED_EDGE('',*,*,#543,.T.);
#797=ORIENTED_EDGE('',*,*,#592,.T.);
#798=ORIENTED_EDGE('',*,*,#567,.F.);
#799=ORIENTED_EDGE('',*,*,#593,.F.);
#800=ORIENTED_EDGE('',*,*,#544,.T.);
#801=ORIENTED_EDGE('',*,*,#593,.T.);
#802=ORIENTED_EDGE('',*,*,#566,.F.);
#803=ORIENTED_EDGE('',*,*,#575,.F.);
#804=ORIENTED_EDGE('',*,*,#594,.F.);
#805=ORIENTED_EDGE('',*,*,#549,.T.);
#806=ORIENTED_EDGE('',*,*,#545,.T.);
#807=ORIENTED_EDGE('',*,*,#594,.T.);
#808=ORIENTED_EDGE('',*,*,#574,.F.);
#809=ORIENTED_EDGE('',*,*,#595,.F.);
#810=ORIENTED_EDGE('',*,*,#550,.T.);
#811=ORIENTED_EDGE('',*,*,#595,.T.);
#812=ORIENTED_EDGE('',*,*,#573,.F.);
#813=ORIENTED_EDGE('',*,*,#596,.F.);
#814=ORIENTED_EDGE('',*,*,#551,.T.);
#815=ORIENTED_EDGE('',*,*,#596,.T.);
#816=ORIENTED_EDGE('',*,*,#572,.F.);
#817=ORIENTED_EDGE('',*,*,#597,.F.);
#818=ORIENTED_EDGE('',*,*,#552,.T.);
#819=ORIENTED_EDGE('',*,*,#597,.T.);
#820=ORIENTED_EDGE('',*,*,#571,.F.);
#821=ORIENTED_EDGE('',*,*,#591,.F.);
#822=ORIENTED_EDGE('',*,*,#540,.T.);
#823=ORIENTED_EDGE('',*,*,#598,.T.);
#824=ORIENTED_EDGE('',*,*,#598,.F.);
#825=ORIENTED_EDGE('',*,*,#599,.T.);
#826=ORIENTED_EDGE('',*,*,#599,.F.);
#827=ORIENTED_EDGE('',*,*,#600,.T.);
#828=ORIENTED_EDGE('',*,*,#600,.F.);
#829=ORIENTED_EDGE('',*,*,#601,.T.);
#830=ORIENTED_EDGE('',*,*,#602,.T.);
#831=ORIENTED_EDGE('',*,*,#603,.F.);
#832=ORIENTED_EDGE('',*,*,#604,.F.);
#833=ORIENTED_EDGE('',*,*,#605,.F.);
#834=ORIENTED_EDGE('',*,*,#606,.F.);
#835=ORIENTED_EDGE('',*,*,#607,.F.);
#836=ORIENTED_EDGE('',*,*,#608,.F.);
#837=ORIENTED_EDGE('',*,*,#609,.F.);
#838=ORIENTED_EDGE('',*,*,#610,.F.);
#839=ORIENTED_EDGE('',*,*,#611,.F.);
#840=ORIENTED_EDGE('',*,*,#612,.F.);
#841=ORIENTED_EDGE('',*,*,#602,.F.);
#842=ORIENTED_EDGE('',*,*,#613,.T.);
#843=ORIENTED_EDGE('',*,*,#614,.T.);
#844=ORIENTED_EDGE('',*,*,#615,.T.);
#845=ORIENTED_EDGE('',*,*,#601,.F.);
#846=ORIENTED_EDGE('',*,*,#613,.F.);
#847=ORIENTED_EDGE('',*,*,#616,.T.);
#848=ORIENTED_EDGE('',*,*,#617,.T.);
#849=ORIENTED_EDGE('',*,*,#614,.F.);
#850=ORIENTED_EDGE('',*,*,#615,.F.);
#851=ORIENTED_EDGE('',*,*,#617,.F.);
#852=ORIENTED_EDGE('',*,*,#618,.T.);
#853=ORIENTED_EDGE('',*,*,#619,.T.);
#854=ORIENTED_EDGE('',*,*,#620,.T.);
#855=ORIENTED_EDGE('',*,*,#621,.F.);
#856=ORIENTED_EDGE('',*,*,#622,.F.);
#857=ORIENTED_EDGE('',*,*,#620,.F.);
#858=ORIENTED_EDGE('',*,*,#623,.T.);
#859=ORIENTED_EDGE('',*,*,#619,.F.);
#860=ORIENTED_EDGE('',*,*,#623,.F.);
#861=ORIENTED_EDGE('',*,*,#624,.T.);
#862=ORIENTED_EDGE('',*,*,#625,.T.);
#863=ORIENTED_EDGE('',*,*,#626,.T.);
#864=ORIENTED_EDGE('',*,*,#627,.T.);
#865=ORIENTED_EDGE('',*,*,#628,.T.);
#866=ORIENTED_EDGE('',*,*,#629,.T.);
#867=ORIENTED_EDGE('',*,*,#630,.T.);
#868=ORIENTED_EDGE('',*,*,#631,.T.);
#869=ORIENTED_EDGE('',*,*,#624,.F.);
#870=ORIENTED_EDGE('',*,*,#625,.F.);
#871=ORIENTED_EDGE('',*,*,#631,.F.);
#872=ORIENTED_EDGE('',*,*,#632,.T.);
#873=ORIENTED_EDGE('',*,*,#633,.T.);
#874=ORIENTED_EDGE('',*,*,#634,.T.);
#875=ORIENTED_EDGE('',*,*,#635,.T.);
#876=ORIENTED_EDGE('',*,*,#636,.T.);
#877=ORIENTED_EDGE('',*,*,#637,.T.);
#878=ORIENTED_EDGE('',*,*,#635,.F.);
#879=ORIENTED_EDGE('',*,*,#638,.F.);
#880=ORIENTED_EDGE('',*,*,#609,.T.);
#881=ORIENTED_EDGE('',*,*,#639,.F.);
#882=ORIENTED_EDGE('',*,*,#640,.F.);
#883=ORIENTED_EDGE('',*,*,#621,.T.);
#884=ORIENTED_EDGE('',*,*,#622,.T.);
#885=ORIENTED_EDGE('',*,*,#641,.T.);
#886=ORIENTED_EDGE('',*,*,#642,.T.);
#887=ORIENTED_EDGE('',*,*,#643,.T.);
#888=ORIENTED_EDGE('',*,*,#640,.T.);
#889=ORIENTED_EDGE('',*,*,#639,.T.);
#890=ORIENTED_EDGE('',*,*,#643,.F.);
#891=ORIENTED_EDGE('',*,*,#644,.T.);
#892=ORIENTED_EDGE('',*,*,#645,.F.);
#893=ORIENTED_EDGE('',*,*,#646,.F.);
#894=ORIENTED_EDGE('',*,*,#616,.F.);
#895=ORIENTED_EDGE('',*,*,#618,.F.);
#896=ORIENTED_EDGE('',*,*,#647,.F.);
#897=ORIENTED_EDGE('',*,*,#648,.F.);
#898=ORIENTED_EDGE('',*,*,#649,.T.);
#899=ORIENTED_EDGE('',*,*,#641,.F.);
#900=ORIENTED_EDGE('',*,*,#644,.F.);
#901=ORIENTED_EDGE('',*,*,#642,.F.);
#902=ORIENTED_EDGE('',*,*,#649,.F.);
#903=ORIENTED_EDGE('',*,*,#650,.F.);
#904=ORIENTED_EDGE('',*,*,#645,.T.);
#905=ORIENTED_EDGE('',*,*,#651,.T.);
#906=ORIENTED_EDGE('',*,*,#650,.T.);
#907=ORIENTED_EDGE('',*,*,#648,.T.);
#908=ORIENTED_EDGE('',*,*,#647,.T.);
#909=ORIENTED_EDGE('',*,*,#651,.F.);
#910=ORIENTED_EDGE('',*,*,#646,.T.);
#911=ORIENTED_EDGE('',*,*,#637,.F.);
#912=ORIENTED_EDGE('',*,*,#608,.T.);
#913=ORIENTED_EDGE('',*,*,#652,.T.);
#914=ORIENTED_EDGE('',*,*,#636,.F.);
#915=ORIENTED_EDGE('',*,*,#638,.T.);
#916=ORIENTED_EDGE('',*,*,#634,.F.);
#917=ORIENTED_EDGE('',*,*,#653,.F.);
#918=ORIENTED_EDGE('',*,*,#610,.T.);
#919=ORIENTED_EDGE('',*,*,#653,.T.);
#920=ORIENTED_EDGE('',*,*,#633,.F.);
#921=ORIENTED_EDGE('',*,*,#654,.F.);
#922=ORIENTED_EDGE('',*,*,#611,.T.);
#923=ORIENTED_EDGE('',*,*,#654,.T.);
#924=ORIENTED_EDGE('',*,*,#632,.F.);
#925=ORIENTED_EDGE('',*,*,#630,.F.);
#926=ORIENTED_EDGE('',*,*,#655,.F.);
#927=ORIENTED_EDGE('',*,*,#603,.T.);
#928=ORIENTED_EDGE('',*,*,#612,.T.);
#929=ORIENTED_EDGE('',*,*,#655,.T.);
#930=ORIENTED_EDGE('',*,*,#629,.F.);
#931=ORIENTED_EDGE('',*,*,#656,.F.);
#932=ORIENTED_EDGE('',*,*,#604,.T.);
#933=ORIENTED_EDGE('',*,*,#656,.T.);
#934=ORIENTED_EDGE('',*,*,#628,.F.);
#935=ORIENTED_EDGE('',*,*,#657,.F.);
#936=ORIENTED_EDGE('',*,*,#605,.T.);
#937=ORIENTED_EDGE('',*,*,#657,.T.);
#938=ORIENTED_EDGE('',*,*,#627,.F.);
#939=ORIENTED_EDGE('',*,*,#658,.F.);
#940=ORIENTED_EDGE('',*,*,#606,.T.);
#941=ORIENTED_EDGE('',*,*,#658,.T.);
#942=ORIENTED_EDGE('',*,*,#626,.F.);
#943=ORIENTED_EDGE('',*,*,#652,.F.);
#944=ORIENTED_EDGE('',*,*,#607,.T.);
#945=SPHERICAL_SURFACE('',#1033,2.86);
#946=SPHERICAL_SURFACE('',#1037,2.86);
#947=SPHERICAL_SURFACE('',#1041,2.86);
#948=SPHERICAL_SURFACE('',#1045,2.86);
#949=SPHERICAL_SURFACE('',#1049,2.86);
#950=SPHERICAL_SURFACE('',#1053,2.86);
#951=SPHERICAL_SURFACE('',#1057,2.86);
#952=SPHERICAL_SURFACE('',#1061,2.86);
#953=SPHERICAL_SURFACE('',#1138,2.86);
#954=ADVANCED_FACE('',(#121,#95,#96),#945,.T.);
#955=ADVANCED_FACE('',(#122,#97,#98),#946,.T.);
#956=ADVANCED_FACE('',(#123,#99,#100),#947,.T.);
#957=ADVANCED_FACE('',(#124,#101,#102),#948,.T.);
#958=ADVANCED_FACE('',(#125,#103,#104),#949,.T.);
#959=ADVANCED_FACE('',(#126,#105,#106),#950,.T.);
#960=ADVANCED_FACE('',(#127,#107,#108),#951,.T.);
#961=ADVANCED_FACE('',(#128,#109,#110),#952,.T.);
#962=ADVANCED_FACE('',(#129),#63,.T.);
#963=ADVANCED_FACE('',(#130,#111),#35,.T.);
#964=ADVANCED_FACE('',(#131),#64,.T.);
#965=ADVANCED_FACE('',(#132),#65,.T.);
#966=ADVANCED_FACE('',(#133,#112),#36,.T.);
#967=ADVANCED_FACE('',(#134),#66,.T.);
#968=ADVANCED_FACE('',(#135),#13,.F.);
#969=ADVANCED_FACE('',(#136,#113),#37,.T.);
#970=ADVANCED_FACE('',(#137),#14,.T.);
#971=ADVANCED_FACE('',(#138,#114),#38,.T.);
#972=ADVANCED_FACE('',(#139),#67,.F.);
#973=ADVANCED_FACE('',(#140),#15,.T.);
#974=ADVANCED_FACE('',(#141),#16,.F.);
#975=ADVANCED_FACE('',(#142),#17,.F.);
#976=ADVANCED_FACE('',(#143),#18,.F.);
#977=ADVANCED_FACE('',(#144),#19,.F.);
#978=ADVANCED_FACE('',(#145),#20,.F.);
#979=ADVANCED_FACE('',(#146),#21,.F.);
#980=ADVANCED_FACE('',(#147),#22,.F.);
#981=ADVANCED_FACE('',(#148),#23,.F.);
#982=ADVANCED_FACE('',(#149,#115,#116),#953,.T.);
#983=ADVANCED_FACE('',(#150),#68,.F.);
#984=ADVANCED_FACE('',(#151,#117),#39,.T.);
#985=ADVANCED_FACE('',(#152),#69,.F.);
#986=ADVANCED_FACE('',(#153),#70,.F.);
#987=ADVANCED_FACE('',(#154,#118),#40,.T.);
#988=ADVANCED_FACE('',(#155),#71,.F.);
#989=ADVANCED_FACE('',(#156),#24,.F.);
#990=ADVANCED_FACE('',(#157,#119),#41,.T.);
#991=ADVANCED_FACE('',(#158),#25,.T.);
#992=ADVANCED_FACE('',(#159,#120),#42,.T.);
#993=ADVANCED_FACE('',(#160),#72,.T.);
#994=ADVANCED_FACE('',(#161),#26,.T.);
#995=ADVANCED_FACE('',(#162),#27,.F.);
#996=ADVANCED_FACE('',(#163),#28,.F.);
#997=ADVANCED_FACE('',(#164),#29,.F.);
#998=ADVANCED_FACE('',(#165),#30,.F.);
#999=ADVANCED_FACE('',(#166),#31,.F.);
#1000=ADVANCED_FACE('',(#167),#32,.F.);
#1001=ADVANCED_FACE('',(#168),#33,.F.);
#1002=ADVANCED_FACE('',(#169),#34,.F.);
#1003=CLOSED_SHELL('',(#954));
#1004=CLOSED_SHELL('',(#955));
#1005=CLOSED_SHELL('',(#956));
#1006=CLOSED_SHELL('',(#957));
#1007=CLOSED_SHELL('',(#958));
#1008=CLOSED_SHELL('',(#959));
#1009=CLOSED_SHELL('',(#960));
#1010=CLOSED_SHELL('',(#961));
#1011=CLOSED_SHELL('',(#962,#963,#964,#965,#966,#967,#968,#969,#970,#971,
#972,#973,#974,#975,#976,#977,#978,#979,#980,#981));
#1012=CLOSED_SHELL('',(#982));
#1013=CLOSED_SHELL('',(#983,#984,#985,#986,#987,#988,#989,#990,#991,#992,
#993,#994,#995,#996,#997,#998,#999,#1000,#1001,#1002));
#1014=DERIVED_UNIT_ELEMENT(#1016,1.);
#1015=DERIVED_UNIT_ELEMENT(#1927,3.);
#1016=(
MASS_UNIT()
NAMED_UNIT(*)
SI_UNIT($,.GRAM.)
);
#1017=DERIVED_UNIT((#1014,#1015));
#1018=MEASURE_REPRESENTATION_ITEM('density measure',
POSITIVE_RATIO_MEASURE(7.85),#1017);
#1019=PROPERTY_DEFINITION_REPRESENTATION(#1024,#1021);
#1020=PROPERTY_DEFINITION_REPRESENTATION(#1025,#1022);
#1021=REPRESENTATION('material name',(#1023),#1924);
#1022=REPRESENTATION('density',(#1018),#1924);
#1023=DESCRIPTIVE_REPRESENTATION_ITEM('\X2\94A2FF0C8F6F\X0\',
'\X2\94A2FF0C8F6F\X0\');
#1024=PROPERTY_DEFINITION('material property','material name',#1934);
#1025=PROPERTY_DEFINITION('material property','density of part',#1934);
#1026=DATE_TIME_ROLE('creation_date');
#1027=APPLIED_DATE_AND_TIME_ASSIGNMENT(#1028,#1026,(#1934));
#1028=DATE_AND_TIME(#1029,#1030);
#1029=CALENDAR_DATE(2020,22,1);
#1030=LOCAL_TIME(0,0,0.,#1031);
#1031=COORDINATED_UNIVERSAL_TIME_OFFSET(0,0,.BEHIND.);
#1032=AXIS2_PLACEMENT_3D('placement',#1591,#1215,#1216);
#1033=AXIS2_PLACEMENT_3D('',#1592,#1217,#1218);
#1034=AXIS2_PLACEMENT_3D('',#1595,#1219,#1220);
#1035=AXIS2_PLACEMENT_3D('',#1598,#1221,#1222);
#1036=AXIS2_PLACEMENT_3D('',#1601,#1223,#1224);
#1037=AXIS2_PLACEMENT_3D('',#1602,#1225,#1226);
#1038=AXIS2_PLACEMENT_3D('',#1605,#1227,#1228);
#1039=AXIS2_PLACEMENT_3D('',#1608,#1229,#1230);
#1040=AXIS2_PLACEMENT_3D('',#1611,#1231,#1232);
#1041=AXIS2_PLACEMENT_3D('',#1612,#1233,#1234);
#1042=AXIS2_PLACEMENT_3D('',#1615,#1235,#1236);
#1043=AXIS2_PLACEMENT_3D('',#1618,#1237,#1238);
#1044=AXIS2_PLACEMENT_3D('',#1621,#1239,#1240);
#1045=AXIS2_PLACEMENT_3D('',#1622,#1241,#1242);
#1046=AXIS2_PLACEMENT_3D('',#1625,#1243,#1244);
#1047=AXIS2_PLACEMENT_3D('',#1628,#1245,#1246);
#1048=AXIS2_PLACEMENT_3D('',#1631,#1247,#1248);
#1049=AXIS2_PLACEMENT_3D('',#1632,#1249,#1250);
#1050=AXIS2_PLACEMENT_3D('',#1635,#1251,#1252);
#1051=AXIS2_PLACEMENT_3D('',#1638,#1253,#1254);
#1052=AXIS2_PLACEMENT_3D('',#1641,#1255,#1256);
#1053=AXIS2_PLACEMENT_3D('',#1642,#1257,#1258);
#1054=AXIS2_PLACEMENT_3D('',#1645,#1259,#1260);
#1055=AXIS2_PLACEMENT_3D('',#1648,#1261,#1262);
#1056=AXIS2_PLACEMENT_3D('',#1651,#1263,#1264);
#1057=AXIS2_PLACEMENT_3D('',#1652,#1265,#1266);
#1058=AXIS2_PLACEMENT_3D('',#1655,#1267,#1268);
#1059=AXIS2_PLACEMENT_3D('',#1658,#1269,#1270);
#1060=AXIS2_PLACEMENT_3D('',#1661,#1271,#1272);
#1061=AXIS2_PLACEMENT_3D('',#1662,#1273,#1274);
#1062=AXIS2_PLACEMENT_3D('',#1665,#1275,#1276);
#1063=AXIS2_PLACEMENT_3D('',#1668,#1277,#1278);
#1064=AXIS2_PLACEMENT_3D('',#1671,#1279,#1280);
#1065=AXIS2_PLACEMENT_3D('',#1672,#1281,#1282);
#1066=AXIS2_PLACEMENT_3D('',#1675,#1283,#1284);
#1067=AXIS2_PLACEMENT_3D('',#1677,#1285,#1286);
#1068=AXIS2_PLACEMENT_3D('',#1679,#1287,#1288);
#1069=AXIS2_PLACEMENT_3D('',#1681,#1289,#1290);
#1070=AXIS2_PLACEMENT_3D('',#1683,#1291,#1292);
#1071=AXIS2_PLACEMENT_3D('',#1685,#1293,#1294);
#1072=AXIS2_PLACEMENT_3D('',#1689,#1296,#1297);
#1073=AXIS2_PLACEMENT_3D('',#1690,#1298,#1299);
#1074=AXIS2_PLACEMENT_3D('',#1692,#1300,#1301);
#1075=AXIS2_PLACEMENT_3D('',#1694,#1302,#1303);
#1076=AXIS2_PLACEMENT_3D('',#1696,#1304,#1305);
#1077=AXIS2_PLACEMENT_3D('',#1697,#1306,#1307);
#1078=AXIS2_PLACEMENT_3D('',#1698,#1308,#1309);
#1079=AXIS2_PLACEMENT_3D('',#1701,#1310,#1311);
#1080=AXIS2_PLACEMENT_3D('',#1702,#1312,#1313);
#1081=AXIS2_PLACEMENT_3D('',#1703,#1314,#1315);
#1082=AXIS2_PLACEMENT_3D('',#1707,#1317,#1318);
#1083=AXIS2_PLACEMENT_3D('',#1708,#1319,#1320);
#1084=AXIS2_PLACEMENT_3D('',#1709,#1321,#1322);
#1085=AXIS2_PLACEMENT_3D('',#1712,#1323,#1324);
#1086=AXIS2_PLACEMENT_3D('',#1713,#1325,#1326);
#1087=AXIS2_PLACEMENT_3D('',#1717,#1328,#1329);
#1088=AXIS2_PLACEMENT_3D('',#1718,#1330,#1331);
#1089=AXIS2_PLACEMENT_3D('',#1719,#1332,#1333);
#1090=AXIS2_PLACEMENT_3D('',#1722,#1334,#1335);
#1091=AXIS2_PLACEMENT_3D('',#1723,#1336,#1337);
#1092=AXIS2_PLACEMENT_3D('',#1724,#1338,#1339);
#1093=AXIS2_PLACEMENT_3D('',#1728,#1341,#1342);
#1094=AXIS2_PLACEMENT_3D('',#1730,#1343,#1344);
#1095=AXIS2_PLACEMENT_3D('',#1732,#1345,#1346);
#1096=AXIS2_PLACEMENT_3D('',#1734,#1347,#1348);
#1097=AXIS2_PLACEMENT_3D('',#1736,#1349,#1350);
#1098=AXIS2_PLACEMENT_3D('',#1738,#1351,#1352);
#1099=AXIS2_PLACEMENT_3D('',#1740,#1353,#1354);
#1100=AXIS2_PLACEMENT_3D('',#1742,#1355,#1356);
#1101=AXIS2_PLACEMENT_3D('',#1744,#1357,#1358);
#1102=AXIS2_PLACEMENT_3D('',#1745,#1359,#1360);
#1103=AXIS2_PLACEMENT_3D('',#1746,#1361,#1362);
#1104=AXIS2_PLACEMENT_3D('',#1747,#1363,#1364);
#1105=AXIS2_PLACEMENT_3D('',#1748,#1365,#1366);
#1106=AXIS2_PLACEMENT_3D('',#1749,#1367,#1368);
#1107=AXIS2_PLACEMENT_3D('',#1752,#1369,#1370);
#1108=AXIS2_PLACEMENT_3D('',#1753,#1371,#1372);
#1109=AXIS2_PLACEMENT_3D('',#1754,#1373,#1374);
#1110=AXIS2_PLACEMENT_3D('',#1757,#1375,#1376);
#1111=AXIS2_PLACEMENT_3D('',#1759,#1377,#1378);
#1112=AXIS2_PLACEMENT_3D('',#1760,#1379,#1380);
#1113=AXIS2_PLACEMENT_3D('',#1761,#1381,#1382);
#1114=AXIS2_PLACEMENT_3D('',#1762,#1383,#1384);
#1115=AXIS2_PLACEMENT_3D('',#1765,#1385,#1386);
#1116=AXIS2_PLACEMENT_3D('',#1766,#1387,#1388);
#1117=AXIS2_PLACEMENT_3D('',#1767,#1389,#1390);
#1118=AXIS2_PLACEMENT_3D('',#1771,#1392,#1393);
#1119=AXIS2_PLACEMENT_3D('',#1773,#1394,#1395);
#1120=AXIS2_PLACEMENT_3D('',#1774,#1396,#1397);
#1121=AXIS2_PLACEMENT_3D('',#1775,#1398,#1399);
#1122=AXIS2_PLACEMENT_3D('',#1776,#1400,#1401);
#1123=AXIS2_PLACEMENT_3D('',#1777,#1402,#1403);
#1124=AXIS2_PLACEMENT_3D('',#1778,#1404,#1405);
#1125=AXIS2_PLACEMENT_3D('',#1779,#1406,#1407);
#1126=AXIS2_PLACEMENT_3D('',#1780,#1408,#1409);
#1127=AXIS2_PLACEMENT_3D('',#1781,#1410,#1411);
#1128=AXIS2_PLACEMENT_3D('',#1782,#1412,#1413);
#1129=AXIS2_PLACEMENT_3D('',#1783,#1414,#1415);
#1130=AXIS2_PLACEMENT_3D('',#1784,#1416,#1417);
#1131=AXIS2_PLACEMENT_3D('',#1785,#1418,#1419);
#1132=AXIS2_PLACEMENT_3D('',#1786,#1420,#1421);
#1133=AXIS2_PLACEMENT_3D('',#1787,#1422,#1423);
#1134=AXIS2_PLACEMENT_3D('',#1788,#1424,#1425);
#1135=AXIS2_PLACEMENT_3D('',#1789,#1426,#1427);
#1136=AXIS2_PLACEMENT_3D('',#1790,#1428,#1429);
#1137=AXIS2_PLACEMENT_3D('',#1791,#1430,#1431);
#1138=AXIS2_PLACEMENT_3D('',#1792,#1432,#1433);
#1139=AXIS2_PLACEMENT_3D('',#1795,#1434,#1435);
#1140=AXIS2_PLACEMENT_3D('',#1798,#1436,#1437);
#1141=AXIS2_PLACEMENT_3D('',#1801,#1438,#1439);
#1142=AXIS2_PLACEMENT_3D('',#1802,#1440,#1441);
#1143=AXIS2_PLACEMENT_3D('',#1805,#1442,#1443);
#1144=AXIS2_PLACEMENT_3D('',#1809,#1445,#1446);
#1145=AXIS2_PLACEMENT_3D('',#1811,#1447,#1448);
#1146=AXIS2_PLACEMENT_3D('',#1813,#1449,#1450);
#1147=AXIS2_PLACEMENT_3D('',#1815,#1451,#1452);
#1148=AXIS2_PLACEMENT_3D('',#1817,#1453,#1454);
#1149=AXIS2_PLACEMENT_3D('',#1819,#1455,#1456);
#1150=AXIS2_PLACEMENT_3D('',#1821,#1457,#1458);
#1151=AXIS2_PLACEMENT_3D('',#1823,#1459,#1460);
#1152=AXIS2_PLACEMENT_3D('',#1825,#1461,#1462);
#1153=AXIS2_PLACEMENT_3D('',#1826,#1463,#1464);
#1154=AXIS2_PLACEMENT_3D('',#1827,#1465,#1466);
#1155=AXIS2_PLACEMENT_3D('',#1828,#1467,#1468);
#1156=AXIS2_PLACEMENT_3D('',#1831,#1469,#1470);
#1157=AXIS2_PLACEMENT_3D('',#1832,#1471,#1472);
#1158=AXIS2_PLACEMENT_3D('',#1833,#1473,#1474);
#1159=AXIS2_PLACEMENT_3D('',#1836,#1475,#1476);
#1160=AXIS2_PLACEMENT_3D('',#1838,#1478,#1479);
#1161=AXIS2_PLACEMENT_3D('',#1839,#1480,#1481);
#1162=AXIS2_PLACEMENT_3D('',#1842,#1482,#1483);
#1163=AXIS2_PLACEMENT_3D('',#1846,#1485,#1486);
#1164=AXIS2_PLACEMENT_3D('',#1847,#1487,#1488);
#1165=AXIS2_PLACEMENT_3D('',#1848,#1489,#1490);
#1166=AXIS2_PLACEMENT_3D('',#1849,#1491,#1492);
#1167=AXIS2_PLACEMENT_3D('',#1852,#1493,#1494);
#1168=AXIS2_PLACEMENT_3D('',#1853,#1495,#1496);
#1169=AXIS2_PLACEMENT_3D('',#1854,#1497,#1498);
#1170=AXIS2_PLACEMENT_3D('',#1857,#1499,#1500);
#1171=AXIS2_PLACEMENT_3D('',#1859,#1501,#1502);
#1172=AXIS2_PLACEMENT_3D('',#1861,#1503,#1504);
#1173=AXIS2_PLACEMENT_3D('',#1863,#1505,#1506);
#1174=AXIS2_PLACEMENT_3D('',#1865,#1507,#1508);
#1175=AXIS2_PLACEMENT_3D('',#1868,#1510,#1511);
#1176=AXIS2_PLACEMENT_3D('',#1870,#1512,#1513);
#1177=AXIS2_PLACEMENT_3D('',#1872,#1514,#1515);
#1178=AXIS2_PLACEMENT_3D('',#1874,#1516,#1517);
#1179=AXIS2_PLACEMENT_3D('',#1875,#1518,#1519);
#1180=AXIS2_PLACEMENT_3D('',#1876,#1520,#1521);
#1181=AXIS2_PLACEMENT_3D('',#1877,#1522,#1523);
#1182=AXIS2_PLACEMENT_3D('',#1878,#1524,#1525);
#1183=AXIS2_PLACEMENT_3D('',#1879,#1526,#1527);
#1184=AXIS2_PLACEMENT_3D('',#1882,#1528,#1529);
#1185=AXIS2_PLACEMENT_3D('',#1883,#1530,#1531);
#1186=AXIS2_PLACEMENT_3D('',#1884,#1532,#1533);
#1187=AXIS2_PLACEMENT_3D('',#1887,#1534,#1535);
#1188=AXIS2_PLACEMENT_3D('',#1889,#1536,#1537);
#1189=AXIS2_PLACEMENT_3D('',#1890,#1538,#1539);
#1190=AXIS2_PLACEMENT_3D('',#1891,#1540,#1541);
#1191=AXIS2_PLACEMENT_3D('',#1892,#1542,#1543);
#1192=AXIS2_PLACEMENT_3D('',#1895,#1544,#1545);
#1193=AXIS2_PLACEMENT_3D('',#1896,#1546,#1547);
#1194=AXIS2_PLACEMENT_3D('',#1897,#1548,#1549);
#1195=AXIS2_PLACEMENT_3D('',#1900,#1550,#1551);
#1196=AXIS2_PLACEMENT_3D('',#1902,#1552,#1553);
#1197=AXIS2_PLACEMENT_3D('',#1904,#1555,#1556);
#1198=AXIS2_PLACEMENT_3D('',#1905,#1557,#1558);
#1199=AXIS2_PLACEMENT_3D('',#1906,#1559,#1560);
#1200=AXIS2_PLACEMENT_3D('',#1907,#1561,#1562);
#1201=AXIS2_PLACEMENT_3D('',#1908,#1563,#1564);
#1202=AXIS2_PLACEMENT_3D('',#1909,#1565,#1566);
#1203=AXIS2_PLACEMENT_3D('',#1910,#1567,#1568);
#1204=AXIS2_PLACEMENT_3D('',#1911,#1569,#1570);
#1205=AXIS2_PLACEMENT_3D('',#1912,#1571,#1572);
#1206=AXIS2_PLACEMENT_3D('',#1913,#1573,#1574);
#1207=AXIS2_PLACEMENT_3D('',#1914,#1575,#1576);
#1208=AXIS2_PLACEMENT_3D('',#1915,#1577,#1578);
#1209=AXIS2_PLACEMENT_3D('',#1916,#1579,#1580);
#1210=AXIS2_PLACEMENT_3D('',#1917,#1581,#1582);
#1211=AXIS2_PLACEMENT_3D('',#1918,#1583,#1584);
#1212=AXIS2_PLACEMENT_3D('',#1919,#1585,#1586);
#1213=AXIS2_PLACEMENT_3D('',#1920,#1587,#1588);
#1214=AXIS2_PLACEMENT_3D('',#1921,#1589,#1590);
#1215=DIRECTION('axis',(0.,0.,1.));
#1216=DIRECTION('refdir',(1.,0.,0.));
#1217=DIRECTION('center_axis',(0.,0.642787609686539,0.766044443118978));
#1218=DIRECTION('ref_axis',(1.,0.,0.));
#1219=DIRECTION('center_axis',(0.,-0.766044443118978,0.64278760968654));
#1220=DIRECTION('ref_axis',(-1.,0.,0.));
#1221=DIRECTION('center_axis',(0.,0.64278760968654,0.766044443118978));
#1222=DIRECTION('ref_axis',(0.,0.766044443118978,-0.642787609686539));
#1223=DIRECTION('center_axis',(0.,0.64278760968654,0.766044443118978));
#1224=DIRECTION('ref_axis',(0.,0.766044443118978,-0.642787609686539));
#1225=DIRECTION('center_axis',(0.,-0.866025403784439,-0.5));
#1226=DIRECTION('ref_axis',(1.,0.,0.));
#1227=DIRECTION('center_axis',(0.,0.5,-0.866025403784439));
#1228=DIRECTION('ref_axis',(-1.,0.,0.));
#1229=DIRECTION('center_axis',(0.,-0.866025403784439,-0.5));
#1230=DIRECTION('ref_axis',(0.,-0.5,0.866025403784439));
#1231=DIRECTION('center_axis',(0.,-0.866025403784439,-0.5));
#1232=DIRECTION('ref_axis',(0.,-0.5,0.866025403784439));
#1233=DIRECTION('center_axis',(0.,-0.984807753012208,0.173648177666931));
#1234=DIRECTION('ref_axis',(1.,0.,0.));
#1235=DIRECTION('center_axis',(0.,-0.173648177666931,-0.984807753012208));
#1236=DIRECTION('ref_axis',(-1.,0.,0.));
#1237=DIRECTION('center_axis',(0.,-0.984807753012208,0.173648177666931));
#1238=DIRECTION('ref_axis',(0.,0.173648177666931,0.984807753012208));
#1239=DIRECTION('center_axis',(0.,-0.984807753012208,0.173648177666931));
#1240=DIRECTION('ref_axis',(0.,0.173648177666931,0.984807753012208));
#1241=DIRECTION('center_axis',(0.,-0.342020143325669,-0.939692620785908));
#1242=DIRECTION('ref_axis',(1.,0.,0.));
#1243=DIRECTION('center_axis',(0.,0.939692620785908,-0.342020143325669));
#1244=DIRECTION('ref_axis',(-1.,0.,0.));
#1245=DIRECTION('center_axis',(0.,-0.342020143325669,-0.939692620785908));
#1246=DIRECTION('ref_axis',(0.,-0.939692620785908,0.342020143325669));
#1247=DIRECTION('center_axis',(0.,-0.342020143325669,-0.939692620785908));
#1248=DIRECTION('ref_axis',(0.,-0.939692620785908,0.342020143325669));
#1249=DIRECTION('center_axis',(0.,-0.642787609686539,0.766044443118978));
#1250=DIRECTION('ref_axis',(1.,0.,0.));
#1251=DIRECTION('center_axis',(0.,-0.766044443118978,-0.642787609686539));
#1252=DIRECTION('ref_axis',(-1.,0.,0.));
#1253=DIRECTION('center_axis',(0.,-0.642787609686539,0.766044443118978));
#1254=DIRECTION('ref_axis',(0.,0.766044443118978,0.642787609686539));
#1255=DIRECTION('center_axis',(0.,-0.642787609686539,0.766044443118978));
#1256=DIRECTION('ref_axis',(0.,0.766044443118978,0.642787609686539));
#1257=DIRECTION('center_axis',(0.,0.342020143325669,-0.939692620785908));
#1258=DIRECTION('ref_axis',(1.,0.,0.));
#1259=DIRECTION('center_axis',(0.,0.939692620785908,0.342020143325669));
#1260=DIRECTION('ref_axis',(-1.,0.,0.));
#1261=DIRECTION('center_axis',(0.,0.342020143325669,-0.939692620785908));
#1262=DIRECTION('ref_axis',(0.,-0.939692620785908,-0.342020143325669));
#1263=DIRECTION('center_axis',(0.,0.342020143325669,-0.939692620785908));
#1264=DIRECTION('ref_axis',(0.,-0.939692620785908,-0.342020143325669));
#1265=DIRECTION('center_axis',(0.,0.,1.));
#1266=DIRECTION('ref_axis',(1.,0.,0.));
#1267=DIRECTION('center_axis',(0.,-1.,0.));
#1268=DIRECTION('ref_axis',(-1.,0.,0.));
#1269=DIRECTION('center_axis',(0.,0.,1.));
#1270=DIRECTION('ref_axis',(0.,1.,0.));
#1271=DIRECTION('center_axis',(0.,0.,1.));
#1272=DIRECTION('ref_axis',(0.,1.,0.));
#1273=DIRECTION('center_axis',(0.,0.866025403784438,-0.5));
#1274=DIRECTION('ref_axis',(1.,0.,0.));
#1275=DIRECTION('center_axis',(0.,0.5,0.866025403784438));
#1276=DIRECTION('ref_axis',(-1.,0.,0.));
#1277=DIRECTION('center_axis',(0.,0.866025403784438,-0.5));
#1278=DIRECTION('ref_axis',(0.,-0.5,-0.866025403784438));
#1279=DIRECTION('center_axis',(0.,0.866025403784438,-0.5));
#1280=DIRECTION('ref_axis',(0.,-0.5,-0.866025403784438));
#1281=DIRECTION('center_axis',(1.,0.,0.));
#1282=DIRECTION('ref_axis',(-8.78340895017117E-17,1.,0.));
#1283=DIRECTION('center_axis',(1.,0.,0.));
#1284=DIRECTION('ref_axis',(-8.78340895017117E-17,1.,0.));
#1285=DIRECTION('center_axis',(1.,0.,0.));
#1286=DIRECTION('ref_axis',(-8.78340895017117E-17,1.,0.));
#1287=DIRECTION('center_axis',(1.,0.,0.));
#1288=DIRECTION('ref_axis',(-8.78340895017117E-17,1.,0.));
#1289=DIRECTION('center_axis',(1.,0.,0.));
#1290=DIRECTION('ref_axis',(-8.78340895017117E-17,1.,0.));
#1291=DIRECTION('center_axis',(1.,0.,0.));
#1292=DIRECTION('ref_axis',(-8.78340895017117E-17,1.,0.));
#1293=DIRECTION('center_axis',(1.,0.,0.));
#1294=DIRECTION('ref_axis',(-8.78340895017117E-17,1.,0.));
#1295=DIRECTION('',(-1.,0.,0.));
#1296=DIRECTION('center_axis',(1.,0.,0.));
#1297=DIRECTION('ref_axis',(-8.78340895017117E-17,1.,0.));
#1298=DIRECTION('center_axis',(1.,0.,0.));
#1299=DIRECTION('ref_axis',(-8.78340895017117E-17,1.,0.));
#1300=DIRECTION('center_axis',(1.,0.,0.));
#1301=DIRECTION('ref_axis',(-8.78340895017117E-17,1.,0.));
#1302=DIRECTION('center_axis',(1.,0.,0.));
#1303=DIRECTION('ref_axis',(-8.78340895017117E-17,1.,0.));
#1304=DIRECTION('center_axis',(1.,0.,0.));
#1305=DIRECTION('ref_axis',(-8.78340895017117E-17,1.,0.));
#1306=DIRECTION('center_axis',(1.,0.,0.));
#1307=DIRECTION('ref_axis',(-8.78340895017117E-17,1.,0.));
#1308=DIRECTION('center_axis',(-1.,0.,0.));
#1309=DIRECTION('ref_axis',(0.,0.,1.));
#1310=DIRECTION('center_axis',(1.,0.,0.));
#1311=DIRECTION('ref_axis',(-8.78340895017117E-17,1.,0.));
#1312=DIRECTION('center_axis',(1.,0.,0.));
#1313=DIRECTION('ref_axis',(-8.78340895017117E-17,1.,0.));
#1314=DIRECTION('center_axis',(1.,0.,0.));
#1315=DIRECTION('ref_axis',(-8.78340895017117E-17,1.,0.));
#1316=DIRECTION('',(-1.,0.,0.));
#1317=DIRECTION('center_axis',(1.,0.,0.));
#1318=DIRECTION('ref_axis',(-8.78340895017117E-17,1.,0.));
#1319=DIRECTION('center_axis',(1.,0.,0.));
#1320=DIRECTION('ref_axis',(-8.78340895017117E-17,1.,0.));
#1321=DIRECTION('center_axis',(1.,0.,0.));
#1322=DIRECTION('ref_axis',(-8.78340895017117E-17,1.,0.));
#1323=DIRECTION('center_axis',(1.,0.,0.));
#1324=DIRECTION('ref_axis',(-8.78340895017117E-17,1.,0.));
#1325=DIRECTION('center_axis',(1.,0.,0.));
#1326=DIRECTION('ref_axis',(-8.78340895017117E-17,1.,0.));
#1327=DIRECTION('',(-1.,0.,0.));
#1328=DIRECTION('center_axis',(1.,0.,0.));
#1329=DIRECTION('ref_axis',(-8.78340895017117E-17,1.,0.));
#1330=DIRECTION('center_axis',(1.,0.,0.));
#1331=DIRECTION('ref_axis',(-8.78340895017117E-17,1.,0.));
#1332=DIRECTION('center_axis',(1.,0.,0.));
#1333=DIRECTION('ref_axis',(0.,0.,-1.));
#1334=DIRECTION('center_axis',(1.,0.,0.));
#1335=DIRECTION('ref_axis',(-8.78340895017117E-17,1.,0.));
#1336=DIRECTION('center_axis',(1.,0.,0.));
#1337=DIRECTION('ref_axis',(-8.78340895017117E-17,1.,0.));
#1338=DIRECTION('center_axis',(1.,0.,0.));
#1339=DIRECTION('ref_axis',(-8.78340895017117E-17,1.,0.));
#1340=DIRECTION('',(-1.,0.,0.));
#1341=DIRECTION('center_axis',(1.,0.,0.));
#1342=DIRECTION('ref_axis',(-8.78340895017117E-17,1.,0.));
#1343=DIRECTION('center_axis',(1.,0.,0.));
#1344=DIRECTION('ref_axis',(-8.78340895017117E-17,1.,0.));
#1345=DIRECTION('center_axis',(1.,0.,0.));
#1346=DIRECTION('ref_axis',(-8.78340895017117E-17,1.,0.));
#1347=DIRECTION('center_axis',(1.,0.,0.));
#1348=DIRECTION('ref_axis',(-8.78340895017117E-17,1.,0.));
#1349=DIRECTION('center_axis',(1.,0.,0.));
#1350=DIRECTION('ref_axis',(-8.78340895017117E-17,1.,0.));
#1351=DIRECTION('center_axis',(1.,0.,0.));
#1352=DIRECTION('ref_axis',(-8.78340895017117E-17,1.,0.));
#1353=DIRECTION('center_axis',(1.,0.,0.));
#1354=DIRECTION('ref_axis',(-8.78340895017117E-17,1.,0.));
#1355=DIRECTION('center_axis',(1.,0.,0.));
#1356=DIRECTION('ref_axis',(-8.78340895017117E-17,1.,0.));
#1357=DIRECTION('center_axis',(1.,0.,0.));
#1358=DIRECTION('ref_axis',(-8.78340895017117E-17,1.,0.));
#1359=DIRECTION('center_axis',(1.,0.,0.));
#1360=DIRECTION('ref_axis',(-8.78340895017117E-17,1.,0.));
#1361=DIRECTION('center_axis',(1.,0.,0.));
#1362=DIRECTION('ref_axis',(0.,0.,-1.));
#1363=DIRECTION('center_axis',(0.,0.64278760968654,0.766044443118978));
#1364=DIRECTION('ref_axis',(0.,0.766044443118978,-0.642787609686539));
#1365=DIRECTION('center_axis',(0.,0.984807753012208,0.17364817766693));
#1366=DIRECTION('ref_axis',(0.,0.17364817766693,-0.984807753012208));
#1367=DIRECTION('center_axis',(1.,0.,0.));
#1368=DIRECTION('ref_axis',(0.,0.,-1.));
#1369=DIRECTION('center_axis',(1.,0.,0.));
#1370=DIRECTION('ref_axis',(0.,-1.,1.22464679914735E-16));
#1371=DIRECTION('center_axis',(1.,0.,0.));
#1372=DIRECTION('ref_axis',(0.,-1.,1.22464679914735E-16));
#1373=DIRECTION('center_axis',(1.,0.,0.));
#1374=DIRECTION('ref_axis',(0.,0.,-1.));
#1375=DIRECTION('center_axis',(-1.,0.,0.));
#1376=DIRECTION('ref_axis',(0.,-1.,1.22464679914735E-16));
#1377=DIRECTION('center_axis',(-1.,0.,0.));
#1378=DIRECTION('ref_axis',(0.,-1.,1.22464679914735E-16));
#1379=DIRECTION('center_axis',(0.,-1.,-1.22464679914735E-16));
#1380=DIRECTION('ref_axis',(0.,-1.22464679914735E-16,1.));
#1381=DIRECTION('center_axis',(-1.,0.,0.));
#1382=DIRECTION('ref_axis',(0.,-1.,1.22464679914735E-16));
#1383=DIRECTION('center_axis',(-1.,0.,0.));
#1384=DIRECTION('ref_axis',(0.,0.,1.));
#1385=DIRECTION('center_axis',(-1.,0.,0.));
#1386=DIRECTION('ref_axis',(0.,-1.,1.22464679914735E-16));
#1387=DIRECTION('center_axis',(-1.,0.,0.));
#1388=DIRECTION('ref_axis',(0.,-1.,1.22464679914735E-16));
#1389=DIRECTION('center_axis',(1.,0.,0.));
#1390=DIRECTION('ref_axis',(-8.78340895017117E-17,1.,0.));
#1391=DIRECTION('',(-1.,0.,0.));
#1392=DIRECTION('center_axis',(1.,0.,0.));
#1393=DIRECTION('ref_axis',(0.,-1.,1.22464679914735E-16));
#1394=DIRECTION('center_axis',(1.,0.,0.));
#1395=DIRECTION('ref_axis',(0.,-1.,1.22464679914735E-16));
#1396=DIRECTION('center_axis',(1.,0.,0.));
#1397=DIRECTION('ref_axis',(0.,-1.,1.22464679914735E-16));
#1398=DIRECTION('center_axis',(1.,0.,0.));
#1399=DIRECTION('ref_axis',(0.,0.,-1.));
#1400=DIRECTION('center_axis',(0.,-1.,-1.22464679914735E-16));
#1401=DIRECTION('ref_axis',(0.,-1.22464679914735E-16,1.));
#1402=DIRECTION('center_axis',(1.,0.,0.));
#1403=DIRECTION('ref_axis',(0.,0.,-1.));
#1404=DIRECTION('center_axis',(0.,0.,1.));
#1405=DIRECTION('ref_axis',(0.,1.,0.));
#1406=DIRECTION('center_axis',(1.,0.,0.));
#1407=DIRECTION('ref_axis',(0.,0.,-1.));
#1408=DIRECTION('center_axis',(0.,0.866025403784438,-0.5));
#1409=DIRECTION('ref_axis',(0.,-0.5,-0.866025403784438));
#1410=DIRECTION('center_axis',(1.,0.,0.));
#1411=DIRECTION('ref_axis',(0.,0.,-1.));
#1412=DIRECTION('center_axis',(0.,0.342020143325669,-0.939692620785908));
#1413=DIRECTION('ref_axis',(0.,-0.939692620785908,-0.342020143325669));
#1414=DIRECTION('center_axis',(1.,0.,0.));
#1415=DIRECTION('ref_axis',(0.,0.,-1.));
#1416=DIRECTION('center_axis',(0.,-0.342020143325669,-0.939692620785908));
#1417=DIRECTION('ref_axis',(0.,-0.939692620785908,0.342020143325669));
#1418=DIRECTION('center_axis',(1.,0.,0.));
#1419=DIRECTION('ref_axis',(0.,0.,-1.));
#1420=DIRECTION('center_axis',(0.,-0.866025403784439,-0.5));
#1421=DIRECTION('ref_axis',(0.,-0.5,0.866025403784439));
#1422=DIRECTION('center_axis',(1.,0.,0.));
#1423=DIRECTION('ref_axis',(0.,-0.17364817766693,0.984807753012208));
#1424=DIRECTION('center_axis',(0.,-0.984807753012208,0.173648177666931));
#1425=DIRECTION('ref_axis',(0.,0.173648177666931,0.984807753012208));
#1426=DIRECTION('center_axis',(1.,0.,0.));
#1427=DIRECTION('ref_axis',(0.,0.,-1.));
#1428=DIRECTION('center_axis',(0.,-0.642787609686539,0.766044443118978));
#1429=DIRECTION('ref_axis',(0.,0.766044443118978,0.642787609686539));
#1430=DIRECTION('center_axis',(1.,0.,0.));
#1431=DIRECTION('ref_axis',(0.,0.,-1.));
#1432=DIRECTION('center_axis',(0.,0.984807753012208,0.17364817766693));
#1433=DIRECTION('ref_axis',(1.,0.,0.));
#1434=DIRECTION('center_axis',(0.,-0.17364817766693,0.984807753012208));
#1435=DIRECTION('ref_axis',(-1.,0.,0.));
#1436=DIRECTION('center_axis',(0.,0.984807753012208,0.17364817766693));
#1437=DIRECTION('ref_axis',(0.,0.17364817766693,-0.984807753012208));
#1438=DIRECTION('center_axis',(0.,0.984807753012208,0.17364817766693));
#1439=DIRECTION('ref_axis',(0.,0.17364817766693,-0.984807753012208));
#1440=DIRECTION('center_axis',(1.,0.,0.));
#1441=DIRECTION('ref_axis',(0.,1.,0.));
#1442=DIRECTION('center_axis',(1.,0.,0.));
#1443=DIRECTION('ref_axis',(0.,1.,0.));
#1444=DIRECTION('',(-1.,0.,0.));
#1445=DIRECTION('center_axis',(1.,0.,0.));
#1446=DIRECTION('ref_axis',(0.,1.,0.));
#1447=DIRECTION('center_axis',(1.,0.,0.));
#1448=DIRECTION('ref_axis',(0.,1.,0.));
#1449=DIRECTION('center_axis',(1.,0.,0.));
#1450=DIRECTION('ref_axis',(0.,1.,0.));
#1451=DIRECTION('center_axis',(1.,0.,0.));
#1452=DIRECTION('ref_axis',(0.,1.,0.));
#1453=DIRECTION('center_axis',(1.,0.,0.));
#1454=DIRECTION('ref_axis',(0.,1.,0.));
#1455=DIRECTION('center_axis',(1.,0.,0.));
#1456=DIRECTION('ref_axis',(0.,1.,0.));
#1457=DIRECTION('center_axis',(1.,0.,0.));
#1458=DIRECTION('ref_axis',(0.,1.,0.));
#1459=DIRECTION('center_axis',(1.,0.,0.));
#1460=DIRECTION('ref_axis',(0.,1.,0.));
#1461=DIRECTION('center_axis',(1.,0.,0.));
#1462=DIRECTION('ref_axis',(0.,1.,0.));
#1463=DIRECTION('center_axis',(1.,0.,0.));
#1464=DIRECTION('ref_axis',(0.,1.,0.));
#1465=DIRECTION('center_axis',(1.,0.,0.));
#1466=DIRECTION('ref_axis',(0.,1.,0.));
#1467=DIRECTION('center_axis',(1.,0.,0.));
#1468=DIRECTION('ref_axis',(0.,0.,-1.));
#1469=DIRECTION('center_axis',(1.,0.,0.));
#1470=DIRECTION('ref_axis',(0.,1.,0.));
#1471=DIRECTION('center_axis',(1.,0.,0.));
#1472=DIRECTION('ref_axis',(0.,1.,0.));
#1473=DIRECTION('center_axis',(1.,0.,0.));
#1474=DIRECTION('ref_axis',(0.,1.,0.));
#1475=DIRECTION('center_axis',(1.,0.,0.));
#1476=DIRECTION('ref_axis',(0.,1.,0.));
#1477=DIRECTION('',(-1.,0.,0.));
#1478=DIRECTION('center_axis',(1.,0.,0.));
#1479=DIRECTION('ref_axis',(0.,1.,0.));
#1480=DIRECTION('center_axis',(1.,0.,0.));
#1481=DIRECTION('ref_axis',(0.,1.,0.));
#1482=DIRECTION('center_axis',(1.,0.,0.));
#1483=DIRECTION('ref_axis',(0.,1.,0.));
#1484=DIRECTION('',(-1.,0.,0.));
#1485=DIRECTION('center_axis',(1.,0.,0.));
#1486=DIRECTION('ref_axis',(0.,1.,0.));
#1487=DIRECTION('center_axis',(1.,0.,0.));
#1488=DIRECTION('ref_axis',(0.,1.,0.));
#1489=DIRECTION('center_axis',(1.,0.,0.));
#1490=DIRECTION('ref_axis',(0.,1.,0.));
#1491=DIRECTION('center_axis',(-1.,0.,0.));
#1492=DIRECTION('ref_axis',(0.,0.,1.));
#1493=DIRECTION('center_axis',(1.,0.,0.));
#1494=DIRECTION('ref_axis',(0.,1.,0.));
#1495=DIRECTION('center_axis',(1.,0.,0.));
#1496=DIRECTION('ref_axis',(0.,1.,0.));
#1497=DIRECTION('center_axis',(1.,0.,0.));
#1498=DIRECTION('ref_axis',(0.,1.,0.));
#1499=DIRECTION('center_axis',(1.,0.,0.));
#1500=DIRECTION('ref_axis',(0.,1.,0.));
#1501=DIRECTION('center_axis',(1.,0.,0.));
#1502=DIRECTION('ref_axis',(0.,1.,0.));
#1503=DIRECTION('center_axis',(1.,0.,0.));
#1504=DIRECTION('ref_axis',(0.,1.,0.));
#1505=DIRECTION('center_axis',(1.,0.,0.));
#1506=DIRECTION('ref_axis',(0.,1.,0.));
#1507=DIRECTION('center_axis',(1.,0.,0.));
#1508=DIRECTION('ref_axis',(0.,1.,0.));
#1509=DIRECTION('',(-1.,0.,0.));
#1510=DIRECTION('center_axis',(1.,0.,0.));
#1511=DIRECTION('ref_axis',(0.,1.,0.));
#1512=DIRECTION('center_axis',(1.,0.,0.));
#1513=DIRECTION('ref_axis',(0.,1.,0.));
#1514=DIRECTION('center_axis',(1.,0.,0.));
#1515=DIRECTION('ref_axis',(0.,1.,0.));
#1516=DIRECTION('center_axis',(1.,0.,0.));
#1517=DIRECTION('ref_axis',(0.,1.,0.));
#1518=DIRECTION('center_axis',(1.,0.,0.));
#1519=DIRECTION('ref_axis',(0.,1.,0.));
#1520=DIRECTION('center_axis',(1.,0.,0.));
#1521=DIRECTION('ref_axis',(0.,0.,-1.));
#1522=DIRECTION('center_axis',(0.,0.64278760968654,0.766044443118978));
#1523=DIRECTION('ref_axis',(0.,0.766044443118978,-0.642787609686539));
#1524=DIRECTION('center_axis',(0.,0.984807753012208,0.17364817766693));
#1525=DIRECTION('ref_axis',(0.,0.17364817766693,-0.984807753012208));
#1526=DIRECTION('center_axis',(-1.,0.,0.));
#1527=DIRECTION('ref_axis',(0.,0.,1.));
#1528=DIRECTION('center_axis',(1.,0.,0.));
#1529=DIRECTION('ref_axis',(0.,-1.,1.22464679914735E-16));
#1530=DIRECTION('center_axis',(1.,0.,0.));
#1531=DIRECTION('ref_axis',(0.,-1.,1.22464679914735E-16));
#1532=DIRECTION('center_axis',(1.,0.,0.));
#1533=DIRECTION('ref_axis',(0.,0.,-1.));
#1534=DIRECTION('center_axis',(-1.,0.,0.));
#1535=DIRECTION('ref_axis',(0.,-1.,1.22464679914735E-16));
#1536=DIRECTION('center_axis',(-1.,0.,0.));
#1537=DIRECTION('ref_axis',(0.,-1.,1.22464679914735E-16));
#1538=DIRECTION('center_axis',(0.,-1.,-1.22464679914735E-16));
#1539=DIRECTION('ref_axis',(0.,-1.22464679914735E-16,1.));
#1540=DIRECTION('center_axis',(-1.,0.,0.));
#1541=DIRECTION('ref_axis',(0.,-1.,1.22464679914735E-16));
#1542=DIRECTION('center_axis',(1.,0.,0.));
#1543=DIRECTION('ref_axis',(0.,0.,-1.));
#1544=DIRECTION('center_axis',(-1.,0.,0.));
#1545=DIRECTION('ref_axis',(0.,-1.,1.22464679914735E-16));
#1546=DIRECTION('center_axis',(-1.,0.,0.));
#1547=DIRECTION('ref_axis',(0.,-1.,1.22464679914735E-16));
#1548=DIRECTION('center_axis',(1.,0.,0.));
#1549=DIRECTION('ref_axis',(0.,1.,0.));
#1550=DIRECTION('center_axis',(1.,0.,0.));
#1551=DIRECTION('ref_axis',(0.,-1.,1.22464679914735E-16));
#1552=DIRECTION('center_axis',(1.,0.,0.));
#1553=DIRECTION('ref_axis',(0.,-1.,1.22464679914735E-16));
#1554=DIRECTION('',(-1.,0.,0.));
#1555=DIRECTION('center_axis',(1.,0.,0.));
#1556=DIRECTION('ref_axis',(0.,-1.,1.22464679914735E-16));
#1557=DIRECTION('center_axis',(1.,0.,0.));
#1558=DIRECTION('ref_axis',(0.,0.,-1.));
#1559=DIRECTION('center_axis',(0.,-1.,-1.22464679914735E-16));
#1560=DIRECTION('ref_axis',(0.,-1.22464679914735E-16,1.));
#1561=DIRECTION('center_axis',(1.,0.,0.));
#1562=DIRECTION('ref_axis',(0.,0.,-1.));
#1563=DIRECTION('center_axis',(0.,0.,1.));
#1564=DIRECTION('ref_axis',(0.,1.,0.));
#1565=DIRECTION('center_axis',(1.,0.,0.));
#1566=DIRECTION('ref_axis',(0.,0.,-1.));
#1567=DIRECTION('center_axis',(0.,0.866025403784438,-0.5));
#1568=DIRECTION('ref_axis',(0.,-0.5,-0.866025403784438));
#1569=DIRECTION('center_axis',(1.,0.,0.));
#1570=DIRECTION('ref_axis',(0.,0.,-1.));
#1571=DIRECTION('center_axis',(0.,0.342020143325669,-0.939692620785908));
#1572=DIRECTION('ref_axis',(0.,-0.939692620785908,-0.342020143325669));
#1573=DIRECTION('center_axis',(1.,0.,0.));
#1574=DIRECTION('ref_axis',(0.,0.,-1.));
#1575=DIRECTION('center_axis',(0.,-0.342020143325669,-0.939692620785908));
#1576=DIRECTION('ref_axis',(0.,-0.939692620785908,0.342020143325669));
#1577=DIRECTION('center_axis',(1.,0.,0.));
#1578=DIRECTION('ref_axis',(0.,0.,-1.));
#1579=DIRECTION('center_axis',(0.,-0.866025403784439,-0.5));
#1580=DIRECTION('ref_axis',(0.,-0.5,0.866025403784439));
#1581=DIRECTION('center_axis',(1.,0.,0.));
#1582=DIRECTION('ref_axis',(0.,-0.17364817766693,0.984807753012208));
#1583=DIRECTION('center_axis',(0.,-0.984807753012208,0.173648177666931));
#1584=DIRECTION('ref_axis',(0.,0.173648177666931,0.984807753012208));
#1585=DIRECTION('center_axis',(1.,0.,0.));
#1586=DIRECTION('ref_axis',(0.,0.,-1.));
#1587=DIRECTION('center_axis',(0.,-0.642787609686539,0.766044443118978));
#1588=DIRECTION('ref_axis',(0.,0.766044443118978,0.642787609686539));
#1589=DIRECTION('center_axis',(1.,0.,0.));
#1590=DIRECTION('ref_axis',(0.,0.,-1.));
#1591=CARTESIAN_POINT('',(0.,0.,0.));
#1592=CARTESIAN_POINT('Origin',(6.,11.8736888683442,-9.96320795014136));
#1593=CARTESIAN_POINT('',(6.,13.7120614320477,-7.77232084282109));
#1594=CARTESIAN_POINT('',(6.,10.0353163046407,-12.1540950574616));
#1595=CARTESIAN_POINT('Origin',(6.,11.8736888683442,-9.96320795014136));
#1596=CARTESIAN_POINT('',(3.87486376907267,10.4074798042144,-8.73291246520133));
#1597=CARTESIAN_POINT('',(8.12513623092733,10.4074798042144,-8.73291246520133));
#1598=CARTESIAN_POINT('Origin',(6.,11.8736888683442,-9.96320795014136));
#1599=CARTESIAN_POINT('',(8.12513623092733,13.3398979324739,-11.1935034350814));
#1600=CARTESIAN_POINT('',(3.87486376907267,13.3398979324739,-11.1935034350814));
#1601=CARTESIAN_POINT('Origin',(6.,11.8736888683442,-9.96320795014136));
#1602=CARTESIAN_POINT('Origin',(6.,-7.75,13.4233937586588));
#1603=CARTESIAN_POINT('',(6.,-10.2268326548235,11.9933937586588));
#1604=CARTESIAN_POINT('',(6.,-5.2731673451765,14.8533937586588));
#1605=CARTESIAN_POINT('Origin',(6.,-7.75,13.4233937586588));
#1606=CARTESIAN_POINT('',(3.87486376907267,-6.793,11.7658211358154));
#1607=CARTESIAN_POINT('',(8.12513623092733,-6.793,11.7658211358154));
#1608=CARTESIAN_POINT('Origin',(6.,-7.75,13.4233937586588));
#1609=CARTESIAN_POINT('',(8.12513623092733,-8.70699999999999,15.0809663815022));
#1610=CARTESIAN_POINT('',(3.87486376907267,-8.70699999999999,15.0809663815022));
#1611=CARTESIAN_POINT('Origin',(6.,-7.75,13.4233937586588));
#1612=CARTESIAN_POINT('Origin',(6.,2.69154675383742,15.2645201716892));
#1613=CARTESIAN_POINT('',(6.,-0.125003419777492,15.7611539598166));
#1614=CARTESIAN_POINT('',(6.,5.50809692745234,14.7678863835618));
#1615=CARTESIAN_POINT('Origin',(6.,2.69154675383742,15.2645201716892));
#1616=CARTESIAN_POINT('',(3.87486376907267,2.35918414178292,13.3795981324239));
#1617=CARTESIAN_POINT('',(8.12513623092733,2.35918414178292,13.3795981324239));
#1618=CARTESIAN_POINT('Origin',(6.,2.69154675383742,15.2645201716892));
#1619=CARTESIAN_POINT('',(8.12513623092733,3.02390936589193,17.1494422109546));
#1620=CARTESIAN_POINT('',(3.87486376907267,3.02390936589193,17.1494422109546));
#1621=CARTESIAN_POINT('Origin',(6.,2.69154675383742,15.2645201716892));
#1622=CARTESIAN_POINT('Origin',(6.,-14.5652356221816,5.30131222154787));
#1623=CARTESIAN_POINT('',(6.,-15.543413232093,2.61379132610017));
#1624=CARTESIAN_POINT('',(6.,-13.5870580122702,7.98883311699557));
#1625=CARTESIAN_POINT('Origin',(6.,-14.5652356221816,5.30131222154787));
#1626=CARTESIAN_POINT('',(3.87486376907267,-12.7666639459974,4.64668566722254));
#1627=CARTESIAN_POINT('',(8.12513623092733,-12.7666639459974,4.64668566722254));
#1628=CARTESIAN_POINT('Origin',(6.,-14.5652356221816,5.30131222154787));
#1629=CARTESIAN_POINT('',(8.12513623092733,-16.3638072983658,5.9559387758732));
#1630=CARTESIAN_POINT('',(3.87486376907267,-16.3638072983658,5.9559387758732));
#1631=CARTESIAN_POINT('Origin',(6.,-14.5652356221816,5.30131222154787));
#1632=CARTESIAN_POINT('Origin',(6.,11.8736888683442,9.96320795014136));
#1633=CARTESIAN_POINT('',(6.,10.0353163046407,12.1540950574616));
#1634=CARTESIAN_POINT('',(6.,13.7120614320477,7.77232084282108));
#1635=CARTESIAN_POINT('Origin',(6.,11.8736888683442,9.96320795014136));
#1636=CARTESIAN_POINT('',(3.87486376907267,10.4074798042144,8.73291246520133));
#1637=CARTESIAN_POINT('',(8.12513623092733,10.4074798042144,8.73291246520133));
#1638=CARTESIAN_POINT('Origin',(6.,11.8736888683442,9.96320795014136));
#1639=CARTESIAN_POINT('',(8.12513623092733,13.3398979324739,11.1935034350814));
#1640=CARTESIAN_POINT('',(3.87486376907267,13.3398979324739,11.1935034350814));
#1641=CARTESIAN_POINT('Origin',(6.,11.8736888683442,9.96320795014136));
#1642=CARTESIAN_POINT('Origin',(6.,-14.5652356221816,-5.30131222154786));
#1643=CARTESIAN_POINT('',(6.,-13.5870580122702,-7.98883311699556));
#1644=CARTESIAN_POINT('',(6.,-15.543413232093,-2.61379132610017));
#1645=CARTESIAN_POINT('Origin',(6.,-14.5652356221816,-5.30131222154786));
#1646=CARTESIAN_POINT('',(3.87486376907267,-12.7666639459974,-4.64668566722254));
#1647=CARTESIAN_POINT('',(8.12513623092733,-12.7666639459974,-4.64668566722254));
#1648=CARTESIAN_POINT('Origin',(6.,-14.5652356221816,-5.30131222154786));
#1649=CARTESIAN_POINT('',(8.12513623092733,-16.3638072983658,-5.95593877587319));
#1650=CARTESIAN_POINT('',(3.87486376907267,-16.3638072983658,-5.95593877587319));
#1651=CARTESIAN_POINT('Origin',(6.,-14.5652356221816,-5.30131222154786));
#1652=CARTESIAN_POINT('Origin',(6.,15.5,0.));
#1653=CARTESIAN_POINT('',(6.,15.5,2.86));
#1654=CARTESIAN_POINT('',(6.,15.5,-2.86));
#1655=CARTESIAN_POINT('Origin',(6.,15.5,0.));
#1656=CARTESIAN_POINT('',(8.12513623092733,17.414,0.));
#1657=CARTESIAN_POINT('',(3.87486376907267,17.414,0.));
#1658=CARTESIAN_POINT('Origin',(6.,15.5,0.));
#1659=CARTESIAN_POINT('',(3.87486376907267,13.586,0.));
#1660=CARTESIAN_POINT('',(8.12513623092733,13.586,0.));
#1661=CARTESIAN_POINT('Origin',(6.,15.5,0.));
#1662=CARTESIAN_POINT('Origin',(6.,-7.75,-13.4233937586588));
#1663=CARTESIAN_POINT('',(6.,-5.27316734517651,-14.8533937586588));
#1664=CARTESIAN_POINT('',(6.,-10.2268326548235,-11.9933937586588));
#1665=CARTESIAN_POINT('Origin',(6.,-7.75,-13.4233937586588));
#1666=CARTESIAN_POINT('',(3.87486376907267,-6.79300000000001,-11.7658211358154));
#1667=CARTESIAN_POINT('',(8.12513623092733,-6.79300000000001,-11.7658211358154));
#1668=CARTESIAN_POINT('Origin',(6.,-7.75,-13.4233937586588));
#1669=CARTESIAN_POINT('',(8.12513623092733,-8.707,-15.0809663815022));
#1670=CARTESIAN_POINT('',(3.87486376907267,-8.707,-15.0809663815022));
#1671=CARTESIAN_POINT('Origin',(6.,-7.75,-13.4233937586588));
#1672=CARTESIAN_POINT('Origin',(2.93743188453634,0.,0.));
#1673=CARTESIAN_POINT('',(3.87486376907267,13.586,0.));
#1674=CARTESIAN_POINT('',(3.87486376907267,10.4074798042144,8.73291246520133));
#1675=CARTESIAN_POINT('Origin',(3.87486376907267,0.,0.));
#1676=CARTESIAN_POINT('',(3.87486376907267,10.4074798042144,-8.73291246520133));
#1677=CARTESIAN_POINT('Origin',(3.87486376907267,0.,0.));
#1678=CARTESIAN_POINT('',(3.87486376907267,2.35918414178291,-13.3795981324239));
#1679=CARTESIAN_POINT('Origin',(3.87486376907267,0.,0.));
#1680=CARTESIAN_POINT('',(3.87486376907267,-6.79300000000001,-11.7658211358154));
#1681=CARTESIAN_POINT('Origin',(3.87486376907267,0.,0.));
#1682=CARTESIAN_POINT('',(3.87486376907267,-12.7666639459974,-4.64668566722254));
#1683=CARTESIAN_POINT('Origin',(3.87486376907267,0.,0.));
#1684=CARTESIAN_POINT('',(3.87486376907267,-13.586,-1.66380514132159E-15));
#1685=CARTESIAN_POINT('Origin',(3.87486376907267,0.,0.));
#1686=CARTESIAN_POINT('',(2.,-13.586,-1.66380514132159E-15));
#1687=CARTESIAN_POINT('',(2.93743188453634,-13.586,-1.66380514132159E-15));
#1688=CARTESIAN_POINT('',(2.,13.586,0.));
#1689=CARTESIAN_POINT('Origin',(2.,0.,0.));
#1690=CARTESIAN_POINT('Origin',(2.,0.,0.));
#1691=CARTESIAN_POINT('',(3.87486376907267,-12.7666639459974,4.64668566722254));
#1692=CARTESIAN_POINT('Origin',(3.87486376907267,0.,0.));
#1693=CARTESIAN_POINT('',(3.87486376907267,-6.793,11.7658211358154));
#1694=CARTESIAN_POINT('Origin',(3.87486376907267,0.,0.));
#1695=CARTESIAN_POINT('',(3.87486376907267,2.35918414178292,13.3795981324239));
#1696=CARTESIAN_POINT('Origin',(3.87486376907267,0.,0.));
#1697=CARTESIAN_POINT('Origin',(3.87486376907267,0.,0.));
#1698=CARTESIAN_POINT('Origin',(2.,13.24635,0.));
#1699=CARTESIAN_POINT('',(2.,12.9067,0.));
#1700=CARTESIAN_POINT('',(2.,-12.9067,-1.58061488425551E-15));
#1701=CARTESIAN_POINT('Origin',(2.,0.,0.));
#1702=CARTESIAN_POINT('Origin',(2.,0.,0.));
#1703=CARTESIAN_POINT('Origin',(1.,0.,0.));
#1704=CARTESIAN_POINT('',(0.,-12.9067,-1.58061488425551E-15));
#1705=CARTESIAN_POINT('',(1.,-12.9067,-1.58061488425551E-15));
#1706=CARTESIAN_POINT('',(0.,12.9067,0.));
#1707=CARTESIAN_POINT('Origin',(0.,0.,0.));
#1708=CARTESIAN_POINT('Origin',(0.,0.,0.));
#1709=CARTESIAN_POINT('Origin',(11.,0.,0.));
#1710=CARTESIAN_POINT('',(12.,12.9067,0.));
#1711=CARTESIAN_POINT('',(12.,-12.9067,-1.58061488425551E-15));
#1712=CARTESIAN_POINT('Origin',(12.,0.,0.));
#1713=CARTESIAN_POINT('Origin',(12.,0.,0.));
#1714=CARTESIAN_POINT('',(10.,-12.9067,-1.58061488425551E-15));
#1715=CARTESIAN_POINT('',(11.,-12.9067,-1.58061488425551E-15));
#1716=CARTESIAN_POINT('',(10.,12.9067,0.));
#1717=CARTESIAN_POINT('Origin',(10.,0.,0.));
#1718=CARTESIAN_POINT('Origin',(10.,0.,0.));
#1719=CARTESIAN_POINT('Origin',(10.,13.24635,0.));
#1720=CARTESIAN_POINT('',(10.,13.586,0.));
#1721=CARTESIAN_POINT('',(10.,-13.586,-1.66380514132159E-15));
#1722=CARTESIAN_POINT('Origin',(10.,0.,0.));
#1723=CARTESIAN_POINT('Origin',(10.,0.,0.));
#1724=CARTESIAN_POINT('Origin',(9.06256811546367,0.,0.));
#1725=CARTESIAN_POINT('',(8.12513623092733,-13.586,-1.66380514132159E-15));
#1726=CARTESIAN_POINT('',(9.06256811546367,-13.586,-1.66380514132159E-15));
#1727=CARTESIAN_POINT('',(8.12513623092733,-12.7666639459974,-4.64668566722254));
#1728=CARTESIAN_POINT('Origin',(8.12513623092733,0.,0.));
#1729=CARTESIAN_POINT('',(8.12513623092733,-6.79300000000001,-11.7658211358154));
#1730=CARTESIAN_POINT('Origin',(8.12513623092733,0.,0.));
#1731=CARTESIAN_POINT('',(8.12513623092733,2.35918414178291,-13.3795981324239));
#1732=CARTESIAN_POINT('Origin',(8.12513623092733,0.,0.));
#1733=CARTESIAN_POINT('',(8.12513623092733,10.4074798042144,-8.73291246520133));
#1734=CARTESIAN_POINT('Origin',(8.12513623092733,0.,0.));
#1735=CARTESIAN_POINT('',(8.12513623092733,13.586,0.));
#1736=CARTESIAN_POINT('Origin',(8.12513623092733,0.,0.));
#1737=CARTESIAN_POINT('',(8.12513623092733,10.4074798042144,8.73291246520133));
#1738=CARTESIAN_POINT('Origin',(8.12513623092733,0.,0.));
#1739=CARTESIAN_POINT('',(8.12513623092733,2.35918414178292,13.3795981324239));
#1740=CARTESIAN_POINT('Origin',(8.12513623092733,0.,0.));
#1741=CARTESIAN_POINT('',(8.12513623092733,-6.793,11.7658211358154));
#1742=CARTESIAN_POINT('Origin',(8.12513623092733,0.,0.));
#1743=CARTESIAN_POINT('',(8.12513623092733,-12.7666639459974,4.64668566722254));
#1744=CARTESIAN_POINT('Origin',(8.12513623092733,0.,0.));
#1745=CARTESIAN_POINT('Origin',(8.12513623092733,0.,0.));
#1746=CARTESIAN_POINT('Origin',(6.,0.,0.));
#1747=CARTESIAN_POINT('Origin',(6.,11.8736888683442,-9.96320795014136));
#1748=CARTESIAN_POINT('Origin',(6.,2.69154675383741,-15.2645201716892));
#1749=CARTESIAN_POINT('Origin',(12.,11.45335,0.));
#1750=CARTESIAN_POINT('',(12.,10.6,0.));
#1751=CARTESIAN_POINT('',(12.,-1.29812560709619E-15,10.6));
#1752=CARTESIAN_POINT('Origin',(12.,0.,0.));
#1753=CARTESIAN_POINT('Origin',(12.,0.,0.));
#1754=CARTESIAN_POINT('Origin',(11.4,0.,0.));
#1755=CARTESIAN_POINT('',(11.4,10.,-2.44929359829471E-15));
#1756=CARTESIAN_POINT('',(11.4,-10.,-1.22464679914735E-15));
#1757=CARTESIAN_POINT('Origin',(11.4,0.,0.));
#1758=CARTESIAN_POINT('',(11.4,-1.22464679914735E-15,10.));
#1759=CARTESIAN_POINT('Origin',(11.4,0.,0.));
#1760=CARTESIAN_POINT('Origin',(11.4,-1.29812560709619E-15,10.6));
#1761=CARTESIAN_POINT('Origin',(11.4,0.,0.));
#1762=CARTESIAN_POINT('Origin',(0.,11.45335,0.));
#1763=CARTESIAN_POINT('',(0.,10.6,-2.59625121419239E-15));
#1764=CARTESIAN_POINT('',(0.,-1.29812560709619E-15,10.6));
#1765=CARTESIAN_POINT('Origin',(0.,0.,0.));
#1766=CARTESIAN_POINT('Origin',(0.,0.,0.));
#1767=CARTESIAN_POINT('Origin',(6.,0.,0.));
#1768=CARTESIAN_POINT('',(0.600000000000002,-10.,-1.22464679914735E-15));
#1769=CARTESIAN_POINT('',(6.,-10.,-1.22464679914735E-15));
#1770=CARTESIAN_POINT('',(0.600000000000001,-1.22464679914735E-15,10.));
#1771=CARTESIAN_POINT('Origin',(0.600000000000001,0.,0.));
#1772=CARTESIAN_POINT('',(0.600000000000001,10.,0.));
#1773=CARTESIAN_POINT('Origin',(0.600000000000001,0.,0.));
#1774=CARTESIAN_POINT('Origin',(0.600000000000001,0.,0.));
#1775=CARTESIAN_POINT('Origin',(0.600000000000001,0.,0.));
#1776=CARTESIAN_POINT('Origin',(0.600000000000001,-1.29812560709619E-15,
10.6));
#1777=CARTESIAN_POINT('Origin',(6.,0.,0.));
#1778=CARTESIAN_POINT('Origin',(6.,15.5,0.));
#1779=CARTESIAN_POINT('Origin',(6.,0.,0.));
#1780=CARTESIAN_POINT('Origin',(6.,-7.75,-13.4233937586588));
#1781=CARTESIAN_POINT('Origin',(6.,0.,0.));
#1782=CARTESIAN_POINT('Origin',(6.,-14.5652356221816,-5.30131222154786));
#1783=CARTESIAN_POINT('Origin',(6.,0.,0.));
#1784=CARTESIAN_POINT('Origin',(6.,-14.5652356221816,5.30131222154787));
#1785=CARTESIAN_POINT('Origin',(6.,0.,0.));
#1786=CARTESIAN_POINT('Origin',(6.,-7.75,13.4233937586588));
#1787=CARTESIAN_POINT('Origin',(6.,0.,0.));
#1788=CARTESIAN_POINT('Origin',(6.,2.69154675383742,15.2645201716892));
#1789=CARTESIAN_POINT('Origin',(6.,0.,0.));
#1790=CARTESIAN_POINT('Origin',(6.,11.8736888683442,9.96320795014136));
#1791=CARTESIAN_POINT('Origin',(6.,0.,0.));
#1792=CARTESIAN_POINT('Origin',(6.,2.69154675383741,-15.2645201716892));
#1793=CARTESIAN_POINT('',(6.,5.50809692745233,-14.7678863835618));
#1794=CARTESIAN_POINT('',(6.,-0.125003419777501,-15.7611539598166));
#1795=CARTESIAN_POINT('Origin',(6.,2.69154675383741,-15.2645201716892));
#1796=CARTESIAN_POINT('',(3.87486376907267,2.35918414178291,-13.3795981324239));
#1797=CARTESIAN_POINT('',(8.12513623092733,2.35918414178291,-13.3795981324239));
#1798=CARTESIAN_POINT('Origin',(6.,2.69154675383741,-15.2645201716892));
#1799=CARTESIAN_POINT('',(8.12513623092733,3.02390936589192,-17.1494422109546));
#1800=CARTESIAN_POINT('',(3.87486376907267,3.02390936589192,-17.1494422109546));
#1801=CARTESIAN_POINT('Origin',(6.,2.69154675383741,-15.2645201716892));
#1802=CARTESIAN_POINT('Origin',(9.06256811546367,0.,0.));
#1803=CARTESIAN_POINT('',(10.,17.414,0.));
#1804=CARTESIAN_POINT('',(10.,-17.414,-2.1325999360352E-15));
#1805=CARTESIAN_POINT('Origin',(10.,0.,0.));
#1806=CARTESIAN_POINT('',(8.12513623092733,-17.414,-2.1325999360352E-15));
#1807=CARTESIAN_POINT('',(9.06256811546367,-17.414,-2.1325999360352E-15));
#1808=CARTESIAN_POINT('',(8.12513623092733,-16.3638072983658,5.9559387758732));
#1809=CARTESIAN_POINT('Origin',(8.12513623092733,0.,0.));
#1810=CARTESIAN_POINT('',(8.12513623092733,-8.70699999999999,15.0809663815022));
#1811=CARTESIAN_POINT('Origin',(8.12513623092733,0.,0.));
#1812=CARTESIAN_POINT('',(8.12513623092733,3.02390936589193,17.1494422109546));
#1813=CARTESIAN_POINT('Origin',(8.12513623092733,0.,0.));
#1814=CARTESIAN_POINT('',(8.12513623092733,13.3398979324739,11.1935034350814));
#1815=CARTESIAN_POINT('Origin',(8.12513623092733,0.,0.));
#1816=CARTESIAN_POINT('',(8.12513623092733,17.414,0.));
#1817=CARTESIAN_POINT('Origin',(8.12513623092733,0.,0.));
#1818=CARTESIAN_POINT('',(8.12513623092733,13.3398979324739,-11.1935034350814));
#1819=CARTESIAN_POINT('Origin',(8.12513623092733,0.,0.));
#1820=CARTESIAN_POINT('',(8.12513623092733,3.02390936589192,-17.1494422109546));
#1821=CARTESIAN_POINT('Origin',(8.12513623092733,0.,0.));
#1822=CARTESIAN_POINT('',(8.12513623092733,-8.707,-15.0809663815022));
#1823=CARTESIAN_POINT('Origin',(8.12513623092733,0.,0.));
#1824=CARTESIAN_POINT('',(8.12513623092733,-16.3638072983658,-5.95593877587319));
#1825=CARTESIAN_POINT('Origin',(8.12513623092733,0.,0.));
#1826=CARTESIAN_POINT('Origin',(8.12513623092733,0.,0.));
#1827=CARTESIAN_POINT('Origin',(10.,0.,0.));
#1828=CARTESIAN_POINT('Origin',(10.,17.75365,0.));
#1829=CARTESIAN_POINT('',(10.,18.0933,0.));
#1830=CARTESIAN_POINT('',(10.,-18.0933,-2.21579019310128E-15));
#1831=CARTESIAN_POINT('Origin',(10.,0.,0.));
#1832=CARTESIAN_POINT('Origin',(10.,0.,0.));
#1833=CARTESIAN_POINT('Origin',(11.,0.,0.));
#1834=CARTESIAN_POINT('',(12.,18.0933,0.));
#1835=CARTESIAN_POINT('',(12.,-18.0933,-2.21579019310128E-15));
#1836=CARTESIAN_POINT('Origin',(12.,0.,0.));
#1837=CARTESIAN_POINT('',(11.,-18.0933,-2.21579019310128E-15));
#1838=CARTESIAN_POINT('Origin',(12.,0.,0.));
#1839=CARTESIAN_POINT('Origin',(0.999999999999999,0.,0.));
#1840=CARTESIAN_POINT('',(2.,18.0933,0.));
#1841=CARTESIAN_POINT('',(2.,-18.0933,-2.21579019310128E-15));
#1842=CARTESIAN_POINT('Origin',(2.,0.,0.));
#1843=CARTESIAN_POINT('',(-2.22044604925031E-15,-18.0933,-2.21579019310128E-15));
#1844=CARTESIAN_POINT('',(0.999999999999999,-18.0933,-2.21579019310128E-15));
#1845=CARTESIAN_POINT('',(-2.54070123538306E-15,18.0933,0.));
#1846=CARTESIAN_POINT('Origin',(-2.22044604925031E-15,0.,0.));
#1847=CARTESIAN_POINT('Origin',(-2.22044604925031E-15,0.,0.));
#1848=CARTESIAN_POINT('Origin',(2.,0.,0.));
#1849=CARTESIAN_POINT('Origin',(2.,17.75365,0.));
#1850=CARTESIAN_POINT('',(2.,17.414,0.));
#1851=CARTESIAN_POINT('',(2.,-17.414,-2.1325999360352E-15));
#1852=CARTESIAN_POINT('Origin',(2.,0.,0.));
#1853=CARTESIAN_POINT('Origin',(2.,0.,0.));
#1854=CARTESIAN_POINT('Origin',(2.93743188453633,0.,0.));
#1855=CARTESIAN_POINT('',(3.87486376907267,17.414,0.));
#1856=CARTESIAN_POINT('',(3.87486376907267,13.3398979324739,11.1935034350814));
#1857=CARTESIAN_POINT('Origin',(3.87486376907267,0.,0.));
#1858=CARTESIAN_POINT('',(3.87486376907267,3.02390936589193,17.1494422109546));
#1859=CARTESIAN_POINT('Origin',(3.87486376907267,0.,0.));
#1860=CARTESIAN_POINT('',(3.87486376907267,-8.70699999999999,15.0809663815022));
#1861=CARTESIAN_POINT('Origin',(3.87486376907267,0.,0.));
#1862=CARTESIAN_POINT('',(3.87486376907267,-16.3638072983658,5.9559387758732));
#1863=CARTESIAN_POINT('Origin',(3.87486376907267,0.,0.));
#1864=CARTESIAN_POINT('',(3.87486376907267,-17.414,-2.1325999360352E-15));
#1865=CARTESIAN_POINT('Origin',(3.87486376907267,0.,0.));
#1866=CARTESIAN_POINT('',(2.93743188453633,-17.414,-2.1325999360352E-15));
#1867=CARTESIAN_POINT('',(3.87486376907267,-16.3638072983658,-5.95593877587319));
#1868=CARTESIAN_POINT('Origin',(3.87486376907267,0.,0.));
#1869=CARTESIAN_POINT('',(3.87486376907267,-8.707,-15.0809663815022));
#1870=CARTESIAN_POINT('Origin',(3.87486376907267,0.,0.));
#1871=CARTESIAN_POINT('',(3.87486376907267,3.02390936589192,-17.1494422109546));
#1872=CARTESIAN_POINT('Origin',(3.87486376907267,0.,0.));
#1873=CARTESIAN_POINT('',(3.87486376907267,13.3398979324739,-11.1935034350814));
#1874=CARTESIAN_POINT('Origin',(3.87486376907267,0.,0.));
#1875=CARTESIAN_POINT('Origin',(3.87486376907267,0.,0.));
#1876=CARTESIAN_POINT('Origin',(6.,0.,0.));
#1877=CARTESIAN_POINT('Origin',(6.,11.8736888683442,-9.96320795014136));
#1878=CARTESIAN_POINT('Origin',(6.,2.69154675383741,-15.2645201716892));
#1879=CARTESIAN_POINT('Origin',(-1.27035061769153E-15,19.54665,0.));
#1880=CARTESIAN_POINT('',(-1.2490009027033E-15,20.4,0.));
#1881=CARTESIAN_POINT('',(-1.2490009027033E-15,-2.4982794702606E-15,20.4));
#1882=CARTESIAN_POINT('Origin',(-1.2490009027033E-15,0.,0.));
#1883=CARTESIAN_POINT('Origin',(-1.2490009027033E-15,0.,0.));
#1884=CARTESIAN_POINT('Origin',(0.599999999999998,0.,0.));
#1885=CARTESIAN_POINT('',(0.599999999999998,21.,-5.14351655641888E-15));
#1886=CARTESIAN_POINT('',(0.599999999999998,-21.,-2.57175827820944E-15));
#1887=CARTESIAN_POINT('Origin',(0.599999999999998,0.,0.));
#1888=CARTESIAN_POINT('',(0.599999999999998,-2.57175827820944E-15,21.));
#1889=CARTESIAN_POINT('Origin',(0.599999999999998,0.,0.));
#1890=CARTESIAN_POINT('Origin',(0.599999999999998,-2.4982794702606E-15,
20.4));
#1891=CARTESIAN_POINT('Origin',(0.599999999999998,0.,0.));
#1892=CARTESIAN_POINT('Origin',(12.,19.54665,0.));
#1893=CARTESIAN_POINT('',(12.,20.4,-4.9965589405212E-15));
#1894=CARTESIAN_POINT('',(12.,-2.4982794702606E-15,20.4));
#1895=CARTESIAN_POINT('Origin',(12.,0.,0.));
#1896=CARTESIAN_POINT('Origin',(12.,0.,0.));
#1897=CARTESIAN_POINT('Origin',(8.00000000000001,0.,0.));
#1898=CARTESIAN_POINT('',(11.4,21.,0.));
#1899=CARTESIAN_POINT('',(11.4,-2.57175827820944E-15,21.));
#1900=CARTESIAN_POINT('Origin',(11.4,0.,0.));
#1901=CARTESIAN_POINT('',(11.4,-21.,-2.57175827820944E-15));
#1902=CARTESIAN_POINT('Origin',(11.4,0.,0.));
#1903=CARTESIAN_POINT('',(8.00000000000001,-21.,-2.57175827820944E-15));
#1904=CARTESIAN_POINT('Origin',(11.4,0.,0.));
#1905=CARTESIAN_POINT('Origin',(11.4,0.,0.));
#1906=CARTESIAN_POINT('Origin',(11.4,-2.4982794702606E-15,20.4));
#1907=CARTESIAN_POINT('Origin',(6.,0.,0.));
#1908=CARTESIAN_POINT('Origin',(6.,15.5,0.));
#1909=CARTESIAN_POINT('Origin',(6.,0.,0.));
#1910=CARTESIAN_POINT('Origin',(6.,-7.75,-13.4233937586588));
#1911=CARTESIAN_POINT('Origin',(6.,0.,0.));
#1912=CARTESIAN_POINT('Origin',(6.,-14.5652356221816,-5.30131222154786));
#1913=CARTESIAN_POINT('Origin',(6.,0.,0.));
#1914=CARTESIAN_POINT('Origin',(6.,-14.5652356221816,5.30131222154787));
#1915=CARTESIAN_POINT('Origin',(6.,0.,0.));
#1916=CARTESIAN_POINT('Origin',(6.,-7.75,13.4233937586588));
#1917=CARTESIAN_POINT('Origin',(6.,0.,0.));
#1918=CARTESIAN_POINT('Origin',(6.,2.69154675383742,15.2645201716892));
#1919=CARTESIAN_POINT('Origin',(6.,0.,0.));
#1920=CARTESIAN_POINT('Origin',(6.,11.8736888683442,9.96320795014136));
#1921=CARTESIAN_POINT('Origin',(6.,0.,0.));
#1922=UNCERTAINTY_MEASURE_WITH_UNIT(LENGTH_MEASURE(0.01),#1926,
'DISTANCE_ACCURACY_VALUE',
'Maximum model space distance between geometric entities at asserted c
onnectivities');
#1923=UNCERTAINTY_MEASURE_WITH_UNIT(LENGTH_MEASURE(0.01),#1926,
'DISTANCE_ACCURACY_VALUE',
'Maximum model space distance between geometric entities at asserted c
onnectivities');
#1924=(
GEOMETRIC_REPRESENTATION_CONTEXT(3)
GLOBAL_UNCERTAINTY_ASSIGNED_CONTEXT((#1922))
GLOBAL_UNIT_ASSIGNED_CONTEXT((#1926,#1928,#1929))
REPRESENTATION_CONTEXT('','3D')
);
#1925=(
GEOMETRIC_REPRESENTATION_CONTEXT(3)
GLOBAL_UNCERTAINTY_ASSIGNED_CONTEXT((#1923))
GLOBAL_UNIT_ASSIGNED_CONTEXT((#1926,#1928,#1929))
REPRESENTATION_CONTEXT('','3D')
);
#1926=(
LENGTH_UNIT()
NAMED_UNIT(*)
SI_UNIT(.MILLI.,.METRE.)
);
#1927=(
LENGTH_UNIT()
NAMED_UNIT(*)
SI_UNIT(.CENTI.,.METRE.)
);
#1928=(
NAMED_UNIT(*)
PLANE_ANGLE_UNIT()
SI_UNIT($,.RADIAN.)
);
#1929=(
NAMED_UNIT(*)
SI_UNIT($,.STERADIAN.)
SOLID_ANGLE_UNIT()
);
#1930=SHAPE_DEFINITION_REPRESENTATION(#1931,#1932);
#1931=PRODUCT_DEFINITION_SHAPE('',$,#1934);
#1932=SHAPE_REPRESENTATION('',(#1032),#1924);
#1933=PRODUCT_DEFINITION_CONTEXT('part definition',#1938,'design');
#1934=PRODUCT_DEFINITION('\X2\8F74627F\X0\ 6004-2Z GB/T 276-94',
'\X2\8F74627F\X0\ 6004-2Z GB_T 276-94',#1935,#1933);
#1935=PRODUCT_DEFINITION_FORMATION('',$,#1940);
#1936=PRODUCT_RELATED_PRODUCT_CATEGORY('\X2\8F74627F\X0\ 6004-2Z GB_T 
276-94','\X2\8F74627F\X0\ 6004-2Z GB_T 276-94',(#1940));
#1937=APPLICATION_PROTOCOL_DEFINITION('international standard',
'automotive_design',2009,#1938);
#1938=APPLICATION_CONTEXT(
'Core Data for Automotive Mechanical Design Process');
#1939=PRODUCT_CONTEXT('part definition',#1938,'mechanical');
#1940=PRODUCT('\X2\8F74627F\X0\ 6004-2Z GB/T 276-94',
'\X2\8F74627F\X0\ 6004-2Z GB_T 276-94',
'\X2\6EDA52A88F74627F\X0\ - \X2\5E265BC65C01570876846DF16C9F74038F74627F\X0\ 
- \X2\59165F625C3A5BF8\X0\',(#1939));
#1941=PRESENTATION_STYLE_ASSIGNMENT((#1942));
#1942=SURFACE_STYLE_USAGE(.BOTH.,#1945);
#1943=SURFACE_STYLE_RENDERING_WITH_PROPERTIES($,#1949,(#1944));
#1944=SURFACE_STYLE_TRANSPARENT(0.);
#1945=SURFACE_SIDE_STYLE('',(#1946,#1943));
#1946=SURFACE_STYLE_FILL_AREA(#1947);
#1947=FILL_AREA_STYLE('',(#1948));
#1948=FILL_AREA_STYLE_COLOUR('',#1949);
#1949=COLOUR_RGB('',0.745098039215686,0.737254901960784,0.729411764705882);
ENDSEC;
END-ISO-10303-21;
