ISO-10303-21;
HEADER;
/* Generated by software containing ST-Developer
 * from STEP Tools, Inc. (www.steptools.com) 
 */
/* OPTION: using custom renumber hook */

FILE_DESCRIPTION(
/* description */ ('STEP AP214'),
/* implementation_level */ '2;1');

FILE_NAME(
/* name */ 'LCS49-20-5-L500-F30-P12',
/* time_stamp */ '2026-07-24T17:00:49+02:00',
/* author */ ('License CC BY-ND 4.0'),
/* organization */ ('CADENAS'),
/* preprocessor_version */ 'ST-DEVELOPER v20',
/* originating_system */ 'PARTsolutions',
/* authorisation */ '  ');

FILE_SCHEMA (('AUTOMOTIVE_DESIGN {1 0 10303 214 3 1 1}'));
ENDSEC;

DATA;
#10=PROPERTY_DEFINITION_REPRESENTATION(#14,#12);
#11=PROPERTY_DEFINITION_REPRESENTATION(#15,#13);
#12=REPRESENTATION('',(#16),#1069);
#13=REPRESENTATION('',(#17),#1069);
#14=PROPERTY_DEFINITION('pmi validation property','',#1082);
#15=PROPERTY_DEFINITION('pmi validation property','',#1082);
#16=VALUE_REPRESENTATION_ITEM('number of annotations',COUNT_MEASURE(0.));
#17=VALUE_REPRESENTATION_ITEM('number of views',COUNT_MEASURE(0.));
#18=B_SPLINE_CURVE_WITH_KNOTS('',3,(#977,#978,#979,#980,#981,#982,#983,
#984,#985,#986,#987),.UNSPECIFIED.,.T.,.F.,(1,1,1,1,1,1,1,1,1,1,1,1,1,1,
1),(-0.00690036409403051,-0.00460024272935367,-0.00230012136467684,0.,0.00230012136467684,
0.00460024272935367,0.00690036409403051,0.00920048545870734,0.0115006068233842,
0.013800728188061,0.0161008495527378,0.0184009709174147,0.0207010922820915,
0.0230012136467684,0.0253013350114452),.UNSPECIFIED.);
#19=B_SPLINE_CURVE_WITH_KNOTS('',3,(#994,#995,#996,#997,#998,#999,#1000,
#1001,#1002,#1003,#1004),.UNSPECIFIED.,.T.,.F.,(1,1,1,1,1,1,1,1,1,1,1,1,
1,1,1),(-0.00579395568819259,-0.00386263712546173,-0.00193131856273086,
0.,0.00193131856273086,0.00386263712546173,0.00579395568819259,0.00772527425092345,
0.00965659281365431,0.0115879113763852,0.013519229939116,0.0154505485018469,
0.0173818670645778,0.0193131856273086,0.0212445041900395),.UNSPECIFIED.);
#20=LINE('',#972,#30);
#21=LINE('',#976,#31);
#22=LINE('',#1011,#32);
#23=LINE('',#1015,#33);
#24=LINE('',#1017,#34);
#25=LINE('',#1020,#35);
#26=LINE('',#1021,#36);
#27=LINE('',#1027,#37);
#28=LINE('',#1045,#38);
#29=LINE('',#1046,#39);
#30=VECTOR('',#808,1000.);
#31=VECTOR('',#811,1000.);
#32=VECTOR('',#824,1000.);
#33=VECTOR('',#827,1000.);
#34=VECTOR('',#830,1000.);
#35=VECTOR('',#831,1000.);
#36=VECTOR('',#832,1000.);
#37=VECTOR('',#839,1000.);
#38=VECTOR('',#862,1000.);
#39=VECTOR('',#863,1000.);
#40=ADVANCED_BREP_SHAPE_REPRESENTATION('',(#581),#1071);
#41=ADVANCED_BREP_SHAPE_REPRESENTATION('',(#582),#1072);
#42=ADVANCED_BREP_SHAPE_REPRESENTATION('',(#583),#1073);
#43=TOROIDAL_SURFACE('',#632,7.7,0.200000000000001);
#44=TOROIDAL_SURFACE('',#642,7.70000000000009,0.200000000000089);
#45=CYLINDRICAL_SURFACE('',#622,7.5);
#46=CYLINDRICAL_SURFACE('',#626,7.);
#47=CYLINDRICAL_SURFACE('',#630,7.5);
#48=CYLINDRICAL_SURFACE('',#638,10.);
#49=CYLINDRICAL_SURFACE('',#644,7.5);
#50=CYLINDRICAL_SURFACE('',#650,6.);
#51=CYLINDRICAL_SURFACE('',#659,7.5);
#52=CYLINDRICAL_SURFACE('',#663,10.);
#53=CYLINDRICAL_SURFACE('',#665,30.);
#54=CYLINDRICAL_SURFACE('',#668,8.647);
#55=CYLINDRICAL_SURFACE('',#676,30.);
#56=CYLINDRICAL_SURFACE('',#679,2.25);
#57=CYLINDRICAL_SURFACE('',#681,2.25);
#58=CYLINDRICAL_SURFACE('',#684,2.25);
#59=CYLINDRICAL_SURFACE('',#687,2.25);
#60=CYLINDRICAL_SURFACE('',#694,20.);
#61=CYLINDRICAL_SURFACE('',#704,2.4585);
#62=CONICAL_SURFACE('',#620,7.,0.785398163397447);
#63=CONICAL_SURFACE('',#636,9.7,0.785398163397503);
#64=CONICAL_SURFACE('',#646,7.5,0.785398163397447);
#65=CONICAL_SURFACE('',#652,6.,0.785398163397448);
#66=CONICAL_SURFACE('',#696,20.,0.785398163397448);
#67=CONICAL_SURFACE('',#700,10.,0.785398163397448);
#68=CONICAL_SURFACE('',#701,8.647,0.785398163397448);
#69=CONICAL_SURFACE('',#702,3.,0.785398163397451);
#70=ORIENTED_EDGE('',*,*,#180,.F.);
#71=ORIENTED_EDGE('',*,*,#181,.F.);
#72=ORIENTED_EDGE('',*,*,#180,.T.);
#73=ORIENTED_EDGE('',*,*,#182,.F.);
#74=ORIENTED_EDGE('',*,*,#181,.T.);
#75=ORIENTED_EDGE('',*,*,#183,.F.);
#76=ORIENTED_EDGE('',*,*,#182,.T.);
#77=ORIENTED_EDGE('',*,*,#184,.F.);
#78=ORIENTED_EDGE('',*,*,#183,.T.);
#79=ORIENTED_EDGE('',*,*,#185,.F.);
#80=ORIENTED_EDGE('',*,*,#184,.T.);
#81=ORIENTED_EDGE('',*,*,#186,.F.);
#82=ORIENTED_EDGE('',*,*,#185,.T.);
#83=ORIENTED_EDGE('',*,*,#187,.F.);
#84=ORIENTED_EDGE('',*,*,#186,.T.);
#85=ORIENTED_EDGE('',*,*,#188,.F.);
#86=ORIENTED_EDGE('',*,*,#187,.T.);
#87=ORIENTED_EDGE('',*,*,#189,.F.);
#88=ORIENTED_EDGE('',*,*,#188,.T.);
#89=ORIENTED_EDGE('',*,*,#190,.F.);
#90=ORIENTED_EDGE('',*,*,#189,.T.);
#91=ORIENTED_EDGE('',*,*,#191,.F.);
#92=ORIENTED_EDGE('',*,*,#190,.T.);
#93=ORIENTED_EDGE('',*,*,#192,.F.);
#94=ORIENTED_EDGE('',*,*,#191,.T.);
#95=ORIENTED_EDGE('',*,*,#193,.F.);
#96=ORIENTED_EDGE('',*,*,#192,.T.);
#97=ORIENTED_EDGE('',*,*,#194,.F.);
#98=ORIENTED_EDGE('',*,*,#193,.T.);
#99=ORIENTED_EDGE('',*,*,#195,.F.);
#100=ORIENTED_EDGE('',*,*,#194,.T.);
#101=ORIENTED_EDGE('',*,*,#196,.F.);
#102=ORIENTED_EDGE('',*,*,#195,.T.);
#103=ORIENTED_EDGE('',*,*,#197,.F.);
#104=ORIENTED_EDGE('',*,*,#196,.T.);
#105=ORIENTED_EDGE('',*,*,#197,.T.);
#106=ORIENTED_EDGE('',*,*,#198,.T.);
#107=ORIENTED_EDGE('',*,*,#199,.F.);
#108=ORIENTED_EDGE('',*,*,#200,.T.);
#109=ORIENTED_EDGE('',*,*,#198,.F.);
#110=ORIENTED_EDGE('',*,*,#201,.T.);
#111=ORIENTED_EDGE('',*,*,#200,.F.);
#112=ORIENTED_EDGE('',*,*,#199,.T.);
#113=ORIENTED_EDGE('',*,*,#201,.F.);
#114=ORIENTED_EDGE('',*,*,#202,.F.);
#115=ORIENTED_EDGE('',*,*,#203,.F.);
#116=ORIENTED_EDGE('',*,*,#204,.T.);
#117=ORIENTED_EDGE('',*,*,#205,.T.);
#118=ORIENTED_EDGE('',*,*,#206,.T.);
#119=ORIENTED_EDGE('',*,*,#207,.F.);
#120=ORIENTED_EDGE('',*,*,#208,.T.);
#121=ORIENTED_EDGE('',*,*,#209,.T.);
#122=ORIENTED_EDGE('',*,*,#210,.T.);
#123=ORIENTED_EDGE('',*,*,#211,.T.);
#124=ORIENTED_EDGE('',*,*,#212,.F.);
#125=ORIENTED_EDGE('',*,*,#213,.T.);
#126=ORIENTED_EDGE('',*,*,#214,.F.);
#127=ORIENTED_EDGE('',*,*,#204,.F.);
#128=ORIENTED_EDGE('',*,*,#215,.T.);
#129=ORIENTED_EDGE('',*,*,#216,.F.);
#130=ORIENTED_EDGE('',*,*,#205,.F.);
#131=ORIENTED_EDGE('',*,*,#214,.T.);
#132=ORIENTED_EDGE('',*,*,#217,.T.);
#133=ORIENTED_EDGE('',*,*,#218,.F.);
#134=ORIENTED_EDGE('',*,*,#215,.F.);
#135=ORIENTED_EDGE('',*,*,#219,.T.);
#136=ORIENTED_EDGE('',*,*,#220,.T.);
#137=ORIENTED_EDGE('',*,*,#210,.F.);
#138=ORIENTED_EDGE('',*,*,#221,.T.);
#139=ORIENTED_EDGE('',*,*,#222,.F.);
#140=ORIENTED_EDGE('',*,*,#223,.T.);
#141=ORIENTED_EDGE('',*,*,#224,.F.);
#142=ORIENTED_EDGE('',*,*,#225,.T.);
#143=ORIENTED_EDGE('',*,*,#211,.F.);
#144=ORIENTED_EDGE('',*,*,#226,.T.);
#145=ORIENTED_EDGE('',*,*,#203,.T.);
#146=ORIENTED_EDGE('',*,*,#227,.F.);
#147=ORIENTED_EDGE('',*,*,#220,.F.);
#148=ORIENTED_EDGE('',*,*,#228,.T.);
#149=ORIENTED_EDGE('',*,*,#212,.T.);
#150=ORIENTED_EDGE('',*,*,#224,.T.);
#151=ORIENTED_EDGE('',*,*,#222,.T.);
#152=ORIENTED_EDGE('',*,*,#217,.F.);
#153=ORIENTED_EDGE('',*,*,#229,.T.);
#154=ORIENTED_EDGE('',*,*,#228,.F.);
#155=ORIENTED_EDGE('',*,*,#219,.F.);
#156=ORIENTED_EDGE('',*,*,#227,.T.);
#157=ORIENTED_EDGE('',*,*,#202,.T.);
#158=ORIENTED_EDGE('',*,*,#216,.T.);
#159=ORIENTED_EDGE('',*,*,#218,.T.);
#160=ORIENTED_EDGE('',*,*,#225,.F.);
#161=ORIENTED_EDGE('',*,*,#223,.F.);
#162=ORIENTED_EDGE('',*,*,#221,.F.);
#163=ORIENTED_EDGE('',*,*,#226,.F.);
#164=ORIENTED_EDGE('',*,*,#230,.F.);
#165=ORIENTED_EDGE('',*,*,#231,.T.);
#166=ORIENTED_EDGE('',*,*,#213,.F.);
#167=ORIENTED_EDGE('',*,*,#229,.F.);
#168=ORIENTED_EDGE('',*,*,#232,.T.);
#169=ORIENTED_EDGE('',*,*,#231,.F.);
#170=ORIENTED_EDGE('',*,*,#233,.T.);
#171=ORIENTED_EDGE('',*,*,#232,.F.);
#172=ORIENTED_EDGE('',*,*,#207,.T.);
#173=ORIENTED_EDGE('',*,*,#233,.F.);
#174=ORIENTED_EDGE('',*,*,#230,.T.);
#175=ORIENTED_EDGE('',*,*,#208,.F.);
#176=ORIENTED_EDGE('',*,*,#234,.T.);
#177=ORIENTED_EDGE('',*,*,#206,.F.);
#178=ORIENTED_EDGE('',*,*,#209,.F.);
#179=ORIENTED_EDGE('',*,*,#234,.F.);
#180=EDGE_CURVE('',#235,#235,#284,.T.);
#181=EDGE_CURVE('',#236,#236,#285,.T.);
#182=EDGE_CURVE('',#237,#237,#286,.T.);
#183=EDGE_CURVE('',#238,#238,#287,.T.);
#184=EDGE_CURVE('',#239,#239,#288,.T.);
#185=EDGE_CURVE('',#240,#240,#289,.T.);
#186=EDGE_CURVE('',#241,#241,#290,.T.);
#187=EDGE_CURVE('',#242,#242,#291,.T.);
#188=EDGE_CURVE('',#243,#243,#292,.T.);
#189=EDGE_CURVE('',#244,#244,#293,.T.);
#190=EDGE_CURVE('',#245,#245,#294,.T.);
#191=EDGE_CURVE('',#246,#246,#295,.T.);
#192=EDGE_CURVE('',#247,#247,#296,.T.);
#193=EDGE_CURVE('',#248,#248,#297,.T.);
#194=EDGE_CURVE('',#249,#249,#298,.T.);
#195=EDGE_CURVE('',#250,#250,#299,.T.);
#196=EDGE_CURVE('',#251,#251,#300,.T.);
#197=EDGE_CURVE('',#252,#252,#301,.T.);
#198=EDGE_CURVE('',#253,#253,#302,.T.);
#199=EDGE_CURVE('',#254,#254,#303,.T.);
#200=EDGE_CURVE('',#255,#255,#304,.T.);
#201=EDGE_CURVE('',#256,#256,#305,.T.);
#202=EDGE_CURVE('',#257,#258,#306,.T.);
#203=EDGE_CURVE('',#259,#257,#20,.T.);
#204=EDGE_CURVE('',#259,#260,#307,.T.);
#205=EDGE_CURVE('',#260,#258,#21,.T.);
#206=EDGE_CURVE('',#261,#261,#18,.T.);
#207=EDGE_CURVE('',#262,#262,#308,.T.);
#208=EDGE_CURVE('',#263,#263,#309,.T.);
#209=EDGE_CURVE('',#264,#264,#19,.T.);
#210=EDGE_CURVE('',#265,#265,#310,.T.);
#211=EDGE_CURVE('',#266,#266,#311,.T.);
#212=EDGE_CURVE('',#267,#259,#22,.T.);
#213=EDGE_CURVE('',#267,#268,#312,.T.);
#214=EDGE_CURVE('',#260,#268,#23,.T.);
#215=EDGE_CURVE('',#269,#270,#24,.T.);
#216=EDGE_CURVE('',#258,#270,#25,.T.);
#217=EDGE_CURVE('',#268,#269,#26,.T.);
#218=EDGE_CURVE('',#270,#271,#313,.T.);
#219=EDGE_CURVE('',#269,#272,#314,.T.);
#220=EDGE_CURVE('',#272,#271,#27,.T.);
#221=EDGE_CURVE('',#273,#273,#315,.T.);
#222=EDGE_CURVE('',#274,#274,#316,.T.);
#223=EDGE_CURVE('',#275,#275,#317,.T.);
#224=EDGE_CURVE('',#276,#276,#318,.T.);
#225=EDGE_CURVE('',#277,#277,#319,.T.);
#226=EDGE_CURVE('',#278,#278,#320,.T.);
#227=EDGE_CURVE('',#271,#257,#28,.T.);
#228=EDGE_CURVE('',#272,#267,#29,.T.);
#229=EDGE_CURVE('',#268,#267,#321,.T.);
#230=EDGE_CURVE('',#279,#279,#322,.T.);
#231=EDGE_CURVE('',#280,#280,#323,.T.);
#232=EDGE_CURVE('',#281,#281,#324,.T.);
#233=EDGE_CURVE('',#282,#282,#325,.T.);
#234=EDGE_CURVE('',#283,#283,#326,.T.);
#235=VERTEX_POINT('',#901);
#236=VERTEX_POINT('',#904);
#237=VERTEX_POINT('',#907);
#238=VERTEX_POINT('',#910);
#239=VERTEX_POINT('',#913);
#240=VERTEX_POINT('',#916);
#241=VERTEX_POINT('',#919);
#242=VERTEX_POINT('',#922);
#243=VERTEX_POINT('',#925);
#244=VERTEX_POINT('',#928);
#245=VERTEX_POINT('',#931);
#246=VERTEX_POINT('',#934);
#247=VERTEX_POINT('',#937);
#248=VERTEX_POINT('',#940);
#249=VERTEX_POINT('',#943);
#250=VERTEX_POINT('',#946);
#251=VERTEX_POINT('',#949);
#252=VERTEX_POINT('',#952);
#253=VERTEX_POINT('',#957);
#254=VERTEX_POINT('',#959);
#255=VERTEX_POINT('',#962);
#256=VERTEX_POINT('',#965);
#257=VERTEX_POINT('',#970);
#258=VERTEX_POINT('',#971);
#259=VERTEX_POINT('',#973);
#260=VERTEX_POINT('',#975);
#261=VERTEX_POINT('',#988);
#262=VERTEX_POINT('',#991);
#263=VERTEX_POINT('',#993);
#264=VERTEX_POINT('',#1005);
#265=VERTEX_POINT('',#1008);
#266=VERTEX_POINT('',#1010);
#267=VERTEX_POINT('',#1012);
#268=VERTEX_POINT('',#1014);
#269=VERTEX_POINT('',#1018);
#270=VERTEX_POINT('',#1019);
#271=VERTEX_POINT('',#1024);
#272=VERTEX_POINT('',#1026);
#273=VERTEX_POINT('',#1030);
#274=VERTEX_POINT('',#1033);
#275=VERTEX_POINT('',#1035);
#276=VERTEX_POINT('',#1038);
#277=VERTEX_POINT('',#1040);
#278=VERTEX_POINT('',#1043);
#279=VERTEX_POINT('',#1051);
#280=VERTEX_POINT('',#1054);
#281=VERTEX_POINT('',#1057);
#282=VERTEX_POINT('',#1060);
#283=VERTEX_POINT('',#1065);
#284=CIRCLE('',#619,7.);
#285=CIRCLE('',#621,7.5);
#286=CIRCLE('',#623,7.5);
#287=CIRCLE('',#625,7.);
#288=CIRCLE('',#627,7.);
#289=CIRCLE('',#629,7.5);
#290=CIRCLE('',#631,7.5);
#291=CIRCLE('',#633,7.7);
#292=CIRCLE('',#635,9.7);
#293=CIRCLE('',#637,10.);
#294=CIRCLE('',#639,10.);
#295=CIRCLE('',#641,7.7);
#296=CIRCLE('',#643,7.50000000000001);
#297=CIRCLE('',#645,7.5);
#298=CIRCLE('',#647,7.);
#299=CIRCLE('',#649,6.);
#300=CIRCLE('',#651,6.);
#301=CIRCLE('',#653,5.5);
#302=CIRCLE('',#657,7.5);
#303=CIRCLE('',#658,10.);
#304=CIRCLE('',#660,7.5);
#305=CIRCLE('',#662,10.);
#306=CIRCLE('',#666,30.);
#307=CIRCLE('',#667,30.);
#308=CIRCLE('',#669,8.647);
#309=CIRCLE('',#670,8.647);
#310=CIRCLE('',#672,2.25);
#311=CIRCLE('',#673,2.25);
#312=CIRCLE('',#674,20.);
#313=CIRCLE('',#677,30.);
#314=CIRCLE('',#678,30.);
#315=CIRCLE('',#680,2.25);
#316=CIRCLE('',#682,2.25);
#317=CIRCLE('',#683,2.25);
#318=CIRCLE('',#685,2.25);
#319=CIRCLE('',#686,2.25);
#320=CIRCLE('',#688,2.25);
#321=CIRCLE('',#691,20.);
#322=CIRCLE('',#693,10.);
#323=CIRCLE('',#695,20.);
#324=CIRCLE('',#697,19.5);
#325=CIRCLE('',#699,10.);
#326=CIRCLE('',#703,2.4585);
#327=EDGE_LOOP('',(#70));
#328=EDGE_LOOP('',(#71));
#329=EDGE_LOOP('',(#72));
#330=EDGE_LOOP('',(#73));
#331=EDGE_LOOP('',(#74));
#332=EDGE_LOOP('',(#75));
#333=EDGE_LOOP('',(#76));
#334=EDGE_LOOP('',(#77));
#335=EDGE_LOOP('',(#78));
#336=EDGE_LOOP('',(#79));
#337=EDGE_LOOP('',(#80));
#338=EDGE_LOOP('',(#81));
#339=EDGE_LOOP('',(#82));
#340=EDGE_LOOP('',(#83));
#341=EDGE_LOOP('',(#84));
#342=EDGE_LOOP('',(#85));
#343=EDGE_LOOP('',(#86));
#344=EDGE_LOOP('',(#87));
#345=EDGE_LOOP('',(#88));
#346=EDGE_LOOP('',(#89));
#347=EDGE_LOOP('',(#90));
#348=EDGE_LOOP('',(#91));
#349=EDGE_LOOP('',(#92));
#350=EDGE_LOOP('',(#93));
#351=EDGE_LOOP('',(#94));
#352=EDGE_LOOP('',(#95));
#353=EDGE_LOOP('',(#96));
#354=EDGE_LOOP('',(#97));
#355=EDGE_LOOP('',(#98));
#356=EDGE_LOOP('',(#99));
#357=EDGE_LOOP('',(#100));
#358=EDGE_LOOP('',(#101));
#359=EDGE_LOOP('',(#102));
#360=EDGE_LOOP('',(#103));
#361=EDGE_LOOP('',(#104));
#362=EDGE_LOOP('',(#105));
#363=EDGE_LOOP('',(#106));
#364=EDGE_LOOP('',(#107));
#365=EDGE_LOOP('',(#108));
#366=EDGE_LOOP('',(#109));
#367=EDGE_LOOP('',(#110));
#368=EDGE_LOOP('',(#111));
#369=EDGE_LOOP('',(#112));
#370=EDGE_LOOP('',(#113));
#371=EDGE_LOOP('',(#114,#115,#116,#117));
#372=EDGE_LOOP('',(#118));
#373=EDGE_LOOP('',(#119));
#374=EDGE_LOOP('',(#120));
#375=EDGE_LOOP('',(#121));
#376=EDGE_LOOP('',(#122));
#377=EDGE_LOOP('',(#123));
#378=EDGE_LOOP('',(#124,#125,#126,#127));
#379=EDGE_LOOP('',(#128,#129,#130,#131,#132));
#380=EDGE_LOOP('',(#133,#134,#135,#136));
#381=EDGE_LOOP('',(#137));
#382=EDGE_LOOP('',(#138));
#383=EDGE_LOOP('',(#139));
#384=EDGE_LOOP('',(#140));
#385=EDGE_LOOP('',(#141));
#386=EDGE_LOOP('',(#142));
#387=EDGE_LOOP('',(#143));
#388=EDGE_LOOP('',(#144));
#389=EDGE_LOOP('',(#145,#146,#147,#148,#149));
#390=EDGE_LOOP('',(#150));
#391=EDGE_LOOP('',(#151));
#392=EDGE_LOOP('',(#152,#153,#154,#155));
#393=EDGE_LOOP('',(#156,#157,#158,#159));
#394=EDGE_LOOP('',(#160));
#395=EDGE_LOOP('',(#161));
#396=EDGE_LOOP('',(#162));
#397=EDGE_LOOP('',(#163));
#398=EDGE_LOOP('',(#164));
#399=EDGE_LOOP('',(#165));
#400=EDGE_LOOP('',(#166,#167));
#401=EDGE_LOOP('',(#168));
#402=EDGE_LOOP('',(#169));
#403=EDGE_LOOP('',(#170));
#404=EDGE_LOOP('',(#171));
#405=EDGE_LOOP('',(#172));
#406=EDGE_LOOP('',(#173));
#407=EDGE_LOOP('',(#174));
#408=EDGE_LOOP('',(#175));
#409=EDGE_LOOP('',(#176));
#410=EDGE_LOOP('',(#177));
#411=EDGE_LOOP('',(#178));
#412=EDGE_LOOP('',(#179));
#413=FACE_BOUND('',#327,.T.);
#414=FACE_BOUND('',#328,.T.);
#415=FACE_BOUND('',#329,.T.);
#416=FACE_BOUND('',#330,.T.);
#417=FACE_BOUND('',#331,.T.);
#418=FACE_BOUND('',#332,.T.);
#419=FACE_BOUND('',#333,.T.);
#420=FACE_BOUND('',#334,.T.);
#421=FACE_BOUND('',#335,.T.);
#422=FACE_BOUND('',#336,.T.);
#423=FACE_BOUND('',#337,.T.);
#424=FACE_BOUND('',#338,.T.);
#425=FACE_BOUND('',#339,.T.);
#426=FACE_BOUND('',#340,.T.);
#427=FACE_BOUND('',#341,.T.);
#428=FACE_BOUND('',#342,.T.);
#429=FACE_BOUND('',#343,.T.);
#430=FACE_BOUND('',#344,.T.);
#431=FACE_BOUND('',#345,.T.);
#432=FACE_BOUND('',#346,.T.);
#433=FACE_BOUND('',#347,.T.);
#434=FACE_BOUND('',#348,.T.);
#435=FACE_BOUND('',#349,.T.);
#436=FACE_BOUND('',#350,.T.);
#437=FACE_BOUND('',#351,.T.);
#438=FACE_BOUND('',#352,.T.);
#439=FACE_BOUND('',#353,.T.);
#440=FACE_BOUND('',#354,.T.);
#441=FACE_BOUND('',#355,.T.);
#442=FACE_BOUND('',#356,.T.);
#443=FACE_BOUND('',#357,.T.);
#444=FACE_BOUND('',#358,.T.);
#445=FACE_BOUND('',#359,.T.);
#446=FACE_BOUND('',#360,.T.);
#447=FACE_BOUND('',#361,.T.);
#448=FACE_BOUND('',#362,.T.);
#449=FACE_BOUND('',#363,.T.);
#450=FACE_BOUND('',#364,.T.);
#451=FACE_BOUND('',#365,.T.);
#452=FACE_BOUND('',#366,.T.);
#453=FACE_BOUND('',#367,.T.);
#454=FACE_BOUND('',#368,.T.);
#455=FACE_BOUND('',#369,.T.);
#456=FACE_BOUND('',#370,.T.);
#457=FACE_BOUND('',#371,.T.);
#458=FACE_BOUND('',#372,.T.);
#459=FACE_BOUND('',#373,.T.);
#460=FACE_BOUND('',#374,.T.);
#461=FACE_BOUND('',#375,.T.);
#462=FACE_BOUND('',#376,.T.);
#463=FACE_BOUND('',#377,.T.);
#464=FACE_BOUND('',#378,.T.);
#465=FACE_BOUND('',#379,.T.);
#466=FACE_BOUND('',#380,.T.);
#467=FACE_BOUND('',#381,.T.);
#468=FACE_BOUND('',#382,.T.);
#469=FACE_BOUND('',#383,.T.);
#470=FACE_BOUND('',#384,.T.);
#471=FACE_BOUND('',#385,.T.);
#472=FACE_BOUND('',#386,.T.);
#473=FACE_BOUND('',#387,.T.);
#474=FACE_BOUND('',#388,.T.);
#475=FACE_BOUND('',#389,.T.);
#476=FACE_BOUND('',#390,.T.);
#477=FACE_BOUND('',#391,.T.);
#478=FACE_BOUND('',#392,.T.);
#479=FACE_BOUND('',#393,.T.);
#480=FACE_BOUND('',#394,.T.);
#481=FACE_BOUND('',#395,.T.);
#482=FACE_BOUND('',#396,.T.);
#483=FACE_BOUND('',#397,.T.);
#484=FACE_BOUND('',#398,.T.);
#485=FACE_BOUND('',#399,.T.);
#486=FACE_BOUND('',#400,.T.);
#487=FACE_BOUND('',#401,.T.);
#488=FACE_BOUND('',#402,.T.);
#489=FACE_BOUND('',#403,.T.);
#490=FACE_BOUND('',#404,.T.);
#491=FACE_BOUND('',#405,.T.);
#492=FACE_BOUND('',#406,.T.);
#493=FACE_BOUND('',#407,.T.);
#494=FACE_BOUND('',#408,.T.);
#495=FACE_BOUND('',#409,.T.);
#496=FACE_BOUND('',#410,.T.);
#497=FACE_BOUND('',#411,.T.);
#498=FACE_BOUND('',#412,.T.);
#499=PLANE('',#618);
#500=PLANE('',#624);
#501=PLANE('',#628);
#502=PLANE('',#634);
#503=PLANE('',#640);
#504=PLANE('',#648);
#505=PLANE('',#654);
#506=PLANE('',#656);
#507=PLANE('',#661);
#508=PLANE('',#671);
#509=PLANE('',#675);
#510=PLANE('',#689);
#511=PLANE('',#690);
#512=PLANE('',#692);
#513=PLANE('',#698);
#514=ADVANCED_FACE('',(#413),#499,.F.);
#515=ADVANCED_FACE('',(#414,#415),#62,.T.);
#516=ADVANCED_FACE('',(#416,#417),#45,.T.);
#517=ADVANCED_FACE('',(#418,#419),#500,.F.);
#518=ADVANCED_FACE('',(#420,#421),#46,.T.);
#519=ADVANCED_FACE('',(#422,#423),#501,.F.);
#520=ADVANCED_FACE('',(#424,#425),#47,.T.);
#521=ADVANCED_FACE('',(#426,#427),#43,.F.);
#522=ADVANCED_FACE('',(#428,#429),#502,.F.);
#523=ADVANCED_FACE('',(#430,#431),#63,.T.);
#524=ADVANCED_FACE('',(#432,#433),#48,.T.);
#525=ADVANCED_FACE('',(#434,#435),#503,.F.);
#526=ADVANCED_FACE('',(#436,#437),#44,.F.);
#527=ADVANCED_FACE('',(#438,#439),#49,.T.);
#528=ADVANCED_FACE('',(#440,#441),#64,.T.);
#529=ADVANCED_FACE('',(#442,#443),#504,.F.);
#530=ADVANCED_FACE('',(#444,#445),#50,.T.);
#531=ADVANCED_FACE('',(#446,#447),#65,.T.);
#532=ADVANCED_FACE('',(#448),#505,.F.);
#533=ADVANCED_FACE('',(#449,#450),#506,.T.);
#534=ADVANCED_FACE('',(#451,#452),#51,.F.);
#535=ADVANCED_FACE('',(#453,#454),#507,.T.);
#536=ADVANCED_FACE('',(#455,#456),#52,.T.);
#537=ADVANCED_FACE('',(#457,#458),#53,.T.);
#538=ADVANCED_FACE('',(#459,#460,#461),#54,.F.);
#539=ADVANCED_FACE('',(#462,#463,#464),#508,.F.);
#540=ADVANCED_FACE('',(#465),#509,.T.);
#541=ADVANCED_FACE('',(#466),#55,.T.);
#542=ADVANCED_FACE('',(#467,#468),#56,.F.);
#543=ADVANCED_FACE('',(#469,#470),#57,.F.);
#544=ADVANCED_FACE('',(#471,#472),#58,.F.);
#545=ADVANCED_FACE('',(#473,#474),#59,.F.);
#546=ADVANCED_FACE('',(#475),#510,.T.);
#547=ADVANCED_FACE('',(#476,#477,#478),#511,.F.);
#548=ADVANCED_FACE('',(#479,#480,#481,#482,#483,#484),#512,.T.);
#549=ADVANCED_FACE('',(#485,#486),#60,.T.);
#550=ADVANCED_FACE('',(#487,#488),#66,.T.);
#551=ADVANCED_FACE('',(#489,#490),#513,.T.);
#552=ADVANCED_FACE('',(#491,#492),#67,.F.);
#553=ADVANCED_FACE('',(#493,#494),#68,.F.);
#554=ADVANCED_FACE('',(#495,#496),#69,.F.);
#555=ADVANCED_FACE('',(#497,#498),#61,.F.);
#556=CLOSED_SHELL('',(#514,#515,#516,#517,#518,#519,#520,#521,#522,#523,
#524,#525,#526,#527,#528,#529,#530,#531,#532));
#557=CLOSED_SHELL('',(#533,#534,#535,#536));
#558=CLOSED_SHELL('',(#537,#538,#539,#540,#541,#542,#543,#544,#545,#546,
#547,#548,#549,#550,#551,#552,#553,#554,#555));
#559=STYLED_ITEM('',(#562),#581);
#560=STYLED_ITEM('',(#563),#582);
#561=STYLED_ITEM('',(#564),#583);
#562=PRESENTATION_STYLE_ASSIGNMENT((#565));
#563=PRESENTATION_STYLE_ASSIGNMENT((#566));
#564=PRESENTATION_STYLE_ASSIGNMENT((#567));
#565=SURFACE_STYLE_USAGE(.BOTH.,#568);
#566=SURFACE_STYLE_USAGE(.BOTH.,#569);
#567=SURFACE_STYLE_USAGE(.BOTH.,#570);
#568=SURFACE_SIDE_STYLE('',(#571));
#569=SURFACE_SIDE_STYLE('',(#572));
#570=SURFACE_SIDE_STYLE('',(#573));
#571=SURFACE_STYLE_FILL_AREA(#574);
#572=SURFACE_STYLE_FILL_AREA(#575);
#573=SURFACE_STYLE_FILL_AREA(#576);
#574=FILL_AREA_STYLE('',(#577));
#575=FILL_AREA_STYLE('',(#578));
#576=FILL_AREA_STYLE('',(#579));
#577=FILL_AREA_STYLE_COLOUR('',#580);
#578=FILL_AREA_STYLE_COLOUR('',#580);
#579=FILL_AREA_STYLE_COLOUR('',#580);
#580=COLOUR_RGB('',0.689999997615814,0.689999997615814,0.689999997615814);
#581=MANIFOLD_SOLID_BREP('LCS49-20-5-L500-F30-P12-001',#556);
#582=MANIFOLD_SOLID_BREP('LCS49-20-5-L500-F30-P12-002',#557);
#583=MANIFOLD_SOLID_BREP('LCS49-20-5-L500-F30-P12-003',#558);
#584=CONTEXT_DEPENDENT_SHAPE_REPRESENTATION(#592,#1084);
#585=CONTEXT_DEPENDENT_SHAPE_REPRESENTATION(#593,#1086);
#586=CONTEXT_DEPENDENT_SHAPE_REPRESENTATION(#594,#1088);
#587=CONTEXT_DEPENDENT_SHAPE_REPRESENTATION(#595,#1090);
#588=NEXT_ASSEMBLY_USAGE_OCCURRENCE('NAUO1',
'LCS49-20-5-L500-F30-P12-DUMMY','LCS49-20-5-L500-F30-P12-DUMMY',#1091,#1092,
'');
#589=NEXT_ASSEMBLY_USAGE_OCCURRENCE('NAUO2',
'LCS49-20-5-L500-F30-P12-001','LCS49-20-5-L500-F30-P12-001',#1091,#1093,
'');
#590=NEXT_ASSEMBLY_USAGE_OCCURRENCE('NAUO3',
'LCS49-20-5-L500-F30-P12-002','LCS49-20-5-L500-F30-P12-002',#1091,#1094,
'');
#591=NEXT_ASSEMBLY_USAGE_OCCURRENCE('NAUO4',
'LCS49-20-5-L500-F30-P12-003','LCS49-20-5-L500-F30-P12-003',#1091,#1095,
'');
#592=(
REPRESENTATION_RELATIONSHIP(' ',' ',#612,#611)
REPRESENTATION_RELATIONSHIP_WITH_TRANSFORMATION(#596)
SHAPE_REPRESENTATION_RELATIONSHIP()
);
#593=(
REPRESENTATION_RELATIONSHIP(' ',' ',#613,#611)
REPRESENTATION_RELATIONSHIP_WITH_TRANSFORMATION(#597)
SHAPE_REPRESENTATION_RELATIONSHIP()
);
#594=(
REPRESENTATION_RELATIONSHIP(' ',' ',#614,#611)
REPRESENTATION_RELATIONSHIP_WITH_TRANSFORMATION(#598)
SHAPE_REPRESENTATION_RELATIONSHIP()
);
#595=(
REPRESENTATION_RELATIONSHIP(' ',' ',#615,#611)
REPRESENTATION_RELATIONSHIP_WITH_TRANSFORMATION(#599)
SHAPE_REPRESENTATION_RELATIONSHIP()
);
#596=ITEM_DEFINED_TRANSFORMATION(' ',' ',#616,#617);
#597=ITEM_DEFINED_TRANSFORMATION(' ',' ',#616,#655);
#598=ITEM_DEFINED_TRANSFORMATION(' ',' ',#616,#664);
#599=ITEM_DEFINED_TRANSFORMATION(' ',' ',#616,#705);
#600=SHAPE_REPRESENTATION_RELATIONSHIP('','',#612,#604);
#601=SHAPE_REPRESENTATION_RELATIONSHIP('','',#613,#40);
#602=SHAPE_REPRESENTATION_RELATIONSHIP('','',#614,#41);
#603=SHAPE_REPRESENTATION_RELATIONSHIP('','',#615,#42);
#604=GEOMETRICALLY_BOUNDED_WIREFRAME_SHAPE_REPRESENTATION('',(#605),#1070);
#605=GEOMETRIC_CURVE_SET('',(#897));
#606=SHAPE_DEFINITION_REPRESENTATION(#1082,#611);
#607=SHAPE_DEFINITION_REPRESENTATION(#1083,#612);
#608=SHAPE_DEFINITION_REPRESENTATION(#1085,#613);
#609=SHAPE_DEFINITION_REPRESENTATION(#1087,#614);
#610=SHAPE_DEFINITION_REPRESENTATION(#1089,#615);
#611=SHAPE_REPRESENTATION('LCS49-20-5-L500-F30-P12',(#616,#617,#655,#664,
#705),#1069);
#612=SHAPE_REPRESENTATION('LCS49-20-5-L500-F30-P12-DUMMY',(#616),#1070);
#613=SHAPE_REPRESENTATION('LCS49-20-5-L500-F30-P12-001',(#616),#1071);
#614=SHAPE_REPRESENTATION('LCS49-20-5-L500-F30-P12-002',(#616),#1072);
#615=SHAPE_REPRESENTATION('LCS49-20-5-L500-F30-P12-003',(#616),#1073);
#616=AXIS2_PLACEMENT_3D('',#896,#706,#707);
#617=AXIS2_PLACEMENT_3D('',#898,#708,#709);
#618=AXIS2_PLACEMENT_3D('',#899,#710,#711);
#619=AXIS2_PLACEMENT_3D('',#900,#712,#713);
#620=AXIS2_PLACEMENT_3D('',#902,#714,#715);
#621=AXIS2_PLACEMENT_3D('',#903,#716,#717);
#622=AXIS2_PLACEMENT_3D('',#905,#718,#719);
#623=AXIS2_PLACEMENT_3D('',#906,#720,#721);
#624=AXIS2_PLACEMENT_3D('',#908,#722,#723);
#625=AXIS2_PLACEMENT_3D('',#909,#724,#725);
#626=AXIS2_PLACEMENT_3D('',#911,#726,#727);
#627=AXIS2_PLACEMENT_3D('',#912,#728,#729);
#628=AXIS2_PLACEMENT_3D('',#914,#730,#731);
#629=AXIS2_PLACEMENT_3D('',#915,#732,#733);
#630=AXIS2_PLACEMENT_3D('',#917,#734,#735);
#631=AXIS2_PLACEMENT_3D('',#918,#736,#737);
#632=AXIS2_PLACEMENT_3D('',#920,#738,#739);
#633=AXIS2_PLACEMENT_3D('',#921,#740,#741);
#634=AXIS2_PLACEMENT_3D('',#923,#742,#743);
#635=AXIS2_PLACEMENT_3D('',#924,#744,#745);
#636=AXIS2_PLACEMENT_3D('',#926,#746,#747);
#637=AXIS2_PLACEMENT_3D('',#927,#748,#749);
#638=AXIS2_PLACEMENT_3D('',#929,#750,#751);
#639=AXIS2_PLACEMENT_3D('',#930,#752,#753);
#640=AXIS2_PLACEMENT_3D('',#932,#754,#755);
#641=AXIS2_PLACEMENT_3D('',#933,#756,#757);
#642=AXIS2_PLACEMENT_3D('',#935,#758,#759);
#643=AXIS2_PLACEMENT_3D('',#936,#760,#761);
#644=AXIS2_PLACEMENT_3D('',#938,#762,#763);
#645=AXIS2_PLACEMENT_3D('',#939,#764,#765);
#646=AXIS2_PLACEMENT_3D('',#941,#766,#767);
#647=AXIS2_PLACEMENT_3D('',#942,#768,#769);
#648=AXIS2_PLACEMENT_3D('',#944,#770,#771);
#649=AXIS2_PLACEMENT_3D('',#945,#772,#773);
#650=AXIS2_PLACEMENT_3D('',#947,#774,#775);
#651=AXIS2_PLACEMENT_3D('',#948,#776,#777);
#652=AXIS2_PLACEMENT_3D('',#950,#778,#779);
#653=AXIS2_PLACEMENT_3D('',#951,#780,#781);
#654=AXIS2_PLACEMENT_3D('',#953,#782,#783);
#655=AXIS2_PLACEMENT_3D('',#954,#784,#785);
#656=AXIS2_PLACEMENT_3D('',#955,#786,#787);
#657=AXIS2_PLACEMENT_3D('',#956,#788,#789);
#658=AXIS2_PLACEMENT_3D('',#958,#790,#791);
#659=AXIS2_PLACEMENT_3D('',#960,#792,#793);
#660=AXIS2_PLACEMENT_3D('',#961,#794,#795);
#661=AXIS2_PLACEMENT_3D('',#963,#796,#797);
#662=AXIS2_PLACEMENT_3D('',#964,#798,#799);
#663=AXIS2_PLACEMENT_3D('',#966,#800,#801);
#664=AXIS2_PLACEMENT_3D('',#967,#802,#803);
#665=AXIS2_PLACEMENT_3D('',#968,#804,#805);
#666=AXIS2_PLACEMENT_3D('',#969,#806,#807);
#667=AXIS2_PLACEMENT_3D('',#974,#809,#810);
#668=AXIS2_PLACEMENT_3D('',#989,#812,#813);
#669=AXIS2_PLACEMENT_3D('',#990,#814,#815);
#670=AXIS2_PLACEMENT_3D('',#992,#816,#817);
#671=AXIS2_PLACEMENT_3D('',#1006,#818,#819);
#672=AXIS2_PLACEMENT_3D('',#1007,#820,#821);
#673=AXIS2_PLACEMENT_3D('',#1009,#822,#823);
#674=AXIS2_PLACEMENT_3D('',#1013,#825,#826);
#675=AXIS2_PLACEMENT_3D('',#1016,#828,#829);
#676=AXIS2_PLACEMENT_3D('',#1022,#833,#834);
#677=AXIS2_PLACEMENT_3D('',#1023,#835,#836);
#678=AXIS2_PLACEMENT_3D('',#1025,#837,#838);
#679=AXIS2_PLACEMENT_3D('',#1028,#840,#841);
#680=AXIS2_PLACEMENT_3D('',#1029,#842,#843);
#681=AXIS2_PLACEMENT_3D('',#1031,#844,#845);
#682=AXIS2_PLACEMENT_3D('',#1032,#846,#847);
#683=AXIS2_PLACEMENT_3D('',#1034,#848,#849);
#684=AXIS2_PLACEMENT_3D('',#1036,#850,#851);
#685=AXIS2_PLACEMENT_3D('',#1037,#852,#853);
#686=AXIS2_PLACEMENT_3D('',#1039,#854,#855);
#687=AXIS2_PLACEMENT_3D('',#1041,#856,#857);
#688=AXIS2_PLACEMENT_3D('',#1042,#858,#859);
#689=AXIS2_PLACEMENT_3D('',#1044,#860,#861);
#690=AXIS2_PLACEMENT_3D('',#1047,#864,#865);
#691=AXIS2_PLACEMENT_3D('',#1048,#866,#867);
#692=AXIS2_PLACEMENT_3D('',#1049,#868,#869);
#693=AXIS2_PLACEMENT_3D('',#1050,#870,#871);
#694=AXIS2_PLACEMENT_3D('',#1052,#872,#873);
#695=AXIS2_PLACEMENT_3D('',#1053,#874,#875);
#696=AXIS2_PLACEMENT_3D('',#1055,#876,#877);
#697=AXIS2_PLACEMENT_3D('',#1056,#878,#879);
#698=AXIS2_PLACEMENT_3D('',#1058,#880,#881);
#699=AXIS2_PLACEMENT_3D('',#1059,#882,#883);
#700=AXIS2_PLACEMENT_3D('',#1061,#884,#885);
#701=AXIS2_PLACEMENT_3D('',#1062,#886,#887);
#702=AXIS2_PLACEMENT_3D('',#1063,#888,#889);
#703=AXIS2_PLACEMENT_3D('',#1064,#890,#891);
#704=AXIS2_PLACEMENT_3D('',#1066,#892,#893);
#705=AXIS2_PLACEMENT_3D('',#1067,#894,#895);
#706=DIRECTION('',(0.,0.,1.));
#707=DIRECTION('',(1.,0.,0.));
#708=DIRECTION('',(0.,0.,1.));
#709=DIRECTION('',(1.,0.,0.));
#710=DIRECTION('',(1.,0.,0.));
#711=DIRECTION('',(0.,0.,-1.));
#712=DIRECTION('',(1.,0.,0.));
#713=DIRECTION('',(0.,0.,-1.));
#714=DIRECTION('',(1.,0.,0.));
#715=DIRECTION('',(0.,0.,-1.));
#716=DIRECTION('',(1.,0.,0.));
#717=DIRECTION('',(0.,0.,-1.));
#718=DIRECTION('',(1.,0.,0.));
#719=DIRECTION('',(0.,0.,-1.));
#720=DIRECTION('',(1.,0.,0.));
#721=DIRECTION('',(0.,0.,-1.));
#722=DIRECTION('',(-1.,0.,0.));
#723=DIRECTION('',(0.,0.,1.));
#724=DIRECTION('',(1.,0.,0.));
#725=DIRECTION('',(0.,0.,-1.));
#726=DIRECTION('',(1.,0.,0.));
#727=DIRECTION('',(0.,0.,-1.));
#728=DIRECTION('',(1.,0.,0.));
#729=DIRECTION('',(0.,0.,-1.));
#730=DIRECTION('',(1.,0.,0.));
#731=DIRECTION('',(0.,0.,-1.));
#732=DIRECTION('',(1.,0.,0.));
#733=DIRECTION('',(0.,0.,-1.));
#734=DIRECTION('',(1.,0.,0.));
#735=DIRECTION('',(0.,0.,-1.));
#736=DIRECTION('',(1.,0.,0.));
#737=DIRECTION('',(0.,0.,-1.));
#738=DIRECTION('',(1.,0.,0.));
#739=DIRECTION('',(0.,0.,-1.));
#740=DIRECTION('',(1.,0.,0.));
#741=DIRECTION('',(0.,0.,-1.));
#742=DIRECTION('',(1.,0.,0.));
#743=DIRECTION('',(0.,0.,-1.));
#744=DIRECTION('',(1.,0.,0.));
#745=DIRECTION('',(0.,0.,-1.));
#746=DIRECTION('',(1.,0.,0.));
#747=DIRECTION('',(0.,0.,-1.));
#748=DIRECTION('',(1.,0.,0.));
#749=DIRECTION('',(0.,0.,-1.));
#750=DIRECTION('',(1.,0.,0.));
#751=DIRECTION('',(0.,0.,-1.));
#752=DIRECTION('',(1.,0.,0.));
#753=DIRECTION('',(0.,0.,-1.));
#754=DIRECTION('',(-1.,0.,0.));
#755=DIRECTION('',(0.,0.,1.));
#756=DIRECTION('',(1.,0.,0.));
#757=DIRECTION('',(0.,0.,-1.));
#758=DIRECTION('',(1.,0.,0.));
#759=DIRECTION('',(0.,0.,-1.));
#760=DIRECTION('',(1.,0.,0.));
#761=DIRECTION('',(0.,0.,-1.));
#762=DIRECTION('',(1.,0.,0.));
#763=DIRECTION('',(0.,0.,-1.));
#764=DIRECTION('',(1.,0.,0.));
#765=DIRECTION('',(0.,0.,-1.));
#766=DIRECTION('',(-1.,0.,0.));
#767=DIRECTION('',(0.,0.,1.));
#768=DIRECTION('',(1.,0.,0.));
#769=DIRECTION('',(0.,0.,-1.));
#770=DIRECTION('',(-1.,0.,0.));
#771=DIRECTION('',(0.,0.,1.));
#772=DIRECTION('',(1.,0.,0.));
#773=DIRECTION('',(0.,0.,-1.));
#774=DIRECTION('',(1.,0.,0.));
#775=DIRECTION('',(0.,0.,-1.));
#776=DIRECTION('',(1.,0.,0.));
#777=DIRECTION('',(0.,0.,-1.));
#778=DIRECTION('',(-1.,0.,0.));
#779=DIRECTION('',(0.,0.,1.));
#780=DIRECTION('',(1.,0.,0.));
#781=DIRECTION('',(0.,0.,-1.));
#782=DIRECTION('',(-1.,0.,0.));
#783=DIRECTION('',(0.,0.,1.));
#784=DIRECTION('',(0.,0.,1.));
#785=DIRECTION('',(1.,0.,0.));
#786=DIRECTION('',(-1.,0.,0.));
#787=DIRECTION('',(0.,0.,1.));
#788=DIRECTION('',(1.,0.,0.));
#789=DIRECTION('',(0.,0.,-1.));
#790=DIRECTION('',(1.,0.,0.));
#791=DIRECTION('',(0.,0.,-1.));
#792=DIRECTION('',(1.,0.,0.));
#793=DIRECTION('',(0.,0.,-1.));
#794=DIRECTION('',(1.,0.,0.));
#795=DIRECTION('',(0.,0.,-1.));
#796=DIRECTION('',(1.,0.,0.));
#797=DIRECTION('',(0.,0.,-1.));
#798=DIRECTION('',(1.,0.,0.));
#799=DIRECTION('',(0.,0.,-1.));
#800=DIRECTION('',(1.,0.,0.));
#801=DIRECTION('',(0.,0.,-1.));
#802=DIRECTION('',(0.,0.,1.));
#803=DIRECTION('',(1.,0.,0.));
#804=DIRECTION('',(1.,0.,0.));
#805=DIRECTION('',(0.,0.,-1.));
#806=DIRECTION('',(1.,0.,0.));
#807=DIRECTION('',(0.,0.,-1.));
#808=DIRECTION('',(1.,0.,0.));
#809=DIRECTION('',(1.,0.,0.));
#810=DIRECTION('',(0.,0.,-1.));
#811=DIRECTION('',(1.,0.,0.));
#812=DIRECTION('',(1.,0.,0.));
#813=DIRECTION('',(0.,0.,-1.));
#814=DIRECTION('',(1.,0.,0.));
#815=DIRECTION('',(0.,0.,-1.));
#816=DIRECTION('',(1.,0.,0.));
#817=DIRECTION('',(0.,0.,-1.));
#818=DIRECTION('',(1.,0.,0.));
#819=DIRECTION('',(0.,0.,-1.));
#820=DIRECTION('',(1.,0.,0.));
#821=DIRECTION('',(0.,0.,-1.));
#822=DIRECTION('',(1.,0.,0.));
#823=DIRECTION('',(0.,0.,-1.));
#824=DIRECTION('',(0.,1.,0.));
#825=DIRECTION('',(1.,0.,0.));
#826=DIRECTION('',(0.,0.,-1.));
#827=DIRECTION('',(0.,-1.,0.));
#828=DIRECTION('',(0.,0.,1.));
#829=DIRECTION('',(1.,0.,0.));
#830=DIRECTION('',(1.,0.,0.));
#831=DIRECTION('',(0.,-1.,0.));
#832=DIRECTION('',(0.,-1.,0.));
#833=DIRECTION('',(1.,0.,0.));
#834=DIRECTION('',(0.,0.,-1.));
#835=DIRECTION('',(1.,0.,0.));
#836=DIRECTION('',(0.,0.,-1.));
#837=DIRECTION('',(1.,0.,0.));
#838=DIRECTION('',(0.,0.,-1.));
#839=DIRECTION('',(1.,0.,0.));
#840=DIRECTION('',(1.,0.,0.));
#841=DIRECTION('',(0.,0.,-1.));
#842=DIRECTION('',(1.,0.,0.));
#843=DIRECTION('',(0.,0.,-1.));
#844=DIRECTION('',(1.,0.,0.));
#845=DIRECTION('',(0.,0.,-1.));
#846=DIRECTION('',(1.,0.,0.));
#847=DIRECTION('',(0.,0.,-1.));
#848=DIRECTION('',(1.,0.,0.));
#849=DIRECTION('',(0.,0.,-1.));
#850=DIRECTION('',(1.,0.,0.));
#851=DIRECTION('',(0.,0.,-1.));
#852=DIRECTION('',(1.,0.,0.));
#853=DIRECTION('',(0.,0.,-1.));
#854=DIRECTION('',(1.,0.,0.));
#855=DIRECTION('',(0.,0.,-1.));
#856=DIRECTION('',(1.,0.,0.));
#857=DIRECTION('',(0.,0.,-1.));
#858=DIRECTION('',(1.,0.,0.));
#859=DIRECTION('',(0.,0.,-1.));
#860=DIRECTION('',(0.,0.,-1.));
#861=DIRECTION('',(-1.,0.,0.));
#862=DIRECTION('',(0.,1.,0.));
#863=DIRECTION('',(0.,1.,0.));
#864=DIRECTION('',(1.,0.,0.));
#865=DIRECTION('',(0.,0.,-1.));
#866=DIRECTION('',(1.,0.,0.));
#867=DIRECTION('',(0.,0.,-1.));
#868=DIRECTION('',(1.,0.,0.));
#869=DIRECTION('',(0.,0.,-1.));
#870=DIRECTION('',(1.,0.,0.));
#871=DIRECTION('',(0.,0.,-1.));
#872=DIRECTION('',(1.,0.,0.));
#873=DIRECTION('',(0.,0.,-1.));
#874=DIRECTION('',(1.,0.,0.));
#875=DIRECTION('',(0.,0.,-1.));
#876=DIRECTION('',(1.,0.,0.));
#877=DIRECTION('',(0.,0.,-1.));
#878=DIRECTION('',(1.,0.,0.));
#879=DIRECTION('',(0.,0.,-1.));
#880=DIRECTION('',(-1.,0.,0.));
#881=DIRECTION('',(0.,0.,1.));
#882=DIRECTION('',(1.,0.,0.));
#883=DIRECTION('',(0.,0.,-1.));
#884=DIRECTION('',(-1.,0.,0.));
#885=DIRECTION('',(0.,0.,1.));
#886=DIRECTION('',(1.,0.,0.));
#887=DIRECTION('',(0.,0.,-1.));
#888=DIRECTION('',(0.,1.,0.));
#889=DIRECTION('',(0.,0.,1.));
#890=DIRECTION('',(0.,-1.,0.));
#891=DIRECTION('',(0.,0.,-1.));
#892=DIRECTION('',(0.,-1.,0.));
#893=DIRECTION('',(0.,0.,-1.));
#894=DIRECTION('',(0.,0.,1.));
#895=DIRECTION('',(1.,0.,0.));
#896=CARTESIAN_POINT('',(0.,0.,0.));
#897=CARTESIAN_POINT('LCS49-20-5-L500-F30-P12-DUMMY',(0.,0.,0.));
#898=CARTESIAN_POINT('',(0.,0.,0.));
#899=CARTESIAN_POINT('',(0.,0.,0.));
#900=CARTESIAN_POINT('',(0.,0.,0.));
#901=CARTESIAN_POINT('',(0.,0.,-7.));
#902=CARTESIAN_POINT('',(0.,0.,0.));
#903=CARTESIAN_POINT('',(0.5,0.,0.));
#904=CARTESIAN_POINT('',(0.5,0.,-7.5));
#905=CARTESIAN_POINT('',(500.,0.,0.));
#906=CARTESIAN_POINT('',(1.85000000000002,0.,0.));
#907=CARTESIAN_POINT('',(1.85000000000002,0.,-7.5));
#908=CARTESIAN_POINT('',(1.85,7.5,0.));
#909=CARTESIAN_POINT('',(1.85000000000002,0.,0.));
#910=CARTESIAN_POINT('',(1.85000000000002,0.,-7.));
#911=CARTESIAN_POINT('',(500.,0.,0.));
#912=CARTESIAN_POINT('',(3.,0.,0.));
#913=CARTESIAN_POINT('',(3.,0.,-7.));
#914=CARTESIAN_POINT('',(3.,7.,0.));
#915=CARTESIAN_POINT('',(3.,0.,0.));
#916=CARTESIAN_POINT('',(3.,0.,-7.5));
#917=CARTESIAN_POINT('',(500.,0.,0.));
#918=CARTESIAN_POINT('',(11.8,0.,0.));
#919=CARTESIAN_POINT('',(11.8,0.,-7.5));
#920=CARTESIAN_POINT('',(11.8,0.,0.));
#921=CARTESIAN_POINT('',(12.,0.,0.));
#922=CARTESIAN_POINT('',(12.,0.,-7.7));
#923=CARTESIAN_POINT('',(12.,7.7,0.));
#924=CARTESIAN_POINT('',(12.,0.,0.));
#925=CARTESIAN_POINT('',(12.,0.,-9.7));
#926=CARTESIAN_POINT('',(12.,0.,0.));
#927=CARTESIAN_POINT('',(12.3,0.,0.));
#928=CARTESIAN_POINT('',(12.3,0.,-10.));
#929=CARTESIAN_POINT('',(500.,0.,0.));
#930=CARTESIAN_POINT('',(415.,0.,0.));
#931=CARTESIAN_POINT('',(415.,0.,-10.));
#932=CARTESIAN_POINT('',(415.,10.,0.));
#933=CARTESIAN_POINT('',(415.,0.,0.));
#934=CARTESIAN_POINT('',(415.,0.,-7.7));
#935=CARTESIAN_POINT('',(415.2,0.,0.));
#936=CARTESIAN_POINT('',(415.2,0.,0.));
#937=CARTESIAN_POINT('',(415.2,0.,-7.50000000000001));
#938=CARTESIAN_POINT('',(500.,0.,0.));
#939=CARTESIAN_POINT('',(469.5,0.,0.));
#940=CARTESIAN_POINT('',(469.5,0.,-7.5));
#941=CARTESIAN_POINT('',(469.5,0.,0.));
#942=CARTESIAN_POINT('',(470.,0.,0.));
#943=CARTESIAN_POINT('',(470.,0.,-7.));
#944=CARTESIAN_POINT('',(470.,7.,0.));
#945=CARTESIAN_POINT('',(470.,0.,0.));
#946=CARTESIAN_POINT('',(470.,0.,-6.));
#947=CARTESIAN_POINT('',(500.,0.,0.));
#948=CARTESIAN_POINT('',(499.5,0.,0.));
#949=CARTESIAN_POINT('',(499.5,0.,-6.));
#950=CARTESIAN_POINT('',(499.5,0.,0.));
#951=CARTESIAN_POINT('',(500.,0.,0.));
#952=CARTESIAN_POINT('',(500.,0.,-5.5));
#953=CARTESIAN_POINT('',(500.,5.5,0.));
#954=CARTESIAN_POINT('',(0.,0.,0.));
#955=CARTESIAN_POINT('',(0.,10.,0.));
#956=CARTESIAN_POINT('',(0.,0.,0.));
#957=CARTESIAN_POINT('',(0.,0.,-7.5));
#958=CARTESIAN_POINT('',(0.,0.,0.));
#959=CARTESIAN_POINT('',(0.,0.,-10.));
#960=CARTESIAN_POINT('',(15.,0.,0.));
#961=CARTESIAN_POINT('',(15.,0.,0.));
#962=CARTESIAN_POINT('',(15.,0.,-7.5));
#963=CARTESIAN_POINT('',(15.,7.5,0.));
#964=CARTESIAN_POINT('',(15.,0.,0.));
#965=CARTESIAN_POINT('',(15.,0.,-10.));
#966=CARTESIAN_POINT('',(15.,0.,0.));
#967=CARTESIAN_POINT('',(415.,0.,0.));
#968=CARTESIAN_POINT('',(-10.,-3.46944695195361E-15,-1.73472347597681E-15));
#969=CARTESIAN_POINT('',(0.,-3.46944695195361E-15,-1.73472347597681E-15));
#970=CARTESIAN_POINT('',(0.,22.3606797749979,-20.));
#971=CARTESIAN_POINT('',(0.,22.3606797749979,20.));
#972=CARTESIAN_POINT('',(-10.,22.3606797749979,-20.));
#973=CARTESIAN_POINT('',(-10.,22.3606797749979,-20.));
#974=CARTESIAN_POINT('',(-10.,-3.46944695195361E-15,-1.73472347597681E-15));
#975=CARTESIAN_POINT('',(-10.,22.3606797749979,20.));
#976=CARTESIAN_POINT('',(-10.,22.3606797749979,20.));
#977=CARTESIAN_POINT('',(-8.34704299667453,30.0357866194495,-0.030598301045402));
#978=CARTESIAN_POINT('',(-7.28174379236259,29.9263220321326,-2.30756726415835));
#979=CARTESIAN_POINT('',(-4.96249790678793,29.8303890252189,-3.15240803762063));
#980=CARTESIAN_POINT('',(-2.66961652560261,29.9306313816755,-2.26016150304295));
#981=CARTESIAN_POINT('',(-1.65327550987395,30.0357165101814,0.0306696930945069));
#982=CARTESIAN_POINT('',(-2.71815271757217,29.9264233719687,2.30634368113305));
#983=CARTESIAN_POINT('',(-5.03206799802624,29.8304026545859,3.15218271779962));
#984=CARTESIAN_POINT('',(-7.3292274843789,29.9304536067505,2.26251498838014));
#985=CARTESIAN_POINT('',(-8.34704299667453,30.0357866194495,-0.030598301045402));
#986=CARTESIAN_POINT('',(-7.28174379236259,29.9263220321326,-2.30756726415835));
#987=CARTESIAN_POINT('',(-4.96249790678793,29.8303890252189,-3.15240803762063));
#988=CARTESIAN_POINT('',(-7.07275267881881,29.9285772955331,-2.06887923254991));
#989=CARTESIAN_POINT('',(0.,0.,0.));
#990=CARTESIAN_POINT('',(-38.647,0.,0.));
#991=CARTESIAN_POINT('',(-38.647,0.,-8.647));
#992=CARTESIAN_POINT('',(-1.353,0.,0.));
#993=CARTESIAN_POINT('',(-1.353,0.,-8.647));
#994=CARTESIAN_POINT('',(-3.07232901173558,8.47256688126509,-1.92539577642351));
#995=CARTESIAN_POINT('',(-5.00024341969072,8.19896414136934,-2.72506487680525));
#996=CARTESIAN_POINT('',(-6.92669730950154,8.47240407954627,-1.9253447163555));
#997=CARTESIAN_POINT('',(-7.72461714691743,8.73433996662838,-0.00297059194753047));
#998=CARTESIAN_POINT('',(-6.92583105067848,8.47223518615825,1.92773790460954));
#999=CARTESIAN_POINT('',(-5.00140665675702,8.19916730965117,2.72373509127461));
#1000=CARTESIAN_POINT('',(-3.07492588032703,8.47192351114716,1.92832034903601));
#1001=CARTESIAN_POINT('',(-2.27543651351419,8.73437733464719,0.000589661846335418));
#1002=CARTESIAN_POINT('',(-3.07232901173558,8.47256688126509,-1.92539577642351));
#1003=CARTESIAN_POINT('',(-5.00024341969072,8.19896414136934,-2.72506487680525));
#1004=CARTESIAN_POINT('',(-6.92669730950154,8.47240407954627,-1.9253447163555));
#1005=CARTESIAN_POINT('',(-5.,8.29013792104812,-2.4585));
#1006=CARTESIAN_POINT('',(-10.,-3.46944695195361E-15,-1.73472347597681E-15));
#1007=CARTESIAN_POINT('',(-10.,21.650635094611,-12.5));
#1008=CARTESIAN_POINT('',(-10.,21.650635094611,-14.75));
#1009=CARTESIAN_POINT('',(-10.,21.650635094611,12.5));
#1010=CARTESIAN_POINT('',(-10.,21.650635094611,10.25));
#1011=CARTESIAN_POINT('',(-10.,-22.3606797749979,-20.));
#1012=CARTESIAN_POINT('',(-10.,0.,-20.));
#1013=CARTESIAN_POINT('',(-10.,0.,0.));
#1014=CARTESIAN_POINT('',(-10.,0.,20.));
#1015=CARTESIAN_POINT('',(-10.,22.3606797749979,20.));
#1016=CARTESIAN_POINT('',(-10.,22.3606797749979,20.));
#1017=CARTESIAN_POINT('',(-10.,-22.3606797749979,20.));
#1018=CARTESIAN_POINT('',(-10.,-22.3606797749979,20.));
#1019=CARTESIAN_POINT('',(0.,-22.3606797749979,20.));
#1020=CARTESIAN_POINT('',(0.,22.3606797749979,20.));
#1021=CARTESIAN_POINT('',(-10.,22.3606797749979,20.));
#1022=CARTESIAN_POINT('',(-10.,0.,-1.73472347597681E-15));
#1023=CARTESIAN_POINT('',(0.,0.,-1.73472347597681E-15));
#1024=CARTESIAN_POINT('',(0.,-22.3606797749979,-20.));
#1025=CARTESIAN_POINT('',(-10.,0.,-1.73472347597681E-15));
#1026=CARTESIAN_POINT('',(-10.,-22.3606797749979,-20.));
#1027=CARTESIAN_POINT('',(-10.,-22.3606797749979,-20.));
#1028=CARTESIAN_POINT('',(-10.,21.650635094611,-12.5));
#1029=CARTESIAN_POINT('',(0.,21.650635094611,-12.5));
#1030=CARTESIAN_POINT('',(0.,21.650635094611,-14.75));
#1031=CARTESIAN_POINT('',(-10.,-21.650635094611,-12.5));
#1032=CARTESIAN_POINT('',(-10.,-21.650635094611,-12.5));
#1033=CARTESIAN_POINT('',(-10.,-21.650635094611,-14.75));
#1034=CARTESIAN_POINT('',(0.,-21.650635094611,-12.5));
#1035=CARTESIAN_POINT('',(0.,-21.650635094611,-14.75));
#1036=CARTESIAN_POINT('',(-10.,-21.650635094611,12.5));
#1037=CARTESIAN_POINT('',(-10.,-21.650635094611,12.5));
#1038=CARTESIAN_POINT('',(-10.,-21.650635094611,10.25));
#1039=CARTESIAN_POINT('',(0.,-21.650635094611,12.5));
#1040=CARTESIAN_POINT('',(0.,-21.650635094611,10.25));
#1041=CARTESIAN_POINT('',(-10.,21.650635094611,12.5));
#1042=CARTESIAN_POINT('',(0.,21.650635094611,12.5));
#1043=CARTESIAN_POINT('',(0.,21.650635094611,10.25));
#1044=CARTESIAN_POINT('',(-10.,-22.3606797749979,-20.));
#1045=CARTESIAN_POINT('',(0.,-22.3606797749979,-20.));
#1046=CARTESIAN_POINT('',(-10.,-22.3606797749979,-20.));
#1047=CARTESIAN_POINT('',(-10.,-3.46944695195361E-15,-1.73472347597681E-15));
#1048=CARTESIAN_POINT('',(-10.,0.,0.));
#1049=CARTESIAN_POINT('',(0.,-3.46944695195361E-15,-1.73472347597681E-15));
#1050=CARTESIAN_POINT('',(0.,0.,0.));
#1051=CARTESIAN_POINT('',(0.,0.,-10.));
#1052=CARTESIAN_POINT('',(0.,0.,0.));
#1053=CARTESIAN_POINT('',(-39.5,0.,0.));
#1054=CARTESIAN_POINT('',(-39.5,0.,-20.));
#1055=CARTESIAN_POINT('',(-39.5,0.,0.));
#1056=CARTESIAN_POINT('',(-40.,0.,0.));
#1057=CARTESIAN_POINT('',(-40.,0.,-19.5));
#1058=CARTESIAN_POINT('',(-40.,19.5,0.));
#1059=CARTESIAN_POINT('',(-40.,0.,0.));
#1060=CARTESIAN_POINT('',(-40.,0.,-10.));
#1061=CARTESIAN_POINT('',(-40.,0.,0.));
#1062=CARTESIAN_POINT('',(-1.353,0.,0.));
#1063=CARTESIAN_POINT('',(-5.,30.,0.));
#1064=CARTESIAN_POINT('',(-5.,29.4585,0.));
#1065=CARTESIAN_POINT('',(-5.,29.4585,-2.4585));
#1066=CARTESIAN_POINT('',(-5.,0.,0.));
#1067=CARTESIAN_POINT('',(233.5,0.,0.));
#1068=MECHANICAL_DESIGN_GEOMETRIC_PRESENTATION_REPRESENTATION('',(#559,
#560,#561),#1069);
#1069=(
GEOMETRIC_REPRESENTATION_CONTEXT(3)
GLOBAL_UNCERTAINTY_ASSIGNED_CONTEXT((#1074))
GLOBAL_UNIT_ASSIGNED_CONTEXT((#1081,#1080,#1079))
REPRESENTATION_CONTEXT('LCS49-20-5-L500-F30-P12',
'TOP_LEVEL_ASSEMBLY_PART')
);
#1070=(
GEOMETRIC_REPRESENTATION_CONTEXT(3)
GLOBAL_UNCERTAINTY_ASSIGNED_CONTEXT((#1075))
GLOBAL_UNIT_ASSIGNED_CONTEXT((#1081,#1080,#1079))
REPRESENTATION_CONTEXT('LCS49-20-5-L500-F30-P12-DUMMY','COMPONENT_PART')
);
#1071=(
GEOMETRIC_REPRESENTATION_CONTEXT(3)
GLOBAL_UNCERTAINTY_ASSIGNED_CONTEXT((#1076))
GLOBAL_UNIT_ASSIGNED_CONTEXT((#1081,#1080,#1079))
REPRESENTATION_CONTEXT('LCS49-20-5-L500-F30-P12-001','COMPONENT_PART')
);
#1072=(
GEOMETRIC_REPRESENTATION_CONTEXT(3)
GLOBAL_UNCERTAINTY_ASSIGNED_CONTEXT((#1077))
GLOBAL_UNIT_ASSIGNED_CONTEXT((#1081,#1080,#1079))
REPRESENTATION_CONTEXT('LCS49-20-5-L500-F30-P12-002','COMPONENT_PART')
);
#1073=(
GEOMETRIC_REPRESENTATION_CONTEXT(3)
GLOBAL_UNCERTAINTY_ASSIGNED_CONTEXT((#1078))
GLOBAL_UNIT_ASSIGNED_CONTEXT((#1081,#1080,#1079))
REPRESENTATION_CONTEXT('LCS49-20-5-L500-F30-P12-003','COMPONENT_PART')
);
#1074=UNCERTAINTY_MEASURE_WITH_UNIT(LENGTH_MEASURE(1.E-5),#1081,
'DISTANCE_ACCURACY_VALUE','Maximum Tolerance applied to model');
#1075=UNCERTAINTY_MEASURE_WITH_UNIT(LENGTH_MEASURE(1.E-5),#1081,
'DISTANCE_ACCURACY_VALUE','Maximum Tolerance applied to model');
#1076=UNCERTAINTY_MEASURE_WITH_UNIT(LENGTH_MEASURE(1.E-5),#1081,
'DISTANCE_ACCURACY_VALUE','Maximum Tolerance applied to model');
#1077=UNCERTAINTY_MEASURE_WITH_UNIT(LENGTH_MEASURE(1.E-5),#1081,
'DISTANCE_ACCURACY_VALUE','Maximum Tolerance applied to model');
#1078=UNCERTAINTY_MEASURE_WITH_UNIT(LENGTH_MEASURE(1.E-5),#1081,
'DISTANCE_ACCURACY_VALUE','Maximum Tolerance applied to model');
#1079=(
NAMED_UNIT(*)
SI_UNIT($,.STERADIAN.)
SOLID_ANGLE_UNIT()
);
#1080=(
NAMED_UNIT(*)
PLANE_ANGLE_UNIT()
SI_UNIT($,.RADIAN.)
);
#1081=(
LENGTH_UNIT()
NAMED_UNIT(*)
SI_UNIT(.MILLI.,.METRE.)
);
#1082=PRODUCT_DEFINITION_SHAPE('','',#1091);
#1083=PRODUCT_DEFINITION_SHAPE('','',#1092);
#1084=PRODUCT_DEFINITION_SHAPE(' ','NAUO PRDDFN',#588);
#1085=PRODUCT_DEFINITION_SHAPE('','',#1093);
#1086=PRODUCT_DEFINITION_SHAPE(' ','NAUO PRDDFN',#589);
#1087=PRODUCT_DEFINITION_SHAPE('','',#1094);
#1088=PRODUCT_DEFINITION_SHAPE(' ','NAUO PRDDFN',#590);
#1089=PRODUCT_DEFINITION_SHAPE('','',#1095);
#1090=PRODUCT_DEFINITION_SHAPE(' ','NAUO PRDDFN',#591);
#1091=PRODUCT_DEFINITION('','',#1101,#1096);
#1092=PRODUCT_DEFINITION('','',#1102,#1097);
#1093=PRODUCT_DEFINITION('','',#1103,#1098);
#1094=PRODUCT_DEFINITION('','',#1104,#1099);
#1095=PRODUCT_DEFINITION('','',#1105,#1100);
#1096=PRODUCT_DEFINITION_CONTEXT('',#1127,'design');
#1097=PRODUCT_DEFINITION_CONTEXT('',#1127,'design');
#1098=PRODUCT_DEFINITION_CONTEXT('',#1127,'design');
#1099=PRODUCT_DEFINITION_CONTEXT('',#1127,'design');
#1100=PRODUCT_DEFINITION_CONTEXT('',#1127,'design');
#1101=PRODUCT_DEFINITION_FORMATION_WITH_SPECIFIED_SOURCE('','',#1111,
 .NOT_KNOWN.);
#1102=PRODUCT_DEFINITION_FORMATION_WITH_SPECIFIED_SOURCE('','',#1112,
 .NOT_KNOWN.);
#1103=PRODUCT_DEFINITION_FORMATION_WITH_SPECIFIED_SOURCE('','',#1113,
 .NOT_KNOWN.);
#1104=PRODUCT_DEFINITION_FORMATION_WITH_SPECIFIED_SOURCE('','',#1114,
 .NOT_KNOWN.);
#1105=PRODUCT_DEFINITION_FORMATION_WITH_SPECIFIED_SOURCE('','',#1115,
 .NOT_KNOWN.);
#1106=PRODUCT_RELATED_PRODUCT_CATEGORY('','',(#1111));
#1107=PRODUCT_RELATED_PRODUCT_CATEGORY('','',(#1112));
#1108=PRODUCT_RELATED_PRODUCT_CATEGORY('','',(#1113));
#1109=PRODUCT_RELATED_PRODUCT_CATEGORY('','',(#1114));
#1110=PRODUCT_RELATED_PRODUCT_CATEGORY('','',(#1115));
#1111=PRODUCT('LCS49-20-5-L500-F30-P12','LCS49-20-5-L500-F30-P12',
'LCS49-20-5-L500-F30-P12',(#1121));
#1112=PRODUCT('LCS49-20-5-L500-F30-P12-DUMMY',
'LCS49-20-5-L500-F30-P12-DUMMY','LCS49-20-5-L500-F30-P12-DUMMY',(#1122));
#1113=PRODUCT('LCS49-20-5-L500-F30-P12-001',
'LCS49-20-5-L500-F30-P12-001','LCS49-20-5-L500-F30-P12-001',(#1123));
#1114=PRODUCT('LCS49-20-5-L500-F30-P12-002',
'LCS49-20-5-L500-F30-P12-002','LCS49-20-5-L500-F30-P12-002',(#1124));
#1115=PRODUCT('LCS49-20-5-L500-F30-P12-003',
'LCS49-20-5-L500-F30-P12-003','LCS49-20-5-L500-F30-P12-003',(#1125));
#1116=PRODUCT_CATEGORY('','');
#1117=PRODUCT_CATEGORY('','');
#1118=PRODUCT_CATEGORY('','');
#1119=PRODUCT_CATEGORY('','');
#1120=PRODUCT_CATEGORY('','');
#1121=PRODUCT_CONTEXT('',#1127,'mechanical');
#1122=PRODUCT_CONTEXT('',#1127,'mechanical');
#1123=PRODUCT_CONTEXT('',#1127,'mechanical');
#1124=PRODUCT_CONTEXT('',#1127,'mechanical');
#1125=PRODUCT_CONTEXT('',#1127,'mechanical');
#1126=APPLICATION_PROTOCOL_DEFINITION('international standard',
'automotive_design',2010,#1127);
#1127=APPLICATION_CONTEXT(
'core data for automotive mechanical design processes');
ENDSEC;
END-ISO-10303-21;
