ISO-10303-21;
HEADER;
/* Generated by software containing ST-Developer
 * from STEP Tools, Inc. (www.steptools.com) 
 */

FILE_DESCRIPTION(
/* description */ (''),
/* implementation_level */ '2;1');

FILE_NAME(
/* name */ 
'C:\\Users\\86159\\Desktop\\P1\X2\673A68B056FE5143\X0\-\X2\9F7F8F6E8F7488C5914D7EC44EF6\X0\\\
680.9.1.6-1\X2\9F7F8F6E8F74\X0\.stp',
/* time_stamp */ '2026-08-04T22:30:52+08:00',
/* author */ ('86159'),
/* organization */ (''),
/* preprocessor_version */ 'ST-DEVELOPER v18.1',
/* originating_system */ 'Autodesk Inventor 2021',
/* authorisation */ '');

FILE_SCHEMA (('AUTOMOTIVE_DESIGN { 1 0 10303 214 3 1 1 }'));
ENDSEC;

DATA;
#10=MECHANICAL_DESIGN_GEOMETRIC_PRESENTATION_REPRESENTATION('',(#13),#1120);
#11=SHAPE_REPRESENTATION_RELATIONSHIP('SRR','None',#1127,#12);
#12=ADVANCED_BREP_SHAPE_REPRESENTATION('',(#14),#1119);
#13=STYLED_ITEM('',(#1136),#14);
#14=MANIFOLD_SOLID_BREP('\X2\5B9E4F53\X0\1',#598);
#15=FACE_BOUND('',#171,.T.);
#16=FACE_BOUND('',#174,.T.);
#17=FACE_BOUND('',#177,.T.);
#18=FACE_BOUND('',#179,.T.);
#19=FACE_BOUND('',#181,.T.);
#20=FACE_BOUND('',#184,.T.);
#21=B_SPLINE_CURVE_WITH_KNOTS('',3,(#1009,#1010,#1011,#1012,#1013,#1014,
#1015,#1016,#1017,#1018),.UNSPECIFIED.,.F.,.F.,(4,2,2,2,4),(0.,0.113783176196775,
0.227566352393549,0.34131563198115,0.455064911568751),.UNSPECIFIED.);
#22=B_SPLINE_CURVE_WITH_KNOTS('',3,(#1025,#1026,#1027,#1028,#1029,#1030,
#1031,#1032,#1033,#1034),.UNSPECIFIED.,.F.,.F.,(4,2,2,2,4),(0.455064911568751,
0.568814191156352,0.682563470743953,0.796346646940728,0.910129823137502),
 .UNSPECIFIED.);
#23=B_SPLINE_CURVE_WITH_KNOTS('',3,(#1049,#1050,#1051,#1052,#1053,#1054,
#1055,#1056,#1057,#1058),.UNSPECIFIED.,.F.,.F.,(4,2,2,2,4),(-0.455064911568751,
-0.34131563198115,-0.227566352393549,-0.113783176196775,0.),
 .UNSPECIFIED.);
#24=B_SPLINE_CURVE_WITH_KNOTS('',3,(#1059,#1060,#1061,#1062,#1063,#1064,
#1065,#1066,#1067,#1068),.UNSPECIFIED.,.F.,.F.,(4,2,2,2,4),(-0.910129823137502,
-0.796346646940727,-0.682563470743953,-0.568814191156352,-0.455064911568751),
 .UNSPECIFIED.);
#25=ELLIPSE('',#648,10.2215243544294,6.73196480427232);
#26=ELLIPSE('',#650,10.2215243544294,6.73196480427232);
#27=ELLIPSE('',#653,10.2215243544294,6.73196480427232);
#28=ELLIPSE('',#656,10.2215243544294,6.73196480427232);
#29=PLANE('',#638);
#30=PLANE('',#646);
#31=PLANE('',#651);
#32=PLANE('',#652);
#33=PLANE('',#657);
#34=PLANE('',#658);
#35=PLANE('',#659);
#36=PLANE('',#662);
#37=PLANE('',#663);
#38=PLANE('',#666);
#39=PLANE('',#667);
#40=PLANE('',#668);
#41=PLANE('',#674);
#42=PLANE('',#680);
#43=PLANE('',#686);
#44=PLANE('',#692);
#45=LINE('',#925,#74);
#46=LINE('',#928,#75);
#47=LINE('',#931,#76);
#48=LINE('',#934,#77);
#49=LINE('',#940,#78);
#50=LINE('',#942,#79);
#51=LINE('',#945,#80);
#52=LINE('',#947,#81);
#53=LINE('',#950,#82);
#54=LINE('',#957,#83);
#55=LINE('',#961,#84);
#56=LINE('',#966,#85);
#57=LINE('',#972,#86);
#58=LINE('',#988,#87);
#59=LINE('',#990,#88);
#60=LINE('',#996,#89);
#61=LINE('',#1003,#90);
#62=LINE('',#1020,#91);
#63=LINE('',#1024,#92);
#64=LINE('',#1037,#93);
#65=LINE('',#1039,#94);
#66=LINE('',#1040,#95);
#67=LINE('',#1043,#96);
#68=LINE('',#1045,#97);
#69=LINE('',#1046,#98);
#70=LINE('',#1082,#99);
#71=LINE('',#1093,#100);
#72=LINE('',#1104,#101);
#73=LINE('',#1115,#102);
#74=VECTOR('',#719,10.);
#75=VECTOR('',#722,10.);
#76=VECTOR('',#725,10.);
#77=VECTOR('',#728,10.);
#78=VECTOR('',#735,9.);
#79=VECTOR('',#736,10.);
#80=VECTOR('',#739,10.);
#81=VECTOR('',#740,10.);
#82=VECTOR('',#743,10.);
#83=VECTOR('',#746,10.);
#84=VECTOR('',#747,10.);
#85=VECTOR('',#752,9.74999999999999);
#86=VECTOR('',#759,9.99999999999999);
#87=VECTOR('',#776,10.);
#88=VECTOR('',#777,10.);
#89=VECTOR('',#780,10.);
#90=VECTOR('',#791,10.);
#91=VECTOR('',#798,10.);
#92=VECTOR('',#801,10.);
#93=VECTOR('',#804,10.);
#94=VECTOR('',#805,10.);
#95=VECTOR('',#806,10.);
#96=VECTOR('',#809,10.);
#97=VECTOR('',#810,10.);
#98=VECTOR('',#811,10.);
#99=VECTOR('',#832,10.);
#100=VECTOR('',#845,9.5);
#101=VECTOR('',#858,10.);
#102=VECTOR('',#871,9.49999999999999);
#103=CYLINDRICAL_SURFACE('',#629,9.);
#104=CYLINDRICAL_SURFACE('',#631,9.);
#105=CYLINDRICAL_SURFACE('',#633,9.);
#106=CYLINDRICAL_SURFACE('',#643,9.99999999999999);
#107=CYLINDRICAL_SURFACE('',#660,3.);
#108=CYLINDRICAL_SURFACE('',#664,3.);
#109=CYLINDRICAL_SURFACE('',#671,10.);
#110=CYLINDRICAL_SURFACE('',#677,9.5);
#111=CYLINDRICAL_SURFACE('',#683,10.);
#112=CYLINDRICAL_SURFACE('',#689,9.49999999999999);
#113=FACE_OUTER_BOUND('',#146,.T.);
#114=FACE_OUTER_BOUND('',#147,.T.);
#115=FACE_OUTER_BOUND('',#148,.T.);
#116=FACE_OUTER_BOUND('',#149,.T.);
#117=FACE_OUTER_BOUND('',#150,.T.);
#118=FACE_OUTER_BOUND('',#151,.T.);
#119=FACE_OUTER_BOUND('',#152,.T.);
#120=FACE_OUTER_BOUND('',#153,.T.);
#121=FACE_OUTER_BOUND('',#154,.T.);
#122=FACE_OUTER_BOUND('',#155,.T.);
#123=FACE_OUTER_BOUND('',#156,.T.);
#124=FACE_OUTER_BOUND('',#157,.T.);
#125=FACE_OUTER_BOUND('',#158,.T.);
#126=FACE_OUTER_BOUND('',#159,.T.);
#127=FACE_OUTER_BOUND('',#160,.T.);
#128=FACE_OUTER_BOUND('',#161,.T.);
#129=FACE_OUTER_BOUND('',#162,.T.);
#130=FACE_OUTER_BOUND('',#163,.T.);
#131=FACE_OUTER_BOUND('',#164,.T.);
#132=FACE_OUTER_BOUND('',#165,.T.);
#133=FACE_OUTER_BOUND('',#166,.T.);
#134=FACE_OUTER_BOUND('',#167,.T.);
#135=FACE_OUTER_BOUND('',#168,.T.);
#136=FACE_OUTER_BOUND('',#169,.T.);
#137=FACE_OUTER_BOUND('',#170,.T.);
#138=FACE_OUTER_BOUND('',#172,.T.);
#139=FACE_OUTER_BOUND('',#173,.T.);
#140=FACE_OUTER_BOUND('',#175,.T.);
#141=FACE_OUTER_BOUND('',#176,.T.);
#142=FACE_OUTER_BOUND('',#178,.T.);
#143=FACE_OUTER_BOUND('',#180,.T.);
#144=FACE_OUTER_BOUND('',#182,.T.);
#145=FACE_OUTER_BOUND('',#183,.T.);
#146=EDGE_LOOP('',(#384,#385,#386,#387,#388));
#147=EDGE_LOOP('',(#389,#390,#391,#392));
#148=EDGE_LOOP('',(#393,#394,#395,#396));
#149=EDGE_LOOP('',(#397,#398,#399,#400));
#150=EDGE_LOOP('',(#401,#402,#403,#404));
#151=EDGE_LOOP('',(#405,#406,#407,#408));
#152=EDGE_LOOP('',(#409,#410,#411,#412,#413,#414,#415,#416,#417,#418,#419,
#420,#421));
#153=EDGE_LOOP('',(#422,#423,#424,#425,#426,#427,#428,#429,#430,#431,#432,
#433));
#154=EDGE_LOOP('',(#434,#435,#436,#437,#438));
#155=EDGE_LOOP('',(#439,#440,#441,#442,#443,#444));
#156=EDGE_LOOP('',(#445));
#157=EDGE_LOOP('',(#446,#447,#448,#449,#450,#451));
#158=EDGE_LOOP('',(#452,#453,#454,#455,#456,#457,#458,#459,#460,#461,#462,
#463));
#159=EDGE_LOOP('',(#464,#465,#466,#467));
#160=EDGE_LOOP('',(#468,#469,#470,#471,#472,#473));
#161=EDGE_LOOP('',(#474,#475,#476,#477));
#162=EDGE_LOOP('',(#478,#479));
#163=EDGE_LOOP('',(#480,#481));
#164=EDGE_LOOP('',(#482,#483,#484,#485,#486));
#165=EDGE_LOOP('',(#487,#488,#489,#490));
#166=EDGE_LOOP('',(#491,#492,#493,#494));
#167=EDGE_LOOP('',(#495,#496,#497,#498,#499));
#168=EDGE_LOOP('',(#500,#501,#502,#503));
#169=EDGE_LOOP('',(#504,#505,#506,#507));
#170=EDGE_LOOP('',(#508,#509));
#171=EDGE_LOOP('',(#510,#511));
#172=EDGE_LOOP('',(#512,#513,#514,#515,#516,#517));
#173=EDGE_LOOP('',(#518,#519));
#174=EDGE_LOOP('',(#520,#521));
#175=EDGE_LOOP('',(#522,#523,#524,#525,#526,#527));
#176=EDGE_LOOP('',(#528,#529));
#177=EDGE_LOOP('',(#530,#531));
#178=EDGE_LOOP('',(#532,#533,#534,#535,#536,#537));
#179=EDGE_LOOP('',(#538,#539,#540,#541,#542,#543));
#180=EDGE_LOOP('',(#544,#545));
#181=EDGE_LOOP('',(#546,#547));
#182=EDGE_LOOP('',(#548,#549,#550,#551,#552,#553));
#183=EDGE_LOOP('',(#554,#555));
#184=EDGE_LOOP('',(#556,#557));
#185=CIRCLE('',#619,9.);
#186=CIRCLE('',#620,9.);
#187=CIRCLE('',#621,8.);
#188=CIRCLE('',#623,8.);
#189=CIRCLE('',#624,9.);
#190=CIRCLE('',#626,9.);
#191=CIRCLE('',#628,9.);
#192=CIRCLE('',#630,9.);
#193=CIRCLE('',#632,9.);
#194=CIRCLE('',#634,9.);
#195=CIRCLE('',#635,9.);
#196=CIRCLE('',#636,9.);
#197=CIRCLE('',#637,9.);
#198=CIRCLE('',#640,9.49999999999999);
#199=CIRCLE('',#641,9.99999999999999);
#200=CIRCLE('',#642,9.99999999999999);
#201=CIRCLE('',#644,9.99999999999999);
#202=CIRCLE('',#645,9.99999999999999);
#203=CIRCLE('',#649,8.2720595314676);
#204=CIRCLE('',#655,8.2720595314676);
#205=CIRCLE('',#661,3.);
#206=CIRCLE('',#665,3.);
#207=CIRCLE('',#669,10.);
#208=CIRCLE('',#670,10.);
#209=CIRCLE('',#672,10.);
#210=CIRCLE('',#673,10.);
#211=CIRCLE('',#675,9.5);
#212=CIRCLE('',#676,9.5);
#213=CIRCLE('',#678,9.5);
#214=CIRCLE('',#679,9.5);
#215=CIRCLE('',#681,9.99999999999999);
#216=CIRCLE('',#682,9.99999999999999);
#217=CIRCLE('',#684,10.);
#218=CIRCLE('',#685,10.);
#219=CIRCLE('',#687,9.49999999999999);
#220=CIRCLE('',#688,9.49999999999999);
#221=CIRCLE('',#690,9.49999999999999);
#222=CIRCLE('',#691,9.49999999999999);
#223=(
BOUNDED_CURVE()
B_SPLINE_CURVE(2,(#878,#879,#880),.UNSPECIFIED.,.F.,.F.)
B_SPLINE_CURVE_WITH_KNOTS((3,3),(0.,0.223787926516202),.UNSPECIFIED.)
CURVE()
GEOMETRIC_REPRESENTATION_ITEM()
RATIONAL_B_SPLINE_CURVE((1.,1.00349058361698,1.))
REPRESENTATION_ITEM('')
);
#224=(
BOUNDED_CURVE()
B_SPLINE_CURVE(2,(#886,#887,#888),.UNSPECIFIED.,.F.,.F.)
B_SPLINE_CURVE_WITH_KNOTS((3,3),(0.,0.223787926516202),.UNSPECIFIED.)
CURVE()
GEOMETRIC_REPRESENTATION_ITEM()
RATIONAL_B_SPLINE_CURVE((1.,1.00349058361698,1.))
REPRESENTATION_ITEM('')
);
#225=(
BOUNDED_CURVE()
B_SPLINE_CURVE(2,(#893,#894,#895),.UNSPECIFIED.,.F.,.F.)
B_SPLINE_CURVE_WITH_KNOTS((3,3),(0.,0.223787926516202),.UNSPECIFIED.)
CURVE()
GEOMETRIC_REPRESENTATION_ITEM()
RATIONAL_B_SPLINE_CURVE((1.,1.00349058361698,1.))
REPRESENTATION_ITEM('')
);
#226=(
BOUNDED_CURVE()
B_SPLINE_CURVE(2,(#899,#900,#901),.UNSPECIFIED.,.F.,.F.)
B_SPLINE_CURVE_WITH_KNOTS((3,3),(0.,0.223787926516202),.UNSPECIFIED.)
CURVE()
GEOMETRIC_REPRESENTATION_ITEM()
RATIONAL_B_SPLINE_CURVE((1.,1.00349058361698,1.))
REPRESENTATION_ITEM('')
);
#227=(
BOUNDED_CURVE()
B_SPLINE_CURVE(2,(#905,#906,#907),.UNSPECIFIED.,.F.,.F.)
B_SPLINE_CURVE_WITH_KNOTS((3,3),(0.,0.223787926516202),.UNSPECIFIED.)
CURVE()
GEOMETRIC_REPRESENTATION_ITEM()
RATIONAL_B_SPLINE_CURVE((1.,1.00349058361718,1.))
REPRESENTATION_ITEM('')
);
#228=(
BOUNDED_CURVE()
B_SPLINE_CURVE(2,(#909,#910,#911),.UNSPECIFIED.,.F.,.F.)
B_SPLINE_CURVE_WITH_KNOTS((3,3),(0.,0.223787926516202),.UNSPECIFIED.)
CURVE()
GEOMETRIC_REPRESENTATION_ITEM()
RATIONAL_B_SPLINE_CURVE((1.,1.00349058361718,1.))
REPRESENTATION_ITEM('')
);
#229=(
BOUNDED_CURVE()
B_SPLINE_CURVE(2,(#915,#916,#917),.UNSPECIFIED.,.F.,.F.)
B_SPLINE_CURVE_WITH_KNOTS((3,3),(0.,0.223787926516202),.UNSPECIFIED.)
CURVE()
GEOMETRIC_REPRESENTATION_ITEM()
RATIONAL_B_SPLINE_CURVE((1.,1.00349058361718,1.))
REPRESENTATION_ITEM('')
);
#230=(
BOUNDED_CURVE()
B_SPLINE_CURVE(2,(#920,#921,#922),.UNSPECIFIED.,.F.,.F.)
B_SPLINE_CURVE_WITH_KNOTS((3,3),(0.,0.223787926516202),.UNSPECIFIED.)
CURVE()
GEOMETRIC_REPRESENTATION_ITEM()
RATIONAL_B_SPLINE_CURVE((1.,1.00349058361718,1.))
REPRESENTATION_ITEM('')
);
#231=(
BOUNDED_CURVE()
B_SPLINE_CURVE(2,(#953,#954,#955),.UNSPECIFIED.,.F.,.F.)
B_SPLINE_CURVE_WITH_KNOTS((3,3),(0.,0.236930537738419),.UNSPECIFIED.)
CURVE()
GEOMETRIC_REPRESENTATION_ITEM()
RATIONAL_B_SPLINE_CURVE((1.,1.00705678992527,1.0122784967028))
REPRESENTATION_ITEM('')
);
#232=(
BOUNDED_CURVE()
B_SPLINE_CURVE(2,(#958,#959,#960),.UNSPECIFIED.,.F.,.F.)
B_SPLINE_CURVE_WITH_KNOTS((3,3),(1.58529646462542,1.82222700236384),
 .UNSPECIFIED.)
CURVE()
GEOMETRIC_REPRESENTATION_ITEM()
RATIONAL_B_SPLINE_CURVE((1.0122784967028,1.00705678992527,1.))
REPRESENTATION_ITEM('')
);
#233=(
BOUNDED_CURVE()
B_SPLINE_CURVE(2,(#979,#980,#981),.UNSPECIFIED.,.F.,.F.)
B_SPLINE_CURVE_WITH_KNOTS((3,3),(0.,0.236930537738419),.UNSPECIFIED.)
CURVE()
GEOMETRIC_REPRESENTATION_ITEM()
RATIONAL_B_SPLINE_CURVE((1.,1.00705678992527,1.0122784967028))
REPRESENTATION_ITEM('')
);
#234=(
BOUNDED_CURVE()
B_SPLINE_CURVE(2,(#991,#992,#993),.UNSPECIFIED.,.F.,.F.)
B_SPLINE_CURVE_WITH_KNOTS((3,3),(1.58529646462542,1.82222700236384),
 .UNSPECIFIED.)
CURVE()
GEOMETRIC_REPRESENTATION_ITEM()
RATIONAL_B_SPLINE_CURVE((1.0122784967028,1.00705678992527,1.))
REPRESENTATION_ITEM('')
);
#235=VERTEX_POINT('',#876);
#236=VERTEX_POINT('',#877);
#237=VERTEX_POINT('',#881);
#238=VERTEX_POINT('',#883);
#239=VERTEX_POINT('',#885);
#240=VERTEX_POINT('',#891);
#241=VERTEX_POINT('',#892);
#242=VERTEX_POINT('',#896);
#243=VERTEX_POINT('',#898);
#244=VERTEX_POINT('',#904);
#245=VERTEX_POINT('',#908);
#246=VERTEX_POINT('',#914);
#247=VERTEX_POINT('',#918);
#248=VERTEX_POINT('',#924);
#249=VERTEX_POINT('',#926);
#250=VERTEX_POINT('',#930);
#251=VERTEX_POINT('',#932);
#252=VERTEX_POINT('',#936);
#253=VERTEX_POINT('',#937);
#254=VERTEX_POINT('',#941);
#255=VERTEX_POINT('',#943);
#256=VERTEX_POINT('',#946);
#257=VERTEX_POINT('',#948);
#258=VERTEX_POINT('',#952);
#259=VERTEX_POINT('',#956);
#260=VERTEX_POINT('',#963);
#261=VERTEX_POINT('',#965);
#262=VERTEX_POINT('',#967);
#263=VERTEX_POINT('',#971);
#264=VERTEX_POINT('',#973);
#265=VERTEX_POINT('',#978);
#266=VERTEX_POINT('',#982);
#267=VERTEX_POINT('',#984);
#268=VERTEX_POINT('',#989);
#269=VERTEX_POINT('',#995);
#270=VERTEX_POINT('',#999);
#271=VERTEX_POINT('',#1007);
#272=VERTEX_POINT('',#1008);
#273=VERTEX_POINT('',#1019);
#274=VERTEX_POINT('',#1021);
#275=VERTEX_POINT('',#1023);
#276=VERTEX_POINT('',#1036);
#277=VERTEX_POINT('',#1038);
#278=VERTEX_POINT('',#1042);
#279=VERTEX_POINT('',#1044);
#280=VERTEX_POINT('',#1048);
#281=VERTEX_POINT('',#1073);
#282=VERTEX_POINT('',#1074);
#283=VERTEX_POINT('',#1078);
#284=VERTEX_POINT('',#1079);
#285=VERTEX_POINT('',#1084);
#286=VERTEX_POINT('',#1085);
#287=VERTEX_POINT('',#1089);
#288=VERTEX_POINT('',#1090);
#289=VERTEX_POINT('',#1095);
#290=VERTEX_POINT('',#1096);
#291=VERTEX_POINT('',#1100);
#292=VERTEX_POINT('',#1101);
#293=VERTEX_POINT('',#1106);
#294=VERTEX_POINT('',#1107);
#295=VERTEX_POINT('',#1111);
#296=VERTEX_POINT('',#1112);
#297=EDGE_CURVE('',#235,#236,#223,.T.);
#298=EDGE_CURVE('',#237,#235,#185,.T.);
#299=EDGE_CURVE('',#238,#237,#186,.T.);
#300=EDGE_CURVE('',#239,#238,#224,.T.);
#301=EDGE_CURVE('',#236,#239,#187,.T.);
#302=EDGE_CURVE('',#240,#241,#225,.T.);
#303=EDGE_CURVE('',#242,#240,#188,.T.);
#304=EDGE_CURVE('',#243,#242,#226,.T.);
#305=EDGE_CURVE('',#241,#243,#189,.T.);
#306=EDGE_CURVE('',#236,#244,#227,.T.);
#307=EDGE_CURVE('',#245,#239,#228,.T.);
#308=EDGE_CURVE('',#244,#245,#190,.T.);
#309=EDGE_CURVE('',#246,#240,#229,.T.);
#310=EDGE_CURVE('',#247,#246,#191,.T.);
#311=EDGE_CURVE('',#242,#247,#230,.T.);
#312=EDGE_CURVE('',#245,#248,#45,.T.);
#313=EDGE_CURVE('',#249,#248,#192,.T.);
#314=EDGE_CURVE('',#249,#244,#46,.T.);
#315=EDGE_CURVE('',#246,#250,#47,.T.);
#316=EDGE_CURVE('',#251,#250,#193,.T.);
#317=EDGE_CURVE('',#251,#247,#48,.T.);
#318=EDGE_CURVE('',#252,#253,#194,.T.);
#319=EDGE_CURVE('',#253,#252,#195,.T.);
#320=EDGE_CURVE('',#253,#237,#49,.T.);
#321=EDGE_CURVE('',#235,#254,#50,.T.);
#322=EDGE_CURVE('',#254,#255,#196,.T.);
#323=EDGE_CURVE('',#255,#241,#51,.T.);
#324=EDGE_CURVE('',#243,#256,#52,.T.);
#325=EDGE_CURVE('',#256,#257,#197,.T.);
#326=EDGE_CURVE('',#257,#238,#53,.T.);
#327=EDGE_CURVE('',#258,#251,#231,.T.);
#328=EDGE_CURVE('',#259,#258,#54,.T.);
#329=EDGE_CURVE('',#248,#259,#232,.T.);
#330=EDGE_CURVE('',#256,#257,#55,.T.);
#331=EDGE_CURVE('',#260,#260,#198,.T.);
#332=EDGE_CURVE('',#260,#261,#56,.T.);
#333=EDGE_CURVE('',#261,#262,#199,.T.);
#334=EDGE_CURVE('',#262,#261,#200,.T.);
#335=EDGE_CURVE('',#262,#263,#57,.T.);
#336=EDGE_CURVE('',#263,#264,#201,.T.);
#337=EDGE_CURVE('',#264,#263,#202,.T.);
#338=EDGE_CURVE('',#265,#249,#233,.T.);
#339=EDGE_CURVE('',#259,#266,#25,.T.);
#340=EDGE_CURVE('',#266,#267,#203,.T.);
#341=EDGE_CURVE('',#267,#265,#26,.T.);
#342=EDGE_CURVE('',#254,#255,#58,.T.);
#343=EDGE_CURVE('',#268,#265,#59,.T.);
#344=EDGE_CURVE('',#250,#268,#234,.T.);
#345=EDGE_CURVE('',#267,#269,#60,.T.);
#346=EDGE_CURVE('',#268,#269,#27,.T.);
#347=EDGE_CURVE('',#269,#270,#204,.T.);
#348=EDGE_CURVE('',#270,#258,#28,.T.);
#349=EDGE_CURVE('',#270,#266,#61,.T.);
#350=EDGE_CURVE('',#271,#272,#21,.T.);
#351=EDGE_CURVE('',#271,#273,#62,.T.);
#352=EDGE_CURVE('',#274,#273,#205,.T.);
#353=EDGE_CURVE('',#275,#274,#63,.T.);
#354=EDGE_CURVE('',#272,#275,#22,.T.);
#355=EDGE_CURVE('',#275,#276,#64,.T.);
#356=EDGE_CURVE('',#277,#274,#65,.T.);
#357=EDGE_CURVE('',#276,#277,#66,.T.);
#358=EDGE_CURVE('',#278,#271,#67,.T.);
#359=EDGE_CURVE('',#278,#279,#68,.T.);
#360=EDGE_CURVE('',#273,#279,#69,.T.);
#361=EDGE_CURVE('',#280,#278,#23,.T.);
#362=EDGE_CURVE('',#276,#280,#24,.T.);
#363=EDGE_CURVE('',#279,#277,#206,.T.);
#364=EDGE_CURVE('',#281,#282,#207,.T.);
#365=EDGE_CURVE('',#282,#281,#208,.T.);
#366=EDGE_CURVE('',#283,#284,#209,.T.);
#367=EDGE_CURVE('',#284,#283,#210,.T.);
#368=EDGE_CURVE('',#284,#282,#70,.T.);
#369=EDGE_CURVE('',#285,#286,#211,.T.);
#370=EDGE_CURVE('',#286,#285,#212,.T.);
#371=EDGE_CURVE('',#287,#288,#213,.T.);
#372=EDGE_CURVE('',#288,#287,#214,.T.);
#373=EDGE_CURVE('',#288,#286,#71,.T.);
#374=EDGE_CURVE('',#289,#290,#215,.T.);
#375=EDGE_CURVE('',#290,#289,#216,.T.);
#376=EDGE_CURVE('',#291,#292,#217,.T.);
#377=EDGE_CURVE('',#292,#291,#218,.T.);
#378=EDGE_CURVE('',#292,#290,#72,.T.);
#379=EDGE_CURVE('',#293,#294,#219,.T.);
#380=EDGE_CURVE('',#294,#293,#220,.T.);
#381=EDGE_CURVE('',#295,#296,#221,.T.);
#382=EDGE_CURVE('',#296,#295,#222,.T.);
#383=EDGE_CURVE('',#296,#294,#73,.T.);
#384=ORIENTED_EDGE('',*,*,#297,.F.);
#385=ORIENTED_EDGE('',*,*,#298,.F.);
#386=ORIENTED_EDGE('',*,*,#299,.F.);
#387=ORIENTED_EDGE('',*,*,#300,.F.);
#388=ORIENTED_EDGE('',*,*,#301,.F.);
#389=ORIENTED_EDGE('',*,*,#302,.F.);
#390=ORIENTED_EDGE('',*,*,#303,.F.);
#391=ORIENTED_EDGE('',*,*,#304,.F.);
#392=ORIENTED_EDGE('',*,*,#305,.F.);
#393=ORIENTED_EDGE('',*,*,#306,.F.);
#394=ORIENTED_EDGE('',*,*,#301,.T.);
#395=ORIENTED_EDGE('',*,*,#307,.F.);
#396=ORIENTED_EDGE('',*,*,#308,.F.);
#397=ORIENTED_EDGE('',*,*,#309,.F.);
#398=ORIENTED_EDGE('',*,*,#310,.F.);
#399=ORIENTED_EDGE('',*,*,#311,.F.);
#400=ORIENTED_EDGE('',*,*,#303,.T.);
#401=ORIENTED_EDGE('',*,*,#308,.T.);
#402=ORIENTED_EDGE('',*,*,#312,.T.);
#403=ORIENTED_EDGE('',*,*,#313,.F.);
#404=ORIENTED_EDGE('',*,*,#314,.T.);
#405=ORIENTED_EDGE('',*,*,#310,.T.);
#406=ORIENTED_EDGE('',*,*,#315,.T.);
#407=ORIENTED_EDGE('',*,*,#316,.F.);
#408=ORIENTED_EDGE('',*,*,#317,.T.);
#409=ORIENTED_EDGE('',*,*,#318,.F.);
#410=ORIENTED_EDGE('',*,*,#319,.F.);
#411=ORIENTED_EDGE('',*,*,#320,.T.);
#412=ORIENTED_EDGE('',*,*,#298,.T.);
#413=ORIENTED_EDGE('',*,*,#321,.T.);
#414=ORIENTED_EDGE('',*,*,#322,.T.);
#415=ORIENTED_EDGE('',*,*,#323,.T.);
#416=ORIENTED_EDGE('',*,*,#305,.T.);
#417=ORIENTED_EDGE('',*,*,#324,.T.);
#418=ORIENTED_EDGE('',*,*,#325,.T.);
#419=ORIENTED_EDGE('',*,*,#326,.T.);
#420=ORIENTED_EDGE('',*,*,#299,.T.);
#421=ORIENTED_EDGE('',*,*,#320,.F.);
#422=ORIENTED_EDGE('',*,*,#304,.T.);
#423=ORIENTED_EDGE('',*,*,#311,.T.);
#424=ORIENTED_EDGE('',*,*,#317,.F.);
#425=ORIENTED_EDGE('',*,*,#327,.F.);
#426=ORIENTED_EDGE('',*,*,#328,.F.);
#427=ORIENTED_EDGE('',*,*,#329,.F.);
#428=ORIENTED_EDGE('',*,*,#312,.F.);
#429=ORIENTED_EDGE('',*,*,#307,.T.);
#430=ORIENTED_EDGE('',*,*,#300,.T.);
#431=ORIENTED_EDGE('',*,*,#326,.F.);
#432=ORIENTED_EDGE('',*,*,#330,.F.);
#433=ORIENTED_EDGE('',*,*,#324,.F.);
#434=ORIENTED_EDGE('',*,*,#331,.T.);
#435=ORIENTED_EDGE('',*,*,#332,.T.);
#436=ORIENTED_EDGE('',*,*,#333,.T.);
#437=ORIENTED_EDGE('',*,*,#334,.T.);
#438=ORIENTED_EDGE('',*,*,#332,.F.);
#439=ORIENTED_EDGE('',*,*,#333,.F.);
#440=ORIENTED_EDGE('',*,*,#334,.F.);
#441=ORIENTED_EDGE('',*,*,#335,.T.);
#442=ORIENTED_EDGE('',*,*,#336,.T.);
#443=ORIENTED_EDGE('',*,*,#337,.T.);
#444=ORIENTED_EDGE('',*,*,#335,.F.);
#445=ORIENTED_EDGE('',*,*,#331,.F.);
#446=ORIENTED_EDGE('',*,*,#338,.T.);
#447=ORIENTED_EDGE('',*,*,#313,.T.);
#448=ORIENTED_EDGE('',*,*,#329,.T.);
#449=ORIENTED_EDGE('',*,*,#339,.T.);
#450=ORIENTED_EDGE('',*,*,#340,.T.);
#451=ORIENTED_EDGE('',*,*,#341,.T.);
#452=ORIENTED_EDGE('',*,*,#302,.T.);
#453=ORIENTED_EDGE('',*,*,#323,.F.);
#454=ORIENTED_EDGE('',*,*,#342,.F.);
#455=ORIENTED_EDGE('',*,*,#321,.F.);
#456=ORIENTED_EDGE('',*,*,#297,.T.);
#457=ORIENTED_EDGE('',*,*,#306,.T.);
#458=ORIENTED_EDGE('',*,*,#314,.F.);
#459=ORIENTED_EDGE('',*,*,#338,.F.);
#460=ORIENTED_EDGE('',*,*,#343,.F.);
#461=ORIENTED_EDGE('',*,*,#344,.F.);
#462=ORIENTED_EDGE('',*,*,#315,.F.);
#463=ORIENTED_EDGE('',*,*,#309,.T.);
#464=ORIENTED_EDGE('',*,*,#341,.F.);
#465=ORIENTED_EDGE('',*,*,#345,.T.);
#466=ORIENTED_EDGE('',*,*,#346,.F.);
#467=ORIENTED_EDGE('',*,*,#343,.T.);
#468=ORIENTED_EDGE('',*,*,#327,.T.);
#469=ORIENTED_EDGE('',*,*,#316,.T.);
#470=ORIENTED_EDGE('',*,*,#344,.T.);
#471=ORIENTED_EDGE('',*,*,#346,.T.);
#472=ORIENTED_EDGE('',*,*,#347,.T.);
#473=ORIENTED_EDGE('',*,*,#348,.T.);
#474=ORIENTED_EDGE('',*,*,#339,.F.);
#475=ORIENTED_EDGE('',*,*,#328,.T.);
#476=ORIENTED_EDGE('',*,*,#348,.F.);
#477=ORIENTED_EDGE('',*,*,#349,.T.);
#478=ORIENTED_EDGE('',*,*,#342,.T.);
#479=ORIENTED_EDGE('',*,*,#322,.F.);
#480=ORIENTED_EDGE('',*,*,#325,.F.);
#481=ORIENTED_EDGE('',*,*,#330,.T.);
#482=ORIENTED_EDGE('',*,*,#350,.F.);
#483=ORIENTED_EDGE('',*,*,#351,.T.);
#484=ORIENTED_EDGE('',*,*,#352,.F.);
#485=ORIENTED_EDGE('',*,*,#353,.F.);
#486=ORIENTED_EDGE('',*,*,#354,.F.);
#487=ORIENTED_EDGE('',*,*,#355,.F.);
#488=ORIENTED_EDGE('',*,*,#353,.T.);
#489=ORIENTED_EDGE('',*,*,#356,.F.);
#490=ORIENTED_EDGE('',*,*,#357,.F.);
#491=ORIENTED_EDGE('',*,*,#358,.F.);
#492=ORIENTED_EDGE('',*,*,#359,.T.);
#493=ORIENTED_EDGE('',*,*,#360,.F.);
#494=ORIENTED_EDGE('',*,*,#351,.F.);
#495=ORIENTED_EDGE('',*,*,#361,.F.);
#496=ORIENTED_EDGE('',*,*,#362,.F.);
#497=ORIENTED_EDGE('',*,*,#357,.T.);
#498=ORIENTED_EDGE('',*,*,#363,.F.);
#499=ORIENTED_EDGE('',*,*,#359,.F.);
#500=ORIENTED_EDGE('',*,*,#352,.T.);
#501=ORIENTED_EDGE('',*,*,#360,.T.);
#502=ORIENTED_EDGE('',*,*,#363,.T.);
#503=ORIENTED_EDGE('',*,*,#356,.T.);
#504=ORIENTED_EDGE('',*,*,#340,.F.);
#505=ORIENTED_EDGE('',*,*,#349,.F.);
#506=ORIENTED_EDGE('',*,*,#347,.F.);
#507=ORIENTED_EDGE('',*,*,#345,.F.);
#508=ORIENTED_EDGE('',*,*,#364,.F.);
#509=ORIENTED_EDGE('',*,*,#365,.F.);
#510=ORIENTED_EDGE('',*,*,#318,.T.);
#511=ORIENTED_EDGE('',*,*,#319,.T.);
#512=ORIENTED_EDGE('',*,*,#366,.F.);
#513=ORIENTED_EDGE('',*,*,#367,.F.);
#514=ORIENTED_EDGE('',*,*,#368,.T.);
#515=ORIENTED_EDGE('',*,*,#365,.T.);
#516=ORIENTED_EDGE('',*,*,#364,.T.);
#517=ORIENTED_EDGE('',*,*,#368,.F.);
#518=ORIENTED_EDGE('',*,*,#366,.T.);
#519=ORIENTED_EDGE('',*,*,#367,.T.);
#520=ORIENTED_EDGE('',*,*,#369,.F.);
#521=ORIENTED_EDGE('',*,*,#370,.F.);
#522=ORIENTED_EDGE('',*,*,#371,.F.);
#523=ORIENTED_EDGE('',*,*,#372,.F.);
#524=ORIENTED_EDGE('',*,*,#373,.T.);
#525=ORIENTED_EDGE('',*,*,#370,.T.);
#526=ORIENTED_EDGE('',*,*,#369,.T.);
#527=ORIENTED_EDGE('',*,*,#373,.F.);
#528=ORIENTED_EDGE('',*,*,#374,.F.);
#529=ORIENTED_EDGE('',*,*,#375,.F.);
#530=ORIENTED_EDGE('',*,*,#371,.T.);
#531=ORIENTED_EDGE('',*,*,#372,.T.);
#532=ORIENTED_EDGE('',*,*,#376,.F.);
#533=ORIENTED_EDGE('',*,*,#377,.F.);
#534=ORIENTED_EDGE('',*,*,#378,.T.);
#535=ORIENTED_EDGE('',*,*,#375,.T.);
#536=ORIENTED_EDGE('',*,*,#374,.T.);
#537=ORIENTED_EDGE('',*,*,#378,.F.);
#538=ORIENTED_EDGE('',*,*,#362,.T.);
#539=ORIENTED_EDGE('',*,*,#361,.T.);
#540=ORIENTED_EDGE('',*,*,#358,.T.);
#541=ORIENTED_EDGE('',*,*,#350,.T.);
#542=ORIENTED_EDGE('',*,*,#354,.T.);
#543=ORIENTED_EDGE('',*,*,#355,.T.);
#544=ORIENTED_EDGE('',*,*,#376,.T.);
#545=ORIENTED_EDGE('',*,*,#377,.T.);
#546=ORIENTED_EDGE('',*,*,#379,.F.);
#547=ORIENTED_EDGE('',*,*,#380,.F.);
#548=ORIENTED_EDGE('',*,*,#381,.F.);
#549=ORIENTED_EDGE('',*,*,#382,.F.);
#550=ORIENTED_EDGE('',*,*,#383,.T.);
#551=ORIENTED_EDGE('',*,*,#380,.T.);
#552=ORIENTED_EDGE('',*,*,#379,.T.);
#553=ORIENTED_EDGE('',*,*,#383,.F.);
#554=ORIENTED_EDGE('',*,*,#337,.F.);
#555=ORIENTED_EDGE('',*,*,#336,.F.);
#556=ORIENTED_EDGE('',*,*,#381,.T.);
#557=ORIENTED_EDGE('',*,*,#382,.T.);
#558=CONICAL_SURFACE('',#618,8.5,0.523598775598298);
#559=CONICAL_SURFACE('',#622,8.5,0.523598775598298);
#560=CONICAL_SURFACE('',#625,8.5,0.523598775598298);
#561=CONICAL_SURFACE('',#627,8.5,0.523598775598298);
#562=CONICAL_SURFACE('',#639,9.74999999999999,0.785398163397441);
#563=CONICAL_SURFACE('',#647,8.6360297657338,0.349065850398866);
#564=CONICAL_SURFACE('',#654,8.6360297657338,0.349065850398866);
#565=ADVANCED_FACE('',(#113),#558,.T.);
#566=ADVANCED_FACE('',(#114),#559,.T.);
#567=ADVANCED_FACE('',(#115),#560,.T.);
#568=ADVANCED_FACE('',(#116),#561,.T.);
#569=ADVANCED_FACE('',(#117),#103,.T.);
#570=ADVANCED_FACE('',(#118),#104,.T.);
#571=ADVANCED_FACE('',(#119),#105,.T.);
#572=ADVANCED_FACE('',(#120),#29,.F.);
#573=ADVANCED_FACE('',(#121),#562,.T.);
#574=ADVANCED_FACE('',(#122),#106,.T.);
#575=ADVANCED_FACE('',(#123),#30,.T.);
#576=ADVANCED_FACE('',(#124),#563,.T.);
#577=ADVANCED_FACE('',(#125),#31,.F.);
#578=ADVANCED_FACE('',(#126),#32,.T.);
#579=ADVANCED_FACE('',(#127),#564,.T.);
#580=ADVANCED_FACE('',(#128),#33,.T.);
#581=ADVANCED_FACE('',(#129),#34,.F.);
#582=ADVANCED_FACE('',(#130),#35,.F.);
#583=ADVANCED_FACE('',(#131),#107,.F.);
#584=ADVANCED_FACE('',(#132),#36,.F.);
#585=ADVANCED_FACE('',(#133),#37,.F.);
#586=ADVANCED_FACE('',(#134),#108,.F.);
#587=ADVANCED_FACE('',(#135),#38,.T.);
#588=ADVANCED_FACE('',(#136),#39,.T.);
#589=ADVANCED_FACE('',(#137,#15),#40,.T.);
#590=ADVANCED_FACE('',(#138),#109,.T.);
#591=ADVANCED_FACE('',(#139,#16),#41,.T.);
#592=ADVANCED_FACE('',(#140),#110,.T.);
#593=ADVANCED_FACE('',(#141,#17),#42,.T.);
#594=ADVANCED_FACE('',(#142,#18),#111,.T.);
#595=ADVANCED_FACE('',(#143,#19),#43,.T.);
#596=ADVANCED_FACE('',(#144),#112,.T.);
#597=ADVANCED_FACE('',(#145,#20),#44,.T.);
#598=CLOSED_SHELL('',(#565,#566,#567,#568,#569,#570,#571,#572,#573,#574,
#575,#576,#577,#578,#579,#580,#581,#582,#583,#584,#585,#586,#587,#588,#589,
#590,#591,#592,#593,#594,#595,#596,#597));
#599=DERIVED_UNIT_ELEMENT(#601,1.);
#600=DERIVED_UNIT_ELEMENT(#1122,3.);
#601=(
MASS_UNIT()
NAMED_UNIT(*)
SI_UNIT($,.GRAM.)
);
#602=DERIVED_UNIT((#599,#600));
#603=MEASURE_REPRESENTATION_ITEM('density measure',
POSITIVE_RATIO_MEASURE(1.),#602);
#604=PROPERTY_DEFINITION_REPRESENTATION(#609,#606);
#605=PROPERTY_DEFINITION_REPRESENTATION(#610,#607);
#606=REPRESENTATION('material name',(#608),#1119);
#607=REPRESENTATION('density',(#603),#1119);
#608=DESCRIPTIVE_REPRESENTATION_ITEM('\X2\5E3889C4\X0\','\X2\5E3889C4\X0\');
#609=PROPERTY_DEFINITION('material property','material name',#1129);
#610=PROPERTY_DEFINITION('material property','density of part',#1129);
#611=DATE_TIME_ROLE('creation_date');
#612=APPLIED_DATE_AND_TIME_ASSIGNMENT(#613,#611,(#1129));
#613=DATE_AND_TIME(#614,#615);
#614=CALENDAR_DATE(2013,14,1);
#615=LOCAL_TIME(0,0,0.,#616);
#616=COORDINATED_UNIVERSAL_TIME_OFFSET(0,0,.BEHIND.);
#617=AXIS2_PLACEMENT_3D('placement',#874,#693,#694);
#618=AXIS2_PLACEMENT_3D('',#875,#695,#696);
#619=AXIS2_PLACEMENT_3D('',#882,#697,#698);
#620=AXIS2_PLACEMENT_3D('',#884,#699,#700);
#621=AXIS2_PLACEMENT_3D('',#889,#701,#702);
#622=AXIS2_PLACEMENT_3D('',#890,#703,#704);
#623=AXIS2_PLACEMENT_3D('',#897,#705,#706);
#624=AXIS2_PLACEMENT_3D('',#902,#707,#708);
#625=AXIS2_PLACEMENT_3D('',#903,#709,#710);
#626=AXIS2_PLACEMENT_3D('',#912,#711,#712);
#627=AXIS2_PLACEMENT_3D('',#913,#713,#714);
#628=AXIS2_PLACEMENT_3D('',#919,#715,#716);
#629=AXIS2_PLACEMENT_3D('',#923,#717,#718);
#630=AXIS2_PLACEMENT_3D('',#927,#720,#721);
#631=AXIS2_PLACEMENT_3D('',#929,#723,#724);
#632=AXIS2_PLACEMENT_3D('',#933,#726,#727);
#633=AXIS2_PLACEMENT_3D('',#935,#729,#730);
#634=AXIS2_PLACEMENT_3D('',#938,#731,#732);
#635=AXIS2_PLACEMENT_3D('',#939,#733,#734);
#636=AXIS2_PLACEMENT_3D('',#944,#737,#738);
#637=AXIS2_PLACEMENT_3D('',#949,#741,#742);
#638=AXIS2_PLACEMENT_3D('',#951,#744,#745);
#639=AXIS2_PLACEMENT_3D('',#962,#748,#749);
#640=AXIS2_PLACEMENT_3D('',#964,#750,#751);
#641=AXIS2_PLACEMENT_3D('',#968,#753,#754);
#642=AXIS2_PLACEMENT_3D('',#969,#755,#756);
#643=AXIS2_PLACEMENT_3D('',#970,#757,#758);
#644=AXIS2_PLACEMENT_3D('',#974,#760,#761);
#645=AXIS2_PLACEMENT_3D('',#975,#762,#763);
#646=AXIS2_PLACEMENT_3D('',#976,#764,#765);
#647=AXIS2_PLACEMENT_3D('',#977,#766,#767);
#648=AXIS2_PLACEMENT_3D('',#983,#768,#769);
#649=AXIS2_PLACEMENT_3D('',#985,#770,#771);
#650=AXIS2_PLACEMENT_3D('',#986,#772,#773);
#651=AXIS2_PLACEMENT_3D('',#987,#774,#775);
#652=AXIS2_PLACEMENT_3D('',#994,#778,#779);
#653=AXIS2_PLACEMENT_3D('',#997,#781,#782);
#654=AXIS2_PLACEMENT_3D('',#998,#783,#784);
#655=AXIS2_PLACEMENT_3D('',#1000,#785,#786);
#656=AXIS2_PLACEMENT_3D('',#1001,#787,#788);
#657=AXIS2_PLACEMENT_3D('',#1002,#789,#790);
#658=AXIS2_PLACEMENT_3D('',#1004,#792,#793);
#659=AXIS2_PLACEMENT_3D('',#1005,#794,#795);
#660=AXIS2_PLACEMENT_3D('',#1006,#796,#797);
#661=AXIS2_PLACEMENT_3D('',#1022,#799,#800);
#662=AXIS2_PLACEMENT_3D('',#1035,#802,#803);
#663=AXIS2_PLACEMENT_3D('',#1041,#807,#808);
#664=AXIS2_PLACEMENT_3D('',#1047,#812,#813);
#665=AXIS2_PLACEMENT_3D('',#1069,#814,#815);
#666=AXIS2_PLACEMENT_3D('',#1070,#816,#817);
#667=AXIS2_PLACEMENT_3D('',#1071,#818,#819);
#668=AXIS2_PLACEMENT_3D('',#1072,#820,#821);
#669=AXIS2_PLACEMENT_3D('',#1075,#822,#823);
#670=AXIS2_PLACEMENT_3D('',#1076,#824,#825);
#671=AXIS2_PLACEMENT_3D('',#1077,#826,#827);
#672=AXIS2_PLACEMENT_3D('',#1080,#828,#829);
#673=AXIS2_PLACEMENT_3D('',#1081,#830,#831);
#674=AXIS2_PLACEMENT_3D('',#1083,#833,#834);
#675=AXIS2_PLACEMENT_3D('',#1086,#835,#836);
#676=AXIS2_PLACEMENT_3D('',#1087,#837,#838);
#677=AXIS2_PLACEMENT_3D('',#1088,#839,#840);
#678=AXIS2_PLACEMENT_3D('',#1091,#841,#842);
#679=AXIS2_PLACEMENT_3D('',#1092,#843,#844);
#680=AXIS2_PLACEMENT_3D('',#1094,#846,#847);
#681=AXIS2_PLACEMENT_3D('',#1097,#848,#849);
#682=AXIS2_PLACEMENT_3D('',#1098,#850,#851);
#683=AXIS2_PLACEMENT_3D('',#1099,#852,#853);
#684=AXIS2_PLACEMENT_3D('',#1102,#854,#855);
#685=AXIS2_PLACEMENT_3D('',#1103,#856,#857);
#686=AXIS2_PLACEMENT_3D('',#1105,#859,#860);
#687=AXIS2_PLACEMENT_3D('',#1108,#861,#862);
#688=AXIS2_PLACEMENT_3D('',#1109,#863,#864);
#689=AXIS2_PLACEMENT_3D('',#1110,#865,#866);
#690=AXIS2_PLACEMENT_3D('',#1113,#867,#868);
#691=AXIS2_PLACEMENT_3D('',#1114,#869,#870);
#692=AXIS2_PLACEMENT_3D('',#1116,#872,#873);
#693=DIRECTION('axis',(0.,0.,1.));
#694=DIRECTION('refdir',(1.,0.,0.));
#695=DIRECTION('center_axis',(0.,1.,0.));
#696=DIRECTION('ref_axis',(1.,0.,-1.22464679914735E-16));
#697=DIRECTION('center_axis',(0.,1.,0.));
#698=DIRECTION('ref_axis',(-1.,0.,0.));
#699=DIRECTION('center_axis',(0.,1.,0.));
#700=DIRECTION('ref_axis',(-1.,0.,0.));
#701=DIRECTION('center_axis',(0.,-1.,0.));
#702=DIRECTION('ref_axis',(-1.,0.,0.));
#703=DIRECTION('center_axis',(0.,1.,0.));
#704=DIRECTION('ref_axis',(-1.,0.,0.));
#705=DIRECTION('center_axis',(0.,-1.,0.));
#706=DIRECTION('ref_axis',(-1.,0.,0.));
#707=DIRECTION('center_axis',(0.,1.,0.));
#708=DIRECTION('ref_axis',(-1.,0.,0.));
#709=DIRECTION('center_axis',(0.,-1.,0.));
#710=DIRECTION('ref_axis',(1.,0.,-1.22464679914735E-16));
#711=DIRECTION('center_axis',(0.,-1.,0.));
#712=DIRECTION('ref_axis',(-1.,0.,0.));
#713=DIRECTION('center_axis',(0.,-1.,0.));
#714=DIRECTION('ref_axis',(-1.,0.,0.));
#715=DIRECTION('center_axis',(0.,-1.,0.));
#716=DIRECTION('ref_axis',(-1.,0.,0.));
#717=DIRECTION('center_axis',(0.,1.,0.));
#718=DIRECTION('ref_axis',(1.,0.,1.22464679914735E-16));
#719=DIRECTION('',(0.,-1.,0.));
#720=DIRECTION('center_axis',(0.,-1.,0.));
#721=DIRECTION('ref_axis',(1.,0.,0.));
#722=DIRECTION('',(0.,1.,0.));
#723=DIRECTION('center_axis',(0.,1.,0.));
#724=DIRECTION('ref_axis',(-1.,0.,0.));
#725=DIRECTION('',(0.,-1.,0.));
#726=DIRECTION('center_axis',(0.,-1.,0.));
#727=DIRECTION('ref_axis',(-1.,0.,0.));
#728=DIRECTION('',(0.,1.,0.));
#729=DIRECTION('center_axis',(0.,1.,0.));
#730=DIRECTION('ref_axis',(-1.,0.,0.));
#731=DIRECTION('center_axis',(0.,1.,0.));
#732=DIRECTION('ref_axis',(-1.,0.,0.));
#733=DIRECTION('center_axis',(0.,1.,0.));
#734=DIRECTION('ref_axis',(-1.,0.,0.));
#735=DIRECTION('',(0.,-1.,0.));
#736=DIRECTION('',(0.,1.,0.));
#737=DIRECTION('center_axis',(0.,1.,0.));
#738=DIRECTION('ref_axis',(-1.,0.,0.));
#739=DIRECTION('',(0.,-1.,0.));
#740=DIRECTION('',(0.,1.,0.));
#741=DIRECTION('center_axis',(0.,1.,0.));
#742=DIRECTION('ref_axis',(-1.,0.,0.));
#743=DIRECTION('',(0.,-1.,0.));
#744=DIRECTION('center_axis',(0.,0.,-1.));
#745=DIRECTION('ref_axis',(-1.,0.,0.));
#746=DIRECTION('',(-1.,0.,0.));
#747=DIRECTION('',(1.,0.,0.));
#748=DIRECTION('center_axis',(0.,-1.,0.));
#749=DIRECTION('ref_axis',(1.,0.,0.));
#750=DIRECTION('center_axis',(0.,-1.,0.));
#751=DIRECTION('ref_axis',(1.,0.,0.));
#752=DIRECTION('',(-0.707106781186542,-0.707106781186553,8.65956056235487E-17));
#753=DIRECTION('center_axis',(0.,1.,0.));
#754=DIRECTION('ref_axis',(1.,0.,0.));
#755=DIRECTION('center_axis',(0.,1.,0.));
#756=DIRECTION('ref_axis',(1.,0.,0.));
#757=DIRECTION('center_axis',(0.,1.,0.));
#758=DIRECTION('ref_axis',(-1.,0.,0.));
#759=DIRECTION('',(0.,-1.,0.));
#760=DIRECTION('center_axis',(0.,1.,0.));
#761=DIRECTION('ref_axis',(-1.,0.,0.));
#762=DIRECTION('center_axis',(0.,1.,0.));
#763=DIRECTION('ref_axis',(-1.,0.,0.));
#764=DIRECTION('center_axis',(0.,1.,0.));
#765=DIRECTION('ref_axis',(0.,0.,1.));
#766=DIRECTION('center_axis',(0.,1.,0.));
#767=DIRECTION('ref_axis',(1.,0.,0.));
#768=DIRECTION('center_axis',(0.,0.707106781186548,-0.707106781186547));
#769=DIRECTION('ref_axis',(4.62781687250823E-16,0.707106781186547,0.707106781186548));
#770=DIRECTION('center_axis',(0.,1.,0.));
#771=DIRECTION('ref_axis',(1.,0.,0.));
#772=DIRECTION('center_axis',(0.,0.707106781186548,0.707106781186547));
#773=DIRECTION('ref_axis',(4.47238047549098E-17,-0.707106781186547,0.707106781186548));
#774=DIRECTION('center_axis',(0.,0.,1.));
#775=DIRECTION('ref_axis',(1.,0.,0.));
#776=DIRECTION('',(-1.,0.,0.));
#777=DIRECTION('',(1.,0.,0.));
#778=DIRECTION('center_axis',(0.,-0.707106781186548,-0.707106781186547));
#779=DIRECTION('ref_axis',(-1.,0.,0.));
#780=DIRECTION('',(-1.,0.,0.));
#781=DIRECTION('center_axis',(0.,0.707106781186548,0.707106781186547));
#782=DIRECTION('ref_axis',(-4.62781687250823E-16,0.707106781186547,-0.707106781186548));
#783=DIRECTION('center_axis',(0.,1.,0.));
#784=DIRECTION('ref_axis',(-1.,0.,0.));
#785=DIRECTION('center_axis',(0.,1.,0.));
#786=DIRECTION('ref_axis',(-1.,0.,0.));
#787=DIRECTION('center_axis',(0.,0.707106781186548,-0.707106781186547));
#788=DIRECTION('ref_axis',(-4.47238047549098E-17,-0.707106781186547,-0.707106781186548));
#789=DIRECTION('center_axis',(0.,-0.707106781186548,0.707106781186547));
#790=DIRECTION('ref_axis',(1.,0.,0.));
#791=DIRECTION('',(1.,0.,0.));
#792=DIRECTION('center_axis',(0.,1.,0.));
#793=DIRECTION('ref_axis',(0.,0.,1.));
#794=DIRECTION('center_axis',(0.,1.,0.));
#795=DIRECTION('ref_axis',(0.,0.,1.));
#796=DIRECTION('center_axis',(0.,0.,-1.));
#797=DIRECTION('ref_axis',(1.,0.,0.));
#798=DIRECTION('',(0.,0.,-1.));
#799=DIRECTION('center_axis',(0.,0.,1.));
#800=DIRECTION('ref_axis',(1.,0.,0.));
#801=DIRECTION('',(0.,0.,-1.));
#802=DIRECTION('center_axis',(1.,0.,0.));
#803=DIRECTION('ref_axis',(0.,0.,-1.));
#804=DIRECTION('',(0.,-1.,0.));
#805=DIRECTION('',(0.,1.,0.));
#806=DIRECTION('',(0.,0.,-1.));
#807=DIRECTION('center_axis',(-1.,0.,0.));
#808=DIRECTION('ref_axis',(0.,0.,1.));
#809=DIRECTION('',(0.,1.,0.));
#810=DIRECTION('',(0.,0.,-1.));
#811=DIRECTION('',(0.,-1.,0.));
#812=DIRECTION('center_axis',(0.,0.,-1.));
#813=DIRECTION('ref_axis',(-1.,0.,0.));
#814=DIRECTION('center_axis',(0.,0.,1.));
#815=DIRECTION('ref_axis',(-1.,0.,0.));
#816=DIRECTION('center_axis',(0.,0.,1.));
#817=DIRECTION('ref_axis',(1.,0.,0.));
#818=DIRECTION('center_axis',(0.,-1.,0.));
#819=DIRECTION('ref_axis',(0.,0.,-1.));
#820=DIRECTION('center_axis',(0.,-1.,0.));
#821=DIRECTION('ref_axis',(0.,0.,-1.));
#822=DIRECTION('center_axis',(0.,1.,0.));
#823=DIRECTION('ref_axis',(-1.,0.,0.));
#824=DIRECTION('center_axis',(0.,1.,0.));
#825=DIRECTION('ref_axis',(-1.,0.,0.));
#826=DIRECTION('center_axis',(0.,1.,0.));
#827=DIRECTION('ref_axis',(-1.,0.,0.));
#828=DIRECTION('center_axis',(0.,1.,0.));
#829=DIRECTION('ref_axis',(-1.,0.,0.));
#830=DIRECTION('center_axis',(0.,1.,0.));
#831=DIRECTION('ref_axis',(-1.,0.,0.));
#832=DIRECTION('',(0.,-1.,0.));
#833=DIRECTION('center_axis',(0.,1.,0.));
#834=DIRECTION('ref_axis',(0.,0.,1.));
#835=DIRECTION('center_axis',(0.,1.,0.));
#836=DIRECTION('ref_axis',(-1.,0.,0.));
#837=DIRECTION('center_axis',(0.,1.,0.));
#838=DIRECTION('ref_axis',(-1.,0.,0.));
#839=DIRECTION('center_axis',(0.,1.,0.));
#840=DIRECTION('ref_axis',(-1.,0.,0.));
#841=DIRECTION('center_axis',(0.,1.,0.));
#842=DIRECTION('ref_axis',(-1.,0.,0.));
#843=DIRECTION('center_axis',(0.,1.,0.));
#844=DIRECTION('ref_axis',(-1.,0.,0.));
#845=DIRECTION('',(0.,-1.,0.));
#846=DIRECTION('center_axis',(0.,-1.,0.));
#847=DIRECTION('ref_axis',(0.,0.,-1.));
#848=DIRECTION('center_axis',(0.,1.,0.));
#849=DIRECTION('ref_axis',(-1.,0.,0.));
#850=DIRECTION('center_axis',(0.,1.,0.));
#851=DIRECTION('ref_axis',(-1.,0.,0.));
#852=DIRECTION('center_axis',(0.,1.,0.));
#853=DIRECTION('ref_axis',(-1.,0.,0.));
#854=DIRECTION('center_axis',(0.,1.,0.));
#855=DIRECTION('ref_axis',(-1.,0.,0.));
#856=DIRECTION('center_axis',(0.,1.,0.));
#857=DIRECTION('ref_axis',(-1.,0.,0.));
#858=DIRECTION('',(0.,-1.,0.));
#859=DIRECTION('center_axis',(0.,1.,0.));
#860=DIRECTION('ref_axis',(0.,0.,1.));
#861=DIRECTION('center_axis',(0.,1.,0.));
#862=DIRECTION('ref_axis',(-1.,0.,0.));
#863=DIRECTION('center_axis',(0.,1.,0.));
#864=DIRECTION('ref_axis',(-1.,0.,0.));
#865=DIRECTION('center_axis',(0.,1.,0.));
#866=DIRECTION('ref_axis',(-1.,0.,0.));
#867=DIRECTION('center_axis',(0.,1.,0.));
#868=DIRECTION('ref_axis',(-1.,0.,0.));
#869=DIRECTION('center_axis',(0.,1.,0.));
#870=DIRECTION('ref_axis',(-1.,0.,0.));
#871=DIRECTION('',(0.,-1.,0.));
#872=DIRECTION('center_axis',(0.,-1.,0.));
#873=DIRECTION('ref_axis',(0.,0.,-1.));
#874=CARTESIAN_POINT('',(0.,0.,0.));
#875=CARTESIAN_POINT('Origin',(0.,10.3660254037844,0.));
#876=CARTESIAN_POINT('',(6.70820393249937,11.2320508075689,-6.));
#877=CARTESIAN_POINT('',(5.29150262212918,9.5,-6.));
#878=CARTESIAN_POINT('Ctrl Pts',(6.70820393249937,11.2320508075689,-6.));
#879=CARTESIAN_POINT('Ctrl Pts',(5.95818559171511,10.2637812931664,-6.));
#880=CARTESIAN_POINT('Ctrl Pts',(5.29150262212918,9.5,-6.));
#881=CARTESIAN_POINT('',(9.,11.2320508075689,-1.10218211923262E-15));
#882=CARTESIAN_POINT('Origin',(0.,11.2320508075689,0.));
#883=CARTESIAN_POINT('',(6.70820393249937,11.2320508075689,6.));
#884=CARTESIAN_POINT('Origin',(0.,11.2320508075689,0.));
#885=CARTESIAN_POINT('',(5.29150262212918,9.5,6.));
#886=CARTESIAN_POINT('Ctrl Pts',(5.29150262212918,9.5,6.));
#887=CARTESIAN_POINT('Ctrl Pts',(5.95818559171511,10.2637812931664,6.));
#888=CARTESIAN_POINT('Ctrl Pts',(6.70820393249937,11.2320508075689,6.));
#889=CARTESIAN_POINT('Origin',(0.,9.5,0.));
#890=CARTESIAN_POINT('Origin',(0.,10.3660254037844,0.));
#891=CARTESIAN_POINT('',(-5.29150262212918,9.5,-6.));
#892=CARTESIAN_POINT('',(-6.70820393249937,11.2320508075689,-6.));
#893=CARTESIAN_POINT('Ctrl Pts',(-5.29150262212918,9.5,-6.));
#894=CARTESIAN_POINT('Ctrl Pts',(-5.95818559171511,10.2637812931664,-6.));
#895=CARTESIAN_POINT('Ctrl Pts',(-6.70820393249937,11.2320508075689,-6.));
#896=CARTESIAN_POINT('',(-5.29150262212918,9.5,6.));
#897=CARTESIAN_POINT('Origin',(0.,9.5,0.));
#898=CARTESIAN_POINT('',(-6.70820393249937,11.2320508075689,6.));
#899=CARTESIAN_POINT('Ctrl Pts',(-6.70820393249937,11.2320508075689,6.));
#900=CARTESIAN_POINT('Ctrl Pts',(-5.95818559171511,10.2637812931664,6.));
#901=CARTESIAN_POINT('Ctrl Pts',(-5.29150262212918,9.5,6.));
#902=CARTESIAN_POINT('Origin',(0.,11.2320508075689,0.));
#903=CARTESIAN_POINT('Origin',(0.,8.63397459621556,0.));
#904=CARTESIAN_POINT('',(6.70820393249937,7.76794919243112,-6.));
#905=CARTESIAN_POINT('Ctrl Pts',(5.29150262212918,9.5,-6.));
#906=CARTESIAN_POINT('Ctrl Pts',(5.95818559171513,8.73621870683362,-6.));
#907=CARTESIAN_POINT('Ctrl Pts',(6.70820393249937,7.76794919243112,-6.));
#908=CARTESIAN_POINT('',(6.70820393249937,7.76794919243112,6.));
#909=CARTESIAN_POINT('Ctrl Pts',(6.70820393249937,7.76794919243112,6.));
#910=CARTESIAN_POINT('Ctrl Pts',(5.95818559171513,8.73621870683362,6.));
#911=CARTESIAN_POINT('Ctrl Pts',(5.29150262212918,9.5,6.));
#912=CARTESIAN_POINT('Origin',(0.,7.76794919243112,0.));
#913=CARTESIAN_POINT('Origin',(0.,8.63397459621556,0.));
#914=CARTESIAN_POINT('',(-6.70820393249937,7.76794919243112,-6.));
#915=CARTESIAN_POINT('Ctrl Pts',(-6.70820393249937,7.76794919243112,-6.));
#916=CARTESIAN_POINT('Ctrl Pts',(-5.95818559171513,8.73621870683362,-6.));
#917=CARTESIAN_POINT('Ctrl Pts',(-5.29150262212918,9.5,-6.));
#918=CARTESIAN_POINT('',(-6.70820393249937,7.76794919243112,6.));
#919=CARTESIAN_POINT('Origin',(0.,7.76794919243112,0.));
#920=CARTESIAN_POINT('Ctrl Pts',(-5.29150262212918,9.5,6.));
#921=CARTESIAN_POINT('Ctrl Pts',(-5.95818559171513,8.73621870683362,6.));
#922=CARTESIAN_POINT('Ctrl Pts',(-6.70820393249937,7.76794919243112,6.));
#923=CARTESIAN_POINT('Origin',(0.,11.6,0.));
#924=CARTESIAN_POINT('',(6.70820393249937,2.,6.));
#925=CARTESIAN_POINT('',(6.70820393249937,11.6,6.));
#926=CARTESIAN_POINT('',(6.70820393249937,2.,-6.));
#927=CARTESIAN_POINT('Origin',(0.,2.,0.));
#928=CARTESIAN_POINT('',(6.70820393249937,11.6,-6.));
#929=CARTESIAN_POINT('Origin',(0.,11.6,0.));
#930=CARTESIAN_POINT('',(-6.70820393249937,2.,-6.));
#931=CARTESIAN_POINT('',(-6.70820393249937,11.6,-6.));
#932=CARTESIAN_POINT('',(-6.70820393249937,2.,6.));
#933=CARTESIAN_POINT('Origin',(0.,2.,0.));
#934=CARTESIAN_POINT('',(-6.70820393249937,11.6,6.));
#935=CARTESIAN_POINT('Origin',(0.,11.6,0.));
#936=CARTESIAN_POINT('',(-9.,23.2,0.));
#937=CARTESIAN_POINT('',(9.,23.2,-1.10218211923262E-15));
#938=CARTESIAN_POINT('Origin',(0.,23.2,0.));
#939=CARTESIAN_POINT('Origin',(0.,23.2,0.));
#940=CARTESIAN_POINT('',(9.,11.6,-1.10218211923262E-15));
#941=CARTESIAN_POINT('',(6.70820393249937,17.2,-6.));
#942=CARTESIAN_POINT('',(6.70820393249937,11.6,-6.));
#943=CARTESIAN_POINT('',(-6.70820393249937,17.2,-6.));
#944=CARTESIAN_POINT('Origin',(0.,17.2,0.));
#945=CARTESIAN_POINT('',(-6.70820393249937,11.6,-6.));
#946=CARTESIAN_POINT('',(-6.70820393249937,17.2,6.));
#947=CARTESIAN_POINT('',(-6.70820393249937,11.6,6.));
#948=CARTESIAN_POINT('',(6.70820393249937,17.2,6.));
#949=CARTESIAN_POINT('Origin',(0.,17.2,0.));
#950=CARTESIAN_POINT('',(6.70820393249937,11.6,6.));
#951=CARTESIAN_POINT('Origin',(-6.70820393249937,-8.26636589424463E-16,
6.));
#952=CARTESIAN_POINT('',(-5.9557426842111,0.499999999999999,6.));
#953=CARTESIAN_POINT('Ctrl Pts',(-5.9557426842111,0.499999999999998,6.));
#954=CARTESIAN_POINT('Ctrl Pts',(-6.32020496888207,1.20543680392176,6.));
#955=CARTESIAN_POINT('Ctrl Pts',(-6.70820393249937,2.,6.));
#956=CARTESIAN_POINT('',(5.9557426842111,0.499999999999999,6.));
#957=CARTESIAN_POINT('',(-5.60410196624968,0.499999999999999,6.));
#958=CARTESIAN_POINT('Ctrl Pts',(6.70820393249937,2.,6.));
#959=CARTESIAN_POINT('Ctrl Pts',(6.32020496888207,1.20543680392176,6.));
#960=CARTESIAN_POINT('Ctrl Pts',(5.9557426842111,0.499999999999998,6.));
#961=CARTESIAN_POINT('',(-6.70820393249937,17.2,6.));
#962=CARTESIAN_POINT('Origin',(0.,87.95,0.));
#963=CARTESIAN_POINT('',(-9.49999999999999,88.2,-1.16337603613126E-15));
#964=CARTESIAN_POINT('Origin',(0.,88.2,0.));
#965=CARTESIAN_POINT('',(-9.99999999999999,87.7,1.22460635382238E-15));
#966=CARTESIAN_POINT('',(-9.74999999999999,87.95,1.19403062916867E-15));
#967=CARTESIAN_POINT('',(9.99999999999999,87.7,-1.22464679914735E-15));
#968=CARTESIAN_POINT('Origin',(0.,87.7,0.));
#969=CARTESIAN_POINT('Origin',(0.,87.7,0.));
#970=CARTESIAN_POINT('Origin',(0.,87.25,0.));
#971=CARTESIAN_POINT('',(9.99999999999999,86.3,-1.22464679914735E-15));
#972=CARTESIAN_POINT('',(9.99999999999999,87.25,-1.22464679914735E-15));
#973=CARTESIAN_POINT('',(-9.99999999999999,86.3,0.));
#974=CARTESIAN_POINT('Origin',(0.,86.3,0.));
#975=CARTESIAN_POINT('Origin',(0.,86.3,0.));
#976=CARTESIAN_POINT('Origin',(-5.,88.2,0.));
#977=CARTESIAN_POINT('Origin',(0.,0.999999999999999,0.));
#978=CARTESIAN_POINT('',(5.9557426842111,0.499999999999999,-6.));
#979=CARTESIAN_POINT('Ctrl Pts',(5.9557426842111,0.499999999999998,-6.));
#980=CARTESIAN_POINT('Ctrl Pts',(6.32020496888207,1.20543680392176,-6.));
#981=CARTESIAN_POINT('Ctrl Pts',(6.70820393249937,2.,-6.));
#982=CARTESIAN_POINT('',(6.17875140235824,-8.32667268468867E-16,5.5));
#983=CARTESIAN_POINT('Origin',(3.33066907387547E-15,-2.86932899469829,2.63067100530171));
#984=CARTESIAN_POINT('',(6.17875140235824,-8.32667268468867E-16,-5.5));
#985=CARTESIAN_POINT('Origin',(0.,-8.32667268468867E-16,0.));
#986=CARTESIAN_POINT('Origin',(1.11022302462516E-15,-2.86932899469828,-2.63067100530171));
#987=CARTESIAN_POINT('Origin',(6.70820393249937,-8.26636589424463E-16,-6.));
#988=CARTESIAN_POINT('',(6.70820393249937,17.2,-6.));
#989=CARTESIAN_POINT('',(-5.9557426842111,0.499999999999999,-6.));
#990=CARTESIAN_POINT('',(1.10410196624968,0.499999999999999,-6.));
#991=CARTESIAN_POINT('Ctrl Pts',(-6.70820393249937,2.,-6.));
#992=CARTESIAN_POINT('Ctrl Pts',(-6.32020496888207,1.20543680392176,-6.));
#993=CARTESIAN_POINT('Ctrl Pts',(-5.9557426842111,0.499999999999998,-6.));
#994=CARTESIAN_POINT('Origin',(1.10410196624968,0.249999999999999,-5.75));
#995=CARTESIAN_POINT('',(-6.17875140235824,-8.32667268468867E-16,-5.5));
#996=CARTESIAN_POINT('',(1.10410196624968,-8.32667268468867E-16,-5.5));
#997=CARTESIAN_POINT('Origin',(-3.33066907387547E-15,-2.86932899469829,
-2.63067100530171));
#998=CARTESIAN_POINT('Origin',(0.,0.999999999999999,0.));
#999=CARTESIAN_POINT('',(-6.17875140235824,-8.32667268468867E-16,5.5));
#1000=CARTESIAN_POINT('Origin',(0.,-8.32667268468867E-16,0.));
#1001=CARTESIAN_POINT('Origin',(-1.11022302462516E-15,-2.86932899469828,
2.63067100530171));
#1002=CARTESIAN_POINT('Origin',(-5.60410196624968,0.249999999999999,5.75));
#1003=CARTESIAN_POINT('',(-5.60410196624968,-8.32667268468867E-16,5.5));
#1004=CARTESIAN_POINT('Origin',(6.1775480054852E-16,17.2,-6.94321103749186));
#1005=CARTESIAN_POINT('Origin',(-4.03717463500057E-16,17.2,6.94321103749186));
#1006=CARTESIAN_POINT('Origin',(1.66533453693773E-15,81.1991206710121,10.));
#1007=CARTESIAN_POINT('',(-3.,81.1991206710121,9.53939201416945));
#1008=CARTESIAN_POINT('',(-2.46519032881566E-31,84.1991206710121,10.));
#1009=CARTESIAN_POINT('Ctrl Pts',(-3.,81.1991206710121,9.53939201416945));
#1010=CARTESIAN_POINT('Ctrl Pts',(-3.,81.5783979250013,9.53939201416945));
#1011=CARTESIAN_POINT('Ctrl Pts',(-2.92372091609922,81.9812281564403,9.56437939057487));
#1012=CARTESIAN_POINT('Ctrl Pts',(-2.61686672615766,82.7195962087282,9.65284956103207));
#1013=CARTESIAN_POINT('Ctrl Pts',(-2.38640531261462,83.0553560455167,9.71486751729016));
#1014=CARTESIAN_POINT('Ctrl Pts',(-1.85631434471708,83.5854470134143,9.82993562614982));
#1015=CARTESIAN_POINT('Ctrl Pts',(-1.52052241900622,83.8159695780451,9.89071194990079));
#1016=CARTESIAN_POINT('Ctrl Pts',(-0.782037717481873,84.1228689175228,9.97630133387832));
#1017=CARTESIAN_POINT('Ctrl Pts',(-0.379164265292,84.1991206710121,10.));
#1018=CARTESIAN_POINT('Ctrl Pts',(2.28983498828939E-15,84.1991206710121,
10.));
#1019=CARTESIAN_POINT('',(-3.,81.1991206710121,6.5));
#1020=CARTESIAN_POINT('',(-3.,81.1991206710121,10.));
#1021=CARTESIAN_POINT('',(3.,81.1991206710121,6.5));
#1022=CARTESIAN_POINT('Origin',(1.66533453693773E-15,81.1991206710121,6.5));
#1023=CARTESIAN_POINT('',(3.,81.1991206710121,9.53939201416945));
#1024=CARTESIAN_POINT('',(3.,81.1991206710121,10.));
#1025=CARTESIAN_POINT('Ctrl Pts',(-2.08166817117217E-16,84.1991206710121,
10.));
#1026=CARTESIAN_POINT('Ctrl Pts',(0.379164265292002,84.1991206710121,10.));
#1027=CARTESIAN_POINT('Ctrl Pts',(0.782037717481875,84.1228689175228,9.97630133387832));
#1028=CARTESIAN_POINT('Ctrl Pts',(1.52052241900622,83.8159695780451,9.89071194990079));
#1029=CARTESIAN_POINT('Ctrl Pts',(1.85631434471708,83.5854470134143,9.82993562614982));
#1030=CARTESIAN_POINT('Ctrl Pts',(2.38640531261462,83.0553560455167,9.71486751729016));
#1031=CARTESIAN_POINT('Ctrl Pts',(2.61686672615766,82.7195962087282,9.65284956103207));
#1032=CARTESIAN_POINT('Ctrl Pts',(2.92372091609922,81.9812281564403,9.56437939057487));
#1033=CARTESIAN_POINT('Ctrl Pts',(3.,81.5783979250013,9.53939201416945));
#1034=CARTESIAN_POINT('Ctrl Pts',(3.,81.1991206710121,9.53939201416945));
#1035=CARTESIAN_POINT('Origin',(3.,73.1991206710121,10.));
#1036=CARTESIAN_POINT('',(3.,73.1991206710121,9.53939201416945));
#1037=CARTESIAN_POINT('',(3.,60.2,9.53939201416945));
#1038=CARTESIAN_POINT('',(3.,73.1991206710121,6.5));
#1039=CARTESIAN_POINT('',(3.,73.1991206710121,6.5));
#1040=CARTESIAN_POINT('',(3.,73.1991206710121,10.));
#1041=CARTESIAN_POINT('Origin',(-3.,81.1991206710121,10.));
#1042=CARTESIAN_POINT('',(-3.,73.1991206710121,9.53939201416945));
#1043=CARTESIAN_POINT('',(-3.,60.2,9.53939201416945));
#1044=CARTESIAN_POINT('',(-3.,73.1991206710121,6.5));
#1045=CARTESIAN_POINT('',(-3.,73.1991206710121,10.));
#1046=CARTESIAN_POINT('',(-3.,81.1991206710121,6.5));
#1047=CARTESIAN_POINT('Origin',(1.66533453693773E-15,73.1991206710121,10.));
#1048=CARTESIAN_POINT('',(-2.46519032881566E-31,70.1991206710121,10.));
#1049=CARTESIAN_POINT('Ctrl Pts',(2.39391839684799E-15,70.1991206710121,
10.));
#1050=CARTESIAN_POINT('Ctrl Pts',(-0.379164265292001,70.1991206710121,10.));
#1051=CARTESIAN_POINT('Ctrl Pts',(-0.782037717481873,70.2753724245014,9.97630133387832));
#1052=CARTESIAN_POINT('Ctrl Pts',(-1.52052241900622,70.5822717639791,9.89071194990079));
#1053=CARTESIAN_POINT('Ctrl Pts',(-1.85631434471708,70.8127943286099,9.82993562614982));
#1054=CARTESIAN_POINT('Ctrl Pts',(-2.38640531261462,71.3428852965074,9.71486751729016));
#1055=CARTESIAN_POINT('Ctrl Pts',(-2.61686672615765,71.6786451332959,9.65284956103207));
#1056=CARTESIAN_POINT('Ctrl Pts',(-2.92372091609922,72.4170131855838,9.56437939057487));
#1057=CARTESIAN_POINT('Ctrl Pts',(-3.,72.8198434170228,9.53939201416945));
#1058=CARTESIAN_POINT('Ctrl Pts',(-3.,73.1991206710121,9.53939201416945));
#1059=CARTESIAN_POINT('Ctrl Pts',(3.,73.1991206710121,9.53939201416945));
#1060=CARTESIAN_POINT('Ctrl Pts',(3.,72.8198434170228,9.53939201416945));
#1061=CARTESIAN_POINT('Ctrl Pts',(2.92372091609922,72.4170131855838,9.56437939057487));
#1062=CARTESIAN_POINT('Ctrl Pts',(2.61686672615765,71.6786451332959,9.65284956103207));
#1063=CARTESIAN_POINT('Ctrl Pts',(2.38640531261463,71.3428852965074,9.71486751729015));
#1064=CARTESIAN_POINT('Ctrl Pts',(1.85631434471708,70.8127943286099,9.82993562614982));
#1065=CARTESIAN_POINT('Ctrl Pts',(1.52052241900623,70.5822717639791,9.89071194990079));
#1066=CARTESIAN_POINT('Ctrl Pts',(0.782037717481883,70.2753724245014,9.97630133387832));
#1067=CARTESIAN_POINT('Ctrl Pts',(0.379164265292005,70.1991206710121,10.));
#1068=CARTESIAN_POINT('Ctrl Pts',(2.98372437868011E-15,70.1991206710121,
10.));
#1069=CARTESIAN_POINT('Origin',(1.66533453693773E-15,73.1991206710121,6.5));
#1070=CARTESIAN_POINT('Origin',(1.58789468109076E-15,77.1991206710121,6.5));
#1071=CARTESIAN_POINT('Origin',(-4.5,-8.26636589424463E-16,0.));
#1072=CARTESIAN_POINT('Origin',(-9.5,23.2,0.));
#1073=CARTESIAN_POINT('',(-10.,23.2,0.));
#1074=CARTESIAN_POINT('',(10.,23.2,-1.22464679914735E-15));
#1075=CARTESIAN_POINT('Origin',(0.,23.2,0.));
#1076=CARTESIAN_POINT('Origin',(0.,23.2,0.));
#1077=CARTESIAN_POINT('Origin',(0.,28.65,0.));
#1078=CARTESIAN_POINT('',(-10.,34.1,0.));
#1079=CARTESIAN_POINT('',(10.,34.1,-1.22464679914735E-15));
#1080=CARTESIAN_POINT('Origin',(0.,34.1,0.));
#1081=CARTESIAN_POINT('Origin',(0.,34.1,0.));
#1082=CARTESIAN_POINT('',(10.,28.65,-1.22464679914735E-15));
#1083=CARTESIAN_POINT('Origin',(-9.75,34.1,0.));
#1084=CARTESIAN_POINT('',(-9.5,34.1,0.));
#1085=CARTESIAN_POINT('',(9.5,34.1,-1.16341445918999E-15));
#1086=CARTESIAN_POINT('Origin',(0.,34.1,0.));
#1087=CARTESIAN_POINT('Origin',(0.,34.1,0.));
#1088=CARTESIAN_POINT('Origin',(0.,34.65,0.));
#1089=CARTESIAN_POINT('',(-9.5,35.2,0.));
#1090=CARTESIAN_POINT('',(9.5,35.2,-1.16341445918999E-15));
#1091=CARTESIAN_POINT('Origin',(0.,35.2,0.));
#1092=CARTESIAN_POINT('Origin',(0.,35.2,0.));
#1093=CARTESIAN_POINT('',(9.5,34.65,-1.16341445918999E-15));
#1094=CARTESIAN_POINT('Origin',(-9.75,35.2,0.));
#1095=CARTESIAN_POINT('',(-9.99999999999999,35.2,0.));
#1096=CARTESIAN_POINT('',(10.,35.2,-1.22464679914735E-15));
#1097=CARTESIAN_POINT('Origin',(0.,35.2,0.));
#1098=CARTESIAN_POINT('Origin',(0.,35.2,0.));
#1099=CARTESIAN_POINT('Origin',(0.,60.2,0.));
#1100=CARTESIAN_POINT('',(-10.,85.2,0.));
#1101=CARTESIAN_POINT('',(10.,85.2,-1.22464679914735E-15));
#1102=CARTESIAN_POINT('Origin',(0.,85.2,0.));
#1103=CARTESIAN_POINT('Origin',(0.,85.2,0.));
#1104=CARTESIAN_POINT('',(10.,60.2,-1.22464679914735E-15));
#1105=CARTESIAN_POINT('Origin',(-9.75,85.2,0.));
#1106=CARTESIAN_POINT('',(-9.49999999999999,85.2,0.));
#1107=CARTESIAN_POINT('',(9.49999999999999,85.2,-1.16341445918998E-15));
#1108=CARTESIAN_POINT('Origin',(0.,85.2,0.));
#1109=CARTESIAN_POINT('Origin',(0.,85.2,0.));
#1110=CARTESIAN_POINT('Origin',(0.,85.75,0.));
#1111=CARTESIAN_POINT('',(-9.49999999999999,86.3,0.));
#1112=CARTESIAN_POINT('',(9.49999999999999,86.3,-1.16341445918998E-15));
#1113=CARTESIAN_POINT('Origin',(0.,86.3,0.));
#1114=CARTESIAN_POINT('Origin',(0.,86.3,0.));
#1115=CARTESIAN_POINT('',(9.49999999999999,85.75,-1.16341445918998E-15));
#1116=CARTESIAN_POINT('Origin',(-9.74999999999999,86.3,0.));
#1117=UNCERTAINTY_MEASURE_WITH_UNIT(LENGTH_MEASURE(0.01),#1121,
'DISTANCE_ACCURACY_VALUE',
'Maximum model space distance between geometric entities at asserted c
onnectivities');
#1118=UNCERTAINTY_MEASURE_WITH_UNIT(LENGTH_MEASURE(0.01),#1121,
'DISTANCE_ACCURACY_VALUE',
'Maximum model space distance between geometric entities at asserted c
onnectivities');
#1119=(
GEOMETRIC_REPRESENTATION_CONTEXT(3)
GLOBAL_UNCERTAINTY_ASSIGNED_CONTEXT((#1117))
GLOBAL_UNIT_ASSIGNED_CONTEXT((#1121,#1123,#1124))
REPRESENTATION_CONTEXT('','3D')
);
#1120=(
GEOMETRIC_REPRESENTATION_CONTEXT(3)
GLOBAL_UNCERTAINTY_ASSIGNED_CONTEXT((#1118))
GLOBAL_UNIT_ASSIGNED_CONTEXT((#1121,#1123,#1124))
REPRESENTATION_CONTEXT('','3D')
);
#1121=(
LENGTH_UNIT()
NAMED_UNIT(*)
SI_UNIT(.MILLI.,.METRE.)
);
#1122=(
LENGTH_UNIT()
NAMED_UNIT(*)
SI_UNIT(.CENTI.,.METRE.)
);
#1123=(
NAMED_UNIT(*)
PLANE_ANGLE_UNIT()
SI_UNIT($,.RADIAN.)
);
#1124=(
NAMED_UNIT(*)
SI_UNIT($,.STERADIAN.)
SOLID_ANGLE_UNIT()
);
#1125=SHAPE_DEFINITION_REPRESENTATION(#1126,#1127);
#1126=PRODUCT_DEFINITION_SHAPE('',$,#1129);
#1127=SHAPE_REPRESENTATION('',(#617),#1119);
#1128=PRODUCT_DEFINITION_CONTEXT('part definition',#1133,'design');
#1129=PRODUCT_DEFINITION('680.9.1.6-1\X2\9F7F8F6E8F74\X0\',
'680.9.1.6-1\X2\9F7F8F6E8F74\X0\',#1130,#1128);
#1130=PRODUCT_DEFINITION_FORMATION('',$,#1135);
#1131=PRODUCT_RELATED_PRODUCT_CATEGORY('680.9.1.6-1\X2\9F7F8F6E8F74\X0\',
'680.9.1.6-1\X2\9F7F8F6E8F74\X0\',(#1135));
#1132=APPLICATION_PROTOCOL_DEFINITION('international standard',
'automotive_design',2009,#1133);
#1133=APPLICATION_CONTEXT(
'Core Data for Automotive Mechanical Design Process');
#1134=PRODUCT_CONTEXT('part definition',#1133,'mechanical');
#1135=PRODUCT('680.9.1.6-1\X2\9F7F8F6E8F74\X0\','680.9.1.6-1\X2\9F7F8F6E8F74\X0\',
$,(#1134));
#1136=PRESENTATION_STYLE_ASSIGNMENT((#1137));
#1137=SURFACE_STYLE_USAGE(.BOTH.,#1140);
#1138=SURFACE_STYLE_RENDERING_WITH_PROPERTIES($,#1144,(#1139));
#1139=SURFACE_STYLE_TRANSPARENT(0.);
#1140=SURFACE_SIDE_STYLE('',(#1141,#1138));
#1141=SURFACE_STYLE_FILL_AREA(#1142);
#1142=FILL_AREA_STYLE('',(#1143));
#1143=FILL_AREA_STYLE_COLOUR('',#1144);
#1144=COLOUR_RGB('',0.392156862745098,0.392156862745098,1.);
ENDSEC;
END-ISO-10303-21;
