ISO-10303-21;
HEADER;
/* Generated by software containing ST-Developer
 * from STEP Tools, Inc. (www.steptools.com) 
 */

FILE_DESCRIPTION(
/* description */ ('\X2\65B95F62952E548C77E95F62952E\X0\'),
/* implementation_level */ '2;1');

FILE_NAME(
/* name */ 
'C:\\Users\\86159\\Desktop\\P1\X2\673A68B056FE5143\X0\-\X2\9F7F8F6E8F7488C5914D7EC44EF6\X0\\\
\X2\952E\X0\ GB_T 1096 - A 6 x 6 x 14.stp',
/* time_stamp */ '2026-08-04T22:41:42+08:00',
/* author */ ('86159'),
/* organization */ (''),
/* preprocessor_version */ 'ST-DEVELOPER v18.1',
/* originating_system */ 'Autodesk Inventor 2021',
/* authorisation */ '');

FILE_SCHEMA (('AUTOMOTIVE_DESIGN { 1 0 10303 214 3 1 1 }'));
ENDSEC;

DATA;
#10=MECHANICAL_DESIGN_GEOMETRIC_PRESENTATION_REPRESENTATION('',(#13),#389);
#11=SHAPE_REPRESENTATION_RELATIONSHIP('SRR','None',#396,#12);
#12=ADVANCED_BREP_SHAPE_REPRESENTATION('',(#14),#388);
#13=STYLED_ITEM('',(#405),#14);
#14=MANIFOLD_SOLID_BREP('Solid1',#219);
#15=CYLINDRICAL_SURFACE('',#247,3.);
#16=CYLINDRICAL_SURFACE('',#260,3.);
#17=CIRCLE('',#241,3.);
#18=CIRCLE('',#242,2.6);
#19=CIRCLE('',#244,2.6);
#20=CIRCLE('',#245,3.);
#21=CIRCLE('',#248,3.);
#22=CIRCLE('',#252,2.6);
#23=CIRCLE('',#256,3.);
#24=CIRCLE('',#257,2.6);
#25=CONICAL_SURFACE('',#240,2.8,0.785398163397449);
#26=CONICAL_SURFACE('',#243,2.8,0.785398163397449);
#27=CONICAL_SURFACE('',#251,2.8,0.785398163397449);
#28=CONICAL_SURFACE('',#255,2.8,0.785398163397449);
#29=FACE_OUTER_BOUND('',#43,.T.);
#30=FACE_OUTER_BOUND('',#44,.T.);
#31=FACE_OUTER_BOUND('',#45,.T.);
#32=FACE_OUTER_BOUND('',#46,.T.);
#33=FACE_OUTER_BOUND('',#47,.T.);
#34=FACE_OUTER_BOUND('',#48,.T.);
#35=FACE_OUTER_BOUND('',#49,.T.);
#36=FACE_OUTER_BOUND('',#50,.T.);
#37=FACE_OUTER_BOUND('',#51,.T.);
#38=FACE_OUTER_BOUND('',#52,.T.);
#39=FACE_OUTER_BOUND('',#53,.T.);
#40=FACE_OUTER_BOUND('',#54,.T.);
#41=FACE_OUTER_BOUND('',#55,.T.);
#42=FACE_OUTER_BOUND('',#56,.T.);
#43=EDGE_LOOP('',(#141,#142,#143,#144));
#44=EDGE_LOOP('',(#145,#146,#147,#148));
#45=EDGE_LOOP('',(#149,#150,#151,#152));
#46=EDGE_LOOP('',(#153,#154,#155,#156));
#47=EDGE_LOOP('',(#157,#158,#159,#160));
#48=EDGE_LOOP('',(#161,#162,#163,#164));
#49=EDGE_LOOP('',(#165,#166,#167,#168));
#50=EDGE_LOOP('',(#169,#170,#171,#172));
#51=EDGE_LOOP('',(#173,#174,#175,#176));
#52=EDGE_LOOP('',(#177,#178,#179,#180));
#53=EDGE_LOOP('',(#181,#182,#183,#184));
#54=EDGE_LOOP('',(#185,#186,#187,#188));
#55=EDGE_LOOP('',(#189,#190,#191,#192));
#56=EDGE_LOOP('',(#193,#194,#195,#196));
#57=LINE('',#331,#77);
#58=LINE('',#333,#78);
#59=LINE('',#335,#79);
#60=LINE('',#336,#80);
#61=LINE('',#340,#81);
#62=LINE('',#346,#82);
#63=LINE('',#350,#83);
#64=LINE('',#351,#84);
#65=LINE('',#354,#85);
#66=LINE('',#357,#86);
#67=LINE('',#360,#87);
#68=LINE('',#361,#88);
#69=LINE('',#365,#89);
#70=LINE('',#368,#90);
#71=LINE('',#371,#91);
#72=LINE('',#372,#92);
#73=LINE('',#376,#93);
#74=LINE('',#377,#94);
#75=LINE('',#378,#95);
#76=LINE('',#384,#96);
#77=VECTOR('',#265,10.);
#78=VECTOR('',#266,10.);
#79=VECTOR('',#267,10.);
#80=VECTOR('',#268,10.);
#81=VECTOR('',#271,10.);
#82=VECTOR('',#278,10.);
#83=VECTOR('',#285,10.);
#84=VECTOR('',#286,10.);
#85=VECTOR('',#289,10.);
#86=VECTOR('',#292,10.);
#87=VECTOR('',#295,10.);
#88=VECTOR('',#296,10.);
#89=VECTOR('',#301,10.);
#90=VECTOR('',#304,10.);
#91=VECTOR('',#307,10.);
#92=VECTOR('',#308,10.);
#93=VECTOR('',#311,10.);
#94=VECTOR('',#312,10.);
#95=VECTOR('',#313,10.);
#96=VECTOR('',#324,10.);
#97=VERTEX_POINT('',#329);
#98=VERTEX_POINT('',#330);
#99=VERTEX_POINT('',#332);
#100=VERTEX_POINT('',#334);
#101=VERTEX_POINT('',#338);
#102=VERTEX_POINT('',#339);
#103=VERTEX_POINT('',#344);
#104=VERTEX_POINT('',#345);
#105=VERTEX_POINT('',#353);
#106=VERTEX_POINT('',#355);
#107=VERTEX_POINT('',#359);
#108=VERTEX_POINT('',#364);
#109=VERTEX_POINT('',#366);
#110=VERTEX_POINT('',#370);
#111=VERTEX_POINT('',#374);
#112=VERTEX_POINT('',#375);
#113=EDGE_CURVE('',#97,#98,#57,.T.);
#114=EDGE_CURVE('',#98,#99,#58,.T.);
#115=EDGE_CURVE('',#99,#100,#59,.T.);
#116=EDGE_CURVE('',#100,#97,#60,.T.);
#117=EDGE_CURVE('',#101,#102,#61,.T.);
#118=EDGE_CURVE('',#102,#98,#17,.T.);
#119=EDGE_CURVE('',#97,#101,#18,.T.);
#120=EDGE_CURVE('',#103,#104,#62,.T.);
#121=EDGE_CURVE('',#104,#100,#19,.T.);
#122=EDGE_CURVE('',#99,#103,#20,.T.);
#123=EDGE_CURVE('',#101,#104,#63,.T.);
#124=EDGE_CURVE('',#103,#102,#64,.T.);
#125=EDGE_CURVE('',#105,#99,#65,.T.);
#126=EDGE_CURVE('',#106,#105,#21,.T.);
#127=EDGE_CURVE('',#103,#106,#66,.T.);
#128=EDGE_CURVE('',#107,#98,#67,.T.);
#129=EDGE_CURVE('',#105,#107,#68,.T.);
#130=EDGE_CURVE('',#105,#108,#69,.T.);
#131=EDGE_CURVE('',#108,#109,#22,.T.);
#132=EDGE_CURVE('',#109,#106,#70,.T.);
#133=EDGE_CURVE('',#107,#110,#71,.T.);
#134=EDGE_CURVE('',#110,#108,#72,.T.);
#135=EDGE_CURVE('',#111,#112,#73,.T.);
#136=EDGE_CURVE('',#112,#106,#74,.T.);
#137=EDGE_CURVE('',#109,#111,#75,.T.);
#138=EDGE_CURVE('',#107,#112,#23,.T.);
#139=EDGE_CURVE('',#111,#110,#24,.T.);
#140=EDGE_CURVE('',#112,#102,#76,.T.);
#141=ORIENTED_EDGE('',*,*,#113,.T.);
#142=ORIENTED_EDGE('',*,*,#114,.T.);
#143=ORIENTED_EDGE('',*,*,#115,.T.);
#144=ORIENTED_EDGE('',*,*,#116,.T.);
#145=ORIENTED_EDGE('',*,*,#117,.T.);
#146=ORIENTED_EDGE('',*,*,#118,.T.);
#147=ORIENTED_EDGE('',*,*,#113,.F.);
#148=ORIENTED_EDGE('',*,*,#119,.T.);
#149=ORIENTED_EDGE('',*,*,#120,.T.);
#150=ORIENTED_EDGE('',*,*,#121,.T.);
#151=ORIENTED_EDGE('',*,*,#115,.F.);
#152=ORIENTED_EDGE('',*,*,#122,.T.);
#153=ORIENTED_EDGE('',*,*,#117,.F.);
#154=ORIENTED_EDGE('',*,*,#123,.T.);
#155=ORIENTED_EDGE('',*,*,#120,.F.);
#156=ORIENTED_EDGE('',*,*,#124,.T.);
#157=ORIENTED_EDGE('',*,*,#122,.F.);
#158=ORIENTED_EDGE('',*,*,#125,.F.);
#159=ORIENTED_EDGE('',*,*,#126,.F.);
#160=ORIENTED_EDGE('',*,*,#127,.F.);
#161=ORIENTED_EDGE('',*,*,#114,.F.);
#162=ORIENTED_EDGE('',*,*,#128,.F.);
#163=ORIENTED_EDGE('',*,*,#129,.F.);
#164=ORIENTED_EDGE('',*,*,#125,.T.);
#165=ORIENTED_EDGE('',*,*,#116,.F.);
#166=ORIENTED_EDGE('',*,*,#121,.F.);
#167=ORIENTED_EDGE('',*,*,#123,.F.);
#168=ORIENTED_EDGE('',*,*,#119,.F.);
#169=ORIENTED_EDGE('',*,*,#130,.T.);
#170=ORIENTED_EDGE('',*,*,#131,.T.);
#171=ORIENTED_EDGE('',*,*,#132,.T.);
#172=ORIENTED_EDGE('',*,*,#126,.T.);
#173=ORIENTED_EDGE('',*,*,#133,.T.);
#174=ORIENTED_EDGE('',*,*,#134,.T.);
#175=ORIENTED_EDGE('',*,*,#130,.F.);
#176=ORIENTED_EDGE('',*,*,#129,.T.);
#177=ORIENTED_EDGE('',*,*,#135,.T.);
#178=ORIENTED_EDGE('',*,*,#136,.T.);
#179=ORIENTED_EDGE('',*,*,#132,.F.);
#180=ORIENTED_EDGE('',*,*,#137,.T.);
#181=ORIENTED_EDGE('',*,*,#133,.F.);
#182=ORIENTED_EDGE('',*,*,#138,.T.);
#183=ORIENTED_EDGE('',*,*,#135,.F.);
#184=ORIENTED_EDGE('',*,*,#139,.T.);
#185=ORIENTED_EDGE('',*,*,#131,.F.);
#186=ORIENTED_EDGE('',*,*,#134,.F.);
#187=ORIENTED_EDGE('',*,*,#139,.F.);
#188=ORIENTED_EDGE('',*,*,#137,.F.);
#189=ORIENTED_EDGE('',*,*,#124,.F.);
#190=ORIENTED_EDGE('',*,*,#127,.T.);
#191=ORIENTED_EDGE('',*,*,#136,.F.);
#192=ORIENTED_EDGE('',*,*,#140,.T.);
#193=ORIENTED_EDGE('',*,*,#118,.F.);
#194=ORIENTED_EDGE('',*,*,#140,.F.);
#195=ORIENTED_EDGE('',*,*,#138,.F.);
#196=ORIENTED_EDGE('',*,*,#128,.T.);
#197=PLANE('',#239);
#198=PLANE('',#246);
#199=PLANE('',#249);
#200=PLANE('',#250);
#201=PLANE('',#253);
#202=PLANE('',#254);
#203=PLANE('',#258);
#204=PLANE('',#259);
#205=ADVANCED_FACE('',(#29),#197,.T.);
#206=ADVANCED_FACE('',(#30),#25,.T.);
#207=ADVANCED_FACE('',(#31),#26,.T.);
#208=ADVANCED_FACE('',(#32),#198,.T.);
#209=ADVANCED_FACE('',(#33),#15,.T.);
#210=ADVANCED_FACE('',(#34),#199,.T.);
#211=ADVANCED_FACE('',(#35),#200,.F.);
#212=ADVANCED_FACE('',(#36),#27,.T.);
#213=ADVANCED_FACE('',(#37),#201,.T.);
#214=ADVANCED_FACE('',(#38),#202,.T.);
#215=ADVANCED_FACE('',(#39),#28,.T.);
#216=ADVANCED_FACE('',(#40),#203,.T.);
#217=ADVANCED_FACE('',(#41),#204,.T.);
#218=ADVANCED_FACE('',(#42),#16,.T.);
#219=CLOSED_SHELL('',(#205,#206,#207,#208,#209,#210,#211,#212,#213,#214,
#215,#216,#217,#218));
#220=DERIVED_UNIT_ELEMENT(#222,1.);
#221=DERIVED_UNIT_ELEMENT(#391,3.);
#222=(
MASS_UNIT()
NAMED_UNIT(*)
SI_UNIT($,.GRAM.)
);
#223=DERIVED_UNIT((#220,#221));
#224=MEASURE_REPRESENTATION_ITEM('density measure',
POSITIVE_RATIO_MEASURE(7.85),#223);
#225=PROPERTY_DEFINITION_REPRESENTATION(#230,#227);
#226=PROPERTY_DEFINITION_REPRESENTATION(#231,#228);
#227=REPRESENTATION('material name',(#229),#388);
#228=REPRESENTATION('density',(#224),#388);
#229=DESCRIPTIVE_REPRESENTATION_ITEM('\X2\94A2FF0C8F6F\X0\','\X2\94A2FF0C8F6F\X0\');
#230=PROPERTY_DEFINITION('material property','material name',#398);
#231=PROPERTY_DEFINITION('material property','density of part',#398);
#232=DATE_TIME_ROLE('creation_date');
#233=APPLIED_DATE_AND_TIME_ASSIGNMENT(#234,#232,(#398));
#234=DATE_AND_TIME(#235,#236);
#235=CALENDAR_DATE(2020,22,1);
#236=LOCAL_TIME(0,0,0.,#237);
#237=COORDINATED_UNIVERSAL_TIME_OFFSET(0,0,.BEHIND.);
#238=AXIS2_PLACEMENT_3D('placement',#327,#261,#262);
#239=AXIS2_PLACEMENT_3D('',#328,#263,#264);
#240=AXIS2_PLACEMENT_3D('',#337,#269,#270);
#241=AXIS2_PLACEMENT_3D('',#341,#272,#273);
#242=AXIS2_PLACEMENT_3D('',#342,#274,#275);
#243=AXIS2_PLACEMENT_3D('',#343,#276,#277);
#244=AXIS2_PLACEMENT_3D('',#347,#279,#280);
#245=AXIS2_PLACEMENT_3D('',#348,#281,#282);
#246=AXIS2_PLACEMENT_3D('',#349,#283,#284);
#247=AXIS2_PLACEMENT_3D('',#352,#287,#288);
#248=AXIS2_PLACEMENT_3D('',#356,#290,#291);
#249=AXIS2_PLACEMENT_3D('',#358,#293,#294);
#250=AXIS2_PLACEMENT_3D('',#362,#297,#298);
#251=AXIS2_PLACEMENT_3D('',#363,#299,#300);
#252=AXIS2_PLACEMENT_3D('',#367,#302,#303);
#253=AXIS2_PLACEMENT_3D('',#369,#305,#306);
#254=AXIS2_PLACEMENT_3D('',#373,#309,#310);
#255=AXIS2_PLACEMENT_3D('',#379,#314,#315);
#256=AXIS2_PLACEMENT_3D('',#380,#316,#317);
#257=AXIS2_PLACEMENT_3D('',#381,#318,#319);
#258=AXIS2_PLACEMENT_3D('',#382,#320,#321);
#259=AXIS2_PLACEMENT_3D('',#383,#322,#323);
#260=AXIS2_PLACEMENT_3D('',#385,#325,#326);
#261=DIRECTION('axis',(0.,0.,1.));
#262=DIRECTION('refdir',(1.,0.,0.));
#263=DIRECTION('center_axis',(4.90653893338679E-17,-0.707106781186547,-0.707106781186548));
#264=DIRECTION('ref_axis',(-1.,0.,-6.93889390390722E-17));
#265=DIRECTION('',(0.,-0.707106781186548,0.707106781186547));
#266=DIRECTION('',(-1.,-6.93889390390723E-17,0.));
#267=DIRECTION('',(0.,0.707106781186548,-0.707106781186547));
#268=DIRECTION('',(1.,6.93889390390723E-17,0.));
#269=DIRECTION('center_axis',(0.,0.,1.));
#270=DIRECTION('ref_axis',(0.,1.,0.));
#271=DIRECTION('',(0.,0.707106781186548,0.707106781186547));
#272=DIRECTION('center_axis',(0.,0.,-1.));
#273=DIRECTION('ref_axis',(0.,1.,0.));
#274=DIRECTION('center_axis',(0.,0.,1.));
#275=DIRECTION('ref_axis',(0.,1.,0.));
#276=DIRECTION('center_axis',(0.,0.,1.));
#277=DIRECTION('ref_axis',(0.,-1.,0.));
#278=DIRECTION('',(-9.81307786677359E-16,-0.707106781186548,-0.707106781186547));
#279=DIRECTION('center_axis',(0.,0.,1.));
#280=DIRECTION('ref_axis',(0.,-1.,0.));
#281=DIRECTION('center_axis',(0.,0.,-1.));
#282=DIRECTION('ref_axis',(0.,-1.,0.));
#283=DIRECTION('center_axis',(0.,0.707106781186547,-0.707106781186548));
#284=DIRECTION('ref_axis',(-1.,0.,0.));
#285=DIRECTION('',(-1.,0.,0.));
#286=DIRECTION('',(1.,0.,0.));
#287=DIRECTION('center_axis',(0.,0.,-1.));
#288=DIRECTION('ref_axis',(0.,-1.,0.));
#289=DIRECTION('',(0.,0.,-1.));
#290=DIRECTION('center_axis',(0.,0.,1.));
#291=DIRECTION('ref_axis',(0.,-1.,0.));
#292=DIRECTION('',(0.,0.,1.));
#293=DIRECTION('center_axis',(6.93889390390723E-17,-1.,0.));
#294=DIRECTION('ref_axis',(0.,0.,-1.));
#295=DIRECTION('',(0.,0.,-1.));
#296=DIRECTION('',(1.,6.93889390390723E-17,0.));
#297=DIRECTION('center_axis',(0.,0.,1.));
#298=DIRECTION('ref_axis',(1.,0.,0.));
#299=DIRECTION('center_axis',(0.,0.,-1.));
#300=DIRECTION('ref_axis',(0.,-1.,0.));
#301=DIRECTION('',(0.,0.707106781186548,0.707106781186547));
#302=DIRECTION('center_axis',(0.,0.,-1.));
#303=DIRECTION('ref_axis',(0.,-1.,0.));
#304=DIRECTION('',(9.81307786677359E-16,0.707106781186548,-0.707106781186547));
#305=DIRECTION('center_axis',(4.9065389333868E-17,-0.707106781186547,0.707106781186548));
#306=DIRECTION('ref_axis',(1.,0.,-6.93889390390722E-17));
#307=DIRECTION('',(0.,0.707106781186548,0.707106781186547));
#308=DIRECTION('',(-1.,-6.93889390390723E-17,0.));
#309=DIRECTION('center_axis',(0.,0.707106781186547,0.707106781186548));
#310=DIRECTION('ref_axis',(1.,0.,0.));
#311=DIRECTION('',(0.,0.707106781186548,-0.707106781186547));
#312=DIRECTION('',(-1.,0.,0.));
#313=DIRECTION('',(1.,0.,0.));
#314=DIRECTION('center_axis',(0.,0.,-1.));
#315=DIRECTION('ref_axis',(0.,1.,0.));
#316=DIRECTION('center_axis',(0.,0.,1.));
#317=DIRECTION('ref_axis',(0.,1.,0.));
#318=DIRECTION('center_axis',(0.,0.,-1.));
#319=DIRECTION('ref_axis',(0.,1.,0.));
#320=DIRECTION('center_axis',(0.,0.,1.));
#321=DIRECTION('ref_axis',(1.,0.,0.));
#322=DIRECTION('center_axis',(0.,1.,0.));
#323=DIRECTION('ref_axis',(0.,0.,1.));
#324=DIRECTION('',(0.,0.,-1.));
#325=DIRECTION('center_axis',(0.,0.,-1.));
#326=DIRECTION('ref_axis',(0.,1.,0.));
#327=CARTESIAN_POINT('',(0.,0.,0.));
#328=CARTESIAN_POINT('Origin',(5.,-2.8,-3.3));
#329=CARTESIAN_POINT('',(11.,-2.6,-3.5));
#330=CARTESIAN_POINT('',(11.,-3.,-3.1));
#331=CARTESIAN_POINT('',(11.,-2.6,-3.5));
#332=CARTESIAN_POINT('',(3.,-3.,-3.1));
#333=CARTESIAN_POINT('',(5.,-3.,-3.1));
#334=CARTESIAN_POINT('',(3.,-2.6,-3.5));
#335=CARTESIAN_POINT('',(3.,-3.,-3.1));
#336=CARTESIAN_POINT('',(5.,-2.6,-3.5));
#337=CARTESIAN_POINT('Origin',(11.,0.,-3.3));
#338=CARTESIAN_POINT('',(11.,2.6,-3.5));
#339=CARTESIAN_POINT('',(11.,3.,-3.1));
#340=CARTESIAN_POINT('',(11.,2.6,-3.5));
#341=CARTESIAN_POINT('Origin',(11.,0.,-3.1));
#342=CARTESIAN_POINT('Origin',(11.,0.,-3.5));
#343=CARTESIAN_POINT('Origin',(3.,0.,-3.3));
#344=CARTESIAN_POINT('',(3.,3.,-3.1));
#345=CARTESIAN_POINT('',(3.,2.6,-3.5));
#346=CARTESIAN_POINT('',(3.,3.,-3.1));
#347=CARTESIAN_POINT('Origin',(3.,0.,-3.5));
#348=CARTESIAN_POINT('Origin',(3.,0.,-3.1));
#349=CARTESIAN_POINT('Origin',(9.,2.8,-3.3));
#350=CARTESIAN_POINT('',(9.,2.6,-3.5));
#351=CARTESIAN_POINT('',(9.,3.,-3.1));
#352=CARTESIAN_POINT('Origin',(3.,0.,0.));
#353=CARTESIAN_POINT('',(3.,-3.,2.1));
#354=CARTESIAN_POINT('',(3.,-3.,0.));
#355=CARTESIAN_POINT('',(3.,3.,2.1));
#356=CARTESIAN_POINT('Origin',(3.,0.,2.1));
#357=CARTESIAN_POINT('',(3.,3.,0.));
#358=CARTESIAN_POINT('Origin',(3.,-3.,0.));
#359=CARTESIAN_POINT('',(11.,-3.,2.1));
#360=CARTESIAN_POINT('',(11.,-3.,0.));
#361=CARTESIAN_POINT('',(5.,-3.,2.1));
#362=CARTESIAN_POINT('Origin',(7.,0.,-3.5));
#363=CARTESIAN_POINT('Origin',(3.,0.,2.3));
#364=CARTESIAN_POINT('',(3.,-2.6,2.5));
#365=CARTESIAN_POINT('',(3.,-3.,2.1));
#366=CARTESIAN_POINT('',(3.,2.6,2.5));
#367=CARTESIAN_POINT('Origin',(3.,0.,2.5));
#368=CARTESIAN_POINT('',(3.,2.6,2.5));
#369=CARTESIAN_POINT('Origin',(5.,-2.8,2.3));
#370=CARTESIAN_POINT('',(11.,-2.6,2.5));
#371=CARTESIAN_POINT('',(11.,-3.,2.1));
#372=CARTESIAN_POINT('',(5.,-2.6,2.5));
#373=CARTESIAN_POINT('Origin',(9.,2.8,2.3));
#374=CARTESIAN_POINT('',(11.,2.6,2.5));
#375=CARTESIAN_POINT('',(11.,3.,2.1));
#376=CARTESIAN_POINT('',(11.,2.6,2.5));
#377=CARTESIAN_POINT('',(9.,3.,2.1));
#378=CARTESIAN_POINT('',(9.,2.6,2.5));
#379=CARTESIAN_POINT('Origin',(11.,0.,2.3));
#380=CARTESIAN_POINT('Origin',(11.,0.,2.1));
#381=CARTESIAN_POINT('Origin',(11.,0.,2.5));
#382=CARTESIAN_POINT('Origin',(7.,0.,2.5));
#383=CARTESIAN_POINT('Origin',(11.,3.,0.));
#384=CARTESIAN_POINT('',(11.,3.,0.));
#385=CARTESIAN_POINT('Origin',(11.,0.,0.));
#386=UNCERTAINTY_MEASURE_WITH_UNIT(LENGTH_MEASURE(0.01),#390,
'DISTANCE_ACCURACY_VALUE',
'Maximum model space distance between geometric entities at asserted c
onnectivities');
#387=UNCERTAINTY_MEASURE_WITH_UNIT(LENGTH_MEASURE(0.01),#390,
'DISTANCE_ACCURACY_VALUE',
'Maximum model space distance between geometric entities at asserted c
onnectivities');
#388=(
GEOMETRIC_REPRESENTATION_CONTEXT(3)
GLOBAL_UNCERTAINTY_ASSIGNED_CONTEXT((#386))
GLOBAL_UNIT_ASSIGNED_CONTEXT((#390,#392,#393))
REPRESENTATION_CONTEXT('','3D')
);
#389=(
GEOMETRIC_REPRESENTATION_CONTEXT(3)
GLOBAL_UNCERTAINTY_ASSIGNED_CONTEXT((#387))
GLOBAL_UNIT_ASSIGNED_CONTEXT((#390,#392,#393))
REPRESENTATION_CONTEXT('','3D')
);
#390=(
LENGTH_UNIT()
NAMED_UNIT(*)
SI_UNIT(.MILLI.,.METRE.)
);
#391=(
LENGTH_UNIT()
NAMED_UNIT(*)
SI_UNIT(.CENTI.,.METRE.)
);
#392=(
NAMED_UNIT(*)
PLANE_ANGLE_UNIT()
SI_UNIT($,.RADIAN.)
);
#393=(
NAMED_UNIT(*)
SI_UNIT($,.STERADIAN.)
SOLID_ANGLE_UNIT()
);
#394=SHAPE_DEFINITION_REPRESENTATION(#395,#396);
#395=PRODUCT_DEFINITION_SHAPE('',$,#398);
#396=SHAPE_REPRESENTATION('',(#238),#388);
#397=PRODUCT_DEFINITION_CONTEXT('part definition',#402,'design');
#398=PRODUCT_DEFINITION('GB/T 1096 - A 6 x 6 x 14',
'GB_T 1096 - A 6 x 6 x 14',#399,#397);
#399=PRODUCT_DEFINITION_FORMATION('',$,#404);
#400=PRODUCT_RELATED_PRODUCT_CATEGORY('GB_T 1096 - A 6 x 6 x 14',
'GB_T 1096 - A 6 x 6 x 14',(#404));
#401=APPLICATION_PROTOCOL_DEFINITION('international standard',
'automotive_design',2009,#402);
#402=APPLICATION_CONTEXT(
'Core Data for Automotive Mechanical Design Process');
#403=PRODUCT_CONTEXT('part definition',#402,'mechanical');
#404=PRODUCT('GB/T 1096 - A 6 x 6 x 14','GB_T 1096 - A 6 x 6 x 14',
'\X2\65B95F62952E548C77E95F62952E\X0\',(#403));
#405=PRESENTATION_STYLE_ASSIGNMENT((#406));
#406=SURFACE_STYLE_USAGE(.BOTH.,#409);
#407=SURFACE_STYLE_RENDERING_WITH_PROPERTIES($,#413,(#408));
#408=SURFACE_STYLE_TRANSPARENT(0.);
#409=SURFACE_SIDE_STYLE('',(#410,#407));
#410=SURFACE_STYLE_FILL_AREA(#411);
#411=FILL_AREA_STYLE('',(#412));
#412=FILL_AREA_STYLE_COLOUR('',#413);
#413=COLOUR_RGB('',0.745098039215686,0.737254901960784,0.729411764705882);
ENDSEC;
END-ISO-10303-21;
