ISO-10303-21;
HEADER;
/* Generated by software containing ST-Developer
 * from STEP Tools, Inc. (www.steptools.com) 
 */

FILE_DESCRIPTION(
/* description */ ('\X2\8F7475285F39602763215708\X0\ - A \X2\578B\X0\'),

/* implementation_level */ '2;1');

FILE_NAME(
/* name */ 
'C:\\Users\\86159\\Desktop\\P1\X2\673A68B056FE5143\X0\-\X2\9F7F8F6E8F7488C5914D7EC44EF6\X0\\\
\X2\5F39602763215708\X0\GB 894.1-86 - 20.stp',
/* time_stamp */ '2026-08-04T22:39:51+08:00',
/* author */ ('86159'),
/* organization */ (''),
/* preprocessor_version */ 'ST-DEVELOPER v18.1',
/* originating_system */ 'Autodesk Inventor 2021',
/* authorisation */ '');

FILE_SCHEMA (('AUTOMOTIVE_DESIGN { 1 0 10303 214 3 1 1 }'));
ENDSEC;

DATA;
#10=MECHANICAL_DESIGN_GEOMETRIC_PRESENTATION_REPRESENTATION('',(#13),#547);
#11=SHAPE_REPRESENTATION_RELATIONSHIP('SRR','None',#554,#12);
#12=ADVANCED_BREP_SHAPE_REPRESENTATION('',(#14),#546);
#13=STYLED_ITEM('',(#563),#14);
#14=MANIFOLD_SOLID_BREP('Solid1',#305);
#15=FACE_BOUND('',#56,.T.);
#16=FACE_BOUND('',#57,.T.);
#17=FACE_BOUND('',#59,.T.);
#18=FACE_BOUND('',#60,.T.);
#19=PLANE('',#334);
#20=PLANE('',#344);
#21=PLANE('',#351);
#22=PLANE('',#355);
#23=PLANE('',#359);
#24=PLANE('',#360);
#25=FACE_OUTER_BOUND('',#41,.T.);
#26=FACE_OUTER_BOUND('',#42,.T.);
#27=FACE_OUTER_BOUND('',#43,.T.);
#28=FACE_OUTER_BOUND('',#44,.T.);
#29=FACE_OUTER_BOUND('',#45,.T.);
#30=FACE_OUTER_BOUND('',#46,.T.);
#31=FACE_OUTER_BOUND('',#47,.T.);
#32=FACE_OUTER_BOUND('',#48,.T.);
#33=FACE_OUTER_BOUND('',#49,.T.);
#34=FACE_OUTER_BOUND('',#50,.T.);
#35=FACE_OUTER_BOUND('',#51,.T.);
#36=FACE_OUTER_BOUND('',#52,.T.);
#37=FACE_OUTER_BOUND('',#53,.T.);
#38=FACE_OUTER_BOUND('',#54,.T.);
#39=FACE_OUTER_BOUND('',#55,.T.);
#40=FACE_OUTER_BOUND('',#58,.T.);
#41=EDGE_LOOP('',(#195,#196,#197,#198));
#42=EDGE_LOOP('',(#199,#200,#201,#202));
#43=EDGE_LOOP('',(#203,#204,#205,#206));
#44=EDGE_LOOP('',(#207,#208,#209,#210));
#45=EDGE_LOOP('',(#211,#212,#213,#214));
#46=EDGE_LOOP('',(#215,#216,#217,#218));
#47=EDGE_LOOP('',(#219,#220,#221,#222));
#48=EDGE_LOOP('',(#223,#224,#225,#226));
#49=EDGE_LOOP('',(#227,#228,#229,#230));
#50=EDGE_LOOP('',(#231,#232,#233,#234));
#51=EDGE_LOOP('',(#235,#236,#237,#238));
#52=EDGE_LOOP('',(#239,#240,#241,#242));
#53=EDGE_LOOP('',(#243,#244,#245,#246));
#54=EDGE_LOOP('',(#247,#248,#249,#250));
#55=EDGE_LOOP('',(#251,#252,#253,#254,#255,#256,#257,#258,#259,#260,#261,
#262));
#56=EDGE_LOOP('',(#263));
#57=EDGE_LOOP('',(#264));
#58=EDGE_LOOP('',(#265,#266,#267,#268,#269,#270,#271,#272,#273,#274,#275,
#276));
#59=EDGE_LOOP('',(#277));
#60=EDGE_LOOP('',(#278));
#61=LINE('',#462,#83);
#62=LINE('',#468,#84);
#63=LINE('',#475,#85);
#64=LINE('',#478,#86);
#65=LINE('',#481,#87);
#66=LINE('',#483,#88);
#67=LINE('',#484,#89);
#68=LINE('',#489,#90);
#69=LINE('',#495,#91);
#70=LINE('',#501,#92);
#71=LINE('',#505,#93);
#72=LINE('',#507,#94);
#73=LINE('',#508,#95);
#74=LINE('',#513,#96);
#75=LINE('',#519,#97);
#76=LINE('',#523,#98);
#77=LINE('',#525,#99);
#78=LINE('',#526,#100);
#79=LINE('',#531,#101);
#80=LINE('',#535,#102);
#81=LINE('',#537,#103);
#82=LINE('',#538,#104);
#83=VECTOR('',#367,1.);
#84=VECTOR('',#374,1.);
#85=VECTOR('',#381,10.);
#86=VECTOR('',#384,10.);
#87=VECTOR('',#387,10.);
#88=VECTOR('',#388,10.);
#89=VECTOR('',#389,10.);
#90=VECTOR('',#394,10.);
#91=VECTOR('',#401,10.);
#92=VECTOR('',#408,10.);
#93=VECTOR('',#413,10.);
#94=VECTOR('',#414,10.);
#95=VECTOR('',#415,10.);
#96=VECTOR('',#420,10.);
#97=VECTOR('',#427,10.);
#98=VECTOR('',#432,10.);
#99=VECTOR('',#433,10.);
#100=VECTOR('',#434,10.);
#101=VECTOR('',#439,10.);
#102=VECTOR('',#444,10.);
#103=VECTOR('',#445,10.);
#104=VECTOR('',#446,10.);
#105=CIRCLE('',#326,1.);
#106=CIRCLE('',#327,1.);
#107=CIRCLE('',#329,1.);
#108=CIRCLE('',#330,1.);
#109=CIRCLE('',#332,0.5);
#110=CIRCLE('',#333,0.5);
#111=CIRCLE('',#336,1.);
#112=CIRCLE('',#337,1.);
#113=CIRCLE('',#339,11.26);
#114=CIRCLE('',#340,11.26);
#115=CIRCLE('',#342,1.);
#116=CIRCLE('',#343,1.);
#117=CIRCLE('',#346,0.5);
#118=CIRCLE('',#347,0.5);
#119=CIRCLE('',#349,13.2741374958332);
#120=CIRCLE('',#350,13.2741374958332);
#121=CIRCLE('',#353,9.25);
#122=CIRCLE('',#354,9.25);
#123=CIRCLE('',#357,13.2741374958332);
#124=CIRCLE('',#358,13.2741374958332);
#125=VERTEX_POINT('',#459);
#126=VERTEX_POINT('',#461);
#127=VERTEX_POINT('',#465);
#128=VERTEX_POINT('',#467);
#129=VERTEX_POINT('',#471);
#130=VERTEX_POINT('',#472);
#131=VERTEX_POINT('',#474);
#132=VERTEX_POINT('',#476);
#133=VERTEX_POINT('',#480);
#134=VERTEX_POINT('',#482);
#135=VERTEX_POINT('',#486);
#136=VERTEX_POINT('',#488);
#137=VERTEX_POINT('',#492);
#138=VERTEX_POINT('',#494);
#139=VERTEX_POINT('',#498);
#140=VERTEX_POINT('',#500);
#141=VERTEX_POINT('',#504);
#142=VERTEX_POINT('',#506);
#143=VERTEX_POINT('',#510);
#144=VERTEX_POINT('',#512);
#145=VERTEX_POINT('',#516);
#146=VERTEX_POINT('',#518);
#147=VERTEX_POINT('',#522);
#148=VERTEX_POINT('',#524);
#149=VERTEX_POINT('',#528);
#150=VERTEX_POINT('',#530);
#151=VERTEX_POINT('',#534);
#152=VERTEX_POINT('',#536);
#153=EDGE_CURVE('',#125,#125,#105,.T.);
#154=EDGE_CURVE('',#125,#126,#61,.T.);
#155=EDGE_CURVE('',#126,#126,#106,.T.);
#156=EDGE_CURVE('',#127,#127,#107,.T.);
#157=EDGE_CURVE('',#127,#128,#62,.T.);
#158=EDGE_CURVE('',#128,#128,#108,.T.);
#159=EDGE_CURVE('',#129,#130,#109,.T.);
#160=EDGE_CURVE('',#131,#130,#63,.T.);
#161=EDGE_CURVE('',#132,#131,#110,.T.);
#162=EDGE_CURVE('',#132,#129,#64,.T.);
#163=EDGE_CURVE('',#130,#133,#65,.T.);
#164=EDGE_CURVE('',#134,#133,#66,.T.);
#165=EDGE_CURVE('',#131,#134,#67,.T.);
#166=EDGE_CURVE('',#133,#135,#111,.T.);
#167=EDGE_CURVE('',#136,#135,#68,.T.);
#168=EDGE_CURVE('',#134,#136,#112,.T.);
#169=EDGE_CURVE('',#135,#137,#113,.T.);
#170=EDGE_CURVE('',#138,#137,#69,.T.);
#171=EDGE_CURVE('',#136,#138,#114,.T.);
#172=EDGE_CURVE('',#137,#139,#115,.T.);
#173=EDGE_CURVE('',#140,#139,#70,.T.);
#174=EDGE_CURVE('',#138,#140,#116,.T.);
#175=EDGE_CURVE('',#139,#141,#71,.T.);
#176=EDGE_CURVE('',#142,#141,#72,.T.);
#177=EDGE_CURVE('',#140,#142,#73,.T.);
#178=EDGE_CURVE('',#141,#143,#117,.T.);
#179=EDGE_CURVE('',#144,#143,#74,.T.);
#180=EDGE_CURVE('',#142,#144,#118,.T.);
#181=EDGE_CURVE('',#143,#145,#119,.T.);
#182=EDGE_CURVE('',#146,#145,#75,.T.);
#183=EDGE_CURVE('',#144,#146,#120,.T.);
#184=EDGE_CURVE('',#145,#147,#76,.T.);
#185=EDGE_CURVE('',#148,#147,#77,.T.);
#186=EDGE_CURVE('',#146,#148,#78,.T.);
#187=EDGE_CURVE('',#147,#149,#121,.T.);
#188=EDGE_CURVE('',#150,#149,#79,.T.);
#189=EDGE_CURVE('',#148,#150,#122,.T.);
#190=EDGE_CURVE('',#149,#151,#80,.T.);
#191=EDGE_CURVE('',#152,#151,#81,.T.);
#192=EDGE_CURVE('',#150,#152,#82,.T.);
#193=EDGE_CURVE('',#151,#129,#123,.T.);
#194=EDGE_CURVE('',#152,#132,#124,.T.);
#195=ORIENTED_EDGE('',*,*,#153,.F.);
#196=ORIENTED_EDGE('',*,*,#154,.T.);
#197=ORIENTED_EDGE('',*,*,#155,.F.);
#198=ORIENTED_EDGE('',*,*,#154,.F.);
#199=ORIENTED_EDGE('',*,*,#156,.F.);
#200=ORIENTED_EDGE('',*,*,#157,.T.);
#201=ORIENTED_EDGE('',*,*,#158,.F.);
#202=ORIENTED_EDGE('',*,*,#157,.F.);
#203=ORIENTED_EDGE('',*,*,#159,.T.);
#204=ORIENTED_EDGE('',*,*,#160,.F.);
#205=ORIENTED_EDGE('',*,*,#161,.F.);
#206=ORIENTED_EDGE('',*,*,#162,.T.);
#207=ORIENTED_EDGE('',*,*,#163,.T.);
#208=ORIENTED_EDGE('',*,*,#164,.F.);
#209=ORIENTED_EDGE('',*,*,#165,.F.);
#210=ORIENTED_EDGE('',*,*,#160,.T.);
#211=ORIENTED_EDGE('',*,*,#166,.T.);
#212=ORIENTED_EDGE('',*,*,#167,.F.);
#213=ORIENTED_EDGE('',*,*,#168,.F.);
#214=ORIENTED_EDGE('',*,*,#164,.T.);
#215=ORIENTED_EDGE('',*,*,#169,.T.);
#216=ORIENTED_EDGE('',*,*,#170,.F.);
#217=ORIENTED_EDGE('',*,*,#171,.F.);
#218=ORIENTED_EDGE('',*,*,#167,.T.);
#219=ORIENTED_EDGE('',*,*,#172,.T.);
#220=ORIENTED_EDGE('',*,*,#173,.F.);
#221=ORIENTED_EDGE('',*,*,#174,.F.);
#222=ORIENTED_EDGE('',*,*,#170,.T.);
#223=ORIENTED_EDGE('',*,*,#175,.T.);
#224=ORIENTED_EDGE('',*,*,#176,.F.);
#225=ORIENTED_EDGE('',*,*,#177,.F.);
#226=ORIENTED_EDGE('',*,*,#173,.T.);
#227=ORIENTED_EDGE('',*,*,#178,.T.);
#228=ORIENTED_EDGE('',*,*,#179,.F.);
#229=ORIENTED_EDGE('',*,*,#180,.F.);
#230=ORIENTED_EDGE('',*,*,#176,.T.);
#231=ORIENTED_EDGE('',*,*,#181,.T.);
#232=ORIENTED_EDGE('',*,*,#182,.F.);
#233=ORIENTED_EDGE('',*,*,#183,.F.);
#234=ORIENTED_EDGE('',*,*,#179,.T.);
#235=ORIENTED_EDGE('',*,*,#184,.T.);
#236=ORIENTED_EDGE('',*,*,#185,.F.);
#237=ORIENTED_EDGE('',*,*,#186,.F.);
#238=ORIENTED_EDGE('',*,*,#182,.T.);
#239=ORIENTED_EDGE('',*,*,#187,.T.);
#240=ORIENTED_EDGE('',*,*,#188,.F.);
#241=ORIENTED_EDGE('',*,*,#189,.F.);
#242=ORIENTED_EDGE('',*,*,#185,.T.);
#243=ORIENTED_EDGE('',*,*,#190,.T.);
#244=ORIENTED_EDGE('',*,*,#191,.F.);
#245=ORIENTED_EDGE('',*,*,#192,.F.);
#246=ORIENTED_EDGE('',*,*,#188,.T.);
#247=ORIENTED_EDGE('',*,*,#193,.T.);
#248=ORIENTED_EDGE('',*,*,#162,.F.);
#249=ORIENTED_EDGE('',*,*,#194,.F.);
#250=ORIENTED_EDGE('',*,*,#191,.T.);
#251=ORIENTED_EDGE('',*,*,#159,.F.);
#252=ORIENTED_EDGE('',*,*,#193,.F.);
#253=ORIENTED_EDGE('',*,*,#190,.F.);
#254=ORIENTED_EDGE('',*,*,#187,.F.);
#255=ORIENTED_EDGE('',*,*,#184,.F.);
#256=ORIENTED_EDGE('',*,*,#181,.F.);
#257=ORIENTED_EDGE('',*,*,#178,.F.);
#258=ORIENTED_EDGE('',*,*,#175,.F.);
#259=ORIENTED_EDGE('',*,*,#172,.F.);
#260=ORIENTED_EDGE('',*,*,#169,.F.);
#261=ORIENTED_EDGE('',*,*,#166,.F.);
#262=ORIENTED_EDGE('',*,*,#163,.F.);
#263=ORIENTED_EDGE('',*,*,#155,.T.);
#264=ORIENTED_EDGE('',*,*,#158,.T.);
#265=ORIENTED_EDGE('',*,*,#194,.T.);
#266=ORIENTED_EDGE('',*,*,#161,.T.);
#267=ORIENTED_EDGE('',*,*,#165,.T.);
#268=ORIENTED_EDGE('',*,*,#168,.T.);
#269=ORIENTED_EDGE('',*,*,#171,.T.);
#270=ORIENTED_EDGE('',*,*,#174,.T.);
#271=ORIENTED_EDGE('',*,*,#177,.T.);
#272=ORIENTED_EDGE('',*,*,#180,.T.);
#273=ORIENTED_EDGE('',*,*,#183,.T.);
#274=ORIENTED_EDGE('',*,*,#186,.T.);
#275=ORIENTED_EDGE('',*,*,#189,.T.);
#276=ORIENTED_EDGE('',*,*,#192,.T.);
#277=ORIENTED_EDGE('',*,*,#153,.T.);
#278=ORIENTED_EDGE('',*,*,#156,.T.);
#279=CYLINDRICAL_SURFACE('',#325,1.);
#280=CYLINDRICAL_SURFACE('',#328,1.);
#281=CYLINDRICAL_SURFACE('',#331,0.5);
#282=CYLINDRICAL_SURFACE('',#335,1.);
#283=CYLINDRICAL_SURFACE('',#338,11.26);
#284=CYLINDRICAL_SURFACE('',#341,1.);
#285=CYLINDRICAL_SURFACE('',#345,0.5);
#286=CYLINDRICAL_SURFACE('',#348,13.2741374958332);
#287=CYLINDRICAL_SURFACE('',#352,9.25);
#288=CYLINDRICAL_SURFACE('',#356,13.2741374958332);
#289=ADVANCED_FACE('',(#25),#279,.F.);
#290=ADVANCED_FACE('',(#26),#280,.F.);
#291=ADVANCED_FACE('',(#27),#281,.T.);
#292=ADVANCED_FACE('',(#28),#19,.T.);
#293=ADVANCED_FACE('',(#29),#282,.F.);
#294=ADVANCED_FACE('',(#30),#283,.T.);
#295=ADVANCED_FACE('',(#31),#284,.F.);
#296=ADVANCED_FACE('',(#32),#20,.T.);
#297=ADVANCED_FACE('',(#33),#285,.T.);
#298=ADVANCED_FACE('',(#34),#286,.T.);
#299=ADVANCED_FACE('',(#35),#21,.T.);
#300=ADVANCED_FACE('',(#36),#287,.F.);
#301=ADVANCED_FACE('',(#37),#22,.T.);
#302=ADVANCED_FACE('',(#38),#288,.T.);
#303=ADVANCED_FACE('',(#39,#15,#16),#23,.T.);
#304=ADVANCED_FACE('',(#40,#17,#18),#24,.F.);
#305=CLOSED_SHELL('',(#289,#290,#291,#292,#293,#294,#295,#296,#297,#298,
#299,#300,#301,#302,#303,#304));
#306=DERIVED_UNIT_ELEMENT(#308,1.);
#307=DERIVED_UNIT_ELEMENT(#549,3.);
#308=(
MASS_UNIT()
NAMED_UNIT(*)
SI_UNIT($,.GRAM.)
);
#309=DERIVED_UNIT((#306,#307));
#310=MEASURE_REPRESENTATION_ITEM('density measure',
POSITIVE_RATIO_MEASURE(7.85),#309);
#311=PROPERTY_DEFINITION_REPRESENTATION(#316,#313);
#312=PROPERTY_DEFINITION_REPRESENTATION(#317,#314);
#313=REPRESENTATION('material name',(#315),#546);
#314=REPRESENTATION('density',(#310),#546);
#315=DESCRIPTIVE_REPRESENTATION_ITEM('\X2\94A2FF0C8F6F\X0\','\X2\94A2FF0C8F6F\X0\');
#316=PROPERTY_DEFINITION('material property','material name',#556);
#317=PROPERTY_DEFINITION('material property','density of part',#556);
#318=DATE_TIME_ROLE('creation_date');
#319=APPLIED_DATE_AND_TIME_ASSIGNMENT(#320,#318,(#556));
#320=DATE_AND_TIME(#321,#322);
#321=CALENDAR_DATE(2020,22,1);
#322=LOCAL_TIME(0,0,0.,#323);
#323=COORDINATED_UNIVERSAL_TIME_OFFSET(0,0,.BEHIND.);
#324=AXIS2_PLACEMENT_3D('placement',#457,#361,#362);
#325=AXIS2_PLACEMENT_3D('',#458,#363,#364);
#326=AXIS2_PLACEMENT_3D('',#460,#365,#366);
#327=AXIS2_PLACEMENT_3D('',#463,#368,#369);
#328=AXIS2_PLACEMENT_3D('',#464,#370,#371);
#329=AXIS2_PLACEMENT_3D('',#466,#372,#373);
#330=AXIS2_PLACEMENT_3D('',#469,#375,#376);
#331=AXIS2_PLACEMENT_3D('',#470,#377,#378);
#332=AXIS2_PLACEMENT_3D('',#473,#379,#380);
#333=AXIS2_PLACEMENT_3D('',#477,#382,#383);
#334=AXIS2_PLACEMENT_3D('',#479,#385,#386);
#335=AXIS2_PLACEMENT_3D('',#485,#390,#391);
#336=AXIS2_PLACEMENT_3D('',#487,#392,#393);
#337=AXIS2_PLACEMENT_3D('',#490,#395,#396);
#338=AXIS2_PLACEMENT_3D('',#491,#397,#398);
#339=AXIS2_PLACEMENT_3D('',#493,#399,#400);
#340=AXIS2_PLACEMENT_3D('',#496,#402,#403);
#341=AXIS2_PLACEMENT_3D('',#497,#404,#405);
#342=AXIS2_PLACEMENT_3D('',#499,#406,#407);
#343=AXIS2_PLACEMENT_3D('',#502,#409,#410);
#344=AXIS2_PLACEMENT_3D('',#503,#411,#412);
#345=AXIS2_PLACEMENT_3D('',#509,#416,#417);
#346=AXIS2_PLACEMENT_3D('',#511,#418,#419);
#347=AXIS2_PLACEMENT_3D('',#514,#421,#422);
#348=AXIS2_PLACEMENT_3D('',#515,#423,#424);
#349=AXIS2_PLACEMENT_3D('',#517,#425,#426);
#350=AXIS2_PLACEMENT_3D('',#520,#428,#429);
#351=AXIS2_PLACEMENT_3D('',#521,#430,#431);
#352=AXIS2_PLACEMENT_3D('',#527,#435,#436);
#353=AXIS2_PLACEMENT_3D('',#529,#437,#438);
#354=AXIS2_PLACEMENT_3D('',#532,#440,#441);
#355=AXIS2_PLACEMENT_3D('',#533,#442,#443);
#356=AXIS2_PLACEMENT_3D('',#539,#447,#448);
#357=AXIS2_PLACEMENT_3D('',#540,#449,#450);
#358=AXIS2_PLACEMENT_3D('',#541,#451,#452);
#359=AXIS2_PLACEMENT_3D('',#542,#453,#454);
#360=AXIS2_PLACEMENT_3D('',#543,#455,#456);
#361=DIRECTION('axis',(0.,0.,1.));
#362=DIRECTION('refdir',(1.,0.,0.));
#363=DIRECTION('center_axis',(0.,0.,1.));
#364=DIRECTION('ref_axis',(-1.,0.,0.));
#365=DIRECTION('center_axis',(0.,0.,1.));
#366=DIRECTION('ref_axis',(-1.,0.,0.));
#367=DIRECTION('',(0.,0.,1.));
#368=DIRECTION('center_axis',(0.,0.,-1.));
#369=DIRECTION('ref_axis',(-1.,0.,0.));
#370=DIRECTION('center_axis',(0.,0.,1.));
#371=DIRECTION('ref_axis',(-1.,0.,0.));
#372=DIRECTION('center_axis',(0.,0.,1.));
#373=DIRECTION('ref_axis',(-1.,0.,0.));
#374=DIRECTION('',(0.,0.,1.));
#375=DIRECTION('center_axis',(0.,0.,-1.));
#376=DIRECTION('ref_axis',(-1.,0.,0.));
#377=DIRECTION('center_axis',(0.,0.,1.));
#378=DIRECTION('ref_axis',(0.984807753012208,0.173648177666931,0.));
#379=DIRECTION('center_axis',(0.,0.,-1.));
#380=DIRECTION('ref_axis',(0.984807753012208,0.173648177666931,0.));
#381=DIRECTION('',(0.,0.,1.));
#382=DIRECTION('center_axis',(0.,0.,-1.));
#383=DIRECTION('ref_axis',(0.984807753012208,0.173648177666931,0.));
#384=DIRECTION('',(0.,0.,1.));
#385=DIRECTION('center_axis',(-0.984807753012208,-0.173648177666929,0.));
#386=DIRECTION('ref_axis',(0.,0.,1.));
#387=DIRECTION('',(-0.173648177666929,0.984807753012208,0.));
#388=DIRECTION('',(0.,0.,1.));
#389=DIRECTION('',(-0.173648177666929,0.984807753012208,0.));
#390=DIRECTION('center_axis',(0.,0.,1.));
#391=DIRECTION('ref_axis',(0.984807753012208,0.173648177666931,0.));
#392=DIRECTION('center_axis',(0.,0.,1.));
#393=DIRECTION('ref_axis',(0.984807753012208,0.173648177666931,0.));
#394=DIRECTION('',(0.,0.,1.));
#395=DIRECTION('center_axis',(0.,0.,1.));
#396=DIRECTION('ref_axis',(0.984807753012208,0.173648177666931,0.));
#397=DIRECTION('center_axis',(0.,0.,1.));
#398=DIRECTION('ref_axis',(-0.718295087056357,0.69573857727648,0.));
#399=DIRECTION('center_axis',(0.,0.,-1.));
#400=DIRECTION('ref_axis',(-0.718295087056357,0.69573857727648,0.));
#401=DIRECTION('',(0.,0.,1.));
#402=DIRECTION('center_axis',(0.,0.,-1.));
#403=DIRECTION('ref_axis',(-0.718295087056357,0.69573857727648,0.));
#404=DIRECTION('center_axis',(0.,0.,1.));
#405=DIRECTION('ref_axis',(-0.718295087056356,0.695738577276481,0.));
#406=DIRECTION('center_axis',(0.,0.,1.));
#407=DIRECTION('ref_axis',(-0.718295087056356,0.695738577276481,0.));
#408=DIRECTION('',(0.,0.,1.));
#409=DIRECTION('center_axis',(0.,0.,1.));
#410=DIRECTION('ref_axis',(-0.718295087056356,0.695738577276481,0.));
#411=DIRECTION('center_axis',(0.984807753012208,-0.173648177666929,0.));
#412=DIRECTION('ref_axis',(0.,0.,-1.));
#413=DIRECTION('',(-0.173648177666929,-0.984807753012208,0.));
#414=DIRECTION('',(0.,0.,1.));
#415=DIRECTION('',(-0.173648177666929,-0.984807753012208,0.));
#416=DIRECTION('center_axis',(0.,0.,1.));
#417=DIRECTION('ref_axis',(-0.52900605819361,0.84861804741265,0.));
#418=DIRECTION('center_axis',(0.,0.,-1.));
#419=DIRECTION('ref_axis',(-0.52900605819361,0.84861804741265,0.));
#420=DIRECTION('',(0.,0.,1.));
#421=DIRECTION('center_axis',(0.,0.,-1.));
#422=DIRECTION('ref_axis',(-0.52900605819361,0.84861804741265,0.));
#423=DIRECTION('center_axis',(0.,0.,1.));
#424=DIRECTION('ref_axis',(-0.0941680768631767,0.995556313474979,0.));
#425=DIRECTION('center_axis',(0.,0.,-1.));
#426=DIRECTION('ref_axis',(-0.0941680768631767,0.995556313474979,0.));
#427=DIRECTION('',(0.,0.,1.));
#428=DIRECTION('center_axis',(0.,0.,-1.));
#429=DIRECTION('ref_axis',(-0.0941680768631767,0.995556313474979,0.));
#430=DIRECTION('center_axis',(-1.,1.37064570941377E-16,0.));
#431=DIRECTION('ref_axis',(0.,0.,1.));
#432=DIRECTION('',(1.37064570941377E-16,1.,0.));
#433=DIRECTION('',(0.,0.,1.));
#434=DIRECTION('',(1.37064570941377E-16,1.,0.));
#435=DIRECTION('center_axis',(0.,0.,1.));
#436=DIRECTION('ref_axis',(1.05021096924001E-16,1.,0.));
#437=DIRECTION('center_axis',(0.,0.,1.));
#438=DIRECTION('ref_axis',(0.135135135135135,-0.990827177287749,0.));
#439=DIRECTION('',(0.,0.,1.));
#440=DIRECTION('center_axis',(0.,0.,1.));
#441=DIRECTION('ref_axis',(0.135135135135135,-0.990827177287749,0.));
#442=DIRECTION('center_axis',(1.,1.37064570941377E-16,0.));
#443=DIRECTION('ref_axis',(0.,0.,-1.));
#444=DIRECTION('',(1.37064570941377E-16,-1.,0.));
#445=DIRECTION('',(0.,0.,1.));
#446=DIRECTION('',(1.37064570941377E-16,-1.,0.));
#447=DIRECTION('center_axis',(0.,0.,1.));
#448=DIRECTION('ref_axis',(0.529006058193609,0.848618047412651,0.));
#449=DIRECTION('center_axis',(0.,0.,-1.));
#450=DIRECTION('ref_axis',(0.529006058193609,0.848618047412651,0.));
#451=DIRECTION('center_axis',(0.,0.,-1.));
#452=DIRECTION('ref_axis',(0.529006058193609,0.848618047412651,0.));
#453=DIRECTION('center_axis',(0.,0.,1.));
#454=DIRECTION('ref_axis',(1.,0.,0.));
#455=DIRECTION('center_axis',(0.,0.,1.));
#456=DIRECTION('ref_axis',(1.,0.,0.));
#457=CARTESIAN_POINT('',(0.,0.,0.));
#458=CARTESIAN_POINT('Origin',(4.25,-11.0323115181894,0.));
#459=CARTESIAN_POINT('',(5.25,-11.0323115181894,0.));
#460=CARTESIAN_POINT('Origin',(4.25,-11.0323115181894,0.));
#461=CARTESIAN_POINT('',(5.25,-11.0323115181894,1.));
#462=CARTESIAN_POINT('',(5.25,-11.0323115181894,0.));
#463=CARTESIAN_POINT('Origin',(4.25,-11.0323115181894,1.));
#464=CARTESIAN_POINT('Origin',(-4.25,-11.0323115181894,0.));
#465=CARTESIAN_POINT('',(-3.25,-11.0323115181894,0.));
#466=CARTESIAN_POINT('Origin',(-4.25,-11.0323115181894,0.));
#467=CARTESIAN_POINT('',(-3.25,-11.0323115181894,1.));
#468=CARTESIAN_POINT('',(-3.25,-11.0323115181894,0.));
#469=CARTESIAN_POINT('Origin',(-4.25,-11.0323115181894,1.));
#470=CARTESIAN_POINT('Origin',(-6.75759612349389,-11.5103636190947,0.));
#471=CARTESIAN_POINT('',(-7.0220991525907,-11.934672642801,1.));
#472=CARTESIAN_POINT('',(-7.25,-11.5971877079282,1.));
#473=CARTESIAN_POINT('Origin',(-6.75759612349389,-11.5103636190947,1.));
#474=CARTESIAN_POINT('',(-7.25,-11.5971877079282,0.));
#475=CARTESIAN_POINT('',(-7.25,-11.5971877079282,0.));
#476=CARTESIAN_POINT('',(-7.0220991525907,-11.934672642801,0.));
#477=CARTESIAN_POINT('Origin',(-6.75759612349389,-11.5103636190947,0.));
#478=CARTESIAN_POINT('',(-7.0220991525907,-11.934672642801,0.));
#479=CARTESIAN_POINT('Origin',(-7.25,-11.5971877079282,0.));
#480=CARTESIAN_POINT('',(-7.82149001429872,-8.35610677974272,1.));
#481=CARTESIAN_POINT('',(-7.25,-11.5971877079282,1.));
#482=CARTESIAN_POINT('',(-7.82149001429872,-8.35610677974272,0.));
#483=CARTESIAN_POINT('',(-7.82149001429872,-8.35610677974272,0.));
#484=CARTESIAN_POINT('',(-7.25,-11.5971877079282,0.));
#485=CARTESIAN_POINT('Origin',(-8.80629776731094,-8.52975495740965,0.));
#486=CARTESIAN_POINT('',(-8.08800268025458,-7.83401638013317,1.));
#487=CARTESIAN_POINT('Origin',(-8.80629776731094,-8.52975495740965,1.));
#488=CARTESIAN_POINT('',(-8.08800268025458,-7.83401638013317,0.));
#489=CARTESIAN_POINT('',(-8.08800268025458,-7.83401638013317,0.));
#490=CARTESIAN_POINT('Origin',(-8.80629776731094,-8.52975495740965,0.));
#491=CARTESIAN_POINT('Origin',(0.,0.,0.));
#492=CARTESIAN_POINT('',(8.08800268025458,-7.83401638013317,1.));
#493=CARTESIAN_POINT('Origin',(0.,0.,1.));
#494=CARTESIAN_POINT('',(8.08800268025458,-7.83401638013317,0.));
#495=CARTESIAN_POINT('',(8.08800268025458,-7.83401638013317,0.));
#496=CARTESIAN_POINT('Origin',(0.,0.,0.));
#497=CARTESIAN_POINT('Origin',(8.80629776731094,-8.52975495740965,0.));
#498=CARTESIAN_POINT('',(7.82149001429872,-8.35610677974272,1.));
#499=CARTESIAN_POINT('Origin',(8.80629776731094,-8.52975495740965,1.));
#500=CARTESIAN_POINT('',(7.82149001429872,-8.35610677974272,0.));
#501=CARTESIAN_POINT('',(7.82149001429872,-8.35610677974272,0.));
#502=CARTESIAN_POINT('Origin',(8.80629776731094,-8.52975495740965,0.));
#503=CARTESIAN_POINT('Origin',(7.82149001429872,-8.35610677974272,0.));
#504=CARTESIAN_POINT('',(7.25,-11.5971877079282,1.));
#505=CARTESIAN_POINT('',(7.82149001429872,-8.35610677974272,1.));
#506=CARTESIAN_POINT('',(7.25,-11.5971877079282,0.));
#507=CARTESIAN_POINT('',(7.25,-11.5971877079282,0.));
#508=CARTESIAN_POINT('',(7.82149001429872,-8.35610677974272,0.));
#509=CARTESIAN_POINT('Origin',(6.75759612349389,-11.5103636190947,0.));
#510=CARTESIAN_POINT('',(7.0220991525907,-11.934672642801,1.));
#511=CARTESIAN_POINT('Origin',(6.75759612349389,-11.5103636190947,1.));
#512=CARTESIAN_POINT('',(7.0220991525907,-11.934672642801,0.));
#513=CARTESIAN_POINT('',(7.0220991525907,-11.934672642801,0.));
#514=CARTESIAN_POINT('Origin',(6.75759612349389,-11.5103636190947,0.));
#515=CARTESIAN_POINT('Origin',(0.,-0.67,0.));
#516=CARTESIAN_POINT('',(1.25,-13.8851513899117,1.));
#517=CARTESIAN_POINT('Origin',(0.,-0.67,1.));
#518=CARTESIAN_POINT('',(1.25,-13.8851513899117,0.));
#519=CARTESIAN_POINT('',(1.25,-13.8851513899117,0.));
#520=CARTESIAN_POINT('Origin',(0.,-0.67,0.));
#521=CARTESIAN_POINT('Origin',(1.25,-13.8851513899117,0.));
#522=CARTESIAN_POINT('',(1.25,-9.83515138991168,1.));
#523=CARTESIAN_POINT('',(1.25,-13.8851513899117,1.));
#524=CARTESIAN_POINT('',(1.25,-9.83515138991168,0.));
#525=CARTESIAN_POINT('',(1.25,-9.83515138991168,0.));
#526=CARTESIAN_POINT('',(1.25,-13.8851513899117,0.));
#527=CARTESIAN_POINT('Origin',(0.,-0.67,0.));
#528=CARTESIAN_POINT('',(-1.25,-9.83515138991168,1.));
#529=CARTESIAN_POINT('Origin',(0.,-0.67,1.));
#530=CARTESIAN_POINT('',(-1.25,-9.83515138991168,0.));
#531=CARTESIAN_POINT('',(-1.25,-9.83515138991168,0.));
#532=CARTESIAN_POINT('Origin',(0.,-0.67,0.));
#533=CARTESIAN_POINT('Origin',(-1.25,-9.83515138991168,0.));
#534=CARTESIAN_POINT('',(-1.25,-13.8851513899117,1.));
#535=CARTESIAN_POINT('',(-1.25,-9.83515138991168,1.));
#536=CARTESIAN_POINT('',(-1.25,-13.8851513899117,0.));
#537=CARTESIAN_POINT('',(-1.25,-13.8851513899117,0.));
#538=CARTESIAN_POINT('',(-1.25,-9.83515138991168,0.));
#539=CARTESIAN_POINT('Origin',(0.,-0.67,0.));
#540=CARTESIAN_POINT('Origin',(0.,-0.67,1.));
#541=CARTESIAN_POINT('Origin',(0.,-0.67,0.));
#542=CARTESIAN_POINT('Origin',(3.07913416985883E-16,-2.04362521706966,1.));
#543=CARTESIAN_POINT('Origin',(2.68882138776405E-16,-2.04362521706966,0.));
#544=UNCERTAINTY_MEASURE_WITH_UNIT(LENGTH_MEASURE(0.01),#548,
'DISTANCE_ACCURACY_VALUE',
'Maximum model space distance between geometric entities at asserted c
onnectivities');
#545=UNCERTAINTY_MEASURE_WITH_UNIT(LENGTH_MEASURE(0.01),#548,
'DISTANCE_ACCURACY_VALUE',
'Maximum model space distance between geometric entities at asserted c
onnectivities');
#546=(
GEOMETRIC_REPRESENTATION_CONTEXT(3)
GLOBAL_UNCERTAINTY_ASSIGNED_CONTEXT((#544))
GLOBAL_UNIT_ASSIGNED_CONTEXT((#548,#550,#551))
REPRESENTATION_CONTEXT('','3D')
);
#547=(
GEOMETRIC_REPRESENTATION_CONTEXT(3)
GLOBAL_UNCERTAINTY_ASSIGNED_CONTEXT((#545))
GLOBAL_UNIT_ASSIGNED_CONTEXT((#548,#550,#551))
REPRESENTATION_CONTEXT('','3D')
);
#548=(
LENGTH_UNIT()
NAMED_UNIT(*)
SI_UNIT(.MILLI.,.METRE.)
);
#549=(
LENGTH_UNIT()
NAMED_UNIT(*)
SI_UNIT(.CENTI.,.METRE.)
);
#550=(
NAMED_UNIT(*)
PLANE_ANGLE_UNIT()
SI_UNIT($,.RADIAN.)
);
#551=(
NAMED_UNIT(*)
SI_UNIT($,.STERADIAN.)
SOLID_ANGLE_UNIT()
);
#552=SHAPE_DEFINITION_REPRESENTATION(#553,#554);
#553=PRODUCT_DEFINITION_SHAPE('',$,#556);
#554=SHAPE_REPRESENTATION('',(#324),#546);
#555=PRODUCT_DEFINITION_CONTEXT('part definition',#560,'design');
#556=PRODUCT_DEFINITION('\X2\5F39602763215708\X0\GB 894.1-86 - 20',
'\X2\5F39602763215708\X0\GB 894.1-86 - 20',#557,#555);
#557=PRODUCT_DEFINITION_FORMATION('',$,#562);
#558=PRODUCT_RELATED_PRODUCT_CATEGORY('\X2\5F39602763215708\X0\GB 894.
1-86 - 20','\X2\5F39602763215708\X0\GB 894.1-86 - 20',(#562));
#559=APPLICATION_PROTOCOL_DEFINITION('international standard',
'automotive_design',2009,#560);
#560=APPLICATION_CONTEXT(
'Core Data for Automotive Mechanical Design Process');
#561=PRODUCT_CONTEXT('part definition',#560,'mechanical');
#562=PRODUCT('\X2\5F39602763215708\X0\GB 894.1-86 - 20',
'\X2\5F39602763215708\X0\GB 894.1-86 - 20','\X2\8F7475285F39602763215708\X0\ 
- A \X2\578B\X0\',(#561));
#563=PRESENTATION_STYLE_ASSIGNMENT((#564));
#564=SURFACE_STYLE_USAGE(.BOTH.,#567);
#565=SURFACE_STYLE_RENDERING_WITH_PROPERTIES($,#571,(#566));
#566=SURFACE_STYLE_TRANSPARENT(0.);
#567=SURFACE_SIDE_STYLE('',(#568,#565));
#568=SURFACE_STYLE_FILL_AREA(#569);
#569=FILL_AREA_STYLE('',(#570));
#570=FILL_AREA_STYLE_COLOUR('',#571);
#571=COLOUR_RGB('',0.745098039215686,0.737254901960784,0.729411764705882);
ENDSEC;
END-ISO-10303-21;
