ISO-10303-21;
HEADER;

/* step.parts distribution metadata
 * Distributed by step.parts: https://www.step.parts/parts/hex_head_bolt_m3_l0010_simple
 * Canonical STEP asset: hex_head_bolt_m3_l0010_simple.step
 */
FILE_DESCRIPTION(
/* description */ ('Canonical STEP asset distributed by step.parts'),
/* implementation_level */ '2;1');

FILE_NAME(
/* name */ 'hex_head_bolt_m3_l0010_simple.step',
/* time_stamp */ '',
/* author */ (''),
/* organization */ ('step.parts'),
/* preprocessor_version */ 'step.parts header normalizer',
/* originating_system */ 'https://www.step.parts/parts/hex_head_bolt_m3_l0010_simple',
/* authorisation */ '');

FILE_SCHEMA(('AUTOMOTIVE_DESIGN { 1 0 10303 214 1 1 1 1 }'));
ENDSEC;
DATA;
#1 = APPLICATION_PROTOCOL_DEFINITION('international standard',
  'automotive_design',2000,#2);
#2 = APPLICATION_CONTEXT(
  'core data for automotive mechanical design processes');
#3 = SHAPE_DEFINITION_REPRESENTATION(#4,#10);
#4 = PRODUCT_DEFINITION_SHAPE('','',#5);
#5 = PRODUCT_DEFINITION('design','',#6,#9);
#6 = PRODUCT_DEFINITION_FORMATION('','',#7);
#7 = PRODUCT('Open CASCADE STEP translator 7.8 152',
  'Open CASCADE STEP translator 7.8 152','',(#8));
#8 = PRODUCT_CONTEXT('',#2,'mechanical');
#9 = PRODUCT_DEFINITION_CONTEXT('part definition',#2,'design');
#10 = ADVANCED_BREP_SHAPE_REPRESENTATION('',(#11,#15),#985);
#11 = AXIS2_PLACEMENT_3D('',#12,#13,#14);
#12 = CARTESIAN_POINT('',(0.,0.,0.));
#13 = DIRECTION('',(0.,0.,1.));
#14 = DIRECTION('',(1.,0.,-0.));
#15 = MANIFOLD_SOLID_BREP('',#16);
#16 = CLOSED_SHELL('',(#17,#224,#338,#425,#512,#599,#686,#746,#801,#833,
    #864,#891,#918,#945,#972,#976));
#17 = ADVANCED_FACE('',(#18,#193),#32,.F.);
#18 = FACE_BOUND('',#19,.T.);
#19 = EDGE_LOOP('',(#20,#55,#83,#111,#139,#167));
#20 = ORIENTED_EDGE('',*,*,#21,.F.);
#21 = EDGE_CURVE('',#22,#24,#26,.T.);
#22 = VERTEX_POINT('',#23);
#23 = CARTESIAN_POINT('',(3.175426480543,0.,0.));
#24 = VERTEX_POINT('',#25);
#25 = CARTESIAN_POINT('',(1.587713240271,2.75,0.));
#26 = SURFACE_CURVE('',#27,(#31,#43),.PCURVE_S1.);
#27 = LINE('',#28,#29);
#28 = CARTESIAN_POINT('',(3.175426480543,0.,0.));
#29 = VECTOR('',#30,1.);
#30 = DIRECTION('',(-0.5,0.866025403784,0.));
#31 = PCURVE('',#32,#37);
#32 = PLANE('',#33);
#33 = AXIS2_PLACEMENT_3D('',#34,#35,#36);
#34 = CARTESIAN_POINT('',(0.,0.,0.));
#35 = DIRECTION('',(0.,0.,1.));
#36 = DIRECTION('',(1.,0.,-0.));
#37 = DEFINITIONAL_REPRESENTATION('',(#38),#42);
#38 = LINE('',#39,#40);
#39 = CARTESIAN_POINT('',(3.175426480543,-0.));
#40 = VECTOR('',#41,1.);
#41 = DIRECTION('',(-0.5,0.866025403784));
#42 = ( GEOMETRIC_REPRESENTATION_CONTEXT(2) 
PARAMETRIC_REPRESENTATION_CONTEXT() REPRESENTATION_CONTEXT('2D SPACE',''
  ) );
#43 = PCURVE('',#44,#49);
#44 = PLANE('',#45);
#45 = AXIS2_PLACEMENT_3D('',#46,#47,#48);
#46 = CARTESIAN_POINT('',(3.175426480543,0.,0.));
#47 = DIRECTION('',(-0.866025403784,-0.5,0.));
#48 = DIRECTION('',(-0.5,0.866025403784,0.));
#49 = DEFINITIONAL_REPRESENTATION('',(#50),#54);
#50 = LINE('',#51,#52);
#51 = CARTESIAN_POINT('',(0.,0.));
#52 = VECTOR('',#53,1.);
#53 = DIRECTION('',(1.,0.));
#54 = ( GEOMETRIC_REPRESENTATION_CONTEXT(2) 
PARAMETRIC_REPRESENTATION_CONTEXT() REPRESENTATION_CONTEXT('2D SPACE',''
  ) );
#55 = ORIENTED_EDGE('',*,*,#56,.F.);
#56 = EDGE_CURVE('',#57,#22,#59,.T.);
#57 = VERTEX_POINT('',#58);
#58 = CARTESIAN_POINT('',(1.587713240271,-2.75,0.));
#59 = SURFACE_CURVE('',#60,(#64,#71),.PCURVE_S1.);
#60 = LINE('',#61,#62);
#61 = CARTESIAN_POINT('',(1.587713240271,-2.75,0.));
#62 = VECTOR('',#63,1.);
#63 = DIRECTION('',(0.5,0.866025403784,0.));
#64 = PCURVE('',#32,#65);
#65 = DEFINITIONAL_REPRESENTATION('',(#66),#70);
#66 = LINE('',#67,#68);
#67 = CARTESIAN_POINT('',(1.587713240271,-2.75));
#68 = VECTOR('',#69,1.);
#69 = DIRECTION('',(0.5,0.866025403784));
#70 = ( GEOMETRIC_REPRESENTATION_CONTEXT(2) 
PARAMETRIC_REPRESENTATION_CONTEXT() REPRESENTATION_CONTEXT('2D SPACE',''
  ) );
#71 = PCURVE('',#72,#77);
#72 = PLANE('',#73);
#73 = AXIS2_PLACEMENT_3D('',#74,#75,#76);
#74 = CARTESIAN_POINT('',(1.587713240271,-2.75,0.));
#75 = DIRECTION('',(-0.866025403784,0.5,0.));
#76 = DIRECTION('',(0.5,0.866025403784,0.));
#77 = DEFINITIONAL_REPRESENTATION('',(#78),#82);
#78 = LINE('',#79,#80);
#79 = CARTESIAN_POINT('',(0.,0.));
#80 = VECTOR('',#81,1.);
#81 = DIRECTION('',(1.,0.));
#82 = ( GEOMETRIC_REPRESENTATION_CONTEXT(2) 
PARAMETRIC_REPRESENTATION_CONTEXT() REPRESENTATION_CONTEXT('2D SPACE',''
  ) );
#83 = ORIENTED_EDGE('',*,*,#84,.F.);
#84 = EDGE_CURVE('',#85,#57,#87,.T.);
#85 = VERTEX_POINT('',#86);
#86 = CARTESIAN_POINT('',(-1.587713240271,-2.75,0.));
#87 = SURFACE_CURVE('',#88,(#92,#99),.PCURVE_S1.);
#88 = LINE('',#89,#90);
#89 = CARTESIAN_POINT('',(-1.587713240271,-2.75,0.));
#90 = VECTOR('',#91,1.);
#91 = DIRECTION('',(1.,-6.992591586849E-16,0.));
#92 = PCURVE('',#32,#93);
#93 = DEFINITIONAL_REPRESENTATION('',(#94),#98);
#94 = LINE('',#95,#96);
#95 = CARTESIAN_POINT('',(-1.587713240271,-2.75));
#96 = VECTOR('',#97,1.);
#97 = DIRECTION('',(1.,-6.992591586849E-16));
#98 = ( GEOMETRIC_REPRESENTATION_CONTEXT(2) 
PARAMETRIC_REPRESENTATION_CONTEXT() REPRESENTATION_CONTEXT('2D SPACE',''
  ) );
#99 = PCURVE('',#100,#105);
#100 = PLANE('',#101);
#101 = AXIS2_PLACEMENT_3D('',#102,#103,#104);
#102 = CARTESIAN_POINT('',(-1.587713240271,-2.75,0.));
#103 = DIRECTION('',(6.992591586849E-16,1.,-0.));
#104 = DIRECTION('',(1.,-6.992591586849E-16,0.));
#105 = DEFINITIONAL_REPRESENTATION('',(#106),#110);
#106 = LINE('',#107,#108);
#107 = CARTESIAN_POINT('',(0.,0.));
#108 = VECTOR('',#109,1.);
#109 = DIRECTION('',(1.,0.));
#110 = ( GEOMETRIC_REPRESENTATION_CONTEXT(2) 
PARAMETRIC_REPRESENTATION_CONTEXT() REPRESENTATION_CONTEXT('2D SPACE',''
  ) );
#111 = ORIENTED_EDGE('',*,*,#112,.F.);
#112 = EDGE_CURVE('',#113,#85,#115,.T.);
#113 = VERTEX_POINT('',#114);
#114 = CARTESIAN_POINT('',(-3.175426480543,3.888775875325E-16,0.));
#115 = SURFACE_CURVE('',#116,(#120,#127),.PCURVE_S1.);
#116 = LINE('',#117,#118);
#117 = CARTESIAN_POINT('',(-3.175426480543,3.888775875325E-16,0.));
#118 = VECTOR('',#119,1.);
#119 = DIRECTION('',(0.5,-0.866025403784,0.));
#120 = PCURVE('',#32,#121);
#121 = DEFINITIONAL_REPRESENTATION('',(#122),#126);
#122 = LINE('',#123,#124);
#123 = CARTESIAN_POINT('',(-3.175426480543,3.888775875325E-16));
#124 = VECTOR('',#125,1.);
#125 = DIRECTION('',(0.5,-0.866025403784));
#126 = ( GEOMETRIC_REPRESENTATION_CONTEXT(2) 
PARAMETRIC_REPRESENTATION_CONTEXT() REPRESENTATION_CONTEXT('2D SPACE',''
  ) );
#127 = PCURVE('',#128,#133);
#128 = PLANE('',#129);
#129 = AXIS2_PLACEMENT_3D('',#130,#131,#132);
#130 = CARTESIAN_POINT('',(-3.175426480543,3.888775875325E-16,0.));
#131 = DIRECTION('',(0.866025403784,0.5,-0.));
#132 = DIRECTION('',(0.5,-0.866025403784,0.));
#133 = DEFINITIONAL_REPRESENTATION('',(#134),#138);
#134 = LINE('',#135,#136);
#135 = CARTESIAN_POINT('',(0.,0.));
#136 = VECTOR('',#137,1.);
#137 = DIRECTION('',(1.,0.));
#138 = ( GEOMETRIC_REPRESENTATION_CONTEXT(2) 
PARAMETRIC_REPRESENTATION_CONTEXT() REPRESENTATION_CONTEXT('2D SPACE',''
  ) );
#139 = ORIENTED_EDGE('',*,*,#140,.F.);
#140 = EDGE_CURVE('',#141,#113,#143,.T.);
#141 = VERTEX_POINT('',#142);
#142 = CARTESIAN_POINT('',(-1.587713240271,2.75,0.));
#143 = SURFACE_CURVE('',#144,(#148,#155),.PCURVE_S1.);
#144 = LINE('',#145,#146);
#145 = CARTESIAN_POINT('',(-1.587713240271,2.75,0.));
#146 = VECTOR('',#147,1.);
#147 = DIRECTION('',(-0.5,-0.866025403784,0.));
#148 = PCURVE('',#32,#149);
#149 = DEFINITIONAL_REPRESENTATION('',(#150),#154);
#150 = LINE('',#151,#152);
#151 = CARTESIAN_POINT('',(-1.587713240271,2.75));
#152 = VECTOR('',#153,1.);
#153 = DIRECTION('',(-0.5,-0.866025403784));
#154 = ( GEOMETRIC_REPRESENTATION_CONTEXT(2) 
PARAMETRIC_REPRESENTATION_CONTEXT() REPRESENTATION_CONTEXT('2D SPACE',''
  ) );
#155 = PCURVE('',#156,#161);
#156 = PLANE('',#157);
#157 = AXIS2_PLACEMENT_3D('',#158,#159,#160);
#158 = CARTESIAN_POINT('',(-1.587713240271,2.75,0.));
#159 = DIRECTION('',(0.866025403784,-0.5,0.));
#160 = DIRECTION('',(-0.5,-0.866025403784,0.));
#161 = DEFINITIONAL_REPRESENTATION('',(#162),#166);
#162 = LINE('',#163,#164);
#163 = CARTESIAN_POINT('',(0.,0.));
#164 = VECTOR('',#165,1.);
#165 = DIRECTION('',(1.,0.));
#166 = ( GEOMETRIC_REPRESENTATION_CONTEXT(2) 
PARAMETRIC_REPRESENTATION_CONTEXT() REPRESENTATION_CONTEXT('2D SPACE',''
  ) );
#167 = ORIENTED_EDGE('',*,*,#168,.F.);
#168 = EDGE_CURVE('',#24,#141,#169,.T.);
#169 = SURFACE_CURVE('',#170,(#174,#181),.PCURVE_S1.);
#170 = LINE('',#171,#172);
#171 = CARTESIAN_POINT('',(1.587713240271,2.75,0.));
#172 = VECTOR('',#173,1.);
#173 = DIRECTION('',(-1.,1.39851831737E-16,0.));
#174 = PCURVE('',#32,#175);
#175 = DEFINITIONAL_REPRESENTATION('',(#176),#180);
#176 = LINE('',#177,#178);
#177 = CARTESIAN_POINT('',(1.587713240271,2.75));
#178 = VECTOR('',#179,1.);
#179 = DIRECTION('',(-1.,1.39851831737E-16));
#180 = ( GEOMETRIC_REPRESENTATION_CONTEXT(2) 
PARAMETRIC_REPRESENTATION_CONTEXT() REPRESENTATION_CONTEXT('2D SPACE',''
  ) );
#181 = PCURVE('',#182,#187);
#182 = PLANE('',#183);
#183 = AXIS2_PLACEMENT_3D('',#184,#185,#186);
#184 = CARTESIAN_POINT('',(1.587713240271,2.75,0.));
#185 = DIRECTION('',(-1.39851831737E-16,-1.,0.));
#186 = DIRECTION('',(-1.,1.39851831737E-16,0.));
#187 = DEFINITIONAL_REPRESENTATION('',(#188),#192);
#188 = LINE('',#189,#190);
#189 = CARTESIAN_POINT('',(0.,0.));
#190 = VECTOR('',#191,1.);
#191 = DIRECTION('',(1.,0.));
#192 = ( GEOMETRIC_REPRESENTATION_CONTEXT(2) 
PARAMETRIC_REPRESENTATION_CONTEXT() REPRESENTATION_CONTEXT('2D SPACE',''
  ) );
#193 = FACE_BOUND('',#194,.T.);
#194 = EDGE_LOOP('',(#195));
#195 = ORIENTED_EDGE('',*,*,#196,.T.);
#196 = EDGE_CURVE('',#197,#197,#199,.T.);
#197 = VERTEX_POINT('',#198);
#198 = CARTESIAN_POINT('',(1.229367061317,0.,0.));
#199 = SURFACE_CURVE('',#200,(#205,#212),.PCURVE_S1.);
#200 = CIRCLE('',#201,1.229367061317);
#201 = AXIS2_PLACEMENT_3D('',#202,#203,#204);
#202 = CARTESIAN_POINT('',(0.,0.,0.));
#203 = DIRECTION('',(0.,0.,1.));
#204 = DIRECTION('',(1.,0.,0.));
#205 = PCURVE('',#32,#206);
#206 = DEFINITIONAL_REPRESENTATION('',(#207),#211);
#207 = CIRCLE('',#208,1.229367061317);
#208 = AXIS2_PLACEMENT_2D('',#209,#210);
#209 = CARTESIAN_POINT('',(0.,0.));
#210 = DIRECTION('',(1.,-0.));
#211 = ( GEOMETRIC_REPRESENTATION_CONTEXT(2) 
PARAMETRIC_REPRESENTATION_CONTEXT() REPRESENTATION_CONTEXT('2D SPACE',''
  ) );
#212 = PCURVE('',#213,#218);
#213 = CYLINDRICAL_SURFACE('',#214,1.229367061317);
#214 = AXIS2_PLACEMENT_3D('',#215,#216,#217);
#215 = CARTESIAN_POINT('',(0.,0.,-10.));
#216 = DIRECTION('',(-0.,-0.,-1.));
#217 = DIRECTION('',(1.,0.,0.));
#218 = DEFINITIONAL_REPRESENTATION('',(#219),#223);
#219 = LINE('',#220,#221);
#220 = CARTESIAN_POINT('',(-0.,-10.));
#221 = VECTOR('',#222,1.);
#222 = DIRECTION('',(-1.,0.));
#223 = ( GEOMETRIC_REPRESENTATION_CONTEXT(2) 
PARAMETRIC_REPRESENTATION_CONTEXT() REPRESENTATION_CONTEXT('2D SPACE',''
  ) );
#224 = ADVANCED_FACE('',(#225),#44,.F.);
#225 = FACE_BOUND('',#226,.F.);
#226 = EDGE_LOOP('',(#227,#228,#251,#284,#317));
#227 = ORIENTED_EDGE('',*,*,#21,.F.);
#228 = ORIENTED_EDGE('',*,*,#229,.T.);
#229 = EDGE_CURVE('',#22,#230,#232,.T.);
#230 = VERTEX_POINT('',#231);
#231 = CARTESIAN_POINT('',(3.175426480543,0.,2.0860073181));
#232 = SURFACE_CURVE('',#233,(#237,#244),.PCURVE_S1.);
#233 = LINE('',#234,#235);
#234 = CARTESIAN_POINT('',(3.175426480543,0.,0.));
#235 = VECTOR('',#236,1.);
#236 = DIRECTION('',(0.,0.,1.));
#237 = PCURVE('',#44,#238);
#238 = DEFINITIONAL_REPRESENTATION('',(#239),#243);
#239 = LINE('',#240,#241);
#240 = CARTESIAN_POINT('',(0.,0.));
#241 = VECTOR('',#242,1.);
#242 = DIRECTION('',(0.,-1.));
#243 = ( GEOMETRIC_REPRESENTATION_CONTEXT(2) 
PARAMETRIC_REPRESENTATION_CONTEXT() REPRESENTATION_CONTEXT('2D SPACE',''
  ) );
#244 = PCURVE('',#72,#245);
#245 = DEFINITIONAL_REPRESENTATION('',(#246),#250);
#246 = LINE('',#247,#248);
#247 = CARTESIAN_POINT('',(3.175426480543,0.));
#248 = VECTOR('',#249,1.);
#249 = DIRECTION('',(0.,-1.));
#250 = ( GEOMETRIC_REPRESENTATION_CONTEXT(2) 
PARAMETRIC_REPRESENTATION_CONTEXT() REPRESENTATION_CONTEXT('2D SPACE',''
  ) );
#251 = ORIENTED_EDGE('',*,*,#252,.F.);
#252 = EDGE_CURVE('',#253,#230,#255,.T.);
#253 = VERTEX_POINT('',#254);
#254 = CARTESIAN_POINT('',(2.381569853846,1.375000011364,2.2));
#255 = SURFACE_CURVE('',#256,(#261,#268),.PCURVE_S1.);
#256 = HYPERBOLA('',#257,0.736860279186,2.75);
#257 = AXIS2_PLACEMENT_3D('',#258,#259,#260);
#258 = CARTESIAN_POINT('',(2.381569860407,1.375,2.936860279186));
#259 = DIRECTION('',(-0.866025403784,-0.5,0.));
#260 = DIRECTION('',(-0.,0.,-1.));
#261 = PCURVE('',#44,#262);
#262 = DEFINITIONAL_REPRESENTATION('',(#263),#267);
#263 = HYPERBOLA('',#264,0.736860279186,2.75);
#264 = AXIS2_PLACEMENT_2D('',#265,#266);
#265 = CARTESIAN_POINT('',(1.587713240271,-2.936860279186));
#266 = DIRECTION('',(0.,1.));
#267 = ( GEOMETRIC_REPRESENTATION_CONTEXT(2) 
PARAMETRIC_REPRESENTATION_CONTEXT() REPRESENTATION_CONTEXT('2D SPACE',''
  ) );
#268 = PCURVE('',#269,#274);
#269 = CONICAL_SURFACE('',#270,3.175426480543,1.308996938996);
#270 = AXIS2_PLACEMENT_3D('',#271,#272,#273);
#271 = CARTESIAN_POINT('',(0.,0.,2.0860073181));
#272 = DIRECTION('',(-0.,-0.,-1.));
#273 = DIRECTION('',(1.,0.,-0.));
#274 = DEFINITIONAL_REPRESENTATION('',(#275),#283);
#275 = B_SPLINE_CURVE_WITH_KNOTS('',6,(#276,#277,#278,#279,#280,#281,
    #282),.UNSPECIFIED.,.F.,.F.,(7,7),(-4.41190648874E-16,0.549306144334
    ),.PIECEWISE_BEZIER_KNOTS.);
#276 = CARTESIAN_POINT('',(-6.806784082778,-0.1139926819));
#277 = CARTESIAN_POINT('',(-6.715233058722,-0.1139926819));
#278 = CARTESIAN_POINT('',(-6.623682461795,-0.106581405762));
#279 = CARTESIAN_POINT('',(-6.53351011688,-9.175887618222E-02));
#280 = CARTESIAN_POINT('',(-6.446111296363,-6.933866299925E-02));
#281 = CARTESIAN_POINT('',(-6.362470819754,-3.894822995411E-02));
#282 = CARTESIAN_POINT('',(-6.28318530718,1.110223024625E-16));
#283 = ( GEOMETRIC_REPRESENTATION_CONTEXT(2) 
PARAMETRIC_REPRESENTATION_CONTEXT() REPRESENTATION_CONTEXT('2D SPACE',''
  ) );
#284 = ORIENTED_EDGE('',*,*,#285,.F.);
#285 = EDGE_CURVE('',#286,#253,#288,.T.);
#286 = VERTEX_POINT('',#287);
#287 = CARTESIAN_POINT('',(1.587713240271,2.75,2.0860073181));
#288 = SURFACE_CURVE('',#289,(#294,#301),.PCURVE_S1.);
#289 = HYPERBOLA('',#290,0.736860279186,2.75);
#290 = AXIS2_PLACEMENT_3D('',#291,#292,#293);
#291 = CARTESIAN_POINT('',(2.381569860407,1.375,2.936860279186));
#292 = DIRECTION('',(-0.866025403784,-0.5,0.));
#293 = DIRECTION('',(-0.,0.,-1.));
#294 = PCURVE('',#44,#295);
#295 = DEFINITIONAL_REPRESENTATION('',(#296),#300);
#296 = HYPERBOLA('',#297,0.736860279186,2.75);
#297 = AXIS2_PLACEMENT_2D('',#298,#299);
#298 = CARTESIAN_POINT('',(1.587713240271,-2.936860279186));
#299 = DIRECTION('',(0.,1.));
#300 = ( GEOMETRIC_REPRESENTATION_CONTEXT(2) 
PARAMETRIC_REPRESENTATION_CONTEXT() REPRESENTATION_CONTEXT('2D SPACE',''
  ) );
#301 = PCURVE('',#302,#307);
#302 = CONICAL_SURFACE('',#303,3.175426480543,1.308996938996);
#303 = AXIS2_PLACEMENT_3D('',#304,#305,#306);
#304 = CARTESIAN_POINT('',(0.,0.,2.0860073181));
#305 = DIRECTION('',(-0.,-0.,-1.));
#306 = DIRECTION('',(1.,0.,-0.));
#307 = DEFINITIONAL_REPRESENTATION('',(#308),#316);
#308 = B_SPLINE_CURVE_WITH_KNOTS('',6,(#309,#310,#311,#312,#313,#314,
    #315),.UNSPECIFIED.,.F.,.F.,(7,7),(-0.549306144334,
    -4.41190648874E-16),.PIECEWISE_BEZIER_KNOTS.);
#309 = CARTESIAN_POINT('',(-1.047197551197,0.));
#310 = CARTESIAN_POINT('',(-0.967912038622,-3.894822995411E-02));
#311 = CARTESIAN_POINT('',(-0.884271562013,-6.933866299925E-02));
#312 = CARTESIAN_POINT('',(-0.796872741496,-9.175887618222E-02));
#313 = CARTESIAN_POINT('',(-0.706700396581,-0.106581405762));
#314 = CARTESIAN_POINT('',(-0.615149799654,-0.1139926819));
#315 = CARTESIAN_POINT('',(-0.523598775598,-0.1139926819));
#316 = ( GEOMETRIC_REPRESENTATION_CONTEXT(2) 
PARAMETRIC_REPRESENTATION_CONTEXT() REPRESENTATION_CONTEXT('2D SPACE',''
  ) );
#317 = ORIENTED_EDGE('',*,*,#318,.F.);
#318 = EDGE_CURVE('',#24,#286,#319,.T.);
#319 = SURFACE_CURVE('',#320,(#324,#331),.PCURVE_S1.);
#320 = LINE('',#321,#322);
#321 = CARTESIAN_POINT('',(1.587713240271,2.75,0.));
#322 = VECTOR('',#323,1.);
#323 = DIRECTION('',(0.,0.,1.));
#324 = PCURVE('',#44,#325);
#325 = DEFINITIONAL_REPRESENTATION('',(#326),#330);
#326 = LINE('',#327,#328);
#327 = CARTESIAN_POINT('',(3.175426480543,0.));
#328 = VECTOR('',#329,1.);
#329 = DIRECTION('',(0.,-1.));
#330 = ( GEOMETRIC_REPRESENTATION_CONTEXT(2) 
PARAMETRIC_REPRESENTATION_CONTEXT() REPRESENTATION_CONTEXT('2D SPACE',''
  ) );
#331 = PCURVE('',#182,#332);
#332 = DEFINITIONAL_REPRESENTATION('',(#333),#337);
#333 = LINE('',#334,#335);
#334 = CARTESIAN_POINT('',(0.,0.));
#335 = VECTOR('',#336,1.);
#336 = DIRECTION('',(0.,-1.));
#337 = ( GEOMETRIC_REPRESENTATION_CONTEXT(2) 
PARAMETRIC_REPRESENTATION_CONTEXT() REPRESENTATION_CONTEXT('2D SPACE',''
  ) );
#338 = ADVANCED_FACE('',(#339),#72,.F.);
#339 = FACE_BOUND('',#340,.F.);
#340 = EDGE_LOOP('',(#341,#342,#365,#398,#424));
#341 = ORIENTED_EDGE('',*,*,#56,.F.);
#342 = ORIENTED_EDGE('',*,*,#343,.T.);
#343 = EDGE_CURVE('',#57,#344,#346,.T.);
#344 = VERTEX_POINT('',#345);
#345 = CARTESIAN_POINT('',(1.587713240271,-2.75,2.0860073181));
#346 = SURFACE_CURVE('',#347,(#351,#358),.PCURVE_S1.);
#347 = LINE('',#348,#349);
#348 = CARTESIAN_POINT('',(1.587713240271,-2.75,0.));
#349 = VECTOR('',#350,1.);
#350 = DIRECTION('',(0.,0.,1.));
#351 = PCURVE('',#72,#352);
#352 = DEFINITIONAL_REPRESENTATION('',(#353),#357);
#353 = LINE('',#354,#355);
#354 = CARTESIAN_POINT('',(0.,0.));
#355 = VECTOR('',#356,1.);
#356 = DIRECTION('',(0.,-1.));
#357 = ( GEOMETRIC_REPRESENTATION_CONTEXT(2) 
PARAMETRIC_REPRESENTATION_CONTEXT() REPRESENTATION_CONTEXT('2D SPACE',''
  ) );
#358 = PCURVE('',#100,#359);
#359 = DEFINITIONAL_REPRESENTATION('',(#360),#364);
#360 = LINE('',#361,#362);
#361 = CARTESIAN_POINT('',(3.175426480543,0.));
#362 = VECTOR('',#363,1.);
#363 = DIRECTION('',(0.,-1.));
#364 = ( GEOMETRIC_REPRESENTATION_CONTEXT(2) 
PARAMETRIC_REPRESENTATION_CONTEXT() REPRESENTATION_CONTEXT('2D SPACE',''
  ) );
#365 = ORIENTED_EDGE('',*,*,#366,.F.);
#366 = EDGE_CURVE('',#367,#344,#369,.T.);
#367 = VERTEX_POINT('',#368);
#368 = CARTESIAN_POINT('',(2.381569864962,-1.37499999211,2.2));
#369 = SURFACE_CURVE('',#370,(#375,#382),.PCURVE_S1.);
#370 = HYPERBOLA('',#371,0.736860279186,2.75);
#371 = AXIS2_PLACEMENT_3D('',#372,#373,#374);
#372 = CARTESIAN_POINT('',(2.381569860407,-1.375,2.936860279186));
#373 = DIRECTION('',(-0.866025403784,0.5,0.));
#374 = DIRECTION('',(-0.,0.,-1.));
#375 = PCURVE('',#72,#376);
#376 = DEFINITIONAL_REPRESENTATION('',(#377),#381);
#377 = HYPERBOLA('',#378,0.736860279186,2.75);
#378 = AXIS2_PLACEMENT_2D('',#379,#380);
#379 = CARTESIAN_POINT('',(1.587713240271,-2.936860279186));
#380 = DIRECTION('',(0.,1.));
#381 = ( GEOMETRIC_REPRESENTATION_CONTEXT(2) 
PARAMETRIC_REPRESENTATION_CONTEXT() REPRESENTATION_CONTEXT('2D SPACE',''
  ) );
#382 = PCURVE('',#383,#388);
#383 = CONICAL_SURFACE('',#384,3.175426480543,1.308996938996);
#384 = AXIS2_PLACEMENT_3D('',#385,#386,#387);
#385 = CARTESIAN_POINT('',(0.,0.,2.0860073181));
#386 = DIRECTION('',(-0.,-0.,-1.));
#387 = DIRECTION('',(1.,0.,-0.));
#388 = DEFINITIONAL_REPRESENTATION('',(#389),#397);
#389 = B_SPLINE_CURVE_WITH_KNOTS('',6,(#390,#391,#392,#393,#394,#395,
    #396),.UNSPECIFIED.,.F.,.F.,(7,7),(2.423273419181E-08,0.549306144334
    ),.PIECEWISE_BEZIER_KNOTS.);
#390 = CARTESIAN_POINT('',(-5.759586507349,-0.1139926819));
#391 = CARTESIAN_POINT('',(-5.668035487332,-0.113992680266));
#392 = CARTESIAN_POINT('',(-5.576484894687,-0.106581403147));
#393 = CARTESIAN_POINT('',(-5.486312554116,-9.175887321501E-02));
#394 = CARTESIAN_POINT('',(-5.398913737787,-6.933866031789E-02));
#395 = CARTESIAN_POINT('',(-5.31527326506,-3.89482282359E-02));
#396 = CARTESIAN_POINT('',(-5.235987755983,0.));
#397 = ( GEOMETRIC_REPRESENTATION_CONTEXT(2) 
PARAMETRIC_REPRESENTATION_CONTEXT() REPRESENTATION_CONTEXT('2D SPACE',''
  ) );
#398 = ORIENTED_EDGE('',*,*,#399,.F.);
#399 = EDGE_CURVE('',#230,#367,#400,.T.);
#400 = SURFACE_CURVE('',#401,(#406,#413),.PCURVE_S1.);
#401 = HYPERBOLA('',#402,0.736860279186,2.75);
#402 = AXIS2_PLACEMENT_3D('',#403,#404,#405);
#403 = CARTESIAN_POINT('',(2.381569860407,-1.375,2.936860279186));
#404 = DIRECTION('',(-0.866025403784,0.5,0.));
#405 = DIRECTION('',(-0.,0.,-1.));
#406 = PCURVE('',#72,#407);
#407 = DEFINITIONAL_REPRESENTATION('',(#408),#412);
#408 = HYPERBOLA('',#409,0.736860279186,2.75);
#409 = AXIS2_PLACEMENT_2D('',#410,#411);
#410 = CARTESIAN_POINT('',(1.587713240271,-2.936860279186));
#411 = DIRECTION('',(0.,1.));
#412 = ( GEOMETRIC_REPRESENTATION_CONTEXT(2) 
PARAMETRIC_REPRESENTATION_CONTEXT() REPRESENTATION_CONTEXT('2D SPACE',''
  ) );
#413 = PCURVE('',#269,#414);
#414 = DEFINITIONAL_REPRESENTATION('',(#415),#423);
#415 = B_SPLINE_CURVE_WITH_KNOTS('',6,(#416,#417,#418,#419,#420,#421,
    #422),.UNSPECIFIED.,.F.,.F.,(7,7),(-0.549306144334,
    2.423273419181E-08),.PIECEWISE_BEZIER_KNOTS.);
#416 = CARTESIAN_POINT('',(-6.28318530718,-1.110223024625E-16));
#417 = CARTESIAN_POINT('',(-6.203899791107,-3.894823167232E-02));
#418 = CARTESIAN_POINT('',(-6.120259310617,-6.933866568061E-02));
#419 = CARTESIAN_POINT('',(-6.032860485912,-9.175887914944E-02));
#420 = CARTESIAN_POINT('',(-5.942688136652,-0.106581408378));
#421 = CARTESIAN_POINT('',(-5.851137535443,-0.113992683535));
#422 = CARTESIAN_POINT('',(-5.759586507349,-0.1139926819));
#423 = ( GEOMETRIC_REPRESENTATION_CONTEXT(2) 
PARAMETRIC_REPRESENTATION_CONTEXT() REPRESENTATION_CONTEXT('2D SPACE',''
  ) );
#424 = ORIENTED_EDGE('',*,*,#229,.F.);
#425 = ADVANCED_FACE('',(#426),#182,.F.);
#426 = FACE_BOUND('',#427,.F.);
#427 = EDGE_LOOP('',(#428,#429,#430,#458,#491));
#428 = ORIENTED_EDGE('',*,*,#168,.F.);
#429 = ORIENTED_EDGE('',*,*,#318,.T.);
#430 = ORIENTED_EDGE('',*,*,#431,.F.);
#431 = EDGE_CURVE('',#432,#286,#434,.T.);
#432 = VERTEX_POINT('',#433);
#433 = CARTESIAN_POINT('',(-2.428881144718E-13,2.75,2.2));
#434 = SURFACE_CURVE('',#435,(#440,#447),.PCURVE_S1.);
#435 = HYPERBOLA('',#436,0.736860279186,2.75);
#436 = AXIS2_PLACEMENT_3D('',#437,#438,#439);
#437 = CARTESIAN_POINT('',(3.845925372767E-16,2.75,2.936860279186));
#438 = DIRECTION('',(-1.39851831737E-16,-1.,0.));
#439 = DIRECTION('',(-0.,0.,-1.));
#440 = PCURVE('',#182,#441);
#441 = DEFINITIONAL_REPRESENTATION('',(#442),#446);
#442 = HYPERBOLA('',#443,0.736860279186,2.75);
#443 = AXIS2_PLACEMENT_2D('',#444,#445);
#444 = CARTESIAN_POINT('',(1.587713240271,-2.936860279186));
#445 = DIRECTION('',(0.,1.));
#446 = ( GEOMETRIC_REPRESENTATION_CONTEXT(2) 
PARAMETRIC_REPRESENTATION_CONTEXT() REPRESENTATION_CONTEXT('2D SPACE',''
  ) );
#447 = PCURVE('',#302,#448);
#448 = DEFINITIONAL_REPRESENTATION('',(#449),#457);
#449 = B_SPLINE_CURVE_WITH_KNOTS('',6,(#450,#451,#452,#453,#454,#455,
    #456),.UNSPECIFIED.,.F.,.F.,(7,7),(-7.861949177962E-17,
    0.549306144334),.PIECEWISE_BEZIER_KNOTS.);
#450 = CARTESIAN_POINT('',(-1.570796326795,-0.1139926819));
#451 = CARTESIAN_POINT('',(-1.479245302739,-0.1139926819));
#452 = CARTESIAN_POINT('',(-1.387694705812,-0.106581405762));
#453 = CARTESIAN_POINT('',(-1.297522360897,-9.175887618223E-02));
#454 = CARTESIAN_POINT('',(-1.21012354038,-6.933866299925E-02));
#455 = CARTESIAN_POINT('',(-1.126483063771,-3.894822995411E-02));
#456 = CARTESIAN_POINT('',(-1.047197551197,1.110223024625E-16));
#457 = ( GEOMETRIC_REPRESENTATION_CONTEXT(2) 
PARAMETRIC_REPRESENTATION_CONTEXT() REPRESENTATION_CONTEXT('2D SPACE',''
  ) );
#458 = ORIENTED_EDGE('',*,*,#459,.F.);
#459 = EDGE_CURVE('',#460,#432,#462,.T.);
#460 = VERTEX_POINT('',#461);
#461 = CARTESIAN_POINT('',(-1.587713240272,2.75,2.0860073181));
#462 = SURFACE_CURVE('',#463,(#468,#475),.PCURVE_S1.);
#463 = HYPERBOLA('',#464,0.736860279186,2.75);
#464 = AXIS2_PLACEMENT_3D('',#465,#466,#467);
#465 = CARTESIAN_POINT('',(3.845925372767E-16,2.75,2.936860279186));
#466 = DIRECTION('',(-1.39851831737E-16,-1.,0.));
#467 = DIRECTION('',(-0.,0.,-1.));
#468 = PCURVE('',#182,#469);
#469 = DEFINITIONAL_REPRESENTATION('',(#470),#474);
#470 = HYPERBOLA('',#471,0.736860279186,2.75);
#471 = AXIS2_PLACEMENT_2D('',#472,#473);
#472 = CARTESIAN_POINT('',(1.587713240271,-2.936860279186));
#473 = DIRECTION('',(0.,1.));
#474 = ( GEOMETRIC_REPRESENTATION_CONTEXT(2) 
PARAMETRIC_REPRESENTATION_CONTEXT() REPRESENTATION_CONTEXT('2D SPACE',''
  ) );
#475 = PCURVE('',#476,#481);
#476 = CONICAL_SURFACE('',#477,3.175426480543,1.308996938996);
#477 = AXIS2_PLACEMENT_3D('',#478,#479,#480);
#478 = CARTESIAN_POINT('',(0.,0.,2.0860073181));
#479 = DIRECTION('',(-0.,-0.,-1.));
#480 = DIRECTION('',(1.,0.,-0.));
#481 = DEFINITIONAL_REPRESENTATION('',(#482),#490);
#482 = B_SPLINE_CURVE_WITH_KNOTS('',6,(#483,#484,#485,#486,#487,#488,
    #489),.UNSPECIFIED.,.F.,.F.,(7,7),(-0.549306144334,
    -7.861949177962E-17),.PIECEWISE_BEZIER_KNOTS.);
#483 = CARTESIAN_POINT('',(-2.094395102393,0.));
#484 = CARTESIAN_POINT('',(-2.015109589818,-3.894822995411E-02));
#485 = CARTESIAN_POINT('',(-1.93146911321,-6.933866299925E-02));
#486 = CARTESIAN_POINT('',(-1.844070292693,-9.175887618223E-02));
#487 = CARTESIAN_POINT('',(-1.753897947778,-0.106581405762));
#488 = CARTESIAN_POINT('',(-1.662347350851,-0.1139926819));
#489 = CARTESIAN_POINT('',(-1.570796326795,-0.1139926819));
#490 = ( GEOMETRIC_REPRESENTATION_CONTEXT(2) 
PARAMETRIC_REPRESENTATION_CONTEXT() REPRESENTATION_CONTEXT('2D SPACE',''
  ) );
#491 = ORIENTED_EDGE('',*,*,#492,.F.);
#492 = EDGE_CURVE('',#141,#460,#493,.T.);
#493 = SURFACE_CURVE('',#494,(#498,#505),.PCURVE_S1.);
#494 = LINE('',#495,#496);
#495 = CARTESIAN_POINT('',(-1.587713240271,2.75,0.));
#496 = VECTOR('',#497,1.);
#497 = DIRECTION('',(0.,0.,1.));
#498 = PCURVE('',#182,#499);
#499 = DEFINITIONAL_REPRESENTATION('',(#500),#504);
#500 = LINE('',#501,#502);
#501 = CARTESIAN_POINT('',(3.175426480543,0.));
#502 = VECTOR('',#503,1.);
#503 = DIRECTION('',(0.,-1.));
#504 = ( GEOMETRIC_REPRESENTATION_CONTEXT(2) 
PARAMETRIC_REPRESENTATION_CONTEXT() REPRESENTATION_CONTEXT('2D SPACE',''
  ) );
#505 = PCURVE('',#156,#506);
#506 = DEFINITIONAL_REPRESENTATION('',(#507),#511);
#507 = LINE('',#508,#509);
#508 = CARTESIAN_POINT('',(0.,0.));
#509 = VECTOR('',#510,1.);
#510 = DIRECTION('',(0.,-1.));
#511 = ( GEOMETRIC_REPRESENTATION_CONTEXT(2) 
PARAMETRIC_REPRESENTATION_CONTEXT() REPRESENTATION_CONTEXT('2D SPACE',''
  ) );
#512 = ADVANCED_FACE('',(#513),#100,.F.);
#513 = FACE_BOUND('',#514,.F.);
#514 = EDGE_LOOP('',(#515,#516,#539,#572,#598));
#515 = ORIENTED_EDGE('',*,*,#84,.F.);
#516 = ORIENTED_EDGE('',*,*,#517,.T.);
#517 = EDGE_CURVE('',#85,#518,#520,.T.);
#518 = VERTEX_POINT('',#519);
#519 = CARTESIAN_POINT('',(-1.587713240272,-2.75,2.0860073181));
#520 = SURFACE_CURVE('',#521,(#525,#532),.PCURVE_S1.);
#521 = LINE('',#522,#523);
#522 = CARTESIAN_POINT('',(-1.587713240271,-2.75,0.));
#523 = VECTOR('',#524,1.);
#524 = DIRECTION('',(0.,0.,1.));
#525 = PCURVE('',#100,#526);
#526 = DEFINITIONAL_REPRESENTATION('',(#527),#531);
#527 = LINE('',#528,#529);
#528 = CARTESIAN_POINT('',(0.,0.));
#529 = VECTOR('',#530,1.);
#530 = DIRECTION('',(0.,-1.));
#531 = ( GEOMETRIC_REPRESENTATION_CONTEXT(2) 
PARAMETRIC_REPRESENTATION_CONTEXT() REPRESENTATION_CONTEXT('2D SPACE',''
  ) );
#532 = PCURVE('',#128,#533);
#533 = DEFINITIONAL_REPRESENTATION('',(#534),#538);
#534 = LINE('',#535,#536);
#535 = CARTESIAN_POINT('',(3.175426480543,0.));
#536 = VECTOR('',#537,1.);
#537 = DIRECTION('',(0.,-1.));
#538 = ( GEOMETRIC_REPRESENTATION_CONTEXT(2) 
PARAMETRIC_REPRESENTATION_CONTEXT() REPRESENTATION_CONTEXT('2D SPACE',''
  ) );
#539 = ORIENTED_EDGE('',*,*,#540,.F.);
#540 = EDGE_CURVE('',#541,#518,#543,.T.);
#541 = VERTEX_POINT('',#542);
#542 = CARTESIAN_POINT('',(-2.593786373498E-13,-2.75,2.2));
#543 = SURFACE_CURVE('',#544,(#549,#556),.PCURVE_S1.);
#544 = HYPERBOLA('',#545,0.736860279186,2.75);
#545 = AXIS2_PLACEMENT_3D('',#546,#547,#548);
#546 = CARTESIAN_POINT('',(-1.922962686384E-15,-2.75,2.936860279186));
#547 = DIRECTION('',(6.992591586849E-16,1.,0.));
#548 = DIRECTION('',(0.,-0.,-1.));
#549 = PCURVE('',#100,#550);
#550 = DEFINITIONAL_REPRESENTATION('',(#551),#555);
#551 = HYPERBOLA('',#552,0.736860279186,2.75);
#552 = AXIS2_PLACEMENT_2D('',#553,#554);
#553 = CARTESIAN_POINT('',(1.587713240271,-2.936860279186));
#554 = DIRECTION('',(0.,1.));
#555 = ( GEOMETRIC_REPRESENTATION_CONTEXT(2) 
PARAMETRIC_REPRESENTATION_CONTEXT() REPRESENTATION_CONTEXT('2D SPACE',''
  ) );
#556 = PCURVE('',#557,#562);
#557 = CONICAL_SURFACE('',#558,3.175426480543,1.308996938996);
#558 = AXIS2_PLACEMENT_3D('',#559,#560,#561);
#559 = CARTESIAN_POINT('',(0.,0.,2.0860073181));
#560 = DIRECTION('',(-0.,-0.,-1.));
#561 = DIRECTION('',(1.,0.,-0.));
#562 = DEFINITIONAL_REPRESENTATION('',(#563),#571);
#563 = B_SPLINE_CURVE_WITH_KNOTS('',6,(#564,#565,#566,#567,#568,#569,
    #570),.UNSPECIFIED.,.F.,.F.,(7,7),(3.726162808873E-16,0.549306144334
    ),.PIECEWISE_BEZIER_KNOTS.);
#564 = CARTESIAN_POINT('',(-4.712388980385,-0.1139926819));
#565 = CARTESIAN_POINT('',(-4.620837956329,-0.1139926819));
#566 = CARTESIAN_POINT('',(-4.529287359402,-0.106581405762));
#567 = CARTESIAN_POINT('',(-4.439115014487,-9.175887618223E-02));
#568 = CARTESIAN_POINT('',(-4.35171619397,-6.933866299925E-02));
#569 = CARTESIAN_POINT('',(-4.268075717361,-3.894822995411E-02));
#570 = CARTESIAN_POINT('',(-4.188790204786,1.407706387492E-16));
#571 = ( GEOMETRIC_REPRESENTATION_CONTEXT(2) 
PARAMETRIC_REPRESENTATION_CONTEXT() REPRESENTATION_CONTEXT('2D SPACE',''
  ) );
#572 = ORIENTED_EDGE('',*,*,#573,.F.);
#573 = EDGE_CURVE('',#344,#541,#574,.T.);
#574 = SURFACE_CURVE('',#575,(#580,#587),.PCURVE_S1.);
#575 = HYPERBOLA('',#576,0.736860279186,2.75);
#576 = AXIS2_PLACEMENT_3D('',#577,#578,#579);
#577 = CARTESIAN_POINT('',(-1.922962686384E-15,-2.75,2.936860279186));
#578 = DIRECTION('',(6.992591586849E-16,1.,0.));
#579 = DIRECTION('',(0.,-0.,-1.));
#580 = PCURVE('',#100,#581);
#581 = DEFINITIONAL_REPRESENTATION('',(#582),#586);
#582 = HYPERBOLA('',#583,0.736860279186,2.75);
#583 = AXIS2_PLACEMENT_2D('',#584,#585);
#584 = CARTESIAN_POINT('',(1.587713240271,-2.936860279186));
#585 = DIRECTION('',(0.,1.));
#586 = ( GEOMETRIC_REPRESENTATION_CONTEXT(2) 
PARAMETRIC_REPRESENTATION_CONTEXT() REPRESENTATION_CONTEXT('2D SPACE',''
  ) );
#587 = PCURVE('',#383,#588);
#588 = DEFINITIONAL_REPRESENTATION('',(#589),#597);
#589 = B_SPLINE_CURVE_WITH_KNOTS('',6,(#590,#591,#592,#593,#594,#595,
    #596),.UNSPECIFIED.,.F.,.F.,(7,7),(-0.549306144334,
    3.726162808873E-16),.PIECEWISE_BEZIER_KNOTS.);
#590 = CARTESIAN_POINT('',(-5.235987755983,-1.110223024625E-16));
#591 = CARTESIAN_POINT('',(-5.156702243408,-3.894822995411E-02));
#592 = CARTESIAN_POINT('',(-5.073061766799,-6.933866299925E-02));
#593 = CARTESIAN_POINT('',(-4.985662946283,-9.175887618223E-02));
#594 = CARTESIAN_POINT('',(-4.895490601367,-0.106581405762));
#595 = CARTESIAN_POINT('',(-4.80394000444,-0.1139926819));
#596 = CARTESIAN_POINT('',(-4.712388980385,-0.1139926819));
#597 = ( GEOMETRIC_REPRESENTATION_CONTEXT(2) 
PARAMETRIC_REPRESENTATION_CONTEXT() REPRESENTATION_CONTEXT('2D SPACE',''
  ) );
#598 = ORIENTED_EDGE('',*,*,#343,.F.);
#599 = ADVANCED_FACE('',(#600),#156,.F.);
#600 = FACE_BOUND('',#601,.F.);
#601 = EDGE_LOOP('',(#602,#603,#604,#632,#665));
#602 = ORIENTED_EDGE('',*,*,#140,.F.);
#603 = ORIENTED_EDGE('',*,*,#492,.T.);
#604 = ORIENTED_EDGE('',*,*,#605,.F.);
#605 = EDGE_CURVE('',#606,#460,#608,.T.);
#606 = VERTEX_POINT('',#607);
#607 = CARTESIAN_POINT('',(-2.381569853846,1.375000011364,2.2));
#608 = SURFACE_CURVE('',#609,(#614,#621),.PCURVE_S1.);
#609 = HYPERBOLA('',#610,0.736860279186,2.75);
#610 = AXIS2_PLACEMENT_3D('',#611,#612,#613);
#611 = CARTESIAN_POINT('',(-2.381569860407,1.375,2.936860279186));
#612 = DIRECTION('',(0.866025403784,-0.5,0.));
#613 = DIRECTION('',(0.,-0.,-1.));
#614 = PCURVE('',#156,#615);
#615 = DEFINITIONAL_REPRESENTATION('',(#616),#620);
#616 = HYPERBOLA('',#617,0.736860279186,2.75);
#617 = AXIS2_PLACEMENT_2D('',#618,#619);
#618 = CARTESIAN_POINT('',(1.587713240271,-2.936860279186));
#619 = DIRECTION('',(-0.,1.));
#620 = ( GEOMETRIC_REPRESENTATION_CONTEXT(2) 
PARAMETRIC_REPRESENTATION_CONTEXT() REPRESENTATION_CONTEXT('2D SPACE',''
  ) );
#621 = PCURVE('',#476,#622);
#622 = DEFINITIONAL_REPRESENTATION('',(#623),#631);
#623 = B_SPLINE_CURVE_WITH_KNOTS('',6,(#624,#625,#626,#627,#628,#629,
    #630),.UNSPECIFIED.,.F.,.F.,(7,7),(2.79703663474E-16,0.549306144334)
  ,.PIECEWISE_BEZIER_KNOTS.);
#624 = CARTESIAN_POINT('',(-2.617993877991,-0.1139926819));
#625 = CARTESIAN_POINT('',(-2.526442853936,-0.1139926819));
#626 = CARTESIAN_POINT('',(-2.434892257009,-0.106581405762));
#627 = CARTESIAN_POINT('',(-2.344719912093,-9.175887618223E-02));
#628 = CARTESIAN_POINT('',(-2.257321091577,-6.933866299925E-02));
#629 = CARTESIAN_POINT('',(-2.173680614968,-3.894822995411E-02));
#630 = CARTESIAN_POINT('',(-2.094395102393,0.));
#631 = ( GEOMETRIC_REPRESENTATION_CONTEXT(2) 
PARAMETRIC_REPRESENTATION_CONTEXT() REPRESENTATION_CONTEXT('2D SPACE',''
  ) );
#632 = ORIENTED_EDGE('',*,*,#633,.F.);
#633 = EDGE_CURVE('',#634,#606,#636,.T.);
#634 = VERTEX_POINT('',#635);
#635 = CARTESIAN_POINT('',(-3.175426480543,-7.99909627033E-14,
    2.0860073181));
#636 = SURFACE_CURVE('',#637,(#642,#649),.PCURVE_S1.);
#637 = HYPERBOLA('',#638,0.736860279186,2.75);
#638 = AXIS2_PLACEMENT_3D('',#639,#640,#641);
#639 = CARTESIAN_POINT('',(-2.381569860407,1.375,2.936860279186));
#640 = DIRECTION('',(0.866025403784,-0.5,0.));
#641 = DIRECTION('',(0.,-0.,-1.));
#642 = PCURVE('',#156,#643);
#643 = DEFINITIONAL_REPRESENTATION('',(#644),#648);
#644 = HYPERBOLA('',#645,0.736860279186,2.75);
#645 = AXIS2_PLACEMENT_2D('',#646,#647);
#646 = CARTESIAN_POINT('',(1.587713240271,-2.936860279186));
#647 = DIRECTION('',(-0.,1.));
#648 = ( GEOMETRIC_REPRESENTATION_CONTEXT(2) 
PARAMETRIC_REPRESENTATION_CONTEXT() REPRESENTATION_CONTEXT('2D SPACE',''
  ) );
#649 = PCURVE('',#650,#655);
#650 = CONICAL_SURFACE('',#651,3.175426480543,1.308996938996);
#651 = AXIS2_PLACEMENT_3D('',#652,#653,#654);
#652 = CARTESIAN_POINT('',(0.,0.,2.0860073181));
#653 = DIRECTION('',(-0.,-0.,-1.));
#654 = DIRECTION('',(1.,0.,-0.));
#655 = DEFINITIONAL_REPRESENTATION('',(#656),#664);
#656 = B_SPLINE_CURVE_WITH_KNOTS('',6,(#657,#658,#659,#660,#661,#662,
    #663),.UNSPECIFIED.,.F.,.F.,(7,7),(-0.549306144334,2.79703663474E-16
    ),.PIECEWISE_BEZIER_KNOTS.);
#657 = CARTESIAN_POINT('',(-3.14159265359,0.));
#658 = CARTESIAN_POINT('',(-3.062307141015,-3.894822995411E-02));
#659 = CARTESIAN_POINT('',(-2.978666664406,-6.933866299925E-02));
#660 = CARTESIAN_POINT('',(-2.891267843889,-9.175887618223E-02));
#661 = CARTESIAN_POINT('',(-2.801095498974,-0.106581405762));
#662 = CARTESIAN_POINT('',(-2.709544902047,-0.1139926819));
#663 = CARTESIAN_POINT('',(-2.617993877991,-0.1139926819));
#664 = ( GEOMETRIC_REPRESENTATION_CONTEXT(2) 
PARAMETRIC_REPRESENTATION_CONTEXT() REPRESENTATION_CONTEXT('2D SPACE',''
  ) );
#665 = ORIENTED_EDGE('',*,*,#666,.F.);
#666 = EDGE_CURVE('',#113,#634,#667,.T.);
#667 = SURFACE_CURVE('',#668,(#672,#679),.PCURVE_S1.);
#668 = LINE('',#669,#670);
#669 = CARTESIAN_POINT('',(-3.175426480543,3.888775875325E-16,0.));
#670 = VECTOR('',#671,1.);
#671 = DIRECTION('',(0.,0.,1.));
#672 = PCURVE('',#156,#673);
#673 = DEFINITIONAL_REPRESENTATION('',(#674),#678);
#674 = LINE('',#675,#676);
#675 = CARTESIAN_POINT('',(3.175426480543,0.));
#676 = VECTOR('',#677,1.);
#677 = DIRECTION('',(0.,-1.));
#678 = ( GEOMETRIC_REPRESENTATION_CONTEXT(2) 
PARAMETRIC_REPRESENTATION_CONTEXT() REPRESENTATION_CONTEXT('2D SPACE',''
  ) );
#679 = PCURVE('',#128,#680);
#680 = DEFINITIONAL_REPRESENTATION('',(#681),#685);
#681 = LINE('',#682,#683);
#682 = CARTESIAN_POINT('',(0.,0.));
#683 = VECTOR('',#684,1.);
#684 = DIRECTION('',(0.,-1.));
#685 = ( GEOMETRIC_REPRESENTATION_CONTEXT(2) 
PARAMETRIC_REPRESENTATION_CONTEXT() REPRESENTATION_CONTEXT('2D SPACE',''
  ) );
#686 = ADVANCED_FACE('',(#687),#128,.F.);
#687 = FACE_BOUND('',#688,.F.);
#688 = EDGE_LOOP('',(#689,#690,#691,#719,#745));
#689 = ORIENTED_EDGE('',*,*,#112,.F.);
#690 = ORIENTED_EDGE('',*,*,#666,.T.);
#691 = ORIENTED_EDGE('',*,*,#692,.F.);
#692 = EDGE_CURVE('',#693,#634,#695,.T.);
#693 = VERTEX_POINT('',#694);
#694 = CARTESIAN_POINT('',(-2.381569853846,-1.375000011364,2.2));
#695 = SURFACE_CURVE('',#696,(#701,#708),.PCURVE_S1.);
#696 = HYPERBOLA('',#697,0.736860279186,2.75);
#697 = AXIS2_PLACEMENT_3D('',#698,#699,#700);
#698 = CARTESIAN_POINT('',(-2.381569860407,-1.375,2.936860279186));
#699 = DIRECTION('',(0.866025403784,0.5,0.));
#700 = DIRECTION('',(0.,-0.,-1.));
#701 = PCURVE('',#128,#702);
#702 = DEFINITIONAL_REPRESENTATION('',(#703),#707);
#703 = HYPERBOLA('',#704,0.736860279186,2.75);
#704 = AXIS2_PLACEMENT_2D('',#705,#706);
#705 = CARTESIAN_POINT('',(1.587713240271,-2.936860279186));
#706 = DIRECTION('',(0.,1.));
#707 = ( GEOMETRIC_REPRESENTATION_CONTEXT(2) 
PARAMETRIC_REPRESENTATION_CONTEXT() REPRESENTATION_CONTEXT('2D SPACE',''
  ) );
#708 = PCURVE('',#650,#709);
#709 = DEFINITIONAL_REPRESENTATION('',(#710),#718);
#710 = B_SPLINE_CURVE_WITH_KNOTS('',6,(#711,#712,#713,#714,#715,#716,
    #717),.UNSPECIFIED.,.F.,.F.,(7,7),(0.,0.549306144334),
  .PIECEWISE_BEZIER_KNOTS.);
#711 = CARTESIAN_POINT('',(-3.665191429188,-0.1139926819));
#712 = CARTESIAN_POINT('',(-3.573640405132,-0.1139926819));
#713 = CARTESIAN_POINT('',(-3.482089808206,-0.106581405762));
#714 = CARTESIAN_POINT('',(-3.39191746329,-9.175887618222E-02));
#715 = CARTESIAN_POINT('',(-3.304518642773,-6.933866299925E-02));
#716 = CARTESIAN_POINT('',(-3.220878166164,-3.894822995411E-02));
#717 = CARTESIAN_POINT('',(-3.14159265359,0.));
#718 = ( GEOMETRIC_REPRESENTATION_CONTEXT(2) 
PARAMETRIC_REPRESENTATION_CONTEXT() REPRESENTATION_CONTEXT('2D SPACE',''
  ) );
#719 = ORIENTED_EDGE('',*,*,#720,.F.);
#720 = EDGE_CURVE('',#518,#693,#721,.T.);
#721 = SURFACE_CURVE('',#722,(#727,#734),.PCURVE_S1.);
#722 = HYPERBOLA('',#723,0.736860279186,2.75);
#723 = AXIS2_PLACEMENT_3D('',#724,#725,#726);
#724 = CARTESIAN_POINT('',(-2.381569860407,-1.375,2.936860279186));
#725 = DIRECTION('',(0.866025403784,0.5,0.));
#726 = DIRECTION('',(0.,-0.,-1.));
#727 = PCURVE('',#128,#728);
#728 = DEFINITIONAL_REPRESENTATION('',(#729),#733);
#729 = HYPERBOLA('',#730,0.736860279186,2.75);
#730 = AXIS2_PLACEMENT_2D('',#731,#732);
#731 = CARTESIAN_POINT('',(1.587713240271,-2.936860279186));
#732 = DIRECTION('',(0.,1.));
#733 = ( GEOMETRIC_REPRESENTATION_CONTEXT(2) 
PARAMETRIC_REPRESENTATION_CONTEXT() REPRESENTATION_CONTEXT('2D SPACE',''
  ) );
#734 = PCURVE('',#557,#735);
#735 = DEFINITIONAL_REPRESENTATION('',(#736),#744);
#736 = B_SPLINE_CURVE_WITH_KNOTS('',6,(#737,#738,#739,#740,#741,#742,
    #743),.UNSPECIFIED.,.F.,.F.,(7,7),(-0.549306144334,0.),
  .PIECEWISE_BEZIER_KNOTS.);
#737 = CARTESIAN_POINT('',(-4.188790204786,-4.440892098501E-16));
#738 = CARTESIAN_POINT('',(-4.109504692212,-3.894822995411E-02));
#739 = CARTESIAN_POINT('',(-4.025864215603,-6.933866299925E-02));
#740 = CARTESIAN_POINT('',(-3.938465395086,-9.175887618223E-02));
#741 = CARTESIAN_POINT('',(-3.848293050171,-0.106581405762));
#742 = CARTESIAN_POINT('',(-3.756742453244,-0.1139926819));
#743 = CARTESIAN_POINT('',(-3.665191429188,-0.1139926819));
#744 = ( GEOMETRIC_REPRESENTATION_CONTEXT(2) 
PARAMETRIC_REPRESENTATION_CONTEXT() REPRESENTATION_CONTEXT('2D SPACE',''
  ) );
#745 = ORIENTED_EDGE('',*,*,#517,.F.);
#746 = ADVANCED_FACE('',(#747),#213,.T.);
#747 = FACE_BOUND('',#748,.F.);
#748 = EDGE_LOOP('',(#749,#772,#773,#774));
#749 = ORIENTED_EDGE('',*,*,#750,.T.);
#750 = EDGE_CURVE('',#751,#197,#753,.T.);
#751 = VERTEX_POINT('',#752);
#752 = CARTESIAN_POINT('',(1.229367061317,0.,-10.));
#753 = SEAM_CURVE('',#754,(#758,#765),.PCURVE_S1.);
#754 = LINE('',#755,#756);
#755 = CARTESIAN_POINT('',(1.229367061317,0.,-10.));
#756 = VECTOR('',#757,1.);
#757 = DIRECTION('',(0.,0.,1.));
#758 = PCURVE('',#213,#759);
#759 = DEFINITIONAL_REPRESENTATION('',(#760),#764);
#760 = LINE('',#761,#762);
#761 = CARTESIAN_POINT('',(-0.,0.));
#762 = VECTOR('',#763,1.);
#763 = DIRECTION('',(-0.,-1.));
#764 = ( GEOMETRIC_REPRESENTATION_CONTEXT(2) 
PARAMETRIC_REPRESENTATION_CONTEXT() REPRESENTATION_CONTEXT('2D SPACE',''
  ) );
#765 = PCURVE('',#213,#766);
#766 = DEFINITIONAL_REPRESENTATION('',(#767),#771);
#767 = LINE('',#768,#769);
#768 = CARTESIAN_POINT('',(-6.28318530718,0.));
#769 = VECTOR('',#770,1.);
#770 = DIRECTION('',(-0.,-1.));
#771 = ( GEOMETRIC_REPRESENTATION_CONTEXT(2) 
PARAMETRIC_REPRESENTATION_CONTEXT() REPRESENTATION_CONTEXT('2D SPACE',''
  ) );
#772 = ORIENTED_EDGE('',*,*,#196,.T.);
#773 = ORIENTED_EDGE('',*,*,#750,.F.);
#774 = ORIENTED_EDGE('',*,*,#775,.F.);
#775 = EDGE_CURVE('',#751,#751,#776,.T.);
#776 = SURFACE_CURVE('',#777,(#782,#789),.PCURVE_S1.);
#777 = CIRCLE('',#778,1.229367061317);
#778 = AXIS2_PLACEMENT_3D('',#779,#780,#781);
#779 = CARTESIAN_POINT('',(0.,0.,-10.));
#780 = DIRECTION('',(0.,0.,1.));
#781 = DIRECTION('',(1.,0.,0.));
#782 = PCURVE('',#213,#783);
#783 = DEFINITIONAL_REPRESENTATION('',(#784),#788);
#784 = LINE('',#785,#786);
#785 = CARTESIAN_POINT('',(-0.,0.));
#786 = VECTOR('',#787,1.);
#787 = DIRECTION('',(-1.,0.));
#788 = ( GEOMETRIC_REPRESENTATION_CONTEXT(2) 
PARAMETRIC_REPRESENTATION_CONTEXT() REPRESENTATION_CONTEXT('2D SPACE',''
  ) );
#789 = PCURVE('',#790,#795);
#790 = PLANE('',#791);
#791 = AXIS2_PLACEMENT_3D('',#792,#793,#794);
#792 = CARTESIAN_POINT('',(-1.390390404508E-16,1.933483900477E-17,-10.)
  );
#793 = DIRECTION('',(0.,0.,1.));
#794 = DIRECTION('',(1.,0.,-0.));
#795 = DEFINITIONAL_REPRESENTATION('',(#796),#800);
#796 = CIRCLE('',#797,1.229367061317);
#797 = AXIS2_PLACEMENT_2D('',#798,#799);
#798 = CARTESIAN_POINT('',(1.390390404508E-16,-1.933483900477E-17));
#799 = DIRECTION('',(1.,0.));
#800 = ( GEOMETRIC_REPRESENTATION_CONTEXT(2) 
PARAMETRIC_REPRESENTATION_CONTEXT() REPRESENTATION_CONTEXT('2D SPACE',''
  ) );
#801 = ADVANCED_FACE('',(#802),#302,.T.);
#802 = FACE_BOUND('',#803,.T.);
#803 = EDGE_LOOP('',(#804,#805,#806));
#804 = ORIENTED_EDGE('',*,*,#285,.F.);
#805 = ORIENTED_EDGE('',*,*,#431,.F.);
#806 = ORIENTED_EDGE('',*,*,#807,.F.);
#807 = EDGE_CURVE('',#253,#432,#808,.T.);
#808 = SURFACE_CURVE('',#809,(#814,#821),.PCURVE_S1.);
#809 = CIRCLE('',#810,2.75);
#810 = AXIS2_PLACEMENT_3D('',#811,#812,#813);
#811 = CARTESIAN_POINT('',(0.,0.,2.2));
#812 = DIRECTION('',(0.,0.,1.));
#813 = DIRECTION('',(1.,0.,-0.));
#814 = PCURVE('',#302,#815);
#815 = DEFINITIONAL_REPRESENTATION('',(#816),#820);
#816 = LINE('',#817,#818);
#817 = CARTESIAN_POINT('',(-0.,-0.1139926819));
#818 = VECTOR('',#819,1.);
#819 = DIRECTION('',(-1.,-0.));
#820 = ( GEOMETRIC_REPRESENTATION_CONTEXT(2) 
PARAMETRIC_REPRESENTATION_CONTEXT() REPRESENTATION_CONTEXT('2D SPACE',''
  ) );
#821 = PCURVE('',#822,#827);
#822 = PLANE('',#823);
#823 = AXIS2_PLACEMENT_3D('',#824,#825,#826);
#824 = CARTESIAN_POINT('',(0.,0.,2.2));
#825 = DIRECTION('',(0.,0.,1.));
#826 = DIRECTION('',(1.,0.,-0.));
#827 = DEFINITIONAL_REPRESENTATION('',(#828),#832);
#828 = CIRCLE('',#829,2.75);
#829 = AXIS2_PLACEMENT_2D('',#830,#831);
#830 = CARTESIAN_POINT('',(0.,0.));
#831 = DIRECTION('',(1.,0.));
#832 = ( GEOMETRIC_REPRESENTATION_CONTEXT(2) 
PARAMETRIC_REPRESENTATION_CONTEXT() REPRESENTATION_CONTEXT('2D SPACE',''
  ) );
#833 = ADVANCED_FACE('',(#834),#269,.T.);
#834 = FACE_BOUND('',#835,.T.);
#835 = EDGE_LOOP('',(#836,#862,#863));
#836 = ORIENTED_EDGE('',*,*,#837,.T.);
#837 = EDGE_CURVE('',#253,#367,#838,.T.);
#838 = SURFACE_CURVE('',#839,(#844,#851),.PCURVE_S1.);
#839 = CIRCLE('',#840,2.75);
#840 = AXIS2_PLACEMENT_3D('',#841,#842,#843);
#841 = CARTESIAN_POINT('',(0.,0.,2.2));
#842 = DIRECTION('',(0.,0.,-1.));
#843 = DIRECTION('',(0.866025401399,0.500000004133,0.));
#844 = PCURVE('',#269,#845);
#845 = DEFINITIONAL_REPRESENTATION('',(#846),#850);
#846 = LINE('',#847,#848);
#847 = CARTESIAN_POINT('',(-6.80678408755,-0.1139926819));
#848 = VECTOR('',#849,1.);
#849 = DIRECTION('',(1.,-0.));
#850 = ( GEOMETRIC_REPRESENTATION_CONTEXT(2) 
PARAMETRIC_REPRESENTATION_CONTEXT() REPRESENTATION_CONTEXT('2D SPACE',''
  ) );
#851 = PCURVE('',#822,#852);
#852 = DEFINITIONAL_REPRESENTATION('',(#853),#861);
#853 = ( BOUNDED_CURVE() B_SPLINE_CURVE(2,(#854,#855,#856,#857,#858,#859
,#860),.UNSPECIFIED.,.T.,.F.) B_SPLINE_CURVE_WITH_KNOTS((1,2,2,2,2,1),(
    -2.094395102393,0.,2.094395102393,4.188790204786,6.28318530718,
8.377580409573),.UNSPECIFIED.) CURVE() GEOMETRIC_REPRESENTATION_ITEM() 
RATIONAL_B_SPLINE_CURVE((1.,0.5,1.,0.5,1.,0.5,1.)) REPRESENTATION_ITEM(
  '') );
#854 = CARTESIAN_POINT('',(2.381569853846,1.375000011364));
#855 = CARTESIAN_POINT('',(4.763139733937,-2.749999977271));
#856 = CARTESIAN_POINT('',(1.312253176756E-08,-2.75));
#857 = CARTESIAN_POINT('',(-4.763139707692,-2.750000022729));
#858 = CARTESIAN_POINT('',(-2.381569866968,1.374999988636));
#859 = CARTESIAN_POINT('',(-2.624506705594E-08,5.5));
#860 = CARTESIAN_POINT('',(2.381569853846,1.375000011364));
#861 = ( GEOMETRIC_REPRESENTATION_CONTEXT(2) 
PARAMETRIC_REPRESENTATION_CONTEXT() REPRESENTATION_CONTEXT('2D SPACE',''
  ) );
#862 = ORIENTED_EDGE('',*,*,#399,.F.);
#863 = ORIENTED_EDGE('',*,*,#252,.F.);
#864 = ADVANCED_FACE('',(#865),#383,.T.);
#865 = FACE_BOUND('',#866,.T.);
#866 = EDGE_LOOP('',(#867,#868,#869));
#867 = ORIENTED_EDGE('',*,*,#573,.F.);
#868 = ORIENTED_EDGE('',*,*,#366,.F.);
#869 = ORIENTED_EDGE('',*,*,#870,.F.);
#870 = EDGE_CURVE('',#541,#367,#871,.T.);
#871 = SURFACE_CURVE('',#872,(#877,#884),.PCURVE_S1.);
#872 = CIRCLE('',#873,2.75);
#873 = AXIS2_PLACEMENT_3D('',#874,#875,#876);
#874 = CARTESIAN_POINT('',(0.,0.,2.2));
#875 = DIRECTION('',(0.,0.,1.));
#876 = DIRECTION('',(1.,0.,-0.));
#877 = PCURVE('',#383,#878);
#878 = DEFINITIONAL_REPRESENTATION('',(#879),#883);
#879 = LINE('',#880,#881);
#880 = CARTESIAN_POINT('',(-0.,-0.1139926819));
#881 = VECTOR('',#882,1.);
#882 = DIRECTION('',(-1.,-0.));
#883 = ( GEOMETRIC_REPRESENTATION_CONTEXT(2) 
PARAMETRIC_REPRESENTATION_CONTEXT() REPRESENTATION_CONTEXT('2D SPACE',''
  ) );
#884 = PCURVE('',#822,#885);
#885 = DEFINITIONAL_REPRESENTATION('',(#886),#890);
#886 = CIRCLE('',#887,2.75);
#887 = AXIS2_PLACEMENT_2D('',#888,#889);
#888 = CARTESIAN_POINT('',(0.,0.));
#889 = DIRECTION('',(1.,0.));
#890 = ( GEOMETRIC_REPRESENTATION_CONTEXT(2) 
PARAMETRIC_REPRESENTATION_CONTEXT() REPRESENTATION_CONTEXT('2D SPACE',''
  ) );
#891 = ADVANCED_FACE('',(#892),#476,.T.);
#892 = FACE_BOUND('',#893,.T.);
#893 = EDGE_LOOP('',(#894,#895,#896));
#894 = ORIENTED_EDGE('',*,*,#459,.F.);
#895 = ORIENTED_EDGE('',*,*,#605,.F.);
#896 = ORIENTED_EDGE('',*,*,#897,.F.);
#897 = EDGE_CURVE('',#432,#606,#898,.T.);
#898 = SURFACE_CURVE('',#899,(#904,#911),.PCURVE_S1.);
#899 = CIRCLE('',#900,2.75);
#900 = AXIS2_PLACEMENT_3D('',#901,#902,#903);
#901 = CARTESIAN_POINT('',(0.,0.,2.2));
#902 = DIRECTION('',(0.,0.,1.));
#903 = DIRECTION('',(1.,0.,-0.));
#904 = PCURVE('',#476,#905);
#905 = DEFINITIONAL_REPRESENTATION('',(#906),#910);
#906 = LINE('',#907,#908);
#907 = CARTESIAN_POINT('',(-0.,-0.1139926819));
#908 = VECTOR('',#909,1.);
#909 = DIRECTION('',(-1.,-0.));
#910 = ( GEOMETRIC_REPRESENTATION_CONTEXT(2) 
PARAMETRIC_REPRESENTATION_CONTEXT() REPRESENTATION_CONTEXT('2D SPACE',''
  ) );
#911 = PCURVE('',#822,#912);
#912 = DEFINITIONAL_REPRESENTATION('',(#913),#917);
#913 = CIRCLE('',#914,2.75);
#914 = AXIS2_PLACEMENT_2D('',#915,#916);
#915 = CARTESIAN_POINT('',(0.,0.));
#916 = DIRECTION('',(1.,0.));
#917 = ( GEOMETRIC_REPRESENTATION_CONTEXT(2) 
PARAMETRIC_REPRESENTATION_CONTEXT() REPRESENTATION_CONTEXT('2D SPACE',''
  ) );
#918 = ADVANCED_FACE('',(#919),#557,.T.);
#919 = FACE_BOUND('',#920,.T.);
#920 = EDGE_LOOP('',(#921,#922,#923));
#921 = ORIENTED_EDGE('',*,*,#720,.F.);
#922 = ORIENTED_EDGE('',*,*,#540,.F.);
#923 = ORIENTED_EDGE('',*,*,#924,.F.);
#924 = EDGE_CURVE('',#693,#541,#925,.T.);
#925 = SURFACE_CURVE('',#926,(#931,#938),.PCURVE_S1.);
#926 = CIRCLE('',#927,2.75);
#927 = AXIS2_PLACEMENT_3D('',#928,#929,#930);
#928 = CARTESIAN_POINT('',(0.,0.,2.2));
#929 = DIRECTION('',(0.,0.,1.));
#930 = DIRECTION('',(1.,0.,-0.));
#931 = PCURVE('',#557,#932);
#932 = DEFINITIONAL_REPRESENTATION('',(#933),#937);
#933 = LINE('',#934,#935);
#934 = CARTESIAN_POINT('',(-0.,-0.1139926819));
#935 = VECTOR('',#936,1.);
#936 = DIRECTION('',(-1.,-0.));
#937 = ( GEOMETRIC_REPRESENTATION_CONTEXT(2) 
PARAMETRIC_REPRESENTATION_CONTEXT() REPRESENTATION_CONTEXT('2D SPACE',''
  ) );
#938 = PCURVE('',#822,#939);
#939 = DEFINITIONAL_REPRESENTATION('',(#940),#944);
#940 = CIRCLE('',#941,2.75);
#941 = AXIS2_PLACEMENT_2D('',#942,#943);
#942 = CARTESIAN_POINT('',(0.,0.));
#943 = DIRECTION('',(1.,0.));
#944 = ( GEOMETRIC_REPRESENTATION_CONTEXT(2) 
PARAMETRIC_REPRESENTATION_CONTEXT() REPRESENTATION_CONTEXT('2D SPACE',''
  ) );
#945 = ADVANCED_FACE('',(#946),#650,.T.);
#946 = FACE_BOUND('',#947,.T.);
#947 = EDGE_LOOP('',(#948,#949,#950));
#948 = ORIENTED_EDGE('',*,*,#633,.F.);
#949 = ORIENTED_EDGE('',*,*,#692,.F.);
#950 = ORIENTED_EDGE('',*,*,#951,.F.);
#951 = EDGE_CURVE('',#606,#693,#952,.T.);
#952 = SURFACE_CURVE('',#953,(#958,#965),.PCURVE_S1.);
#953 = CIRCLE('',#954,2.75);
#954 = AXIS2_PLACEMENT_3D('',#955,#956,#957);
#955 = CARTESIAN_POINT('',(0.,0.,2.2));
#956 = DIRECTION('',(0.,0.,1.));
#957 = DIRECTION('',(1.,0.,-0.));
#958 = PCURVE('',#650,#959);
#959 = DEFINITIONAL_REPRESENTATION('',(#960),#964);
#960 = LINE('',#961,#962);
#961 = CARTESIAN_POINT('',(-0.,-0.1139926819));
#962 = VECTOR('',#963,1.);
#963 = DIRECTION('',(-1.,-0.));
#964 = ( GEOMETRIC_REPRESENTATION_CONTEXT(2) 
PARAMETRIC_REPRESENTATION_CONTEXT() REPRESENTATION_CONTEXT('2D SPACE',''
  ) );
#965 = PCURVE('',#822,#966);
#966 = DEFINITIONAL_REPRESENTATION('',(#967),#971);
#967 = CIRCLE('',#968,2.75);
#968 = AXIS2_PLACEMENT_2D('',#969,#970);
#969 = CARTESIAN_POINT('',(0.,0.));
#970 = DIRECTION('',(1.,0.));
#971 = ( GEOMETRIC_REPRESENTATION_CONTEXT(2) 
PARAMETRIC_REPRESENTATION_CONTEXT() REPRESENTATION_CONTEXT('2D SPACE',''
  ) );
#972 = ADVANCED_FACE('',(#973),#790,.F.);
#973 = FACE_BOUND('',#974,.F.);
#974 = EDGE_LOOP('',(#975));
#975 = ORIENTED_EDGE('',*,*,#775,.T.);
#976 = ADVANCED_FACE('',(#977),#822,.T.);
#977 = FACE_BOUND('',#978,.T.);
#978 = EDGE_LOOP('',(#979,#980,#981,#982,#983,#984));
#979 = ORIENTED_EDGE('',*,*,#837,.F.);
#980 = ORIENTED_EDGE('',*,*,#807,.T.);
#981 = ORIENTED_EDGE('',*,*,#897,.T.);
#982 = ORIENTED_EDGE('',*,*,#951,.T.);
#983 = ORIENTED_EDGE('',*,*,#924,.T.);
#984 = ORIENTED_EDGE('',*,*,#870,.T.);
#985 = ( GEOMETRIC_REPRESENTATION_CONTEXT(3) 
GLOBAL_UNCERTAINTY_ASSIGNED_CONTEXT((#989)) GLOBAL_UNIT_ASSIGNED_CONTEXT
((#986,#987,#988)) REPRESENTATION_CONTEXT('Context #1',
  '3D Context with UNIT and UNCERTAINTY') );
#986 = ( LENGTH_UNIT() NAMED_UNIT(*) SI_UNIT(.MILLI.,.METRE.) );
#987 = ( NAMED_UNIT(*) PLANE_ANGLE_UNIT() SI_UNIT($,.RADIAN.) );
#988 = ( NAMED_UNIT(*) SI_UNIT($,.STERADIAN.) SOLID_ANGLE_UNIT() );
#989 = UNCERTAINTY_MEASURE_WITH_UNIT(LENGTH_MEASURE(1.E-07),#986,
  'distance_accuracy_value','confusion accuracy');
#990 = PRODUCT_RELATED_PRODUCT_CATEGORY('part',$,(#7));
ENDSEC;
END-ISO-10303-21;
