ISO-10303-21;
HEADER;
/* Generated by software containing ST-Developer
 * from STEP Tools, Inc. (www.steptools.com) 
 */

FILE_DESCRIPTION(
/* description */ ('\X2\5B5475285F39602763215708\X0\ - A \X2\578B\X0\'),

/* implementation_level */ '2;1');

FILE_NAME(
/* name */ 
'C:\\Users\\86159\\Desktop\\P1\X2\673A68B056FE5143\X0\-\X2\9F7F8F6E8F7488C5914D7EC44EF6\X0\\\
\X2\5F39602763215708\X0\GB 893.1-86 - 42.stp',
/* time_stamp */ '2026-08-04T22:36:52+08:00',
/* author */ ('86159'),
/* organization */ (''),
/* preprocessor_version */ 'ST-DEVELOPER v18.1',
/* originating_system */ 'Autodesk Inventor 2021',
/* authorisation */ '');

FILE_SCHEMA (('AUTOMOTIVE_DESIGN { 1 0 10303 214 3 1 1 }'));
ENDSEC;

DATA;
#10=MECHANICAL_DESIGN_GEOMETRIC_PRESENTATION_REPRESENTATION('',(#13),#411);
#11=SHAPE_REPRESENTATION_RELATIONSHIP('SRR','None',#418,#12);
#12=ADVANCED_BREP_SHAPE_REPRESENTATION('',(#14),#410);
#13=STYLED_ITEM('',(#427),#14);
#14=MANIFOLD_SOLID_BREP('Solid1',#225);
#15=FACE_BOUND('',#46,.T.);
#16=FACE_BOUND('',#47,.T.);
#17=FACE_BOUND('',#49,.T.);
#18=FACE_BOUND('',#50,.T.);
#19=PLANE('',#260);
#20=PLANE('',#264);
#21=PLANE('',#271);
#22=PLANE('',#272);
#23=FACE_OUTER_BOUND('',#35,.T.);
#24=FACE_OUTER_BOUND('',#36,.T.);
#25=FACE_OUTER_BOUND('',#37,.T.);
#26=FACE_OUTER_BOUND('',#38,.T.);
#27=FACE_OUTER_BOUND('',#39,.T.);
#28=FACE_OUTER_BOUND('',#40,.T.);
#29=FACE_OUTER_BOUND('',#41,.T.);
#30=FACE_OUTER_BOUND('',#42,.T.);
#31=FACE_OUTER_BOUND('',#43,.T.);
#32=FACE_OUTER_BOUND('',#44,.T.);
#33=FACE_OUTER_BOUND('',#45,.T.);
#34=FACE_OUTER_BOUND('',#48,.T.);
#35=EDGE_LOOP('',(#145,#146,#147,#148));
#36=EDGE_LOOP('',(#149,#150,#151,#152));
#37=EDGE_LOOP('',(#153,#154,#155,#156));
#38=EDGE_LOOP('',(#157,#158,#159,#160));
#39=EDGE_LOOP('',(#161,#162,#163,#164));
#40=EDGE_LOOP('',(#165,#166,#167,#168));
#41=EDGE_LOOP('',(#169,#170,#171,#172));
#42=EDGE_LOOP('',(#173,#174,#175,#176));
#43=EDGE_LOOP('',(#177,#178,#179,#180));
#44=EDGE_LOOP('',(#181,#182,#183,#184));
#45=EDGE_LOOP('',(#185,#186,#187,#188,#189,#190,#191,#192));
#46=EDGE_LOOP('',(#193));
#47=EDGE_LOOP('',(#194));
#48=EDGE_LOOP('',(#195,#196,#197,#198,#199,#200,#201,#202));
#49=EDGE_LOOP('',(#203));
#50=EDGE_LOOP('',(#204));
#51=LINE('',#350,#65);
#52=LINE('',#356,#66);
#53=LINE('',#363,#67);
#54=LINE('',#366,#68);
#55=LINE('',#371,#69);
#56=LINE('',#377,#70);
#57=LINE('',#381,#71);
#58=LINE('',#383,#72);
#59=LINE('',#384,#73);
#60=LINE('',#389,#74);
#61=LINE('',#393,#75);
#62=LINE('',#395,#76);
#63=LINE('',#396,#77);
#64=LINE('',#401,#78);
#65=VECTOR('',#279,1.5);
#66=VECTOR('',#286,1.5);
#67=VECTOR('',#293,10.);
#68=VECTOR('',#296,10.);
#69=VECTOR('',#301,10.);
#70=VECTOR('',#308,10.);
#71=VECTOR('',#313,10.);
#72=VECTOR('',#314,10.);
#73=VECTOR('',#315,10.);
#74=VECTOR('',#320,10.);
#75=VECTOR('',#325,10.);
#76=VECTOR('',#326,10.);
#77=VECTOR('',#327,10.);
#78=VECTOR('',#332,10.);
#79=CIRCLE('',#246,1.5);
#80=CIRCLE('',#247,1.5);
#81=CIRCLE('',#249,1.5);
#82=CIRCLE('',#250,1.5);
#83=CIRCLE('',#252,19.25);
#84=CIRCLE('',#253,19.25);
#85=CIRCLE('',#255,3.);
#86=CIRCLE('',#256,3.);
#87=CIRCLE('',#258,3.);
#88=CIRCLE('',#259,3.);
#89=CIRCLE('',#262,22.25);
#90=CIRCLE('',#263,22.25);
#91=CIRCLE('',#266,3.);
#92=CIRCLE('',#267,3.);
#93=CIRCLE('',#269,3.);
#94=CIRCLE('',#270,3.);
#95=VERTEX_POINT('',#347);
#96=VERTEX_POINT('',#349);
#97=VERTEX_POINT('',#353);
#98=VERTEX_POINT('',#355);
#99=VERTEX_POINT('',#359);
#100=VERTEX_POINT('',#360);
#101=VERTEX_POINT('',#362);
#102=VERTEX_POINT('',#364);
#103=VERTEX_POINT('',#368);
#104=VERTEX_POINT('',#370);
#105=VERTEX_POINT('',#374);
#106=VERTEX_POINT('',#376);
#107=VERTEX_POINT('',#380);
#108=VERTEX_POINT('',#382);
#109=VERTEX_POINT('',#386);
#110=VERTEX_POINT('',#388);
#111=VERTEX_POINT('',#392);
#112=VERTEX_POINT('',#394);
#113=VERTEX_POINT('',#398);
#114=VERTEX_POINT('',#400);
#115=EDGE_CURVE('',#95,#95,#79,.T.);
#116=EDGE_CURVE('',#95,#96,#51,.T.);
#117=EDGE_CURVE('',#96,#96,#80,.T.);
#118=EDGE_CURVE('',#97,#97,#81,.T.);
#119=EDGE_CURVE('',#97,#98,#52,.T.);
#120=EDGE_CURVE('',#98,#98,#82,.T.);
#121=EDGE_CURVE('',#99,#100,#83,.T.);
#122=EDGE_CURVE('',#101,#100,#53,.T.);
#123=EDGE_CURVE('',#101,#102,#84,.T.);
#124=EDGE_CURVE('',#102,#99,#54,.T.);
#125=EDGE_CURVE('',#100,#103,#85,.T.);
#126=EDGE_CURVE('',#104,#103,#55,.T.);
#127=EDGE_CURVE('',#104,#101,#86,.T.);
#128=EDGE_CURVE('',#103,#105,#87,.T.);
#129=EDGE_CURVE('',#106,#105,#56,.T.);
#130=EDGE_CURVE('',#106,#104,#88,.T.);
#131=EDGE_CURVE('',#105,#107,#57,.T.);
#132=EDGE_CURVE('',#108,#107,#58,.T.);
#133=EDGE_CURVE('',#108,#106,#59,.T.);
#134=EDGE_CURVE('',#107,#109,#89,.T.);
#135=EDGE_CURVE('',#110,#109,#60,.T.);
#136=EDGE_CURVE('',#110,#108,#90,.T.);
#137=EDGE_CURVE('',#109,#111,#61,.T.);
#138=EDGE_CURVE('',#112,#111,#62,.T.);
#139=EDGE_CURVE('',#112,#110,#63,.T.);
#140=EDGE_CURVE('',#111,#113,#91,.T.);
#141=EDGE_CURVE('',#114,#113,#64,.T.);
#142=EDGE_CURVE('',#114,#112,#92,.T.);
#143=EDGE_CURVE('',#113,#99,#93,.T.);
#144=EDGE_CURVE('',#102,#114,#94,.T.);
#145=ORIENTED_EDGE('',*,*,#115,.F.);
#146=ORIENTED_EDGE('',*,*,#116,.T.);
#147=ORIENTED_EDGE('',*,*,#117,.F.);
#148=ORIENTED_EDGE('',*,*,#116,.F.);
#149=ORIENTED_EDGE('',*,*,#118,.F.);
#150=ORIENTED_EDGE('',*,*,#119,.T.);
#151=ORIENTED_EDGE('',*,*,#120,.F.);
#152=ORIENTED_EDGE('',*,*,#119,.F.);
#153=ORIENTED_EDGE('',*,*,#121,.T.);
#154=ORIENTED_EDGE('',*,*,#122,.F.);
#155=ORIENTED_EDGE('',*,*,#123,.T.);
#156=ORIENTED_EDGE('',*,*,#124,.T.);
#157=ORIENTED_EDGE('',*,*,#125,.T.);
#158=ORIENTED_EDGE('',*,*,#126,.F.);
#159=ORIENTED_EDGE('',*,*,#127,.T.);
#160=ORIENTED_EDGE('',*,*,#122,.T.);
#161=ORIENTED_EDGE('',*,*,#128,.T.);
#162=ORIENTED_EDGE('',*,*,#129,.F.);
#163=ORIENTED_EDGE('',*,*,#130,.T.);
#164=ORIENTED_EDGE('',*,*,#126,.T.);
#165=ORIENTED_EDGE('',*,*,#131,.T.);
#166=ORIENTED_EDGE('',*,*,#132,.F.);
#167=ORIENTED_EDGE('',*,*,#133,.T.);
#168=ORIENTED_EDGE('',*,*,#129,.T.);
#169=ORIENTED_EDGE('',*,*,#134,.T.);
#170=ORIENTED_EDGE('',*,*,#135,.F.);
#171=ORIENTED_EDGE('',*,*,#136,.T.);
#172=ORIENTED_EDGE('',*,*,#132,.T.);
#173=ORIENTED_EDGE('',*,*,#137,.T.);
#174=ORIENTED_EDGE('',*,*,#138,.F.);
#175=ORIENTED_EDGE('',*,*,#139,.T.);
#176=ORIENTED_EDGE('',*,*,#135,.T.);
#177=ORIENTED_EDGE('',*,*,#140,.T.);
#178=ORIENTED_EDGE('',*,*,#141,.F.);
#179=ORIENTED_EDGE('',*,*,#142,.T.);
#180=ORIENTED_EDGE('',*,*,#138,.T.);
#181=ORIENTED_EDGE('',*,*,#143,.T.);
#182=ORIENTED_EDGE('',*,*,#124,.F.);
#183=ORIENTED_EDGE('',*,*,#144,.T.);
#184=ORIENTED_EDGE('',*,*,#141,.T.);
#185=ORIENTED_EDGE('',*,*,#123,.F.);
#186=ORIENTED_EDGE('',*,*,#127,.F.);
#187=ORIENTED_EDGE('',*,*,#130,.F.);
#188=ORIENTED_EDGE('',*,*,#133,.F.);
#189=ORIENTED_EDGE('',*,*,#136,.F.);
#190=ORIENTED_EDGE('',*,*,#139,.F.);
#191=ORIENTED_EDGE('',*,*,#142,.F.);
#192=ORIENTED_EDGE('',*,*,#144,.F.);
#193=ORIENTED_EDGE('',*,*,#115,.T.);
#194=ORIENTED_EDGE('',*,*,#118,.T.);
#195=ORIENTED_EDGE('',*,*,#121,.F.);
#196=ORIENTED_EDGE('',*,*,#143,.F.);
#197=ORIENTED_EDGE('',*,*,#140,.F.);
#198=ORIENTED_EDGE('',*,*,#137,.F.);
#199=ORIENTED_EDGE('',*,*,#134,.F.);
#200=ORIENTED_EDGE('',*,*,#131,.F.);
#201=ORIENTED_EDGE('',*,*,#128,.F.);
#202=ORIENTED_EDGE('',*,*,#125,.F.);
#203=ORIENTED_EDGE('',*,*,#117,.T.);
#204=ORIENTED_EDGE('',*,*,#120,.T.);
#205=CYLINDRICAL_SURFACE('',#245,1.5);
#206=CYLINDRICAL_SURFACE('',#248,1.5);
#207=CYLINDRICAL_SURFACE('',#251,19.25);
#208=CYLINDRICAL_SURFACE('',#254,3.);
#209=CYLINDRICAL_SURFACE('',#257,3.);
#210=CYLINDRICAL_SURFACE('',#261,22.25);
#211=CYLINDRICAL_SURFACE('',#265,3.);
#212=CYLINDRICAL_SURFACE('',#268,3.);
#213=ADVANCED_FACE('',(#23),#205,.F.);
#214=ADVANCED_FACE('',(#24),#206,.F.);
#215=ADVANCED_FACE('',(#25),#207,.F.);
#216=ADVANCED_FACE('',(#26),#208,.F.);
#217=ADVANCED_FACE('',(#27),#209,.T.);
#218=ADVANCED_FACE('',(#28),#19,.T.);
#219=ADVANCED_FACE('',(#29),#210,.T.);
#220=ADVANCED_FACE('',(#30),#20,.T.);
#221=ADVANCED_FACE('',(#31),#211,.T.);
#222=ADVANCED_FACE('',(#32),#212,.F.);
#223=ADVANCED_FACE('',(#33,#15,#16),#21,.F.);
#224=ADVANCED_FACE('',(#34,#17,#18),#22,.T.);
#225=CLOSED_SHELL('',(#213,#214,#215,#216,#217,#218,#219,#220,#221,#222,
#223,#224));
#226=DERIVED_UNIT_ELEMENT(#228,1.);
#227=DERIVED_UNIT_ELEMENT(#413,3.);
#228=(
MASS_UNIT()
NAMED_UNIT(*)
SI_UNIT($,.GRAM.)
);
#229=DERIVED_UNIT((#226,#227));
#230=MEASURE_REPRESENTATION_ITEM('density measure',
POSITIVE_RATIO_MEASURE(7.85),#229);
#231=PROPERTY_DEFINITION_REPRESENTATION(#236,#233);
#232=PROPERTY_DEFINITION_REPRESENTATION(#237,#234);
#233=REPRESENTATION('material name',(#235),#410);
#234=REPRESENTATION('density',(#230),#410);
#235=DESCRIPTIVE_REPRESENTATION_ITEM('\X2\94A2FF0C8F6F\X0\','\X2\94A2FF0C8F6F\X0\');
#236=PROPERTY_DEFINITION('material property','material name',#420);
#237=PROPERTY_DEFINITION('material property','density of part',#420);
#238=DATE_TIME_ROLE('creation_date');
#239=APPLIED_DATE_AND_TIME_ASSIGNMENT(#240,#238,(#420));
#240=DATE_AND_TIME(#241,#242);
#241=CALENDAR_DATE(2020,22,1);
#242=LOCAL_TIME(0,0,0.,#243);
#243=COORDINATED_UNIVERSAL_TIME_OFFSET(0,0,.BEHIND.);
#244=AXIS2_PLACEMENT_3D('placement',#345,#273,#274);
#245=AXIS2_PLACEMENT_3D('',#346,#275,#276);
#246=AXIS2_PLACEMENT_3D('',#348,#277,#278);
#247=AXIS2_PLACEMENT_3D('',#351,#280,#281);
#248=AXIS2_PLACEMENT_3D('',#352,#282,#283);
#249=AXIS2_PLACEMENT_3D('',#354,#284,#285);
#250=AXIS2_PLACEMENT_3D('',#357,#287,#288);
#251=AXIS2_PLACEMENT_3D('',#358,#289,#290);
#252=AXIS2_PLACEMENT_3D('',#361,#291,#292);
#253=AXIS2_PLACEMENT_3D('',#365,#294,#295);
#254=AXIS2_PLACEMENT_3D('',#367,#297,#298);
#255=AXIS2_PLACEMENT_3D('',#369,#299,#300);
#256=AXIS2_PLACEMENT_3D('',#372,#302,#303);
#257=AXIS2_PLACEMENT_3D('',#373,#304,#305);
#258=AXIS2_PLACEMENT_3D('',#375,#306,#307);
#259=AXIS2_PLACEMENT_3D('',#378,#309,#310);
#260=AXIS2_PLACEMENT_3D('',#379,#311,#312);
#261=AXIS2_PLACEMENT_3D('',#385,#316,#317);
#262=AXIS2_PLACEMENT_3D('',#387,#318,#319);
#263=AXIS2_PLACEMENT_3D('',#390,#321,#322);
#264=AXIS2_PLACEMENT_3D('',#391,#323,#324);
#265=AXIS2_PLACEMENT_3D('',#397,#328,#329);
#266=AXIS2_PLACEMENT_3D('',#399,#330,#331);
#267=AXIS2_PLACEMENT_3D('',#402,#333,#334);
#268=AXIS2_PLACEMENT_3D('',#403,#335,#336);
#269=AXIS2_PLACEMENT_3D('',#404,#337,#338);
#270=AXIS2_PLACEMENT_3D('',#405,#339,#340);
#271=AXIS2_PLACEMENT_3D('',#406,#341,#342);
#272=AXIS2_PLACEMENT_3D('',#407,#343,#344);
#273=DIRECTION('axis',(0.,0.,1.));
#274=DIRECTION('refdir',(1.,0.,0.));
#275=DIRECTION('center_axis',(0.,0.,1.));
#276=DIRECTION('ref_axis',(-1.,0.,0.));
#277=DIRECTION('center_axis',(0.,0.,1.));
#278=DIRECTION('ref_axis',(-1.,0.,0.));
#279=DIRECTION('',(0.,0.,1.));
#280=DIRECTION('center_axis',(0.,0.,-1.));
#281=DIRECTION('ref_axis',(-1.,0.,0.));
#282=DIRECTION('center_axis',(0.,0.,1.));
#283=DIRECTION('ref_axis',(-1.,0.,0.));
#284=DIRECTION('center_axis',(0.,0.,1.));
#285=DIRECTION('ref_axis',(-1.,0.,0.));
#286=DIRECTION('',(0.,0.,1.));
#287=DIRECTION('center_axis',(0.,0.,-1.));
#288=DIRECTION('ref_axis',(-1.,0.,0.));
#289=DIRECTION('center_axis',(0.,0.,1.));
#290=DIRECTION('ref_axis',(-0.749546124899809,0.661952118092902,0.));
#291=DIRECTION('center_axis',(0.,0.,1.));
#292=DIRECTION('ref_axis',(-0.749546124899809,0.661952118092902,0.));
#293=DIRECTION('',(0.,0.,1.));
#294=DIRECTION('center_axis',(0.,0.,-1.));
#295=DIRECTION('ref_axis',(-0.749546124899809,0.661952118092902,0.));
#296=DIRECTION('',(0.,0.,1.));
#297=DIRECTION('center_axis',(0.,0.,1.));
#298=DIRECTION('ref_axis',(0.74954612489981,0.661952118092902,0.));
#299=DIRECTION('center_axis',(0.,0.,1.));
#300=DIRECTION('ref_axis',(0.74954612489981,0.661952118092902,0.));
#301=DIRECTION('',(0.,0.,1.));
#302=DIRECTION('center_axis',(0.,0.,-1.));
#303=DIRECTION('ref_axis',(0.74954612489981,0.661952118092902,0.));
#304=DIRECTION('center_axis',(0.,0.,1.));
#305=DIRECTION('ref_axis',(0.885995288240856,-0.463694241084578,0.));
#306=DIRECTION('center_axis',(0.,0.,-1.));
#307=DIRECTION('ref_axis',(0.885995288240856,-0.463694241084578,0.));
#308=DIRECTION('',(0.,0.,1.));
#309=DIRECTION('center_axis',(0.,0.,1.));
#310=DIRECTION('ref_axis',(0.885995288240856,-0.463694241084578,0.));
#311=DIRECTION('center_axis',(0.885995288240856,-0.463694241084578,0.));
#312=DIRECTION('ref_axis',(0.,0.,-1.));
#313=DIRECTION('',(-0.463694241084578,-0.885995288240856,0.));
#314=DIRECTION('',(0.,0.,1.));
#315=DIRECTION('',(0.463694241084578,0.885995288240856,0.));
#316=DIRECTION('center_axis',(0.,0.,1.));
#317=DIRECTION('ref_axis',(9.97953280561938E-17,1.,0.));
#318=DIRECTION('center_axis',(0.,0.,-1.));
#319=DIRECTION('ref_axis',(0.34,-0.9404254356407,0.));
#320=DIRECTION('',(0.,0.,1.));
#321=DIRECTION('center_axis',(0.,0.,1.));
#322=DIRECTION('ref_axis',(0.34,-0.9404254356407,0.));
#323=DIRECTION('center_axis',(-0.885995288240856,-0.463694241084578,0.));
#324=DIRECTION('ref_axis',(0.,0.,1.));
#325=DIRECTION('',(-0.463694241084578,0.885995288240856,0.));
#326=DIRECTION('',(0.,0.,1.));
#327=DIRECTION('',(0.463694241084578,-0.885995288240856,0.));
#328=DIRECTION('center_axis',(0.,0.,1.));
#329=DIRECTION('ref_axis',(0.577112132871971,0.816664916653069,0.));
#330=DIRECTION('center_axis',(0.,0.,-1.));
#331=DIRECTION('ref_axis',(0.577112132871971,0.816664916653069,0.));
#332=DIRECTION('',(0.,0.,1.));
#333=DIRECTION('center_axis',(0.,0.,1.));
#334=DIRECTION('ref_axis',(0.577112132871971,0.816664916653069,0.));
#335=DIRECTION('center_axis',(0.,0.,1.));
#336=DIRECTION('ref_axis',(0.577112132871971,0.816664916653069,0.));
#337=DIRECTION('center_axis',(0.,0.,1.));
#338=DIRECTION('ref_axis',(0.577112132871971,0.816664916653069,0.));
#339=DIRECTION('center_axis',(0.,0.,-1.));
#340=DIRECTION('ref_axis',(0.577112132871971,0.816664916653069,0.));
#341=DIRECTION('center_axis',(0.,0.,1.));
#342=DIRECTION('ref_axis',(1.,0.,0.));
#343=DIRECTION('center_axis',(0.,0.,1.));
#344=DIRECTION('ref_axis',(1.,0.,0.));
#345=CARTESIAN_POINT('',(0.,0.,0.));
#346=CARTESIAN_POINT('Origin',(8.71745173239007,-36.6567114189281,0.));
#347=CARTESIAN_POINT('',(10.2174517323901,-36.6567114189281,0.));
#348=CARTESIAN_POINT('Origin',(8.71745173239007,-36.6567114189281,0.));
#349=CARTESIAN_POINT('',(10.2174517323901,-36.6567114189281,1.5));
#350=CARTESIAN_POINT('',(10.2174517323901,-36.6567114189281,0.));
#351=CARTESIAN_POINT('Origin',(8.71745173239007,-36.6567114189281,1.5));
#352=CARTESIAN_POINT('Origin',(-8.71745173239007,-36.6567114189281,0.));
#353=CARTESIAN_POINT('',(-7.21745173239007,-36.6567114189281,0.));
#354=CARTESIAN_POINT('Origin',(-8.71745173239007,-36.6567114189281,0.));
#355=CARTESIAN_POINT('',(-7.21745173239007,-36.6567114189281,1.5));
#356=CARTESIAN_POINT('',(-7.21745173239007,-36.6567114189281,0.));
#357=CARTESIAN_POINT('Origin',(-8.71745173239007,-36.6567114189281,1.5));
#358=CARTESIAN_POINT('Origin',(0.,-21.,0.));
#359=CARTESIAN_POINT('',(14.4287629043213,-33.7425782732884,1.5));
#360=CARTESIAN_POINT('',(-14.4287629043213,-33.7425782732884,1.5));
#361=CARTESIAN_POINT('Origin',(0.,-21.,1.5));
#362=CARTESIAN_POINT('',(-14.4287629043213,-33.7425782732884,0.));
#363=CARTESIAN_POINT('',(-14.4287629043213,-33.7425782732884,0.));
#364=CARTESIAN_POINT('',(14.4287629043213,-33.7425782732884,0.));
#365=CARTESIAN_POINT('Origin',(0.,-21.,0.));
#366=CARTESIAN_POINT('',(14.4287629043213,-33.7425782732884,0.));
#367=CARTESIAN_POINT('Origin',(-12.1801245296219,-31.7567219190097,0.));
#368=CARTESIAN_POINT('',(-10.448788131006,-34.2067166689689,1.5));
#369=CARTESIAN_POINT('Origin',(-12.1801245296219,-31.7567219190097,1.5));
#370=CARTESIAN_POINT('',(-10.448788131006,-34.2067166689689,0.));
#371=CARTESIAN_POINT('',(-10.448788131006,-34.2067166689689,0.));
#372=CARTESIAN_POINT('Origin',(-12.1801245296219,-31.7567219190097,0.));
#373=CARTESIAN_POINT('Origin',(-8.71745173239007,-36.6567114189281,0.));
#374=CARTESIAN_POINT('',(-6.0594658676675,-38.0477941421818,1.5));
#375=CARTESIAN_POINT('Origin',(-8.71745173239007,-36.6567114189281,1.5));
#376=CARTESIAN_POINT('',(-6.0594658676675,-38.0477941421818,0.));
#377=CARTESIAN_POINT('',(-6.0594658676675,-38.0477941421818,0.));
#378=CARTESIAN_POINT('Origin',(-8.71745173239007,-36.6567114189281,0.));
#379=CARTESIAN_POINT('Origin',(-6.0594658676675,-38.0477941421818,0.));
#380=CARTESIAN_POINT('',(-7.565,-40.9244659430056,1.5));
#381=CARTESIAN_POINT('',(-7.565,-40.9244659430056,1.5));
#382=CARTESIAN_POINT('',(-7.565,-40.9244659430056,0.));
#383=CARTESIAN_POINT('',(-7.565,-40.9244659430056,0.));
#384=CARTESIAN_POINT('',(-7.565,-40.9244659430056,0.));
#385=CARTESIAN_POINT('Origin',(-1.83697019872103E-15,-20.,0.));
#386=CARTESIAN_POINT('',(7.565,-40.9244659430056,1.5));
#387=CARTESIAN_POINT('Origin',(-1.83697019872103E-15,-20.,1.5));
#388=CARTESIAN_POINT('',(7.565,-40.9244659430056,0.));
#389=CARTESIAN_POINT('',(7.565,-40.9244659430056,0.));
#390=CARTESIAN_POINT('Origin',(-1.83697019872103E-15,-20.,0.));
#391=CARTESIAN_POINT('Origin',(7.565,-40.9244659430056,0.));
#392=CARTESIAN_POINT('',(6.0594658676675,-38.0477941421818,1.5));
#393=CARTESIAN_POINT('',(6.0594658676675,-38.0477941421818,1.5));
#394=CARTESIAN_POINT('',(6.0594658676675,-38.0477941421818,0.));
#395=CARTESIAN_POINT('',(6.0594658676675,-38.0477941421818,0.));
#396=CARTESIAN_POINT('',(6.0594658676675,-38.0477941421818,0.));
#397=CARTESIAN_POINT('Origin',(8.71745173239007,-36.6567114189281,0.));
#398=CARTESIAN_POINT('',(10.448788131006,-34.2067166689689,1.5));
#399=CARTESIAN_POINT('Origin',(8.71745173239007,-36.6567114189281,1.5));
#400=CARTESIAN_POINT('',(10.448788131006,-34.2067166689689,0.));
#401=CARTESIAN_POINT('',(10.448788131006,-34.2067166689689,0.));
#402=CARTESIAN_POINT('Origin',(8.71745173239007,-36.6567114189281,0.));
#403=CARTESIAN_POINT('Origin',(12.1801245296219,-31.7567219190097,0.));
#404=CARTESIAN_POINT('Origin',(12.1801245296219,-31.7567219190097,1.5));
#405=CARTESIAN_POINT('Origin',(12.1801245296219,-31.7567219190097,0.));
#406=CARTESIAN_POINT('Origin',(-0.0747523473644277,-19.9480828382706,0.));
#407=CARTESIAN_POINT('Origin',(-0.0747523473644271,-19.9480828382706,1.5));
#408=UNCERTAINTY_MEASURE_WITH_UNIT(LENGTH_MEASURE(0.01),#412,
'DISTANCE_ACCURACY_VALUE',
'Maximum model space distance between geometric entities at asserted c
onnectivities');
#409=UNCERTAINTY_MEASURE_WITH_UNIT(LENGTH_MEASURE(0.01),#412,
'DISTANCE_ACCURACY_VALUE',
'Maximum model space distance between geometric entities at asserted c
onnectivities');
#410=(
GEOMETRIC_REPRESENTATION_CONTEXT(3)
GLOBAL_UNCERTAINTY_ASSIGNED_CONTEXT((#408))
GLOBAL_UNIT_ASSIGNED_CONTEXT((#412,#414,#415))
REPRESENTATION_CONTEXT('','3D')
);
#411=(
GEOMETRIC_REPRESENTATION_CONTEXT(3)
GLOBAL_UNCERTAINTY_ASSIGNED_CONTEXT((#409))
GLOBAL_UNIT_ASSIGNED_CONTEXT((#412,#414,#415))
REPRESENTATION_CONTEXT('','3D')
);
#412=(
LENGTH_UNIT()
NAMED_UNIT(*)
SI_UNIT(.MILLI.,.METRE.)
);
#413=(
LENGTH_UNIT()
NAMED_UNIT(*)
SI_UNIT(.CENTI.,.METRE.)
);
#414=(
NAMED_UNIT(*)
PLANE_ANGLE_UNIT()
SI_UNIT($,.RADIAN.)
);
#415=(
NAMED_UNIT(*)
SI_UNIT($,.STERADIAN.)
SOLID_ANGLE_UNIT()
);
#416=SHAPE_DEFINITION_REPRESENTATION(#417,#418);
#417=PRODUCT_DEFINITION_SHAPE('',$,#420);
#418=SHAPE_REPRESENTATION('',(#244),#410);
#419=PRODUCT_DEFINITION_CONTEXT('part definition',#424,'design');
#420=PRODUCT_DEFINITION('\X2\5F39602763215708\X0\GB 893.1-86 - 42',
'\X2\5F39602763215708\X0\GB 893.1-86 - 42',#421,#419);
#421=PRODUCT_DEFINITION_FORMATION('',$,#426);
#422=PRODUCT_RELATED_PRODUCT_CATEGORY('\X2\5F39602763215708\X0\GB 893.
1-86 - 42','\X2\5F39602763215708\X0\GB 893.1-86 - 42',(#426));
#423=APPLICATION_PROTOCOL_DEFINITION('international standard',
'automotive_design',2009,#424);
#424=APPLICATION_CONTEXT(
'Core Data for Automotive Mechanical Design Process');
#425=PRODUCT_CONTEXT('part definition',#424,'mechanical');
#426=PRODUCT('\X2\5F39602763215708\X0\GB 893.1-86 - 42',
'\X2\5F39602763215708\X0\GB 893.1-86 - 42','\X2\5B5475285F39602763215708\X0\ 
- A \X2\578B\X0\',(#425));
#427=PRESENTATION_STYLE_ASSIGNMENT((#428));
#428=SURFACE_STYLE_USAGE(.BOTH.,#431);
#429=SURFACE_STYLE_RENDERING_WITH_PROPERTIES($,#435,(#430));
#430=SURFACE_STYLE_TRANSPARENT(0.);
#431=SURFACE_SIDE_STYLE('',(#432,#429));
#432=SURFACE_STYLE_FILL_AREA(#433);
#433=FILL_AREA_STYLE('',(#434));
#434=FILL_AREA_STYLE_COLOUR('',#435);
#435=COLOUR_RGB('',0.745098039215686,0.737254901960784,0.729411764705882);
ENDSEC;
END-ISO-10303-21;
