ISO-10303-21;
HEADER;
/* Generated by software containing ST-Developer
 * from STEP Tools, Inc. (www.steptools.com) 
 */

FILE_DESCRIPTION(
/* description */ (''),
/* implementation_level */ '2;1');

FILE_NAME(
/* name */ 
'C:\\Users\\86159\\Desktop\\P1\X2\673A68B056FE5143\X0\-\X2\9F7F8F6E8F7488C5914D7EC44EF6\X0\\\
680.9.1.3-1\X2\59577B52\X0\.stp',
/* time_stamp */ '2026-08-04T22:32:40+08:00',
/* author */ ('86159'),
/* organization */ (''),
/* preprocessor_version */ 'ST-DEVELOPER v18.1',
/* originating_system */ 'Autodesk Inventor 2021',
/* authorisation */ '');

FILE_SCHEMA (('AUTOMOTIVE_DESIGN { 1 0 10303 214 3 1 1 }'));
ENDSEC;

DATA;
#10=MECHANICAL_DESIGN_GEOMETRIC_PRESENTATION_REPRESENTATION('',(#13),#181);
#11=SHAPE_REPRESENTATION_RELATIONSHIP('SRR','None',#188,#12);
#12=ADVANCED_BREP_SHAPE_REPRESENTATION('',(#14),#180);
#13=STYLED_ITEM('',(#197),#14);
#14=MANIFOLD_SOLID_BREP('\X2\5B9E4F53\X0\1',#93);
#15=FACE_BOUND('',#30,.T.);
#16=FACE_BOUND('',#33,.T.);
#17=PLANE('',#118);
#18=PLANE('',#122);
#19=CYLINDRICAL_SURFACE('',#116,10.);
#20=CYLINDRICAL_SURFACE('',#124,13.5);
#21=FACE_OUTER_BOUND('',#27,.T.);
#22=FACE_OUTER_BOUND('',#28,.T.);
#23=FACE_OUTER_BOUND('',#29,.T.);
#24=FACE_OUTER_BOUND('',#31,.T.);
#25=FACE_OUTER_BOUND('',#32,.T.);
#26=FACE_OUTER_BOUND('',#34,.T.);
#27=EDGE_LOOP('',(#65,#66,#67,#68));
#28=EDGE_LOOP('',(#69,#70,#71,#72));
#29=EDGE_LOOP('',(#73));
#30=EDGE_LOOP('',(#74));
#31=EDGE_LOOP('',(#75,#76,#77,#78));
#32=EDGE_LOOP('',(#79));
#33=EDGE_LOOP('',(#80));
#34=EDGE_LOOP('',(#81,#82,#83,#84));
#35=LINE('',#160,#39);
#36=LINE('',#164,#40);
#37=LINE('',#172,#41);
#38=LINE('',#177,#42);
#39=VECTOR('',#131,10.25);
#40=VECTOR('',#136,10.);
#41=VECTOR('',#147,10.25);
#42=VECTOR('',#154,13.5);
#43=CIRCLE('',#114,10.5);
#44=CIRCLE('',#115,10.);
#45=CIRCLE('',#117,10.);
#46=CIRCLE('',#119,13.5);
#47=CIRCLE('',#121,10.5);
#48=CIRCLE('',#123,13.5);
#49=VERTEX_POINT('',#157);
#50=VERTEX_POINT('',#159);
#51=VERTEX_POINT('',#163);
#52=VERTEX_POINT('',#167);
#53=VERTEX_POINT('',#170);
#54=VERTEX_POINT('',#174);
#55=EDGE_CURVE('',#49,#49,#43,.T.);
#56=EDGE_CURVE('',#49,#50,#35,.T.);
#57=EDGE_CURVE('',#50,#50,#44,.T.);
#58=EDGE_CURVE('',#50,#51,#36,.T.);
#59=EDGE_CURVE('',#51,#51,#45,.T.);
#60=EDGE_CURVE('',#52,#52,#46,.T.);
#61=EDGE_CURVE('',#53,#53,#47,.T.);
#62=EDGE_CURVE('',#53,#51,#37,.T.);
#63=EDGE_CURVE('',#54,#54,#48,.T.);
#64=EDGE_CURVE('',#54,#52,#38,.T.);
#65=ORIENTED_EDGE('',*,*,#55,.T.);
#66=ORIENTED_EDGE('',*,*,#56,.T.);
#67=ORIENTED_EDGE('',*,*,#57,.T.);
#68=ORIENTED_EDGE('',*,*,#56,.F.);
#69=ORIENTED_EDGE('',*,*,#57,.F.);
#70=ORIENTED_EDGE('',*,*,#58,.T.);
#71=ORIENTED_EDGE('',*,*,#59,.F.);
#72=ORIENTED_EDGE('',*,*,#58,.F.);
#73=ORIENTED_EDGE('',*,*,#60,.F.);
#74=ORIENTED_EDGE('',*,*,#55,.F.);
#75=ORIENTED_EDGE('',*,*,#61,.T.);
#76=ORIENTED_EDGE('',*,*,#62,.T.);
#77=ORIENTED_EDGE('',*,*,#59,.T.);
#78=ORIENTED_EDGE('',*,*,#62,.F.);
#79=ORIENTED_EDGE('',*,*,#63,.F.);
#80=ORIENTED_EDGE('',*,*,#61,.F.);
#81=ORIENTED_EDGE('',*,*,#63,.T.);
#82=ORIENTED_EDGE('',*,*,#64,.T.);
#83=ORIENTED_EDGE('',*,*,#60,.T.);
#84=ORIENTED_EDGE('',*,*,#64,.F.);
#85=CONICAL_SURFACE('',#113,10.25,0.785398163397449);
#86=CONICAL_SURFACE('',#120,10.25,0.785398163397449);
#87=ADVANCED_FACE('',(#21),#85,.F.);
#88=ADVANCED_FACE('',(#22),#19,.F.);
#89=ADVANCED_FACE('',(#23,#15),#17,.T.);
#90=ADVANCED_FACE('',(#24),#86,.F.);
#91=ADVANCED_FACE('',(#25,#16),#18,.F.);
#92=ADVANCED_FACE('',(#26),#20,.T.);
#93=CLOSED_SHELL('',(#87,#88,#89,#90,#91,#92));
#94=DERIVED_UNIT_ELEMENT(#96,1.);
#95=DERIVED_UNIT_ELEMENT(#183,3.);
#96=(
MASS_UNIT()
NAMED_UNIT(*)
SI_UNIT($,.GRAM.)
);
#97=DERIVED_UNIT((#94,#95));
#98=MEASURE_REPRESENTATION_ITEM('density measure',
POSITIVE_RATIO_MEASURE(1.),#97);
#99=PROPERTY_DEFINITION_REPRESENTATION(#104,#101);
#100=PROPERTY_DEFINITION_REPRESENTATION(#105,#102);
#101=REPRESENTATION('material name',(#103),#180);
#102=REPRESENTATION('density',(#98),#180);
#103=DESCRIPTIVE_REPRESENTATION_ITEM('\X2\5E3889C4\X0\','\X2\5E3889C4\X0\');
#104=PROPERTY_DEFINITION('material property','material name',#190);
#105=PROPERTY_DEFINITION('material property','density of part',#190);
#106=DATE_TIME_ROLE('creation_date');
#107=APPLIED_DATE_AND_TIME_ASSIGNMENT(#108,#106,(#190));
#108=DATE_AND_TIME(#109,#110);
#109=CALENDAR_DATE(2013,14,1);
#110=LOCAL_TIME(0,0,0.,#111);
#111=COORDINATED_UNIVERSAL_TIME_OFFSET(0,0,.BEHIND.);
#112=AXIS2_PLACEMENT_3D('placement',#155,#125,#126);
#113=AXIS2_PLACEMENT_3D('',#156,#127,#128);
#114=AXIS2_PLACEMENT_3D('',#158,#129,#130);
#115=AXIS2_PLACEMENT_3D('',#161,#132,#133);
#116=AXIS2_PLACEMENT_3D('',#162,#134,#135);
#117=AXIS2_PLACEMENT_3D('',#165,#137,#138);
#118=AXIS2_PLACEMENT_3D('',#166,#139,#140);
#119=AXIS2_PLACEMENT_3D('',#168,#141,#142);
#120=AXIS2_PLACEMENT_3D('',#169,#143,#144);
#121=AXIS2_PLACEMENT_3D('',#171,#145,#146);
#122=AXIS2_PLACEMENT_3D('',#173,#148,#149);
#123=AXIS2_PLACEMENT_3D('',#175,#150,#151);
#124=AXIS2_PLACEMENT_3D('',#176,#152,#153);
#125=DIRECTION('axis',(0.,0.,1.));
#126=DIRECTION('refdir',(1.,0.,0.));
#127=DIRECTION('center_axis',(0.,0.,-1.));
#128=DIRECTION('ref_axis',(-1.,0.,0.));
#129=DIRECTION('center_axis',(0.,0.,-1.));
#130=DIRECTION('ref_axis',(-1.,0.,0.));
#131=DIRECTION('',(-0.707106781186548,8.65956056235494E-17,0.707106781186547));
#132=DIRECTION('center_axis',(0.,0.,1.));
#133=DIRECTION('ref_axis',(-1.,0.,0.));
#134=DIRECTION('center_axis',(0.,0.,1.));
#135=DIRECTION('ref_axis',(-1.,0.,0.));
#136=DIRECTION('',(0.,0.,1.));
#137=DIRECTION('center_axis',(0.,0.,-1.));
#138=DIRECTION('ref_axis',(-1.,0.,0.));
#139=DIRECTION('center_axis',(0.,0.,-1.));
#140=DIRECTION('ref_axis',(-1.,0.,0.));
#141=DIRECTION('center_axis',(0.,0.,1.));
#142=DIRECTION('ref_axis',(-1.,0.,0.));
#143=DIRECTION('center_axis',(0.,0.,1.));
#144=DIRECTION('ref_axis',(-1.,0.,0.));
#145=DIRECTION('center_axis',(0.,0.,1.));
#146=DIRECTION('ref_axis',(-1.,0.,0.));
#147=DIRECTION('',(-0.707106781186548,-8.65956056235494E-17,-0.707106781186547));
#148=DIRECTION('center_axis',(0.,0.,-1.));
#149=DIRECTION('ref_axis',(-1.,0.,0.));
#150=DIRECTION('center_axis',(0.,0.,-1.));
#151=DIRECTION('ref_axis',(-1.,0.,0.));
#152=DIRECTION('center_axis',(0.,0.,1.));
#153=DIRECTION('ref_axis',(-1.,0.,0.));
#154=DIRECTION('',(0.,0.,-1.));
#155=CARTESIAN_POINT('',(0.,0.,0.));
#156=CARTESIAN_POINT('Origin',(0.,0.,-4.75));
#157=CARTESIAN_POINT('',(10.5,-1.2858366715135E-15,-5.));
#158=CARTESIAN_POINT('Origin',(0.,0.,-5.));
#159=CARTESIAN_POINT('',(10.,1.22460635382238E-15,-4.5));
#160=CARTESIAN_POINT('',(10.25,-1.25526296912604E-15,-4.75));
#161=CARTESIAN_POINT('Origin',(0.,0.,-4.5));
#162=CARTESIAN_POINT('Origin',(0.,0.,0.));
#163=CARTESIAN_POINT('',(10.,-1.22460635382238E-15,4.5));
#164=CARTESIAN_POINT('',(10.,1.22464679914735E-15,0.));
#165=CARTESIAN_POINT('Origin',(0.,0.,4.5));
#166=CARTESIAN_POINT('Origin',(0.,0.,-5.));
#167=CARTESIAN_POINT('',(13.5,1.65327317884893E-15,-5.));
#168=CARTESIAN_POINT('Origin',(0.,0.,-5.));
#169=CARTESIAN_POINT('Origin',(0.,0.,4.75));
#170=CARTESIAN_POINT('',(10.5,1.2858366715135E-15,5.));
#171=CARTESIAN_POINT('Origin',(0.,0.,5.));
#172=CARTESIAN_POINT('',(10.25,1.25526296912604E-15,4.75));
#173=CARTESIAN_POINT('Origin',(0.,0.,5.));
#174=CARTESIAN_POINT('',(13.5,1.65327317884893E-15,5.));
#175=CARTESIAN_POINT('Origin',(0.,0.,5.));
#176=CARTESIAN_POINT('Origin',(0.,0.,0.));
#177=CARTESIAN_POINT('',(13.5,1.65327317884893E-15,0.));
#178=UNCERTAINTY_MEASURE_WITH_UNIT(LENGTH_MEASURE(0.01),#182,
'DISTANCE_ACCURACY_VALUE',
'Maximum model space distance between geometric entities at asserted c
onnectivities');
#179=UNCERTAINTY_MEASURE_WITH_UNIT(LENGTH_MEASURE(0.01),#182,
'DISTANCE_ACCURACY_VALUE',
'Maximum model space distance between geometric entities at asserted c
onnectivities');
#180=(
GEOMETRIC_REPRESENTATION_CONTEXT(3)
GLOBAL_UNCERTAINTY_ASSIGNED_CONTEXT((#178))
GLOBAL_UNIT_ASSIGNED_CONTEXT((#182,#184,#185))
REPRESENTATION_CONTEXT('','3D')
);
#181=(
GEOMETRIC_REPRESENTATION_CONTEXT(3)
GLOBAL_UNCERTAINTY_ASSIGNED_CONTEXT((#179))
GLOBAL_UNIT_ASSIGNED_CONTEXT((#182,#184,#185))
REPRESENTATION_CONTEXT('','3D')
);
#182=(
LENGTH_UNIT()
NAMED_UNIT(*)
SI_UNIT(.MILLI.,.METRE.)
);
#183=(
LENGTH_UNIT()
NAMED_UNIT(*)
SI_UNIT(.CENTI.,.METRE.)
);
#184=(
NAMED_UNIT(*)
PLANE_ANGLE_UNIT()
SI_UNIT($,.RADIAN.)
);
#185=(
NAMED_UNIT(*)
SI_UNIT($,.STERADIAN.)
SOLID_ANGLE_UNIT()
);
#186=SHAPE_DEFINITION_REPRESENTATION(#187,#188);
#187=PRODUCT_DEFINITION_SHAPE('',$,#190);
#188=SHAPE_REPRESENTATION('',(#112),#180);
#189=PRODUCT_DEFINITION_CONTEXT('part definition',#194,'design');
#190=PRODUCT_DEFINITION('680.9.1.3-1\X2\59577B52\X0\',
'680.9.1.3-1\X2\59577B52\X0\',#191,#189);
#191=PRODUCT_DEFINITION_FORMATION('',$,#196);
#192=PRODUCT_RELATED_PRODUCT_CATEGORY('680.9.1.3-1\X2\59577B52\X0\',
'680.9.1.3-1\X2\59577B52\X0\',(#196));
#193=APPLICATION_PROTOCOL_DEFINITION('international standard',
'automotive_design',2009,#194);
#194=APPLICATION_CONTEXT(
'Core Data for Automotive Mechanical Design Process');
#195=PRODUCT_CONTEXT('part definition',#194,'mechanical');
#196=PRODUCT('680.9.1.3-1\X2\59577B52\X0\','680.9.1.3-1\X2\59577B52\X0\',
$,(#195));
#197=PRESENTATION_STYLE_ASSIGNMENT((#198));
#198=SURFACE_STYLE_USAGE(.BOTH.,#199);
#199=SURFACE_SIDE_STYLE('',(#200));
#200=SURFACE_STYLE_FILL_AREA(#201);
#201=FILL_AREA_STYLE('',(#202));
#202=FILL_AREA_STYLE_COLOUR('',#203);
#203=COLOUR_RGB('',0.301960784313725,0.294117647058824,0.329411764705882);
ENDSEC;
END-ISO-10303-21;
