ISO-10303-21;
HEADER;
/* Generated by software containing ST-Developer
 * from STEP Tools, Inc. (www.steptools.com) 
 */
/* OPTION: using custom renumber hook */

FILE_DESCRIPTION(
/* description */ ('STEP AP214'),
/* implementation_level */ '2;1');

FILE_NAME(
/* name */ 'MCM01-D30-L70-E45-F45-A20-B20-G18-V18-P12-Q12',
/* time_stamp */ '2026-07-24T16:05:33+02:00',
/* author */ ('License CC BY-ND 4.0'),
/* organization */ ('CADENAS'),
/* preprocessor_version */ 'ST-DEVELOPER v20',
/* originating_system */ 'PARTsolutions',
/* authorisation */ '  ');

FILE_SCHEMA (('AUTOMOTIVE_DESIGN {1 0 10303 214 3 1 1}'));
ENDSEC;

DATA;
#10=PROPERTY_DEFINITION_REPRESENTATION(#14,#12);
#11=PROPERTY_DEFINITION_REPRESENTATION(#15,#13);
#12=REPRESENTATION('',(#16),#443);
#13=REPRESENTATION('',(#17),#443);
#14=PROPERTY_DEFINITION('pmi validation property','',#448);
#15=PROPERTY_DEFINITION('pmi validation property','',#448);
#16=VALUE_REPRESENTATION_ITEM('number of annotations',COUNT_MEASURE(0.));
#17=VALUE_REPRESENTATION_ITEM('number of views',COUNT_MEASURE(0.));
#18=SHAPE_REPRESENTATION_RELATIONSHIP('','',#253,#19);
#19=ADVANCED_BREP_SHAPE_REPRESENTATION('',(#251),#443);
#20=TOROIDAL_SURFACE('',#261,6.2,0.200000000000003);
#21=TOROIDAL_SURFACE('',#269,9.2,0.199999999999999);
#22=TOROIDAL_SURFACE('',#281,9.19999999999996,0.199999999999964);
#23=TOROIDAL_SURFACE('',#289,6.19999999999996,0.19999999999995);
#24=CYLINDRICAL_SURFACE('',#259,6.);
#25=CYLINDRICAL_SURFACE('',#267,9.);
#26=CYLINDRICAL_SURFACE('',#275,15.);
#27=CYLINDRICAL_SURFACE('',#283,9.);
#28=CYLINDRICAL_SURFACE('',#291,6.00000000000001);
#29=CONICAL_SURFACE('',#257,5.5,0.785398163397448);
#30=CONICAL_SURFACE('',#265,8.5,0.785398163397448);
#31=CONICAL_SURFACE('',#273,14.5,0.785398163397447);
#32=CONICAL_SURFACE('',#277,15.,0.785398163397447);
#33=CONICAL_SURFACE('',#285,9.,0.785398163397448);
#34=CONICAL_SURFACE('',#293,6.,0.785398163397448);
#35=ORIENTED_EDGE('',*,*,#75,.F.);
#36=ORIENTED_EDGE('',*,*,#76,.F.);
#37=ORIENTED_EDGE('',*,*,#75,.T.);
#38=ORIENTED_EDGE('',*,*,#77,.F.);
#39=ORIENTED_EDGE('',*,*,#76,.T.);
#40=ORIENTED_EDGE('',*,*,#78,.F.);
#41=ORIENTED_EDGE('',*,*,#77,.T.);
#42=ORIENTED_EDGE('',*,*,#79,.F.);
#43=ORIENTED_EDGE('',*,*,#78,.T.);
#44=ORIENTED_EDGE('',*,*,#80,.F.);
#45=ORIENTED_EDGE('',*,*,#79,.T.);
#46=ORIENTED_EDGE('',*,*,#81,.F.);
#47=ORIENTED_EDGE('',*,*,#80,.T.);
#48=ORIENTED_EDGE('',*,*,#82,.F.);
#49=ORIENTED_EDGE('',*,*,#81,.T.);
#50=ORIENTED_EDGE('',*,*,#83,.F.);
#51=ORIENTED_EDGE('',*,*,#82,.T.);
#52=ORIENTED_EDGE('',*,*,#84,.F.);
#53=ORIENTED_EDGE('',*,*,#83,.T.);
#54=ORIENTED_EDGE('',*,*,#85,.F.);
#55=ORIENTED_EDGE('',*,*,#84,.T.);
#56=ORIENTED_EDGE('',*,*,#86,.F.);
#57=ORIENTED_EDGE('',*,*,#85,.T.);
#58=ORIENTED_EDGE('',*,*,#87,.F.);
#59=ORIENTED_EDGE('',*,*,#86,.T.);
#60=ORIENTED_EDGE('',*,*,#88,.F.);
#61=ORIENTED_EDGE('',*,*,#87,.T.);
#62=ORIENTED_EDGE('',*,*,#89,.F.);
#63=ORIENTED_EDGE('',*,*,#88,.T.);
#64=ORIENTED_EDGE('',*,*,#90,.F.);
#65=ORIENTED_EDGE('',*,*,#89,.T.);
#66=ORIENTED_EDGE('',*,*,#91,.F.);
#67=ORIENTED_EDGE('',*,*,#90,.T.);
#68=ORIENTED_EDGE('',*,*,#92,.F.);
#69=ORIENTED_EDGE('',*,*,#91,.T.);
#70=ORIENTED_EDGE('',*,*,#93,.F.);
#71=ORIENTED_EDGE('',*,*,#92,.T.);
#72=ORIENTED_EDGE('',*,*,#94,.F.);
#73=ORIENTED_EDGE('',*,*,#93,.T.);
#74=ORIENTED_EDGE('',*,*,#94,.T.);
#75=EDGE_CURVE('',#95,#95,#115,.T.);
#76=EDGE_CURVE('',#96,#96,#116,.T.);
#77=EDGE_CURVE('',#97,#97,#117,.T.);
#78=EDGE_CURVE('',#98,#98,#118,.T.);
#79=EDGE_CURVE('',#99,#99,#119,.T.);
#80=EDGE_CURVE('',#100,#100,#120,.T.);
#81=EDGE_CURVE('',#101,#101,#121,.T.);
#82=EDGE_CURVE('',#102,#102,#122,.T.);
#83=EDGE_CURVE('',#103,#103,#123,.T.);
#84=EDGE_CURVE('',#104,#104,#124,.T.);
#85=EDGE_CURVE('',#105,#105,#125,.T.);
#86=EDGE_CURVE('',#106,#106,#126,.T.);
#87=EDGE_CURVE('',#107,#107,#127,.T.);
#88=EDGE_CURVE('',#108,#108,#128,.T.);
#89=EDGE_CURVE('',#109,#109,#129,.T.);
#90=EDGE_CURVE('',#110,#110,#130,.T.);
#91=EDGE_CURVE('',#111,#111,#131,.T.);
#92=EDGE_CURVE('',#112,#112,#132,.T.);
#93=EDGE_CURVE('',#113,#113,#133,.T.);
#94=EDGE_CURVE('',#114,#114,#134,.T.);
#95=VERTEX_POINT('',#383);
#96=VERTEX_POINT('',#386);
#97=VERTEX_POINT('',#389);
#98=VERTEX_POINT('',#392);
#99=VERTEX_POINT('',#395);
#100=VERTEX_POINT('',#398);
#101=VERTEX_POINT('',#401);
#102=VERTEX_POINT('',#404);
#103=VERTEX_POINT('',#407);
#104=VERTEX_POINT('',#410);
#105=VERTEX_POINT('',#413);
#106=VERTEX_POINT('',#416);
#107=VERTEX_POINT('',#419);
#108=VERTEX_POINT('',#422);
#109=VERTEX_POINT('',#425);
#110=VERTEX_POINT('',#428);
#111=VERTEX_POINT('',#431);
#112=VERTEX_POINT('',#434);
#113=VERTEX_POINT('',#437);
#114=VERTEX_POINT('',#440);
#115=CIRCLE('',#256,5.5);
#116=CIRCLE('',#258,6.);
#117=CIRCLE('',#260,6.);
#118=CIRCLE('',#262,6.2);
#119=CIRCLE('',#264,8.5);
#120=CIRCLE('',#266,9.);
#121=CIRCLE('',#268,9.);
#122=CIRCLE('',#270,9.2);
#123=CIRCLE('',#272,14.5);
#124=CIRCLE('',#274,15.);
#125=CIRCLE('',#276,15.);
#126=CIRCLE('',#278,14.5);
#127=CIRCLE('',#280,9.2);
#128=CIRCLE('',#282,9.);
#129=CIRCLE('',#284,9.);
#130=CIRCLE('',#286,8.5);
#131=CIRCLE('',#288,6.2);
#132=CIRCLE('',#290,6.00000000000001);
#133=CIRCLE('',#292,6.);
#134=CIRCLE('',#294,5.5);
#135=EDGE_LOOP('',(#35));
#136=EDGE_LOOP('',(#36));
#137=EDGE_LOOP('',(#37));
#138=EDGE_LOOP('',(#38));
#139=EDGE_LOOP('',(#39));
#140=EDGE_LOOP('',(#40));
#141=EDGE_LOOP('',(#41));
#142=EDGE_LOOP('',(#42));
#143=EDGE_LOOP('',(#43));
#144=EDGE_LOOP('',(#44));
#145=EDGE_LOOP('',(#45));
#146=EDGE_LOOP('',(#46));
#147=EDGE_LOOP('',(#47));
#148=EDGE_LOOP('',(#48));
#149=EDGE_LOOP('',(#49));
#150=EDGE_LOOP('',(#50));
#151=EDGE_LOOP('',(#51));
#152=EDGE_LOOP('',(#52));
#153=EDGE_LOOP('',(#53));
#154=EDGE_LOOP('',(#54));
#155=EDGE_LOOP('',(#55));
#156=EDGE_LOOP('',(#56));
#157=EDGE_LOOP('',(#57));
#158=EDGE_LOOP('',(#58));
#159=EDGE_LOOP('',(#59));
#160=EDGE_LOOP('',(#60));
#161=EDGE_LOOP('',(#61));
#162=EDGE_LOOP('',(#62));
#163=EDGE_LOOP('',(#63));
#164=EDGE_LOOP('',(#64));
#165=EDGE_LOOP('',(#65));
#166=EDGE_LOOP('',(#66));
#167=EDGE_LOOP('',(#67));
#168=EDGE_LOOP('',(#68));
#169=EDGE_LOOP('',(#69));
#170=EDGE_LOOP('',(#70));
#171=EDGE_LOOP('',(#71));
#172=EDGE_LOOP('',(#72));
#173=EDGE_LOOP('',(#73));
#174=EDGE_LOOP('',(#74));
#175=FACE_BOUND('',#135,.T.);
#176=FACE_BOUND('',#136,.T.);
#177=FACE_BOUND('',#137,.T.);
#178=FACE_BOUND('',#138,.T.);
#179=FACE_BOUND('',#139,.T.);
#180=FACE_BOUND('',#140,.T.);
#181=FACE_BOUND('',#141,.T.);
#182=FACE_BOUND('',#142,.T.);
#183=FACE_BOUND('',#143,.T.);
#184=FACE_BOUND('',#144,.T.);
#185=FACE_BOUND('',#145,.T.);
#186=FACE_BOUND('',#146,.T.);
#187=FACE_BOUND('',#147,.T.);
#188=FACE_BOUND('',#148,.T.);
#189=FACE_BOUND('',#149,.T.);
#190=FACE_BOUND('',#150,.T.);
#191=FACE_BOUND('',#151,.T.);
#192=FACE_BOUND('',#152,.T.);
#193=FACE_BOUND('',#153,.T.);
#194=FACE_BOUND('',#154,.T.);
#195=FACE_BOUND('',#155,.T.);
#196=FACE_BOUND('',#156,.T.);
#197=FACE_BOUND('',#157,.T.);
#198=FACE_BOUND('',#158,.T.);
#199=FACE_BOUND('',#159,.T.);
#200=FACE_BOUND('',#160,.T.);
#201=FACE_BOUND('',#161,.T.);
#202=FACE_BOUND('',#162,.T.);
#203=FACE_BOUND('',#163,.T.);
#204=FACE_BOUND('',#164,.T.);
#205=FACE_BOUND('',#165,.T.);
#206=FACE_BOUND('',#166,.T.);
#207=FACE_BOUND('',#167,.T.);
#208=FACE_BOUND('',#168,.T.);
#209=FACE_BOUND('',#169,.T.);
#210=FACE_BOUND('',#170,.T.);
#211=FACE_BOUND('',#171,.T.);
#212=FACE_BOUND('',#172,.T.);
#213=FACE_BOUND('',#173,.T.);
#214=FACE_BOUND('',#174,.T.);
#215=PLANE('',#255);
#216=PLANE('',#263);
#217=PLANE('',#271);
#218=PLANE('',#279);
#219=PLANE('',#287);
#220=PLANE('',#295);
#221=ADVANCED_FACE('',(#175),#215,.F.);
#222=ADVANCED_FACE('',(#176,#177),#29,.T.);
#223=ADVANCED_FACE('',(#178,#179),#24,.T.);
#224=ADVANCED_FACE('',(#180,#181),#20,.F.);
#225=ADVANCED_FACE('',(#182,#183),#216,.F.);
#226=ADVANCED_FACE('',(#184,#185),#30,.T.);
#227=ADVANCED_FACE('',(#186,#187),#25,.T.);
#228=ADVANCED_FACE('',(#188,#189),#21,.F.);
#229=ADVANCED_FACE('',(#190,#191),#217,.F.);
#230=ADVANCED_FACE('',(#192,#193),#31,.T.);
#231=ADVANCED_FACE('',(#194,#195),#26,.T.);
#232=ADVANCED_FACE('',(#196,#197),#32,.T.);
#233=ADVANCED_FACE('',(#198,#199),#218,.F.);
#234=ADVANCED_FACE('',(#200,#201),#22,.F.);
#235=ADVANCED_FACE('',(#202,#203),#27,.T.);
#236=ADVANCED_FACE('',(#204,#205),#33,.T.);
#237=ADVANCED_FACE('',(#206,#207),#219,.F.);
#238=ADVANCED_FACE('',(#208,#209),#23,.F.);
#239=ADVANCED_FACE('',(#210,#211),#28,.T.);
#240=ADVANCED_FACE('',(#212,#213),#34,.T.);
#241=ADVANCED_FACE('',(#214),#220,.F.);
#242=CLOSED_SHELL('',(#221,#222,#223,#224,#225,#226,#227,#228,#229,#230,
#231,#232,#233,#234,#235,#236,#237,#238,#239,#240,#241));
#243=STYLED_ITEM('',(#244),#251);
#244=PRESENTATION_STYLE_ASSIGNMENT((#245));
#245=SURFACE_STYLE_USAGE(.BOTH.,#246);
#246=SURFACE_SIDE_STYLE('',(#247));
#247=SURFACE_STYLE_FILL_AREA(#248);
#248=FILL_AREA_STYLE('',(#249));
#249=FILL_AREA_STYLE_COLOUR('',#250);
#250=COLOUR_RGB('',0.689999997615814,0.689999997615814,0.689999997615814);
#251=MANIFOLD_SOLID_BREP(
'MCM01-D30-L70-E45-F45-A20-B20-G18-V18-P12-Q12',#242);
#252=SHAPE_DEFINITION_REPRESENTATION(#448,#253);
#253=SHAPE_REPRESENTATION(
'MCM01-D30-L70-E45-F45-A20-B20-G18-V18-P12-Q12',(#254),#443);
#254=AXIS2_PLACEMENT_3D('',#380,#296,#297);
#255=AXIS2_PLACEMENT_3D('',#381,#298,#299);
#256=AXIS2_PLACEMENT_3D('',#382,#300,#301);
#257=AXIS2_PLACEMENT_3D('',#384,#302,#303);
#258=AXIS2_PLACEMENT_3D('',#385,#304,#305);
#259=AXIS2_PLACEMENT_3D('',#387,#306,#307);
#260=AXIS2_PLACEMENT_3D('',#388,#308,#309);
#261=AXIS2_PLACEMENT_3D('',#390,#310,#311);
#262=AXIS2_PLACEMENT_3D('',#391,#312,#313);
#263=AXIS2_PLACEMENT_3D('',#393,#314,#315);
#264=AXIS2_PLACEMENT_3D('',#394,#316,#317);
#265=AXIS2_PLACEMENT_3D('',#396,#318,#319);
#266=AXIS2_PLACEMENT_3D('',#397,#320,#321);
#267=AXIS2_PLACEMENT_3D('',#399,#322,#323);
#268=AXIS2_PLACEMENT_3D('',#400,#324,#325);
#269=AXIS2_PLACEMENT_3D('',#402,#326,#327);
#270=AXIS2_PLACEMENT_3D('',#403,#328,#329);
#271=AXIS2_PLACEMENT_3D('',#405,#330,#331);
#272=AXIS2_PLACEMENT_3D('',#406,#332,#333);
#273=AXIS2_PLACEMENT_3D('',#408,#334,#335);
#274=AXIS2_PLACEMENT_3D('',#409,#336,#337);
#275=AXIS2_PLACEMENT_3D('',#411,#338,#339);
#276=AXIS2_PLACEMENT_3D('',#412,#340,#341);
#277=AXIS2_PLACEMENT_3D('',#414,#342,#343);
#278=AXIS2_PLACEMENT_3D('',#415,#344,#345);
#279=AXIS2_PLACEMENT_3D('',#417,#346,#347);
#280=AXIS2_PLACEMENT_3D('',#418,#348,#349);
#281=AXIS2_PLACEMENT_3D('',#420,#350,#351);
#282=AXIS2_PLACEMENT_3D('',#421,#352,#353);
#283=AXIS2_PLACEMENT_3D('',#423,#354,#355);
#284=AXIS2_PLACEMENT_3D('',#424,#356,#357);
#285=AXIS2_PLACEMENT_3D('',#426,#358,#359);
#286=AXIS2_PLACEMENT_3D('',#427,#360,#361);
#287=AXIS2_PLACEMENT_3D('',#429,#362,#363);
#288=AXIS2_PLACEMENT_3D('',#430,#364,#365);
#289=AXIS2_PLACEMENT_3D('',#432,#366,#367);
#290=AXIS2_PLACEMENT_3D('',#433,#368,#369);
#291=AXIS2_PLACEMENT_3D('',#435,#370,#371);
#292=AXIS2_PLACEMENT_3D('',#436,#372,#373);
#293=AXIS2_PLACEMENT_3D('',#438,#374,#375);
#294=AXIS2_PLACEMENT_3D('',#439,#376,#377);
#295=AXIS2_PLACEMENT_3D('',#441,#378,#379);
#296=DIRECTION('',(0.,0.,1.));
#297=DIRECTION('',(1.,0.,0.));
#298=DIRECTION('',(0.,0.,-1.));
#299=DIRECTION('',(-1.,0.,0.));
#300=DIRECTION('',(0.,0.,-1.));
#301=DIRECTION('',(-1.,0.,0.));
#302=DIRECTION('',(0.,0.,-1.));
#303=DIRECTION('',(-1.,0.,0.));
#304=DIRECTION('',(0.,0.,-1.));
#305=DIRECTION('',(-1.,0.,0.));
#306=DIRECTION('',(0.,0.,-1.));
#307=DIRECTION('',(-1.,0.,0.));
#308=DIRECTION('',(0.,0.,-1.));
#309=DIRECTION('',(-1.,0.,0.));
#310=DIRECTION('',(0.,0.,-1.));
#311=DIRECTION('',(-1.,0.,0.));
#312=DIRECTION('',(0.,0.,-1.));
#313=DIRECTION('',(-1.,0.,0.));
#314=DIRECTION('',(0.,0.,-1.));
#315=DIRECTION('',(-1.,0.,0.));
#316=DIRECTION('',(0.,0.,-1.));
#317=DIRECTION('',(-1.,0.,0.));
#318=DIRECTION('',(0.,0.,-1.));
#319=DIRECTION('',(-1.,0.,0.));
#320=DIRECTION('',(0.,0.,-1.));
#321=DIRECTION('',(-1.,0.,0.));
#322=DIRECTION('',(0.,0.,-1.));
#323=DIRECTION('',(-1.,0.,0.));
#324=DIRECTION('',(0.,0.,-1.));
#325=DIRECTION('',(-1.,0.,0.));
#326=DIRECTION('',(0.,0.,-1.));
#327=DIRECTION('',(-1.,0.,0.));
#328=DIRECTION('',(0.,0.,-1.));
#329=DIRECTION('',(-1.,0.,0.));
#330=DIRECTION('',(0.,0.,-1.));
#331=DIRECTION('',(-1.,0.,0.));
#332=DIRECTION('',(0.,0.,-1.));
#333=DIRECTION('',(-1.,0.,0.));
#334=DIRECTION('',(0.,0.,-1.));
#335=DIRECTION('',(-1.,0.,0.));
#336=DIRECTION('',(0.,0.,-1.));
#337=DIRECTION('',(-1.,0.,0.));
#338=DIRECTION('',(0.,0.,-1.));
#339=DIRECTION('',(-1.,0.,0.));
#340=DIRECTION('',(0.,0.,-1.));
#341=DIRECTION('',(-1.,0.,0.));
#342=DIRECTION('',(0.,0.,1.));
#343=DIRECTION('',(1.,0.,0.));
#344=DIRECTION('',(0.,0.,-1.));
#345=DIRECTION('',(-1.,0.,0.));
#346=DIRECTION('',(0.,0.,1.));
#347=DIRECTION('',(1.,0.,0.));
#348=DIRECTION('',(0.,0.,-1.));
#349=DIRECTION('',(-1.,0.,0.));
#350=DIRECTION('',(0.,0.,-1.));
#351=DIRECTION('',(-1.,0.,0.));
#352=DIRECTION('',(0.,0.,-1.));
#353=DIRECTION('',(-1.,0.,0.));
#354=DIRECTION('',(0.,0.,-1.));
#355=DIRECTION('',(-1.,0.,0.));
#356=DIRECTION('',(0.,0.,-1.));
#357=DIRECTION('',(-1.,0.,0.));
#358=DIRECTION('',(0.,0.,1.));
#359=DIRECTION('',(1.,0.,0.));
#360=DIRECTION('',(0.,0.,-1.));
#361=DIRECTION('',(-1.,0.,0.));
#362=DIRECTION('',(0.,0.,1.));
#363=DIRECTION('',(1.,0.,0.));
#364=DIRECTION('',(0.,0.,-1.));
#365=DIRECTION('',(-1.,0.,0.));
#366=DIRECTION('',(0.,0.,-1.));
#367=DIRECTION('',(-1.,0.,0.));
#368=DIRECTION('',(0.,0.,-1.));
#369=DIRECTION('',(-1.,0.,0.));
#370=DIRECTION('',(0.,0.,-1.));
#371=DIRECTION('',(-1.,0.,0.));
#372=DIRECTION('',(0.,0.,-1.));
#373=DIRECTION('',(-1.,0.,0.));
#374=DIRECTION('',(0.,0.,1.));
#375=DIRECTION('',(1.,0.,0.));
#376=DIRECTION('',(0.,0.,-1.));
#377=DIRECTION('',(-1.,0.,0.));
#378=DIRECTION('',(0.,0.,1.));
#379=DIRECTION('',(1.,0.,0.));
#380=CARTESIAN_POINT('',(0.,0.,0.));
#381=CARTESIAN_POINT('',(0.,0.,45.));
#382=CARTESIAN_POINT('',(0.,0.,45.));
#383=CARTESIAN_POINT('',(-5.5,0.,45.));
#384=CARTESIAN_POINT('',(0.,0.,45.));
#385=CARTESIAN_POINT('',(0.,0.,44.5));
#386=CARTESIAN_POINT('',(-6.,0.,44.5));
#387=CARTESIAN_POINT('',(0.,0.,-210.));
#388=CARTESIAN_POINT('',(0.,0.,20.2));
#389=CARTESIAN_POINT('',(-6.,0.,20.2));
#390=CARTESIAN_POINT('',(0.,0.,20.2));
#391=CARTESIAN_POINT('',(0.,0.,20.));
#392=CARTESIAN_POINT('',(-6.2,0.,20.));
#393=CARTESIAN_POINT('',(0.,6.2,20.));
#394=CARTESIAN_POINT('',(0.,0.,20.));
#395=CARTESIAN_POINT('',(-8.5,0.,20.));
#396=CARTESIAN_POINT('',(0.,0.,20.));
#397=CARTESIAN_POINT('',(0.,0.,19.5));
#398=CARTESIAN_POINT('',(-9.,0.,19.5));
#399=CARTESIAN_POINT('',(0.,0.,-210.));
#400=CARTESIAN_POINT('',(0.,0.,0.200000000000006));
#401=CARTESIAN_POINT('',(-9.,0.,0.200000000000006));
#402=CARTESIAN_POINT('',(0.,0.,0.199999999999998));
#403=CARTESIAN_POINT('',(0.,0.,0.));
#404=CARTESIAN_POINT('',(-9.2,0.,0.));
#405=CARTESIAN_POINT('',(0.,9.2,-2.16840434497101E-16));
#406=CARTESIAN_POINT('',(0.,0.,0.));
#407=CARTESIAN_POINT('',(-14.5,0.,0.));
#408=CARTESIAN_POINT('',(0.,0.,0.));
#409=CARTESIAN_POINT('',(0.,0.,-0.5));
#410=CARTESIAN_POINT('',(-15.,0.,-0.5));
#411=CARTESIAN_POINT('',(0.,0.,-210.));
#412=CARTESIAN_POINT('',(0.,0.,-69.5));
#413=CARTESIAN_POINT('',(-15.,0.,-69.5));
#414=CARTESIAN_POINT('',(0.,0.,-69.5));
#415=CARTESIAN_POINT('',(0.,0.,-70.));
#416=CARTESIAN_POINT('',(-14.5,0.,-70.));
#417=CARTESIAN_POINT('',(0.,14.5,-70.));
#418=CARTESIAN_POINT('',(0.,0.,-70.));
#419=CARTESIAN_POINT('',(-9.2,0.,-70.));
#420=CARTESIAN_POINT('',(0.,0.,-70.2));
#421=CARTESIAN_POINT('',(0.,0.,-70.2));
#422=CARTESIAN_POINT('',(-9.,0.,-70.2));
#423=CARTESIAN_POINT('',(0.,0.,-210.));
#424=CARTESIAN_POINT('',(0.,0.,-89.5));
#425=CARTESIAN_POINT('',(-9.,0.,-89.5));
#426=CARTESIAN_POINT('',(0.,0.,-89.5));
#427=CARTESIAN_POINT('',(0.,0.,-90.));
#428=CARTESIAN_POINT('',(-8.5,0.,-90.));
#429=CARTESIAN_POINT('',(0.,8.5,-90.));
#430=CARTESIAN_POINT('',(0.,0.,-90.));
#431=CARTESIAN_POINT('',(-6.2,0.,-90.));
#432=CARTESIAN_POINT('',(0.,0.,-90.1999999999999));
#433=CARTESIAN_POINT('',(0.,0.,-90.2));
#434=CARTESIAN_POINT('',(-6.00000000000001,0.,-90.2));
#435=CARTESIAN_POINT('',(0.,0.,-210.));
#436=CARTESIAN_POINT('',(0.,0.,-114.5));
#437=CARTESIAN_POINT('',(-6.,0.,-114.5));
#438=CARTESIAN_POINT('',(0.,0.,-114.5));
#439=CARTESIAN_POINT('',(0.,0.,-115.));
#440=CARTESIAN_POINT('',(-5.5,0.,-115.));
#441=CARTESIAN_POINT('',(0.,5.5,-115.));
#442=MECHANICAL_DESIGN_GEOMETRIC_PRESENTATION_REPRESENTATION('',(#243),
#443);
#443=(
GEOMETRIC_REPRESENTATION_CONTEXT(3)
GLOBAL_UNCERTAINTY_ASSIGNED_CONTEXT((#444))
GLOBAL_UNIT_ASSIGNED_CONTEXT((#447,#446,#445))
REPRESENTATION_CONTEXT('MCM01-D30-L70-E45-F45-A20-B20-G18-V18-P12-Q12',
'TOP_LEVEL_ASSEMBLY_PART')
);
#444=UNCERTAINTY_MEASURE_WITH_UNIT(LENGTH_MEASURE(1.E-5),#447,
'DISTANCE_ACCURACY_VALUE','Maximum Tolerance applied to model');
#445=(
NAMED_UNIT(*)
SI_UNIT($,.STERADIAN.)
SOLID_ANGLE_UNIT()
);
#446=(
NAMED_UNIT(*)
PLANE_ANGLE_UNIT()
SI_UNIT($,.RADIAN.)
);
#447=(
LENGTH_UNIT()
NAMED_UNIT(*)
SI_UNIT(.MILLI.,.METRE.)
);
#448=PRODUCT_DEFINITION_SHAPE('','',#449);
#449=PRODUCT_DEFINITION('','',#451,#450);
#450=PRODUCT_DEFINITION_CONTEXT('',#457,'design');
#451=PRODUCT_DEFINITION_FORMATION_WITH_SPECIFIED_SOURCE('','',#453,
 .NOT_KNOWN.);
#452=PRODUCT_RELATED_PRODUCT_CATEGORY('','',(#453));
#453=PRODUCT('MCM01-D30-L70-E45-F45-A20-B20-G18-V18-P12-Q12',
'MCM01-D30-L70-E45-F45-A20-B20-G18-V18-P12-Q12',
'MCM01-D30-L70-E45-F45-A20-B20-G18-V18-P12-Q12',(#455));
#454=PRODUCT_CATEGORY('','');
#455=PRODUCT_CONTEXT('',#457,'mechanical');
#456=APPLICATION_PROTOCOL_DEFINITION('international standard',
'automotive_design',2010,#457);
#457=APPLICATION_CONTEXT(
'core data for automotive mechanical design processes');
ENDSEC;
END-ISO-10303-21;
