ISO-10303-21;
HEADER;
/* Generated by software containing ST-Developer
 * from STEP Tools, Inc. (www.steptools.com) 
 */
/* OPTION: using custom renumber hook */

FILE_DESCRIPTION(
/* description */ ('STEP AP214'),
/* implementation_level */ '2;1');

FILE_NAME(
/* name */ 'DBU03-D55-d20-e20',
/* time_stamp */ '2026-07-24T16:44:26+02:00',
/* author */ ('License CC BY-ND 4.0'),
/* organization */ ('CADENAS'),
/* preprocessor_version */ 'ST-DEVELOPER v20',
/* originating_system */ 'PARTsolutions',
/* authorisation */ '  ');

FILE_SCHEMA (('AUTOMOTIVE_DESIGN {1 0 10303 214 3 1 1}'));
ENDSEC;

DATA;
#10=PROPERTY_DEFINITION_REPRESENTATION(#14,#12);
#11=PROPERTY_DEFINITION_REPRESENTATION(#15,#13);
#12=REPRESENTATION('',(#16),#2072);
#13=REPRESENTATION('',(#17),#2072);
#14=PROPERTY_DEFINITION('pmi validation property','',#2085);
#15=PROPERTY_DEFINITION('pmi validation property','',#2085);
#16=VALUE_REPRESENTATION_ITEM('number of annotations',COUNT_MEASURE(0.));
#17=VALUE_REPRESENTATION_ITEM('number of views',COUNT_MEASURE(0.));
#18=DRAUGHTING_PRE_DEFINED_COLOUR('black');
#19=ADVANCED_BREP_SHAPE_REPRESENTATION('',(#1127),#2074);
#20=ADVANCED_BREP_SHAPE_REPRESENTATION('',(#1128),#2075);
#21=ADVANCED_BREP_SHAPE_REPRESENTATION('',(#1129),#2076);
#22=CONICAL_SURFACE('',#1184,3.3235,0.785398163397445);
#23=CONICAL_SURFACE('',#1187,4.,0.78539816339745);
#24=CONICAL_SURFACE('',#1279,3.3235,0.785398163397445);
#25=CONICAL_SURFACE('',#1282,3.3235,0.785398163397446);
#26=CYLINDRICAL_SURFACE('',#1172,27.5);
#27=CYLINDRICAL_SURFACE('',#1177,10.);
#28=CYLINDRICAL_SURFACE('',#1186,3.3235);
#29=CYLINDRICAL_SURFACE('',#1189,3.3235);
#30=CYLINDRICAL_SURFACE('',#1193,14.);
#31=CYLINDRICAL_SURFACE('',#1194,14.);
#32=CYLINDRICAL_SURFACE('',#1200,14.);
#33=CYLINDRICAL_SURFACE('',#1215,27.5);
#34=CYLINDRICAL_SURFACE('',#1238,3.5);
#35=CYLINDRICAL_SURFACE('',#1242,3.5);
#36=CYLINDRICAL_SURFACE('',#1246,3.5);
#37=CYLINDRICAL_SURFACE('',#1250,3.5);
#38=CYLINDRICAL_SURFACE('',#1267,27.5);
#39=CYLINDRICAL_SURFACE('',#1272,10.);
#40=CYLINDRICAL_SURFACE('',#1281,3.3235);
#41=CYLINDRICAL_SURFACE('',#1284,3.3235);
#42=CYLINDRICAL_SURFACE('',#1288,14.);
#43=CYLINDRICAL_SURFACE('',#1289,14.);
#44=LINE('',#1649,#108);
#45=LINE('',#1653,#109);
#46=LINE('',#1655,#110);
#47=LINE('',#1659,#111);
#48=LINE('',#1661,#112);
#49=LINE('',#1666,#113);
#50=LINE('',#1667,#114);
#51=LINE('',#1671,#115);
#52=LINE('',#1761,#116);
#53=LINE('',#1765,#117);
#54=LINE('',#1766,#118);
#55=LINE('',#1770,#119);
#56=LINE('',#1772,#120);
#57=LINE('',#1773,#121);
#58=LINE('',#1775,#122);
#59=LINE('',#1776,#123);
#60=LINE('',#1783,#124);
#61=LINE('',#1788,#125);
#62=LINE('',#1792,#126);
#63=LINE('',#1796,#127);
#64=LINE('',#1802,#128);
#65=LINE('',#1806,#129);
#66=LINE('',#1810,#130);
#67=LINE('',#1814,#131);
#68=LINE('',#1821,#132);
#69=LINE('',#1822,#133);
#70=LINE('',#1829,#134);
#71=LINE('',#1830,#135);
#72=LINE('',#1832,#136);
#73=LINE('',#1836,#137);
#74=LINE('',#1837,#138);
#75=LINE('',#1841,#139);
#76=LINE('',#1845,#140);
#77=LINE('',#1849,#141);
#78=LINE('',#1853,#142);
#79=LINE('',#1857,#143);
#80=LINE('',#1861,#144);
#81=LINE('',#1862,#145);
#82=LINE('',#1866,#146);
#83=LINE('',#1867,#147);
#84=LINE('',#1869,#148);
#85=LINE('',#1870,#149);
#86=LINE('',#1874,#150);
#87=LINE('',#1876,#151);
#88=LINE('',#1879,#152);
#89=LINE('',#1880,#153);
#90=LINE('',#1884,#154);
#91=LINE('',#1886,#155);
#92=LINE('',#1938,#156);
#93=LINE('',#1942,#157);
#94=LINE('',#1944,#158);
#95=LINE('',#1948,#159);
#96=LINE('',#1950,#160);
#97=LINE('',#1954,#161);
#98=LINE('',#1958,#162);
#99=LINE('',#1962,#163);
#100=LINE('',#2050,#164);
#101=LINE('',#2054,#165);
#102=LINE('',#2055,#166);
#103=LINE('',#2059,#167);
#104=LINE('',#2061,#168);
#105=LINE('',#2062,#169);
#106=LINE('',#2064,#170);
#107=LINE('',#2065,#171);
#108=VECTOR('',#1309,1000.);
#109=VECTOR('',#1312,1000.);
#110=VECTOR('',#1315,1000.);
#111=VECTOR('',#1318,1000.);
#112=VECTOR('',#1321,1000.);
#113=VECTOR('',#1324,1000.);
#114=VECTOR('',#1325,1000.);
#115=VECTOR('',#1328,1000.);
#116=VECTOR('',#1361,1000.);
#117=VECTOR('',#1364,1000.);
#118=VECTOR('',#1365,1000.);
#119=VECTOR('',#1368,1000.);
#120=VECTOR('',#1371,1000.);
#121=VECTOR('',#1372,1000.);
#122=VECTOR('',#1375,1000.);
#123=VECTOR('',#1376,1000.);
#124=VECTOR('',#1389,1000.);
#125=VECTOR('',#1392,1000.);
#126=VECTOR('',#1395,1000.);
#127=VECTOR('',#1398,1000.);
#128=VECTOR('',#1403,1000.);
#129=VECTOR('',#1406,1000.);
#130=VECTOR('',#1409,1000.);
#131=VECTOR('',#1412,1000.);
#132=VECTOR('',#1419,1000.);
#133=VECTOR('',#1420,1000.);
#134=VECTOR('',#1427,1000.);
#135=VECTOR('',#1428,1000.);
#136=VECTOR('',#1431,1000.);
#137=VECTOR('',#1434,1000.);
#138=VECTOR('',#1435,1000.);
#139=VECTOR('',#1438,1000.);
#140=VECTOR('',#1441,1000.);
#141=VECTOR('',#1444,1000.);
#142=VECTOR('',#1447,1000.);
#143=VECTOR('',#1450,1000.);
#144=VECTOR('',#1455,1000.);
#145=VECTOR('',#1456,1000.);
#146=VECTOR('',#1461,1000.);
#147=VECTOR('',#1462,1000.);
#148=VECTOR('',#1465,1000.);
#149=VECTOR('',#1466,1000.);
#150=VECTOR('',#1473,1000.);
#151=VECTOR('',#1476,1000.);
#152=VECTOR('',#1481,1000.);
#153=VECTOR('',#1482,1000.);
#154=VECTOR('',#1489,1000.);
#155=VECTOR('',#1492,1000.);
#156=VECTOR('',#1547,1000.);
#157=VECTOR('',#1550,1000.);
#158=VECTOR('',#1553,1000.);
#159=VECTOR('',#1556,1000.);
#160=VECTOR('',#1559,1000.);
#161=VECTOR('',#1562,1000.);
#162=VECTOR('',#1565,1000.);
#163=VECTOR('',#1568,1000.);
#164=VECTOR('',#1599,1000.);
#165=VECTOR('',#1602,1000.);
#166=VECTOR('',#1603,1000.);
#167=VECTOR('',#1606,1000.);
#168=VECTOR('',#1609,1000.);
#169=VECTOR('',#1610,1000.);
#170=VECTOR('',#1613,1000.);
#171=VECTOR('',#1614,1000.);
#172=PLANE('',#1167);
#173=PLANE('',#1170);
#174=PLANE('',#1180);
#175=PLANE('',#1190);
#176=PLANE('',#1195);
#177=PLANE('',#1196);
#178=PLANE('',#1197);
#179=PLANE('',#1198);
#180=PLANE('',#1209);
#181=PLANE('',#1212);
#182=PLANE('',#1222);
#183=PLANE('',#1224);
#184=PLANE('',#1226);
#185=PLANE('',#1227);
#186=PLANE('',#1228);
#187=PLANE('',#1229);
#188=PLANE('',#1230);
#189=PLANE('',#1231);
#190=PLANE('',#1232);
#191=PLANE('',#1233);
#192=PLANE('',#1234);
#193=PLANE('',#1235);
#194=PLANE('',#1236);
#195=PLANE('',#1237);
#196=PLANE('',#1240);
#197=PLANE('',#1244);
#198=PLANE('',#1248);
#199=PLANE('',#1252);
#200=PLANE('',#1262);
#201=PLANE('',#1265);
#202=PLANE('',#1275);
#203=PLANE('',#1285);
#204=PLANE('',#1290);
#205=PLANE('',#1291);
#206=PLANE('',#1292);
#207=PLANE('',#1293);
#208=CIRCLE('',#1165,26.5);
#209=CIRCLE('',#1166,27.5);
#210=CIRCLE('',#1168,14.);
#211=CIRCLE('',#1169,26.5);
#212=CIRCLE('',#1171,14.);
#213=CIRCLE('',#1173,27.5);
#214=CIRCLE('',#1174,27.5);
#215=CIRCLE('',#1175,27.5);
#216=CIRCLE('',#1176,27.5);
#217=CIRCLE('',#1178,10.);
#218=CIRCLE('',#1179,10.);
#219=CIRCLE('',#1181,26.5);
#220=CIRCLE('',#1185,3.3235);
#221=CIRCLE('',#1188,3.3235);
#222=CIRCLE('',#1191,14.);
#223=CIRCLE('',#1192,14.);
#224=CIRCLE('',#1201,14.);
#225=CIRCLE('',#1202,14.);
#226=CIRCLE('',#1203,14.);
#227=CIRCLE('',#1204,14.);
#228=CIRCLE('',#1205,14.);
#229=CIRCLE('',#1206,14.);
#230=CIRCLE('',#1207,14.);
#231=CIRCLE('',#1208,14.);
#232=CIRCLE('',#1210,3.5);
#233=CIRCLE('',#1211,27.5);
#234=CIRCLE('',#1213,3.5);
#235=CIRCLE('',#1214,27.5);
#236=CIRCLE('',#1216,27.5);
#237=CIRCLE('',#1217,27.5);
#238=CIRCLE('',#1218,27.5);
#239=CIRCLE('',#1219,27.5);
#240=CIRCLE('',#1220,27.5);
#241=CIRCLE('',#1221,27.5);
#242=CIRCLE('',#1223,3.5);
#243=CIRCLE('',#1225,3.5);
#244=CIRCLE('',#1239,3.5);
#245=CIRCLE('',#1241,3.2);
#246=CIRCLE('',#1243,3.5);
#247=CIRCLE('',#1245,3.2);
#248=CIRCLE('',#1247,3.5);
#249=CIRCLE('',#1249,3.2);
#250=CIRCLE('',#1251,3.5);
#251=CIRCLE('',#1253,3.2);
#252=CIRCLE('',#1260,26.5);
#253=CIRCLE('',#1261,27.5);
#254=CIRCLE('',#1263,14.);
#255=CIRCLE('',#1264,26.5);
#256=CIRCLE('',#1266,14.);
#257=CIRCLE('',#1268,27.5);
#258=CIRCLE('',#1269,27.5);
#259=CIRCLE('',#1270,27.5);
#260=CIRCLE('',#1271,27.5);
#261=CIRCLE('',#1273,10.);
#262=CIRCLE('',#1274,10.);
#263=CIRCLE('',#1276,26.5);
#264=CIRCLE('',#1280,3.3235);
#265=CIRCLE('',#1283,3.3235);
#266=CIRCLE('',#1286,14.);
#267=CIRCLE('',#1287,14.);
#268=ORIENTED_EDGE('',*,*,#548,.F.);
#269=ORIENTED_EDGE('',*,*,#549,.F.);
#270=ORIENTED_EDGE('',*,*,#550,.F.);
#271=ORIENTED_EDGE('',*,*,#551,.T.);
#272=ORIENTED_EDGE('',*,*,#552,.F.);
#273=ORIENTED_EDGE('',*,*,#553,.T.);
#274=ORIENTED_EDGE('',*,*,#554,.T.);
#275=ORIENTED_EDGE('',*,*,#555,.T.);
#276=ORIENTED_EDGE('',*,*,#549,.T.);
#277=ORIENTED_EDGE('',*,*,#556,.T.);
#278=ORIENTED_EDGE('',*,*,#557,.F.);
#279=ORIENTED_EDGE('',*,*,#558,.T.);
#280=ORIENTED_EDGE('',*,*,#559,.T.);
#281=ORIENTED_EDGE('',*,*,#560,.F.);
#282=ORIENTED_EDGE('',*,*,#561,.F.);
#283=ORIENTED_EDGE('',*,*,#551,.F.);
#284=ORIENTED_EDGE('',*,*,#562,.T.);
#285=ORIENTED_EDGE('',*,*,#563,.F.);
#286=ORIENTED_EDGE('',*,*,#564,.F.);
#287=ORIENTED_EDGE('',*,*,#565,.F.);
#288=ORIENTED_EDGE('',*,*,#566,.F.);
#289=ORIENTED_EDGE('',*,*,#567,.T.);
#290=ORIENTED_EDGE('',*,*,#568,.F.);
#291=ORIENTED_EDGE('',*,*,#569,.T.);
#292=ORIENTED_EDGE('',*,*,#570,.T.);
#293=ORIENTED_EDGE('',*,*,#571,.F.);
#294=ORIENTED_EDGE('',*,*,#572,.T.);
#295=ORIENTED_EDGE('',*,*,#571,.T.);
#296=ORIENTED_EDGE('',*,*,#573,.F.);
#297=ORIENTED_EDGE('',*,*,#573,.T.);
#298=ORIENTED_EDGE('',*,*,#567,.F.);
#299=ORIENTED_EDGE('',*,*,#574,.F.);
#300=ORIENTED_EDGE('',*,*,#565,.T.);
#301=ORIENTED_EDGE('',*,*,#575,.F.);
#302=ORIENTED_EDGE('',*,*,#554,.F.);
#303=ORIENTED_EDGE('',*,*,#576,.F.);
#304=ORIENTED_EDGE('',*,*,#568,.T.);
#305=ORIENTED_EDGE('',*,*,#569,.F.);
#306=ORIENTED_EDGE('',*,*,#576,.T.);
#307=ORIENTED_EDGE('',*,*,#577,.T.);
#308=ORIENTED_EDGE('',*,*,#566,.T.);
#309=ORIENTED_EDGE('',*,*,#572,.F.);
#310=ORIENTED_EDGE('',*,*,#577,.F.);
#311=ORIENTED_EDGE('',*,*,#570,.F.);
#312=ORIENTED_EDGE('',*,*,#560,.T.);
#313=ORIENTED_EDGE('',*,*,#578,.F.);
#314=ORIENTED_EDGE('',*,*,#579,.T.);
#315=ORIENTED_EDGE('',*,*,#580,.F.);
#316=ORIENTED_EDGE('',*,*,#563,.T.);
#317=ORIENTED_EDGE('',*,*,#581,.F.);
#318=ORIENTED_EDGE('',*,*,#582,.T.);
#319=ORIENTED_EDGE('',*,*,#583,.F.);
#320=ORIENTED_EDGE('',*,*,#552,.T.);
#321=ORIENTED_EDGE('',*,*,#584,.T.);
#322=ORIENTED_EDGE('',*,*,#579,.F.);
#323=ORIENTED_EDGE('',*,*,#585,.F.);
#324=ORIENTED_EDGE('',*,*,#557,.T.);
#325=ORIENTED_EDGE('',*,*,#586,.T.);
#326=ORIENTED_EDGE('',*,*,#582,.F.);
#327=ORIENTED_EDGE('',*,*,#587,.F.);
#328=ORIENTED_EDGE('',*,*,#548,.T.);
#329=ORIENTED_EDGE('',*,*,#561,.T.);
#330=ORIENTED_EDGE('',*,*,#583,.T.);
#331=ORIENTED_EDGE('',*,*,#586,.F.);
#332=ORIENTED_EDGE('',*,*,#556,.F.);
#333=ORIENTED_EDGE('',*,*,#550,.T.);
#334=ORIENTED_EDGE('',*,*,#558,.F.);
#335=ORIENTED_EDGE('',*,*,#587,.T.);
#336=ORIENTED_EDGE('',*,*,#581,.T.);
#337=ORIENTED_EDGE('',*,*,#562,.F.);
#338=ORIENTED_EDGE('',*,*,#574,.T.);
#339=ORIENTED_EDGE('',*,*,#553,.F.);
#340=ORIENTED_EDGE('',*,*,#585,.T.);
#341=ORIENTED_EDGE('',*,*,#578,.T.);
#342=ORIENTED_EDGE('',*,*,#559,.F.);
#343=ORIENTED_EDGE('',*,*,#575,.T.);
#344=ORIENTED_EDGE('',*,*,#564,.T.);
#345=ORIENTED_EDGE('',*,*,#580,.T.);
#346=ORIENTED_EDGE('',*,*,#584,.F.);
#347=ORIENTED_EDGE('',*,*,#555,.F.);
#348=ORIENTED_EDGE('',*,*,#588,.F.);
#349=ORIENTED_EDGE('',*,*,#589,.F.);
#350=ORIENTED_EDGE('',*,*,#590,.F.);
#351=ORIENTED_EDGE('',*,*,#591,.F.);
#352=ORIENTED_EDGE('',*,*,#592,.F.);
#353=ORIENTED_EDGE('',*,*,#593,.F.);
#354=ORIENTED_EDGE('',*,*,#594,.F.);
#355=ORIENTED_EDGE('',*,*,#595,.F.);
#356=ORIENTED_EDGE('',*,*,#596,.T.);
#357=ORIENTED_EDGE('',*,*,#597,.T.);
#358=ORIENTED_EDGE('',*,*,#598,.T.);
#359=ORIENTED_EDGE('',*,*,#599,.T.);
#360=ORIENTED_EDGE('',*,*,#600,.T.);
#361=ORIENTED_EDGE('',*,*,#601,.T.);
#362=ORIENTED_EDGE('',*,*,#602,.T.);
#363=ORIENTED_EDGE('',*,*,#603,.T.);
#364=ORIENTED_EDGE('',*,*,#604,.F.);
#365=ORIENTED_EDGE('',*,*,#605,.T.);
#366=ORIENTED_EDGE('',*,*,#606,.T.);
#367=ORIENTED_EDGE('',*,*,#598,.F.);
#368=ORIENTED_EDGE('',*,*,#607,.T.);
#369=ORIENTED_EDGE('',*,*,#608,.F.);
#370=ORIENTED_EDGE('',*,*,#609,.T.);
#371=ORIENTED_EDGE('',*,*,#610,.T.);
#372=ORIENTED_EDGE('',*,*,#602,.F.);
#373=ORIENTED_EDGE('',*,*,#611,.T.);
#374=ORIENTED_EDGE('',*,*,#612,.F.);
#375=ORIENTED_EDGE('',*,*,#613,.T.);
#376=ORIENTED_EDGE('',*,*,#614,.T.);
#377=ORIENTED_EDGE('',*,*,#609,.F.);
#378=ORIENTED_EDGE('',*,*,#615,.F.);
#379=ORIENTED_EDGE('',*,*,#616,.T.);
#380=ORIENTED_EDGE('',*,*,#617,.T.);
#381=ORIENTED_EDGE('',*,*,#605,.F.);
#382=ORIENTED_EDGE('',*,*,#618,.T.);
#383=ORIENTED_EDGE('',*,*,#619,.F.);
#384=ORIENTED_EDGE('',*,*,#620,.F.);
#385=ORIENTED_EDGE('',*,*,#621,.T.);
#386=ORIENTED_EDGE('',*,*,#622,.T.);
#387=ORIENTED_EDGE('',*,*,#623,.F.);
#388=ORIENTED_EDGE('',*,*,#624,.F.);
#389=ORIENTED_EDGE('',*,*,#625,.T.);
#390=ORIENTED_EDGE('',*,*,#626,.F.);
#391=ORIENTED_EDGE('',*,*,#627,.F.);
#392=ORIENTED_EDGE('',*,*,#618,.F.);
#393=ORIENTED_EDGE('',*,*,#628,.F.);
#394=ORIENTED_EDGE('',*,*,#595,.T.);
#395=ORIENTED_EDGE('',*,*,#629,.F.);
#396=ORIENTED_EDGE('',*,*,#630,.F.);
#397=ORIENTED_EDGE('',*,*,#622,.F.);
#398=ORIENTED_EDGE('',*,*,#631,.F.);
#399=ORIENTED_EDGE('',*,*,#591,.T.);
#400=ORIENTED_EDGE('',*,*,#589,.T.);
#401=ORIENTED_EDGE('',*,*,#632,.T.);
#402=ORIENTED_EDGE('',*,*,#624,.T.);
#403=ORIENTED_EDGE('',*,*,#633,.T.);
#404=ORIENTED_EDGE('',*,*,#590,.T.);
#405=ORIENTED_EDGE('',*,*,#633,.F.);
#406=ORIENTED_EDGE('',*,*,#623,.T.);
#407=ORIENTED_EDGE('',*,*,#630,.T.);
#408=ORIENTED_EDGE('',*,*,#588,.T.);
#409=ORIENTED_EDGE('',*,*,#628,.T.);
#410=ORIENTED_EDGE('',*,*,#625,.F.);
#411=ORIENTED_EDGE('',*,*,#632,.F.);
#412=ORIENTED_EDGE('',*,*,#594,.T.);
#413=ORIENTED_EDGE('',*,*,#634,.F.);
#414=ORIENTED_EDGE('',*,*,#619,.T.);
#415=ORIENTED_EDGE('',*,*,#627,.T.);
#416=ORIENTED_EDGE('',*,*,#592,.T.);
#417=ORIENTED_EDGE('',*,*,#631,.T.);
#418=ORIENTED_EDGE('',*,*,#621,.F.);
#419=ORIENTED_EDGE('',*,*,#635,.F.);
#420=ORIENTED_EDGE('',*,*,#593,.T.);
#421=ORIENTED_EDGE('',*,*,#635,.T.);
#422=ORIENTED_EDGE('',*,*,#620,.T.);
#423=ORIENTED_EDGE('',*,*,#634,.T.);
#424=ORIENTED_EDGE('',*,*,#636,.F.);
#425=ORIENTED_EDGE('',*,*,#616,.F.);
#426=ORIENTED_EDGE('',*,*,#637,.F.);
#427=ORIENTED_EDGE('',*,*,#600,.F.);
#428=ORIENTED_EDGE('',*,*,#637,.T.);
#429=ORIENTED_EDGE('',*,*,#615,.T.);
#430=ORIENTED_EDGE('',*,*,#611,.F.);
#431=ORIENTED_EDGE('',*,*,#601,.F.);
#432=ORIENTED_EDGE('',*,*,#606,.F.);
#433=ORIENTED_EDGE('',*,*,#617,.F.);
#434=ORIENTED_EDGE('',*,*,#636,.T.);
#435=ORIENTED_EDGE('',*,*,#599,.F.);
#436=ORIENTED_EDGE('',*,*,#638,.T.);
#437=ORIENTED_EDGE('',*,*,#612,.T.);
#438=ORIENTED_EDGE('',*,*,#607,.F.);
#439=ORIENTED_EDGE('',*,*,#597,.F.);
#440=ORIENTED_EDGE('',*,*,#639,.F.);
#441=ORIENTED_EDGE('',*,*,#613,.F.);
#442=ORIENTED_EDGE('',*,*,#638,.F.);
#443=ORIENTED_EDGE('',*,*,#596,.F.);
#444=ORIENTED_EDGE('',*,*,#610,.F.);
#445=ORIENTED_EDGE('',*,*,#614,.F.);
#446=ORIENTED_EDGE('',*,*,#639,.T.);
#447=ORIENTED_EDGE('',*,*,#603,.F.);
#448=ORIENTED_EDGE('',*,*,#640,.T.);
#449=ORIENTED_EDGE('',*,*,#629,.T.);
#450=ORIENTED_EDGE('',*,*,#641,.T.);
#451=ORIENTED_EDGE('',*,*,#642,.T.);
#452=ORIENTED_EDGE('',*,*,#626,.T.);
#453=ORIENTED_EDGE('',*,*,#643,.T.);
#454=ORIENTED_EDGE('',*,*,#644,.T.);
#455=ORIENTED_EDGE('',*,*,#608,.T.);
#456=ORIENTED_EDGE('',*,*,#645,.T.);
#457=ORIENTED_EDGE('',*,*,#646,.T.);
#458=ORIENTED_EDGE('',*,*,#604,.T.);
#459=ORIENTED_EDGE('',*,*,#647,.T.);
#460=ORIENTED_EDGE('',*,*,#643,.F.);
#461=ORIENTED_EDGE('',*,*,#642,.F.);
#462=ORIENTED_EDGE('',*,*,#641,.F.);
#463=ORIENTED_EDGE('',*,*,#640,.F.);
#464=ORIENTED_EDGE('',*,*,#646,.F.);
#465=ORIENTED_EDGE('',*,*,#647,.F.);
#466=ORIENTED_EDGE('',*,*,#644,.F.);
#467=ORIENTED_EDGE('',*,*,#645,.F.);
#468=ORIENTED_EDGE('',*,*,#648,.F.);
#469=ORIENTED_EDGE('',*,*,#649,.F.);
#470=ORIENTED_EDGE('',*,*,#650,.F.);
#471=ORIENTED_EDGE('',*,*,#651,.T.);
#472=ORIENTED_EDGE('',*,*,#652,.F.);
#473=ORIENTED_EDGE('',*,*,#653,.T.);
#474=ORIENTED_EDGE('',*,*,#654,.T.);
#475=ORIENTED_EDGE('',*,*,#655,.T.);
#476=ORIENTED_EDGE('',*,*,#649,.T.);
#477=ORIENTED_EDGE('',*,*,#656,.T.);
#478=ORIENTED_EDGE('',*,*,#657,.F.);
#479=ORIENTED_EDGE('',*,*,#658,.T.);
#480=ORIENTED_EDGE('',*,*,#659,.T.);
#481=ORIENTED_EDGE('',*,*,#660,.F.);
#482=ORIENTED_EDGE('',*,*,#661,.F.);
#483=ORIENTED_EDGE('',*,*,#662,.F.);
#484=ORIENTED_EDGE('',*,*,#663,.T.);
#485=ORIENTED_EDGE('',*,*,#664,.F.);
#486=ORIENTED_EDGE('',*,*,#665,.F.);
#487=ORIENTED_EDGE('',*,*,#651,.F.);
#488=ORIENTED_EDGE('',*,*,#666,.F.);
#489=ORIENTED_EDGE('',*,*,#667,.F.);
#490=ORIENTED_EDGE('',*,*,#668,.T.);
#491=ORIENTED_EDGE('',*,*,#669,.T.);
#492=ORIENTED_EDGE('',*,*,#670,.T.);
#493=ORIENTED_EDGE('',*,*,#671,.F.);
#494=ORIENTED_EDGE('',*,*,#672,.T.);
#495=ORIENTED_EDGE('',*,*,#671,.T.);
#496=ORIENTED_EDGE('',*,*,#673,.F.);
#497=ORIENTED_EDGE('',*,*,#673,.T.);
#498=ORIENTED_EDGE('',*,*,#668,.F.);
#499=ORIENTED_EDGE('',*,*,#674,.F.);
#500=ORIENTED_EDGE('',*,*,#662,.T.);
#501=ORIENTED_EDGE('',*,*,#675,.F.);
#502=ORIENTED_EDGE('',*,*,#654,.F.);
#503=ORIENTED_EDGE('',*,*,#676,.F.);
#504=ORIENTED_EDGE('',*,*,#667,.T.);
#505=ORIENTED_EDGE('',*,*,#669,.F.);
#506=ORIENTED_EDGE('',*,*,#676,.T.);
#507=ORIENTED_EDGE('',*,*,#677,.F.);
#508=ORIENTED_EDGE('',*,*,#666,.T.);
#509=ORIENTED_EDGE('',*,*,#672,.F.);
#510=ORIENTED_EDGE('',*,*,#677,.T.);
#511=ORIENTED_EDGE('',*,*,#670,.F.);
#512=ORIENTED_EDGE('',*,*,#664,.T.);
#513=ORIENTED_EDGE('',*,*,#678,.F.);
#514=ORIENTED_EDGE('',*,*,#679,.T.);
#515=ORIENTED_EDGE('',*,*,#680,.F.);
#516=ORIENTED_EDGE('',*,*,#660,.T.);
#517=ORIENTED_EDGE('',*,*,#681,.F.);
#518=ORIENTED_EDGE('',*,*,#682,.T.);
#519=ORIENTED_EDGE('',*,*,#683,.F.);
#520=ORIENTED_EDGE('',*,*,#652,.T.);
#521=ORIENTED_EDGE('',*,*,#684,.T.);
#522=ORIENTED_EDGE('',*,*,#679,.F.);
#523=ORIENTED_EDGE('',*,*,#685,.F.);
#524=ORIENTED_EDGE('',*,*,#657,.T.);
#525=ORIENTED_EDGE('',*,*,#686,.T.);
#526=ORIENTED_EDGE('',*,*,#682,.F.);
#527=ORIENTED_EDGE('',*,*,#687,.F.);
#528=ORIENTED_EDGE('',*,*,#648,.T.);
#529=ORIENTED_EDGE('',*,*,#665,.T.);
#530=ORIENTED_EDGE('',*,*,#683,.T.);
#531=ORIENTED_EDGE('',*,*,#686,.F.);
#532=ORIENTED_EDGE('',*,*,#656,.F.);
#533=ORIENTED_EDGE('',*,*,#650,.T.);
#534=ORIENTED_EDGE('',*,*,#658,.F.);
#535=ORIENTED_EDGE('',*,*,#687,.T.);
#536=ORIENTED_EDGE('',*,*,#681,.T.);
#537=ORIENTED_EDGE('',*,*,#659,.F.);
#538=ORIENTED_EDGE('',*,*,#674,.T.);
#539=ORIENTED_EDGE('',*,*,#653,.F.);
#540=ORIENTED_EDGE('',*,*,#685,.T.);
#541=ORIENTED_EDGE('',*,*,#678,.T.);
#542=ORIENTED_EDGE('',*,*,#663,.F.);
#543=ORIENTED_EDGE('',*,*,#675,.T.);
#544=ORIENTED_EDGE('',*,*,#661,.T.);
#545=ORIENTED_EDGE('',*,*,#680,.T.);
#546=ORIENTED_EDGE('',*,*,#684,.F.);
#547=ORIENTED_EDGE('',*,*,#655,.F.);
#548=EDGE_CURVE('',#688,#689,#792,.T.);
#549=EDGE_CURVE('',#690,#688,#208,.T.);
#550=EDGE_CURVE('',#691,#690,#793,.T.);
#551=EDGE_CURVE('',#691,#689,#209,.T.);
#552=EDGE_CURVE('',#692,#693,#210,.F.);
#553=EDGE_CURVE('',#692,#694,#44,.T.);
#554=EDGE_CURVE('',#694,#695,#211,.T.);
#555=EDGE_CURVE('',#695,#693,#45,.T.);
#556=EDGE_CURVE('',#688,#696,#46,.T.);
#557=EDGE_CURVE('',#697,#696,#212,.F.);
#558=EDGE_CURVE('',#697,#690,#47,.T.);
#559=EDGE_CURVE('',#698,#699,#48,.T.);
#560=EDGE_CURVE('',#700,#699,#213,.T.);
#561=EDGE_CURVE('',#689,#700,#49,.T.);
#562=EDGE_CURVE('',#691,#701,#50,.T.);
#563=EDGE_CURVE('',#702,#701,#214,.T.);
#564=EDGE_CURVE('',#703,#702,#51,.T.);
#565=EDGE_CURVE('',#698,#703,#215,.T.);
#566=EDGE_CURVE('',#704,#704,#794,.T.);
#567=EDGE_CURVE('',#705,#705,#216,.T.);
#568=EDGE_CURVE('',#706,#706,#795,.T.);
#569=EDGE_CURVE('',#707,#707,#796,.T.);
#570=EDGE_CURVE('',#708,#708,#217,.T.);
#571=EDGE_CURVE('',#709,#709,#218,.T.);
#572=EDGE_CURVE('',#710,#710,#797,.T.);
#573=EDGE_CURVE('',#711,#711,#219,.T.);
#574=EDGE_CURVE('',#698,#694,#798,.T.);
#575=EDGE_CURVE('',#695,#703,#799,.T.);
#576=EDGE_CURVE('',#712,#712,#220,.T.);
#577=EDGE_CURVE('',#713,#713,#221,.T.);
#578=EDGE_CURVE('',#714,#699,#52,.T.);
#579=EDGE_CURVE('',#714,#715,#222,.T.);
#580=EDGE_CURVE('',#702,#715,#53,.T.);
#581=EDGE_CURVE('',#716,#701,#54,.T.);
#582=EDGE_CURVE('',#716,#717,#223,.T.);
#583=EDGE_CURVE('',#700,#717,#55,.T.);
#584=EDGE_CURVE('',#693,#715,#56,.T.);
#585=EDGE_CURVE('',#692,#714,#57,.T.);
#586=EDGE_CURVE('',#696,#717,#58,.T.);
#587=EDGE_CURVE('',#697,#716,#59,.T.);
#588=EDGE_CURVE('',#718,#719,#60,.F.);
#589=EDGE_CURVE('',#720,#718,#224,.T.);
#590=EDGE_CURVE('',#721,#720,#61,.T.);
#591=EDGE_CURVE('',#722,#721,#225,.T.);
#592=EDGE_CURVE('',#723,#722,#62,.F.);
#593=EDGE_CURVE('',#724,#723,#226,.T.);
#594=EDGE_CURVE('',#725,#724,#63,.T.);
#595=EDGE_CURVE('',#719,#725,#227,.T.);
#596=EDGE_CURVE('',#726,#727,#228,.T.);
#597=EDGE_CURVE('',#727,#728,#64,.T.);
#598=EDGE_CURVE('',#728,#729,#229,.T.);
#599=EDGE_CURVE('',#729,#730,#65,.F.);
#600=EDGE_CURVE('',#730,#731,#230,.T.);
#601=EDGE_CURVE('',#731,#732,#66,.T.);
#602=EDGE_CURVE('',#732,#733,#231,.T.);
#603=EDGE_CURVE('',#733,#726,#67,.F.);
#604=EDGE_CURVE('',#734,#734,#232,.T.);
#605=EDGE_CURVE('',#735,#736,#233,.T.);
#606=EDGE_CURVE('',#736,#729,#68,.T.);
#607=EDGE_CURVE('',#728,#735,#69,.T.);
#608=EDGE_CURVE('',#737,#737,#234,.T.);
#609=EDGE_CURVE('',#738,#739,#235,.T.);
#610=EDGE_CURVE('',#739,#733,#70,.T.);
#611=EDGE_CURVE('',#732,#738,#71,.T.);
#612=EDGE_CURVE('',#740,#735,#72,.T.);
#613=EDGE_CURVE('',#740,#741,#236,.F.);
#614=EDGE_CURVE('',#741,#739,#73,.T.);
#615=EDGE_CURVE('',#742,#738,#74,.T.);
#616=EDGE_CURVE('',#742,#743,#237,.F.);
#617=EDGE_CURVE('',#743,#736,#75,.T.);
#618=EDGE_CURVE('',#744,#745,#238,.T.);
#619=EDGE_CURVE('',#746,#745,#76,.T.);
#620=EDGE_CURVE('',#747,#746,#239,.F.);
#621=EDGE_CURVE('',#747,#748,#77,.T.);
#622=EDGE_CURVE('',#748,#749,#240,.T.);
#623=EDGE_CURVE('',#750,#749,#78,.T.);
#624=EDGE_CURVE('',#751,#750,#241,.F.);
#625=EDGE_CURVE('',#751,#744,#79,.T.);
#626=EDGE_CURVE('',#752,#752,#242,.T.);
#627=EDGE_CURVE('',#745,#725,#80,.T.);
#628=EDGE_CURVE('',#719,#744,#81,.T.);
#629=EDGE_CURVE('',#753,#753,#243,.T.);
#630=EDGE_CURVE('',#749,#721,#82,.T.);
#631=EDGE_CURVE('',#722,#748,#83,.T.);
#632=EDGE_CURVE('',#718,#751,#84,.T.);
#633=EDGE_CURVE('',#750,#720,#85,.T.);
#634=EDGE_CURVE('',#746,#724,#86,.T.);
#635=EDGE_CURVE('',#723,#747,#87,.T.);
#636=EDGE_CURVE('',#743,#730,#88,.T.);
#637=EDGE_CURVE('',#731,#742,#89,.T.);
#638=EDGE_CURVE('',#727,#740,#90,.T.);
#639=EDGE_CURVE('',#741,#726,#91,.T.);
#640=EDGE_CURVE('',#754,#754,#244,.T.);
#641=EDGE_CURVE('',#755,#755,#245,.F.);
#642=EDGE_CURVE('',#756,#756,#246,.T.);
#643=EDGE_CURVE('',#757,#757,#247,.F.);
#644=EDGE_CURVE('',#758,#758,#248,.F.);
#645=EDGE_CURVE('',#759,#759,#249,.T.);
#646=EDGE_CURVE('',#760,#760,#250,.F.);
#647=EDGE_CURVE('',#761,#761,#251,.T.);
#648=EDGE_CURVE('',#762,#763,#800,.T.);
#649=EDGE_CURVE('',#764,#762,#252,.T.);
#650=EDGE_CURVE('',#765,#764,#801,.T.);
#651=EDGE_CURVE('',#765,#763,#253,.T.);
#652=EDGE_CURVE('',#766,#767,#254,.F.);
#653=EDGE_CURVE('',#766,#768,#92,.T.);
#654=EDGE_CURVE('',#768,#769,#255,.T.);
#655=EDGE_CURVE('',#769,#767,#93,.T.);
#656=EDGE_CURVE('',#762,#770,#94,.T.);
#657=EDGE_CURVE('',#771,#770,#256,.F.);
#658=EDGE_CURVE('',#771,#764,#95,.T.);
#659=EDGE_CURVE('',#765,#772,#96,.T.);
#660=EDGE_CURVE('',#773,#772,#257,.T.);
#661=EDGE_CURVE('',#774,#773,#97,.T.);
#662=EDGE_CURVE('',#775,#774,#258,.T.);
#663=EDGE_CURVE('',#775,#776,#98,.T.);
#664=EDGE_CURVE('',#777,#776,#259,.T.);
#665=EDGE_CURVE('',#763,#777,#99,.T.);
#666=EDGE_CURVE('',#778,#778,#802,.T.);
#667=EDGE_CURVE('',#779,#779,#803,.T.);
#668=EDGE_CURVE('',#780,#780,#260,.T.);
#669=EDGE_CURVE('',#781,#781,#804,.T.);
#670=EDGE_CURVE('',#782,#782,#261,.T.);
#671=EDGE_CURVE('',#783,#783,#262,.T.);
#672=EDGE_CURVE('',#784,#784,#805,.T.);
#673=EDGE_CURVE('',#785,#785,#263,.T.);
#674=EDGE_CURVE('',#775,#768,#806,.T.);
#675=EDGE_CURVE('',#769,#774,#807,.T.);
#676=EDGE_CURVE('',#786,#786,#264,.T.);
#677=EDGE_CURVE('',#787,#787,#265,.T.);
#678=EDGE_CURVE('',#788,#776,#100,.T.);
#679=EDGE_CURVE('',#788,#789,#266,.T.);
#680=EDGE_CURVE('',#773,#789,#101,.T.);
#681=EDGE_CURVE('',#790,#772,#102,.T.);
#682=EDGE_CURVE('',#790,#791,#267,.T.);
#683=EDGE_CURVE('',#777,#791,#103,.T.);
#684=EDGE_CURVE('',#767,#789,#104,.T.);
#685=EDGE_CURVE('',#766,#788,#105,.T.);
#686=EDGE_CURVE('',#770,#791,#106,.T.);
#687=EDGE_CURVE('',#771,#790,#107,.T.);
#688=VERTEX_POINT('',#1634);
#689=VERTEX_POINT('',#1635);
#690=VERTEX_POINT('',#1637);
#691=VERTEX_POINT('',#1643);
#692=VERTEX_POINT('',#1647);
#693=VERTEX_POINT('',#1648);
#694=VERTEX_POINT('',#1650);
#695=VERTEX_POINT('',#1652);
#696=VERTEX_POINT('',#1656);
#697=VERTEX_POINT('',#1658);
#698=VERTEX_POINT('',#1662);
#699=VERTEX_POINT('',#1663);
#700=VERTEX_POINT('',#1665);
#701=VERTEX_POINT('',#1668);
#702=VERTEX_POINT('',#1670);
#703=VERTEX_POINT('',#1672);
#704=VERTEX_POINT('',#1689);
#705=VERTEX_POINT('',#1691);
#706=VERTEX_POINT('',#1707);
#707=VERTEX_POINT('',#1720);
#708=VERTEX_POINT('',#1722);
#709=VERTEX_POINT('',#1724);
#710=VERTEX_POINT('',#1736);
#711=VERTEX_POINT('',#1739);
#712=VERTEX_POINT('',#1754);
#713=VERTEX_POINT('',#1758);
#714=VERTEX_POINT('',#1762);
#715=VERTEX_POINT('',#1764);
#716=VERTEX_POINT('',#1767);
#717=VERTEX_POINT('',#1769);
#718=VERTEX_POINT('',#1784);
#719=VERTEX_POINT('',#1785);
#720=VERTEX_POINT('',#1787);
#721=VERTEX_POINT('',#1789);
#722=VERTEX_POINT('',#1791);
#723=VERTEX_POINT('',#1793);
#724=VERTEX_POINT('',#1795);
#725=VERTEX_POINT('',#1797);
#726=VERTEX_POINT('',#1800);
#727=VERTEX_POINT('',#1801);
#728=VERTEX_POINT('',#1803);
#729=VERTEX_POINT('',#1805);
#730=VERTEX_POINT('',#1807);
#731=VERTEX_POINT('',#1809);
#732=VERTEX_POINT('',#1811);
#733=VERTEX_POINT('',#1813);
#734=VERTEX_POINT('',#1817);
#735=VERTEX_POINT('',#1819);
#736=VERTEX_POINT('',#1820);
#737=VERTEX_POINT('',#1825);
#738=VERTEX_POINT('',#1827);
#739=VERTEX_POINT('',#1828);
#740=VERTEX_POINT('',#1833);
#741=VERTEX_POINT('',#1835);
#742=VERTEX_POINT('',#1838);
#743=VERTEX_POINT('',#1840);
#744=VERTEX_POINT('',#1843);
#745=VERTEX_POINT('',#1844);
#746=VERTEX_POINT('',#1846);
#747=VERTEX_POINT('',#1848);
#748=VERTEX_POINT('',#1850);
#749=VERTEX_POINT('',#1852);
#750=VERTEX_POINT('',#1854);
#751=VERTEX_POINT('',#1856);
#752=VERTEX_POINT('',#1860);
#753=VERTEX_POINT('',#1865);
#754=VERTEX_POINT('',#1890);
#755=VERTEX_POINT('',#1893);
#756=VERTEX_POINT('',#1896);
#757=VERTEX_POINT('',#1899);
#758=VERTEX_POINT('',#1902);
#759=VERTEX_POINT('',#1905);
#760=VERTEX_POINT('',#1908);
#761=VERTEX_POINT('',#1911);
#762=VERTEX_POINT('',#1923);
#763=VERTEX_POINT('',#1924);
#764=VERTEX_POINT('',#1926);
#765=VERTEX_POINT('',#1932);
#766=VERTEX_POINT('',#1936);
#767=VERTEX_POINT('',#1937);
#768=VERTEX_POINT('',#1939);
#769=VERTEX_POINT('',#1941);
#770=VERTEX_POINT('',#1945);
#771=VERTEX_POINT('',#1947);
#772=VERTEX_POINT('',#1951);
#773=VERTEX_POINT('',#1953);
#774=VERTEX_POINT('',#1955);
#775=VERTEX_POINT('',#1957);
#776=VERTEX_POINT('',#1959);
#777=VERTEX_POINT('',#1961);
#778=VERTEX_POINT('',#1978);
#779=VERTEX_POINT('',#1994);
#780=VERTEX_POINT('',#1996);
#781=VERTEX_POINT('',#2009);
#782=VERTEX_POINT('',#2011);
#783=VERTEX_POINT('',#2013);
#784=VERTEX_POINT('',#2025);
#785=VERTEX_POINT('',#2028);
#786=VERTEX_POINT('',#2043);
#787=VERTEX_POINT('',#2047);
#788=VERTEX_POINT('',#2051);
#789=VERTEX_POINT('',#2053);
#790=VERTEX_POINT('',#2056);
#791=VERTEX_POINT('',#2058);
#792=B_SPLINE_CURVE_WITH_KNOTS('',3,(#1629,#1630,#1631,#1632,#1633),
 .UNSPECIFIED.,.F.,.F.,(4,1,4),(0.00549709666825986,0.00629045820776171,
0.00708381974726356),.UNSPECIFIED.);
#793=B_SPLINE_CURVE_WITH_KNOTS('',3,(#1638,#1639,#1640,#1641,#1642),
 .UNSPECIFIED.,.F.,.F.,(4,1,4),(0.00561989524412475,0.00641263778191139,
0.00720538031969802),.UNSPECIFIED.);
#794=B_SPLINE_CURVE_WITH_KNOTS('',3,(#1674,#1675,#1676,#1677,#1678,#1679,
#1680,#1681,#1682,#1683,#1684,#1685,#1686,#1687,#1688),.UNSPECIFIED.,.T.,
 .F.,(1,1,1,1,1,1,1,1,1,1,1,1,1,1,1,1,1,1,1),(-0.00455995057359459,-0.00303996704906306,
-0.00151998352453153,0.,0.00303996704906306,0.00607993409812612,0.00759991762265766,
0.00911990114718919,0.0106398846717207,0.0121598681962522,0.0151998352453153,
0.0182398022943784,0.0197597858189099,0.0212797693434414,0.022799752867973,
0.0243197363925045,0.0273597034415676,0.0303996704906306,0.0319196540151622),
 .UNSPECIFIED.);
#795=B_SPLINE_CURVE_WITH_KNOTS('',3,(#1692,#1693,#1694,#1695,#1696,#1697,
#1698,#1699,#1700,#1701,#1702,#1703,#1704,#1705,#1706),.UNSPECIFIED.,.T.,
 .F.,(1,1,1,1,1,1,1,1,1,1,1,1,1,1,1,1,1,1,1),(-0.0045599505735946,-0.00303996704906306,
-0.00151998352453153,0.,0.00303996704906307,0.00607993409812613,0.00759991762265766,
0.0091199011471892,0.0106398846717207,0.0121598681962523,0.0151998352453153,
0.0182398022943784,0.0197597858189099,0.0212797693434415,0.022799752867973,
0.0243197363925045,0.0273597034415676,0.0303996704906307,0.0319196540151622),
 .UNSPECIFIED.);
#796=B_SPLINE_CURVE_WITH_KNOTS('',3,(#1709,#1710,#1711,#1712,#1713,#1714,
#1715,#1716,#1717,#1718,#1719),.UNSPECIFIED.,.T.,.F.,(1,1,1,1,1,1,1,1,1,
1,1,1,1,1,1),(-0.00784831592925225,-0.0052322106195015,-0.00261610530975075,
0.,0.00261610530975075,0.0052322106195015,0.00784831592925225,0.010464421239003,
0.0130805265487537,0.0156966318585045,0.0183127371682552,0.020928842478006,
0.0235449477877567,0.0261610530975075,0.0287771584072582),.UNSPECIFIED.);
#797=B_SPLINE_CURVE_WITH_KNOTS('',3,(#1725,#1726,#1727,#1728,#1729,#1730,
#1731,#1732,#1733,#1734,#1735),.UNSPECIFIED.,.T.,.F.,(1,1,1,1,1,1,1,1,1,
1,1,1,1,1,1),(-0.0078480879264816,-0.0052320586176544,-0.0026160293088272,
0.,0.0026160293088272,0.0052320586176544,0.00784808792648159,0.0104641172353088,
0.013080146544136,0.0156961758529632,0.0183122051617904,0.0209282344706176,
0.0235442637794448,0.026160293088272,0.0287763223970992),.UNSPECIFIED.);
#798=B_SPLINE_CURVE_WITH_KNOTS('',3,(#1742,#1743,#1744,#1745,#1746),
 .UNSPECIFIED.,.F.,.F.,(4,1,4),(0.00357406439869416,0.00436755608029674,
0.00516104776189932),.UNSPECIFIED.);
#799=B_SPLINE_CURVE_WITH_KNOTS('',3,(#1747,#1748,#1749,#1750,#1751),
 .UNSPECIFIED.,.F.,.F.,(4,1,4),(0.00119230978327445,0.00198608849335897,
0.00277986720344349),.UNSPECIFIED.);
#800=B_SPLINE_CURVE_WITH_KNOTS('',3,(#1918,#1919,#1920,#1921,#1922),
 .UNSPECIFIED.,.F.,.F.,(4,1,4),(0.00119230978327445,0.00198608849335897,
0.00277986720344349),.UNSPECIFIED.);
#801=B_SPLINE_CURVE_WITH_KNOTS('',3,(#1927,#1928,#1929,#1930,#1931),
 .UNSPECIFIED.,.F.,.F.,(4,1,4),(0.00357406439869417,0.00436755608029675,
0.00516104776189934),.UNSPECIFIED.);
#802=B_SPLINE_CURVE_WITH_KNOTS('',3,(#1963,#1964,#1965,#1966,#1967,#1968,
#1969,#1970,#1971,#1972,#1973,#1974,#1975,#1976,#1977),.UNSPECIFIED.,.T.,
 .F.,(1,1,1,1,1,1,1,1,1,1,1,1,1,1,1,1,1,1,1),(-0.00759441558390284,-0.00607553246712227,
-0.00303776623356114,0.,0.00151888311678057,0.00303776623356114,0.0045566493503417,
0.00607553246712227,0.00911329870068341,0.0121510649342445,0.0136699480510251,
0.0151888311678057,0.0167077142845862,0.0182265974013668,0.0212643636349279,
0.0243021298684891,0.0258210129852697,0.0273398961020502,0.0288587792188308),
 .UNSPECIFIED.);
#803=B_SPLINE_CURVE_WITH_KNOTS('',3,(#1979,#1980,#1981,#1982,#1983,#1984,
#1985,#1986,#1987,#1988,#1989,#1990,#1991,#1992,#1993),.UNSPECIFIED.,.T.,
 .F.,(1,1,1,1,1,1,1,1,1,1,1,1,1,1,1,1,1,1,1),(-0.0045599505735946,-0.00303996704906306,
-0.00151998352453153,0.,0.00303996704906307,0.00607993409812613,0.00759991762265766,
0.0091199011471892,0.0106398846717207,0.0121598681962523,0.0151998352453153,
0.0182398022943784,0.0197597858189099,0.0212797693434415,0.022799752867973,
0.0243197363925045,0.0273597034415676,0.0303996704906307,0.0319196540151622),
 .UNSPECIFIED.);
#804=B_SPLINE_CURVE_WITH_KNOTS('',3,(#1998,#1999,#2000,#2001,#2002,#2003,
#2004,#2005,#2006,#2007,#2008),.UNSPECIFIED.,.T.,.F.,(1,1,1,1,1,1,1,1,1,
1,1,1,1,1,1),(-0.00784831592925225,-0.0052322106195015,-0.00261610530975075,
0.,0.00261610530975075,0.0052322106195015,0.00784831592925225,0.010464421239003,
0.0130805265487537,0.0156966318585045,0.0183127371682552,0.020928842478006,
0.0235449477877567,0.0261610530975075,0.0287771584072582),.UNSPECIFIED.);
#805=B_SPLINE_CURVE_WITH_KNOTS('',3,(#2014,#2015,#2016,#2017,#2018,#2019,
#2020,#2021,#2022,#2023,#2024),.UNSPECIFIED.,.T.,.F.,(1,1,1,1,1,1,1,1,1,
1,1,1,1,1,1),(-0.00784808792648159,-0.0052320586176544,-0.0026160293088272,
0.,0.0026160293088272,0.0052320586176544,0.00784808792648159,0.0104641172353088,
0.013080146544136,0.0156961758529632,0.0183122051617904,0.0209282344706176,
0.0235442637794448,0.026160293088272,0.0287763223970992),.UNSPECIFIED.);
#806=B_SPLINE_CURVE_WITH_KNOTS('',3,(#2031,#2032,#2033,#2034,#2035),
 .UNSPECIFIED.,.F.,.F.,(4,1,4),(0.00561989524412474,0.00641263778191137,
0.00720538031969801),.UNSPECIFIED.);
#807=B_SPLINE_CURVE_WITH_KNOTS('',3,(#2036,#2037,#2038,#2039,#2040),
 .UNSPECIFIED.,.F.,.F.,(4,1,4),(0.00549709666825988,0.00629045820776173,
0.00708381974726358),.UNSPECIFIED.);
#808=EDGE_LOOP('',(#268,#269,#270,#271));
#809=EDGE_LOOP('',(#272,#273,#274,#275));
#810=EDGE_LOOP('',(#276,#277,#278,#279));
#811=EDGE_LOOP('',(#280,#281,#282,#283,#284,#285,#286,#287));
#812=EDGE_LOOP('',(#288));
#813=EDGE_LOOP('',(#289));
#814=EDGE_LOOP('',(#290));
#815=EDGE_LOOP('',(#291));
#816=EDGE_LOOP('',(#292));
#817=EDGE_LOOP('',(#293));
#818=EDGE_LOOP('',(#294));
#819=EDGE_LOOP('',(#295));
#820=EDGE_LOOP('',(#296));
#821=EDGE_LOOP('',(#297));
#822=EDGE_LOOP('',(#298));
#823=EDGE_LOOP('',(#299,#300,#301,#302));
#824=EDGE_LOOP('',(#303));
#825=EDGE_LOOP('',(#304));
#826=EDGE_LOOP('',(#305));
#827=EDGE_LOOP('',(#306));
#828=EDGE_LOOP('',(#307));
#829=EDGE_LOOP('',(#308));
#830=EDGE_LOOP('',(#309));
#831=EDGE_LOOP('',(#310));
#832=EDGE_LOOP('',(#311));
#833=EDGE_LOOP('',(#312,#313,#314,#315,#316,#317,#318,#319));
#834=EDGE_LOOP('',(#320,#321,#322,#323));
#835=EDGE_LOOP('',(#324,#325,#326,#327));
#836=EDGE_LOOP('',(#328,#329,#330,#331,#332));
#837=EDGE_LOOP('',(#333,#334,#335,#336,#337));
#838=EDGE_LOOP('',(#338,#339,#340,#341,#342));
#839=EDGE_LOOP('',(#343,#344,#345,#346,#347));
#840=EDGE_LOOP('',(#348,#349,#350,#351,#352,#353,#354,#355));
#841=EDGE_LOOP('',(#356,#357,#358,#359,#360,#361,#362,#363));
#842=EDGE_LOOP('',(#364));
#843=EDGE_LOOP('',(#365,#366,#367,#368));
#844=EDGE_LOOP('',(#369));
#845=EDGE_LOOP('',(#370,#371,#372,#373));
#846=EDGE_LOOP('',(#374,#375,#376,#377,#378,#379,#380,#381));
#847=EDGE_LOOP('',(#382,#383,#384,#385,#386,#387,#388,#389));
#848=EDGE_LOOP('',(#390));
#849=EDGE_LOOP('',(#391,#392,#393,#394));
#850=EDGE_LOOP('',(#395));
#851=EDGE_LOOP('',(#396,#397,#398,#399));
#852=EDGE_LOOP('',(#400,#401,#402,#403));
#853=EDGE_LOOP('',(#404,#405,#406,#407));
#854=EDGE_LOOP('',(#408,#409,#410,#411));
#855=EDGE_LOOP('',(#412,#413,#414,#415));
#856=EDGE_LOOP('',(#416,#417,#418,#419));
#857=EDGE_LOOP('',(#420,#421,#422,#423));
#858=EDGE_LOOP('',(#424,#425,#426,#427));
#859=EDGE_LOOP('',(#428,#429,#430,#431));
#860=EDGE_LOOP('',(#432,#433,#434,#435));
#861=EDGE_LOOP('',(#436,#437,#438,#439));
#862=EDGE_LOOP('',(#440,#441,#442,#443));
#863=EDGE_LOOP('',(#444,#445,#446,#447));
#864=EDGE_LOOP('',(#448));
#865=EDGE_LOOP('',(#449));
#866=EDGE_LOOP('',(#450));
#867=EDGE_LOOP('',(#451));
#868=EDGE_LOOP('',(#452));
#869=EDGE_LOOP('',(#453));
#870=EDGE_LOOP('',(#454));
#871=EDGE_LOOP('',(#455));
#872=EDGE_LOOP('',(#456));
#873=EDGE_LOOP('',(#457));
#874=EDGE_LOOP('',(#458));
#875=EDGE_LOOP('',(#459));
#876=EDGE_LOOP('',(#460));
#877=EDGE_LOOP('',(#461));
#878=EDGE_LOOP('',(#462));
#879=EDGE_LOOP('',(#463));
#880=EDGE_LOOP('',(#464));
#881=EDGE_LOOP('',(#465));
#882=EDGE_LOOP('',(#466));
#883=EDGE_LOOP('',(#467));
#884=EDGE_LOOP('',(#468,#469,#470,#471));
#885=EDGE_LOOP('',(#472,#473,#474,#475));
#886=EDGE_LOOP('',(#476,#477,#478,#479));
#887=EDGE_LOOP('',(#480,#481,#482,#483,#484,#485,#486,#487));
#888=EDGE_LOOP('',(#488));
#889=EDGE_LOOP('',(#489));
#890=EDGE_LOOP('',(#490));
#891=EDGE_LOOP('',(#491));
#892=EDGE_LOOP('',(#492));
#893=EDGE_LOOP('',(#493));
#894=EDGE_LOOP('',(#494));
#895=EDGE_LOOP('',(#495));
#896=EDGE_LOOP('',(#496));
#897=EDGE_LOOP('',(#497));
#898=EDGE_LOOP('',(#498));
#899=EDGE_LOOP('',(#499,#500,#501,#502));
#900=EDGE_LOOP('',(#503));
#901=EDGE_LOOP('',(#504));
#902=EDGE_LOOP('',(#505));
#903=EDGE_LOOP('',(#506));
#904=EDGE_LOOP('',(#507));
#905=EDGE_LOOP('',(#508));
#906=EDGE_LOOP('',(#509));
#907=EDGE_LOOP('',(#510));
#908=EDGE_LOOP('',(#511));
#909=EDGE_LOOP('',(#512,#513,#514,#515,#516,#517,#518,#519));
#910=EDGE_LOOP('',(#520,#521,#522,#523));
#911=EDGE_LOOP('',(#524,#525,#526,#527));
#912=EDGE_LOOP('',(#528,#529,#530,#531,#532));
#913=EDGE_LOOP('',(#533,#534,#535,#536,#537));
#914=EDGE_LOOP('',(#538,#539,#540,#541,#542));
#915=EDGE_LOOP('',(#543,#544,#545,#546,#547));
#916=FACE_BOUND('',#808,.T.);
#917=FACE_BOUND('',#809,.T.);
#918=FACE_BOUND('',#810,.T.);
#919=FACE_BOUND('',#811,.T.);
#920=FACE_BOUND('',#812,.T.);
#921=FACE_BOUND('',#813,.T.);
#922=FACE_BOUND('',#814,.T.);
#923=FACE_BOUND('',#815,.T.);
#924=FACE_BOUND('',#816,.T.);
#925=FACE_BOUND('',#817,.T.);
#926=FACE_BOUND('',#818,.T.);
#927=FACE_BOUND('',#819,.T.);
#928=FACE_BOUND('',#820,.T.);
#929=FACE_BOUND('',#821,.T.);
#930=FACE_BOUND('',#822,.T.);
#931=FACE_BOUND('',#823,.T.);
#932=FACE_BOUND('',#824,.T.);
#933=FACE_BOUND('',#825,.T.);
#934=FACE_BOUND('',#826,.T.);
#935=FACE_BOUND('',#827,.T.);
#936=FACE_BOUND('',#828,.T.);
#937=FACE_BOUND('',#829,.T.);
#938=FACE_BOUND('',#830,.T.);
#939=FACE_BOUND('',#831,.T.);
#940=FACE_BOUND('',#832,.T.);
#941=FACE_BOUND('',#833,.T.);
#942=FACE_BOUND('',#834,.T.);
#943=FACE_BOUND('',#835,.T.);
#944=FACE_BOUND('',#836,.T.);
#945=FACE_BOUND('',#837,.T.);
#946=FACE_BOUND('',#838,.T.);
#947=FACE_BOUND('',#839,.T.);
#948=FACE_BOUND('',#840,.T.);
#949=FACE_BOUND('',#841,.T.);
#950=FACE_BOUND('',#842,.T.);
#951=FACE_BOUND('',#843,.T.);
#952=FACE_BOUND('',#844,.T.);
#953=FACE_BOUND('',#845,.T.);
#954=FACE_BOUND('',#846,.T.);
#955=FACE_BOUND('',#847,.T.);
#956=FACE_BOUND('',#848,.T.);
#957=FACE_BOUND('',#849,.T.);
#958=FACE_BOUND('',#850,.T.);
#959=FACE_BOUND('',#851,.T.);
#960=FACE_BOUND('',#852,.T.);
#961=FACE_BOUND('',#853,.T.);
#962=FACE_BOUND('',#854,.T.);
#963=FACE_BOUND('',#855,.T.);
#964=FACE_BOUND('',#856,.T.);
#965=FACE_BOUND('',#857,.T.);
#966=FACE_BOUND('',#858,.T.);
#967=FACE_BOUND('',#859,.T.);
#968=FACE_BOUND('',#860,.T.);
#969=FACE_BOUND('',#861,.T.);
#970=FACE_BOUND('',#862,.T.);
#971=FACE_BOUND('',#863,.T.);
#972=FACE_BOUND('',#864,.T.);
#973=FACE_BOUND('',#865,.T.);
#974=FACE_BOUND('',#866,.T.);
#975=FACE_BOUND('',#867,.T.);
#976=FACE_BOUND('',#868,.T.);
#977=FACE_BOUND('',#869,.T.);
#978=FACE_BOUND('',#870,.T.);
#979=FACE_BOUND('',#871,.T.);
#980=FACE_BOUND('',#872,.T.);
#981=FACE_BOUND('',#873,.T.);
#982=FACE_BOUND('',#874,.T.);
#983=FACE_BOUND('',#875,.T.);
#984=FACE_BOUND('',#876,.T.);
#985=FACE_BOUND('',#877,.T.);
#986=FACE_BOUND('',#878,.T.);
#987=FACE_BOUND('',#879,.T.);
#988=FACE_BOUND('',#880,.T.);
#989=FACE_BOUND('',#881,.T.);
#990=FACE_BOUND('',#882,.T.);
#991=FACE_BOUND('',#883,.T.);
#992=FACE_BOUND('',#884,.T.);
#993=FACE_BOUND('',#885,.T.);
#994=FACE_BOUND('',#886,.T.);
#995=FACE_BOUND('',#887,.T.);
#996=FACE_BOUND('',#888,.T.);
#997=FACE_BOUND('',#889,.T.);
#998=FACE_BOUND('',#890,.T.);
#999=FACE_BOUND('',#891,.T.);
#1000=FACE_BOUND('',#892,.T.);
#1001=FACE_BOUND('',#893,.T.);
#1002=FACE_BOUND('',#894,.T.);
#1003=FACE_BOUND('',#895,.T.);
#1004=FACE_BOUND('',#896,.T.);
#1005=FACE_BOUND('',#897,.T.);
#1006=FACE_BOUND('',#898,.T.);
#1007=FACE_BOUND('',#899,.T.);
#1008=FACE_BOUND('',#900,.T.);
#1009=FACE_BOUND('',#901,.T.);
#1010=FACE_BOUND('',#902,.T.);
#1011=FACE_BOUND('',#903,.T.);
#1012=FACE_BOUND('',#904,.T.);
#1013=FACE_BOUND('',#905,.T.);
#1014=FACE_BOUND('',#906,.T.);
#1015=FACE_BOUND('',#907,.T.);
#1016=FACE_BOUND('',#908,.T.);
#1017=FACE_BOUND('',#909,.T.);
#1018=FACE_BOUND('',#910,.T.);
#1019=FACE_BOUND('',#911,.T.);
#1020=FACE_BOUND('',#912,.T.);
#1021=FACE_BOUND('',#913,.T.);
#1022=FACE_BOUND('',#914,.T.);
#1023=FACE_BOUND('',#915,.T.);
#1024=TOROIDAL_SURFACE('',#1164,26.5,0.999999999999997);
#1025=TOROIDAL_SURFACE('',#1182,26.5,0.999999999999999);
#1026=TOROIDAL_SURFACE('',#1183,26.5,0.999999999999997);
#1027=TOROIDAL_SURFACE('',#1254,3.2,0.3);
#1028=TOROIDAL_SURFACE('',#1255,3.2,0.3);
#1029=TOROIDAL_SURFACE('',#1256,3.2,0.3);
#1030=TOROIDAL_SURFACE('',#1257,3.2,0.3);
#1031=TOROIDAL_SURFACE('',#1259,26.5,0.999999999999997);
#1032=TOROIDAL_SURFACE('',#1277,26.5,0.999999999999999);
#1033=TOROIDAL_SURFACE('',#1278,26.5,0.999999999999997);
#1034=ADVANCED_FACE('',(#916),#1024,.T.);
#1035=ADVANCED_FACE('',(#917),#172,.F.);
#1036=ADVANCED_FACE('',(#918),#173,.F.);
#1037=ADVANCED_FACE('',(#919,#920,#921,#922),#26,.T.);
#1038=ADVANCED_FACE('',(#923,#924,#925,#926),#27,.F.);
#1039=ADVANCED_FACE('',(#927,#928),#174,.F.);
#1040=ADVANCED_FACE('',(#929,#930),#1025,.T.);
#1041=ADVANCED_FACE('',(#931),#1026,.T.);
#1042=ADVANCED_FACE('',(#932,#933),#22,.F.);
#1043=ADVANCED_FACE('',(#934,#935),#28,.F.);
#1044=ADVANCED_FACE('',(#936,#937),#23,.F.);
#1045=ADVANCED_FACE('',(#938,#939),#29,.F.);
#1046=ADVANCED_FACE('',(#940,#941),#175,.T.);
#1047=ADVANCED_FACE('',(#942),#30,.F.);
#1048=ADVANCED_FACE('',(#943),#31,.F.);
#1049=ADVANCED_FACE('',(#944),#176,.F.);
#1050=ADVANCED_FACE('',(#945),#177,.F.);
#1051=ADVANCED_FACE('',(#946),#178,.F.);
#1052=ADVANCED_FACE('',(#947),#179,.F.);
#1053=ADVANCED_FACE('',(#948,#949),#32,.F.);
#1054=ADVANCED_FACE('',(#950,#951),#180,.T.);
#1055=ADVANCED_FACE('',(#952,#953),#181,.T.);
#1056=ADVANCED_FACE('',(#954,#955),#33,.T.);
#1057=ADVANCED_FACE('',(#956,#957),#182,.T.);
#1058=ADVANCED_FACE('',(#958,#959),#183,.T.);
#1059=ADVANCED_FACE('',(#960),#184,.F.);
#1060=ADVANCED_FACE('',(#961),#185,.F.);
#1061=ADVANCED_FACE('',(#962),#186,.F.);
#1062=ADVANCED_FACE('',(#963),#187,.F.);
#1063=ADVANCED_FACE('',(#964),#188,.F.);
#1064=ADVANCED_FACE('',(#965),#189,.F.);
#1065=ADVANCED_FACE('',(#966),#190,.T.);
#1066=ADVANCED_FACE('',(#967),#191,.T.);
#1067=ADVANCED_FACE('',(#968),#192,.T.);
#1068=ADVANCED_FACE('',(#969),#193,.T.);
#1069=ADVANCED_FACE('',(#970),#194,.T.);
#1070=ADVANCED_FACE('',(#971),#195,.T.);
#1071=ADVANCED_FACE('',(#972,#973),#34,.T.);
#1072=ADVANCED_FACE('',(#974),#196,.F.);
#1073=ADVANCED_FACE('',(#975,#976),#35,.T.);
#1074=ADVANCED_FACE('',(#977),#197,.F.);
#1075=ADVANCED_FACE('',(#978,#979),#36,.T.);
#1076=ADVANCED_FACE('',(#980),#198,.T.);
#1077=ADVANCED_FACE('',(#981,#982),#37,.T.);
#1078=ADVANCED_FACE('',(#983),#199,.T.);
#1079=ADVANCED_FACE('',(#984,#985),#1027,.T.);
#1080=ADVANCED_FACE('',(#986,#987),#1028,.T.);
#1081=ADVANCED_FACE('',(#988,#989),#1029,.T.);
#1082=ADVANCED_FACE('',(#990,#991),#1030,.T.);
#1083=ADVANCED_FACE('',(#992),#1031,.T.);
#1084=ADVANCED_FACE('',(#993),#200,.F.);
#1085=ADVANCED_FACE('',(#994),#201,.F.);
#1086=ADVANCED_FACE('',(#995,#996,#997,#998),#38,.T.);
#1087=ADVANCED_FACE('',(#999,#1000,#1001,#1002),#39,.F.);
#1088=ADVANCED_FACE('',(#1003,#1004),#202,.F.);
#1089=ADVANCED_FACE('',(#1005,#1006),#1032,.T.);
#1090=ADVANCED_FACE('',(#1007),#1033,.T.);
#1091=ADVANCED_FACE('',(#1008,#1009),#24,.F.);
#1092=ADVANCED_FACE('',(#1010,#1011),#40,.F.);
#1093=ADVANCED_FACE('',(#1012,#1013),#25,.F.);
#1094=ADVANCED_FACE('',(#1014,#1015),#41,.F.);
#1095=ADVANCED_FACE('',(#1016,#1017),#203,.T.);
#1096=ADVANCED_FACE('',(#1018),#42,.F.);
#1097=ADVANCED_FACE('',(#1019),#43,.F.);
#1098=ADVANCED_FACE('',(#1020),#204,.F.);
#1099=ADVANCED_FACE('',(#1021),#205,.F.);
#1100=ADVANCED_FACE('',(#1022),#206,.F.);
#1101=ADVANCED_FACE('',(#1023),#207,.F.);
#1102=CLOSED_SHELL('',(#1034,#1035,#1036,#1037,#1038,#1039,#1040,#1041,
#1042,#1043,#1044,#1045,#1046,#1047,#1048,#1049,#1050,#1051,#1052));
#1103=CLOSED_SHELL('',(#1053,#1054,#1055,#1056,#1057,#1058,#1059,#1060,
#1061,#1062,#1063,#1064,#1065,#1066,#1067,#1068,#1069,#1070,#1071,#1072,
#1073,#1074,#1075,#1076,#1077,#1078,#1079,#1080,#1081,#1082));
#1104=CLOSED_SHELL('',(#1083,#1084,#1085,#1086,#1087,#1088,#1089,#1090,
#1091,#1092,#1093,#1094,#1095,#1096,#1097,#1098,#1099,#1100,#1101));
#1105=STYLED_ITEM('',(#1108),#1127);
#1106=STYLED_ITEM('',(#1109),#1128);
#1107=STYLED_ITEM('',(#1110),#1129);
#1108=PRESENTATION_STYLE_ASSIGNMENT((#1111));
#1109=PRESENTATION_STYLE_ASSIGNMENT((#1112));
#1110=PRESENTATION_STYLE_ASSIGNMENT((#1113));
#1111=SURFACE_STYLE_USAGE(.BOTH.,#1114);
#1112=SURFACE_STYLE_USAGE(.BOTH.,#1115);
#1113=SURFACE_STYLE_USAGE(.BOTH.,#1116);
#1114=SURFACE_SIDE_STYLE('',(#1117));
#1115=SURFACE_SIDE_STYLE('',(#1118));
#1116=SURFACE_SIDE_STYLE('',(#1119));
#1117=SURFACE_STYLE_FILL_AREA(#1120);
#1118=SURFACE_STYLE_FILL_AREA(#1121);
#1119=SURFACE_STYLE_FILL_AREA(#1122);
#1120=FILL_AREA_STYLE('',(#1123));
#1121=FILL_AREA_STYLE('',(#1124));
#1122=FILL_AREA_STYLE('',(#1125));
#1123=FILL_AREA_STYLE_COLOUR('',#1126);
#1124=FILL_AREA_STYLE_COLOUR('',#18);
#1125=FILL_AREA_STYLE_COLOUR('',#1126);
#1126=COLOUR_RGB('',0.689999997615814,0.689999997615814,0.689999997615814);
#1127=MANIFOLD_SOLID_BREP('DBU03-D55-d20-e20-001',#1102);
#1128=MANIFOLD_SOLID_BREP('DBU03-D55-d20-e20-003',#1103);
#1129=MANIFOLD_SOLID_BREP('DBU03-D55-d20-e20-002',#1104);
#1130=CONTEXT_DEPENDENT_SHAPE_REPRESENTATION(#1138,#2087);
#1131=CONTEXT_DEPENDENT_SHAPE_REPRESENTATION(#1139,#2089);
#1132=CONTEXT_DEPENDENT_SHAPE_REPRESENTATION(#1140,#2091);
#1133=CONTEXT_DEPENDENT_SHAPE_REPRESENTATION(#1141,#2093);
#1134=NEXT_ASSEMBLY_USAGE_OCCURRENCE('NAUO1','DBU03-D55-d20-e20-dummy',
'DBU03-D55-d20-e20-dummy',#2094,#2095,'');
#1135=NEXT_ASSEMBLY_USAGE_OCCURRENCE('NAUO2','DBU03-D55-d20-e20-001',
'DBU03-D55-d20-e20-001',#2094,#2096,'');
#1136=NEXT_ASSEMBLY_USAGE_OCCURRENCE('NAUO3','DBU03-D55-d20-e20-003',
'DBU03-D55-d20-e20-003',#2094,#2097,'');
#1137=NEXT_ASSEMBLY_USAGE_OCCURRENCE('NAUO4','DBU03-D55-d20-e20-002',
'DBU03-D55-d20-e20-002',#2094,#2098,'');
#1138=(
REPRESENTATION_RELATIONSHIP(' ',' ',#1158,#1157)
REPRESENTATION_RELATIONSHIP_WITH_TRANSFORMATION(#1142)
SHAPE_REPRESENTATION_RELATIONSHIP()
);
#1139=(
REPRESENTATION_RELATIONSHIP(' ',' ',#1159,#1157)
REPRESENTATION_RELATIONSHIP_WITH_TRANSFORMATION(#1143)
SHAPE_REPRESENTATION_RELATIONSHIP()
);
#1140=(
REPRESENTATION_RELATIONSHIP(' ',' ',#1160,#1157)
REPRESENTATION_RELATIONSHIP_WITH_TRANSFORMATION(#1144)
SHAPE_REPRESENTATION_RELATIONSHIP()
);
#1141=(
REPRESENTATION_RELATIONSHIP(' ',' ',#1161,#1157)
REPRESENTATION_RELATIONSHIP_WITH_TRANSFORMATION(#1145)
SHAPE_REPRESENTATION_RELATIONSHIP()
);
#1142=ITEM_DEFINED_TRANSFORMATION(' ',' ',#1162,#1163);
#1143=ITEM_DEFINED_TRANSFORMATION(' ',' ',#1162,#1199);
#1144=ITEM_DEFINED_TRANSFORMATION(' ',' ',#1162,#1258);
#1145=ITEM_DEFINED_TRANSFORMATION(' ',' ',#1162,#1294);
#1146=SHAPE_REPRESENTATION_RELATIONSHIP('','',#1158,#1150);
#1147=SHAPE_REPRESENTATION_RELATIONSHIP('','',#1159,#19);
#1148=SHAPE_REPRESENTATION_RELATIONSHIP('','',#1160,#20);
#1149=SHAPE_REPRESENTATION_RELATIONSHIP('','',#1161,#21);
#1150=GEOMETRICALLY_BOUNDED_WIREFRAME_SHAPE_REPRESENTATION('',(#1151),#2073);
#1151=GEOMETRIC_CURVE_SET('',(#1626));
#1152=SHAPE_DEFINITION_REPRESENTATION(#2085,#1157);
#1153=SHAPE_DEFINITION_REPRESENTATION(#2086,#1158);
#1154=SHAPE_DEFINITION_REPRESENTATION(#2088,#1159);
#1155=SHAPE_DEFINITION_REPRESENTATION(#2090,#1160);
#1156=SHAPE_DEFINITION_REPRESENTATION(#2092,#1161);
#1157=SHAPE_REPRESENTATION('DBU03-D55-d20-e20',(#1162,#1163,#1199,#1258,
#1294),#2072);
#1158=SHAPE_REPRESENTATION('DBU03-D55-d20-e20-dummy',(#1162),#2073);
#1159=SHAPE_REPRESENTATION('DBU03-D55-d20-e20-001',(#1162),#2074);
#1160=SHAPE_REPRESENTATION('DBU03-D55-d20-e20-003',(#1162),#2075);
#1161=SHAPE_REPRESENTATION('DBU03-D55-d20-e20-002',(#1162),#2076);
#1162=AXIS2_PLACEMENT_3D('',#1625,#1295,#1296);
#1163=AXIS2_PLACEMENT_3D('',#1627,#1297,#1298);
#1164=AXIS2_PLACEMENT_3D('',#1628,#1299,#1300);
#1165=AXIS2_PLACEMENT_3D('',#1636,#1301,#1302);
#1166=AXIS2_PLACEMENT_3D('',#1644,#1303,#1304);
#1167=AXIS2_PLACEMENT_3D('',#1645,#1305,#1306);
#1168=AXIS2_PLACEMENT_3D('',#1646,#1307,#1308);
#1169=AXIS2_PLACEMENT_3D('',#1651,#1310,#1311);
#1170=AXIS2_PLACEMENT_3D('',#1654,#1313,#1314);
#1171=AXIS2_PLACEMENT_3D('',#1657,#1316,#1317);
#1172=AXIS2_PLACEMENT_3D('',#1660,#1319,#1320);
#1173=AXIS2_PLACEMENT_3D('',#1664,#1322,#1323);
#1174=AXIS2_PLACEMENT_3D('',#1669,#1326,#1327);
#1175=AXIS2_PLACEMENT_3D('',#1673,#1329,#1330);
#1176=AXIS2_PLACEMENT_3D('',#1690,#1331,#1332);
#1177=AXIS2_PLACEMENT_3D('',#1708,#1333,#1334);
#1178=AXIS2_PLACEMENT_3D('',#1721,#1335,#1336);
#1179=AXIS2_PLACEMENT_3D('',#1723,#1337,#1338);
#1180=AXIS2_PLACEMENT_3D('',#1737,#1339,#1340);
#1181=AXIS2_PLACEMENT_3D('',#1738,#1341,#1342);
#1182=AXIS2_PLACEMENT_3D('',#1740,#1343,#1344);
#1183=AXIS2_PLACEMENT_3D('',#1741,#1345,#1346);
#1184=AXIS2_PLACEMENT_3D('',#1752,#1347,#1348);
#1185=AXIS2_PLACEMENT_3D('',#1753,#1349,#1350);
#1186=AXIS2_PLACEMENT_3D('',#1755,#1351,#1352);
#1187=AXIS2_PLACEMENT_3D('',#1756,#1353,#1354);
#1188=AXIS2_PLACEMENT_3D('',#1757,#1355,#1356);
#1189=AXIS2_PLACEMENT_3D('',#1759,#1357,#1358);
#1190=AXIS2_PLACEMENT_3D('',#1760,#1359,#1360);
#1191=AXIS2_PLACEMENT_3D('',#1763,#1362,#1363);
#1192=AXIS2_PLACEMENT_3D('',#1768,#1366,#1367);
#1193=AXIS2_PLACEMENT_3D('',#1771,#1369,#1370);
#1194=AXIS2_PLACEMENT_3D('',#1774,#1373,#1374);
#1195=AXIS2_PLACEMENT_3D('',#1777,#1377,#1378);
#1196=AXIS2_PLACEMENT_3D('',#1778,#1379,#1380);
#1197=AXIS2_PLACEMENT_3D('',#1779,#1381,#1382);
#1198=AXIS2_PLACEMENT_3D('',#1780,#1383,#1384);
#1199=AXIS2_PLACEMENT_3D('',#1781,#1385,#1386);
#1200=AXIS2_PLACEMENT_3D('',#1782,#1387,#1388);
#1201=AXIS2_PLACEMENT_3D('',#1786,#1390,#1391);
#1202=AXIS2_PLACEMENT_3D('',#1790,#1393,#1394);
#1203=AXIS2_PLACEMENT_3D('',#1794,#1396,#1397);
#1204=AXIS2_PLACEMENT_3D('',#1798,#1399,#1400);
#1205=AXIS2_PLACEMENT_3D('',#1799,#1401,#1402);
#1206=AXIS2_PLACEMENT_3D('',#1804,#1404,#1405);
#1207=AXIS2_PLACEMENT_3D('',#1808,#1407,#1408);
#1208=AXIS2_PLACEMENT_3D('',#1812,#1410,#1411);
#1209=AXIS2_PLACEMENT_3D('',#1815,#1413,#1414);
#1210=AXIS2_PLACEMENT_3D('',#1816,#1415,#1416);
#1211=AXIS2_PLACEMENT_3D('',#1818,#1417,#1418);
#1212=AXIS2_PLACEMENT_3D('',#1823,#1421,#1422);
#1213=AXIS2_PLACEMENT_3D('',#1824,#1423,#1424);
#1214=AXIS2_PLACEMENT_3D('',#1826,#1425,#1426);
#1215=AXIS2_PLACEMENT_3D('',#1831,#1429,#1430);
#1216=AXIS2_PLACEMENT_3D('',#1834,#1432,#1433);
#1217=AXIS2_PLACEMENT_3D('',#1839,#1436,#1437);
#1218=AXIS2_PLACEMENT_3D('',#1842,#1439,#1440);
#1219=AXIS2_PLACEMENT_3D('',#1847,#1442,#1443);
#1220=AXIS2_PLACEMENT_3D('',#1851,#1445,#1446);
#1221=AXIS2_PLACEMENT_3D('',#1855,#1448,#1449);
#1222=AXIS2_PLACEMENT_3D('',#1858,#1451,#1452);
#1223=AXIS2_PLACEMENT_3D('',#1859,#1453,#1454);
#1224=AXIS2_PLACEMENT_3D('',#1863,#1457,#1458);
#1225=AXIS2_PLACEMENT_3D('',#1864,#1459,#1460);
#1226=AXIS2_PLACEMENT_3D('',#1868,#1463,#1464);
#1227=AXIS2_PLACEMENT_3D('',#1871,#1467,#1468);
#1228=AXIS2_PLACEMENT_3D('',#1872,#1469,#1470);
#1229=AXIS2_PLACEMENT_3D('',#1873,#1471,#1472);
#1230=AXIS2_PLACEMENT_3D('',#1875,#1474,#1475);
#1231=AXIS2_PLACEMENT_3D('',#1877,#1477,#1478);
#1232=AXIS2_PLACEMENT_3D('',#1878,#1479,#1480);
#1233=AXIS2_PLACEMENT_3D('',#1881,#1483,#1484);
#1234=AXIS2_PLACEMENT_3D('',#1882,#1485,#1486);
#1235=AXIS2_PLACEMENT_3D('',#1883,#1487,#1488);
#1236=AXIS2_PLACEMENT_3D('',#1885,#1490,#1491);
#1237=AXIS2_PLACEMENT_3D('',#1887,#1493,#1494);
#1238=AXIS2_PLACEMENT_3D('',#1888,#1495,#1496);
#1239=AXIS2_PLACEMENT_3D('',#1889,#1497,#1498);
#1240=AXIS2_PLACEMENT_3D('',#1891,#1499,#1500);
#1241=AXIS2_PLACEMENT_3D('',#1892,#1501,#1502);
#1242=AXIS2_PLACEMENT_3D('',#1894,#1503,#1504);
#1243=AXIS2_PLACEMENT_3D('',#1895,#1505,#1506);
#1244=AXIS2_PLACEMENT_3D('',#1897,#1507,#1508);
#1245=AXIS2_PLACEMENT_3D('',#1898,#1509,#1510);
#1246=AXIS2_PLACEMENT_3D('',#1900,#1511,#1512);
#1247=AXIS2_PLACEMENT_3D('',#1901,#1513,#1514);
#1248=AXIS2_PLACEMENT_3D('',#1903,#1515,#1516);
#1249=AXIS2_PLACEMENT_3D('',#1904,#1517,#1518);
#1250=AXIS2_PLACEMENT_3D('',#1906,#1519,#1520);
#1251=AXIS2_PLACEMENT_3D('',#1907,#1521,#1522);
#1252=AXIS2_PLACEMENT_3D('',#1909,#1523,#1524);
#1253=AXIS2_PLACEMENT_3D('',#1910,#1525,#1526);
#1254=AXIS2_PLACEMENT_3D('',#1912,#1527,#1528);
#1255=AXIS2_PLACEMENT_3D('',#1913,#1529,#1530);
#1256=AXIS2_PLACEMENT_3D('',#1914,#1531,#1532);
#1257=AXIS2_PLACEMENT_3D('',#1915,#1533,#1534);
#1258=AXIS2_PLACEMENT_3D('',#1916,#1535,#1536);
#1259=AXIS2_PLACEMENT_3D('',#1917,#1537,#1538);
#1260=AXIS2_PLACEMENT_3D('',#1925,#1539,#1540);
#1261=AXIS2_PLACEMENT_3D('',#1933,#1541,#1542);
#1262=AXIS2_PLACEMENT_3D('',#1934,#1543,#1544);
#1263=AXIS2_PLACEMENT_3D('',#1935,#1545,#1546);
#1264=AXIS2_PLACEMENT_3D('',#1940,#1548,#1549);
#1265=AXIS2_PLACEMENT_3D('',#1943,#1551,#1552);
#1266=AXIS2_PLACEMENT_3D('',#1946,#1554,#1555);
#1267=AXIS2_PLACEMENT_3D('',#1949,#1557,#1558);
#1268=AXIS2_PLACEMENT_3D('',#1952,#1560,#1561);
#1269=AXIS2_PLACEMENT_3D('',#1956,#1563,#1564);
#1270=AXIS2_PLACEMENT_3D('',#1960,#1566,#1567);
#1271=AXIS2_PLACEMENT_3D('',#1995,#1569,#1570);
#1272=AXIS2_PLACEMENT_3D('',#1997,#1571,#1572);
#1273=AXIS2_PLACEMENT_3D('',#2010,#1573,#1574);
#1274=AXIS2_PLACEMENT_3D('',#2012,#1575,#1576);
#1275=AXIS2_PLACEMENT_3D('',#2026,#1577,#1578);
#1276=AXIS2_PLACEMENT_3D('',#2027,#1579,#1580);
#1277=AXIS2_PLACEMENT_3D('',#2029,#1581,#1582);
#1278=AXIS2_PLACEMENT_3D('',#2030,#1583,#1584);
#1279=AXIS2_PLACEMENT_3D('',#2041,#1585,#1586);
#1280=AXIS2_PLACEMENT_3D('',#2042,#1587,#1588);
#1281=AXIS2_PLACEMENT_3D('',#2044,#1589,#1590);
#1282=AXIS2_PLACEMENT_3D('',#2045,#1591,#1592);
#1283=AXIS2_PLACEMENT_3D('',#2046,#1593,#1594);
#1284=AXIS2_PLACEMENT_3D('',#2048,#1595,#1596);
#1285=AXIS2_PLACEMENT_3D('',#2049,#1597,#1598);
#1286=AXIS2_PLACEMENT_3D('',#2052,#1600,#1601);
#1287=AXIS2_PLACEMENT_3D('',#2057,#1604,#1605);
#1288=AXIS2_PLACEMENT_3D('',#2060,#1607,#1608);
#1289=AXIS2_PLACEMENT_3D('',#2063,#1611,#1612);
#1290=AXIS2_PLACEMENT_3D('',#2066,#1615,#1616);
#1291=AXIS2_PLACEMENT_3D('',#2067,#1617,#1618);
#1292=AXIS2_PLACEMENT_3D('',#2068,#1619,#1620);
#1293=AXIS2_PLACEMENT_3D('',#2069,#1621,#1622);
#1294=AXIS2_PLACEMENT_3D('',#2070,#1623,#1624);
#1295=DIRECTION('',(0.,0.,1.));
#1296=DIRECTION('',(1.,0.,0.));
#1297=DIRECTION('',(0.,0.,1.));
#1298=DIRECTION('',(1.,0.,0.));
#1299=DIRECTION('',(1.,0.,0.));
#1300=DIRECTION('',(0.,0.,-1.));
#1301=DIRECTION('',(1.,0.,0.));
#1302=DIRECTION('',(0.,0.,-1.));
#1303=DIRECTION('',(1.,0.,0.));
#1304=DIRECTION('',(0.,0.,-1.));
#1305=DIRECTION('',(-1.,0.,0.));
#1306=DIRECTION('',(0.,0.,1.));
#1307=DIRECTION('',(-1.,0.,0.));
#1308=DIRECTION('',(0.,0.,1.));
#1309=DIRECTION('',(0.,0.,1.));
#1310=DIRECTION('',(1.,0.,0.));
#1311=DIRECTION('',(0.,0.,-1.));
#1312=DIRECTION('',(0.,0.,-1.));
#1313=DIRECTION('',(-1.,0.,0.));
#1314=DIRECTION('',(0.,0.,1.));
#1315=DIRECTION('',(0.,0.,1.));
#1316=DIRECTION('',(-1.,0.,0.));
#1317=DIRECTION('',(0.,0.,1.));
#1318=DIRECTION('',(0.,0.,-1.));
#1319=DIRECTION('',(1.,0.,0.));
#1320=DIRECTION('',(0.,0.,-1.));
#1321=DIRECTION('',(-1.,0.,0.));
#1322=DIRECTION('',(1.,0.,0.));
#1323=DIRECTION('',(0.,0.,-1.));
#1324=DIRECTION('',(-1.,0.,0.));
#1325=DIRECTION('',(-1.,0.,0.));
#1326=DIRECTION('',(1.,0.,0.));
#1327=DIRECTION('',(0.,0.,-1.));
#1328=DIRECTION('',(-1.,0.,0.));
#1329=DIRECTION('',(1.,0.,0.));
#1330=DIRECTION('',(0.,0.,-1.));
#1331=DIRECTION('',(1.,0.,0.));
#1332=DIRECTION('',(0.,0.,-1.));
#1333=DIRECTION('',(-1.,0.,0.));
#1334=DIRECTION('',(0.,0.,1.));
#1335=DIRECTION('',(1.,0.,0.));
#1336=DIRECTION('',(0.,0.,-1.));
#1337=DIRECTION('',(1.,0.,0.));
#1338=DIRECTION('',(0.,0.,-1.));
#1339=DIRECTION('',(1.,0.,0.));
#1340=DIRECTION('',(0.,0.,-1.));
#1341=DIRECTION('',(1.,0.,0.));
#1342=DIRECTION('',(0.,0.,-1.));
#1343=DIRECTION('',(1.,0.,0.));
#1344=DIRECTION('',(0.,0.,-1.));
#1345=DIRECTION('',(1.,0.,0.));
#1346=DIRECTION('',(0.,0.,-1.));
#1347=DIRECTION('',(0.,1.22464679914735E-16,1.));
#1348=DIRECTION('',(0.,-1.,1.22464679914735E-16));
#1349=DIRECTION('',(0.,1.22464679914735E-16,1.));
#1350=DIRECTION('',(0.,-1.,1.22464679914735E-16));
#1351=DIRECTION('',(0.,1.22464679914735E-16,1.));
#1352=DIRECTION('',(0.,-1.,1.22464679914735E-16));
#1353=DIRECTION('',(0.,-1.,6.12323399573677E-17));
#1354=DIRECTION('',(0.,-6.12323399573677E-17,-1.));
#1355=DIRECTION('',(0.,1.,-6.12323399573677E-17));
#1356=DIRECTION('',(0.,6.12323399573677E-17,1.));
#1357=DIRECTION('',(0.,1.,-6.12323399573677E-17));
#1358=DIRECTION('',(0.,6.12323399573677E-17,1.));
#1359=DIRECTION('',(1.,0.,0.));
#1360=DIRECTION('',(0.,0.,-1.));
#1361=DIRECTION('',(0.,0.,1.));
#1362=DIRECTION('',(1.,0.,0.));
#1363=DIRECTION('',(0.,0.,-1.));
#1364=DIRECTION('',(0.,0.,-1.));
#1365=DIRECTION('',(0.,0.,-1.));
#1366=DIRECTION('',(1.,0.,0.));
#1367=DIRECTION('',(0.,0.,-1.));
#1368=DIRECTION('',(0.,0.,1.));
#1369=DIRECTION('',(-1.,0.,0.));
#1370=DIRECTION('',(0.,0.,1.));
#1371=DIRECTION('',(-1.,0.,0.));
#1372=DIRECTION('',(-1.,0.,0.));
#1373=DIRECTION('',(-1.,0.,0.));
#1374=DIRECTION('',(0.,0.,1.));
#1375=DIRECTION('',(-1.,0.,0.));
#1376=DIRECTION('',(-1.,0.,0.));
#1377=DIRECTION('',(0.,-1.,0.));
#1378=DIRECTION('',(0.,0.,-1.));
#1379=DIRECTION('',(0.,1.,0.));
#1380=DIRECTION('',(0.,0.,1.));
#1381=DIRECTION('',(0.,-1.,0.));
#1382=DIRECTION('',(0.,0.,-1.));
#1383=DIRECTION('',(0.,1.,0.));
#1384=DIRECTION('',(0.,0.,1.));
#1385=DIRECTION('',(0.,0.,1.));
#1386=DIRECTION('',(-1.,0.,0.));
#1387=DIRECTION('',(1.,0.,0.));
#1388=DIRECTION('',(0.,0.,-1.));
#1389=DIRECTION('',(1.,0.,0.));
#1390=DIRECTION('',(1.,0.,0.));
#1391=DIRECTION('',(0.,0.,-1.));
#1392=DIRECTION('',(1.,0.,0.));
#1393=DIRECTION('',(1.,0.,0.));
#1394=DIRECTION('',(0.,0.,-1.));
#1395=DIRECTION('',(1.,0.,0.));
#1396=DIRECTION('',(1.,0.,0.));
#1397=DIRECTION('',(0.,0.,-1.));
#1398=DIRECTION('',(1.,0.,0.));
#1399=DIRECTION('',(1.,0.,0.));
#1400=DIRECTION('',(0.,0.,-1.));
#1401=DIRECTION('',(1.,0.,0.));
#1402=DIRECTION('',(0.,0.,-1.));
#1403=DIRECTION('',(1.,0.,0.));
#1404=DIRECTION('',(1.,0.,0.));
#1405=DIRECTION('',(0.,0.,-1.));
#1406=DIRECTION('',(1.,0.,0.));
#1407=DIRECTION('',(1.,0.,0.));
#1408=DIRECTION('',(0.,0.,-1.));
#1409=DIRECTION('',(1.,0.,0.));
#1410=DIRECTION('',(1.,0.,0.));
#1411=DIRECTION('',(0.,0.,-1.));
#1412=DIRECTION('',(1.,0.,0.));
#1413=DIRECTION('',(1.,0.,0.));
#1414=DIRECTION('',(0.,0.,-1.));
#1415=DIRECTION('',(1.,0.,0.));
#1416=DIRECTION('',(0.,0.,-1.));
#1417=DIRECTION('',(1.,0.,0.));
#1418=DIRECTION('',(0.,0.,-1.));
#1419=DIRECTION('',(0.,0.,1.));
#1420=DIRECTION('',(0.,0.,1.));
#1421=DIRECTION('',(1.,0.,0.));
#1422=DIRECTION('',(0.,0.,-1.));
#1423=DIRECTION('',(1.,0.,0.));
#1424=DIRECTION('',(0.,0.,-1.));
#1425=DIRECTION('',(1.,0.,0.));
#1426=DIRECTION('',(0.,0.,-1.));
#1427=DIRECTION('',(0.,0.,-1.));
#1428=DIRECTION('',(0.,0.,-1.));
#1429=DIRECTION('',(1.,0.,0.));
#1430=DIRECTION('',(0.,0.,-1.));
#1431=DIRECTION('',(1.,0.,0.));
#1432=DIRECTION('',(1.,0.,0.));
#1433=DIRECTION('',(0.,0.,-1.));
#1434=DIRECTION('',(1.,0.,0.));
#1435=DIRECTION('',(1.,0.,0.));
#1436=DIRECTION('',(1.,0.,0.));
#1437=DIRECTION('',(0.,0.,-1.));
#1438=DIRECTION('',(1.,0.,0.));
#1439=DIRECTION('',(1.,0.,0.));
#1440=DIRECTION('',(0.,0.,-1.));
#1441=DIRECTION('',(-1.,0.,0.));
#1442=DIRECTION('',(1.,0.,0.));
#1443=DIRECTION('',(0.,0.,-1.));
#1444=DIRECTION('',(-1.,0.,0.));
#1445=DIRECTION('',(1.,0.,0.));
#1446=DIRECTION('',(0.,0.,-1.));
#1447=DIRECTION('',(-1.,0.,0.));
#1448=DIRECTION('',(1.,0.,0.));
#1449=DIRECTION('',(0.,0.,-1.));
#1450=DIRECTION('',(-1.,0.,0.));
#1451=DIRECTION('',(-1.,0.,0.));
#1452=DIRECTION('',(0.,0.,1.));
#1453=DIRECTION('',(-1.,0.,0.));
#1454=DIRECTION('',(0.,0.,1.));
#1455=DIRECTION('',(0.,1.,0.));
#1456=DIRECTION('',(0.,1.,0.));
#1457=DIRECTION('',(-1.,0.,0.));
#1458=DIRECTION('',(0.,0.,1.));
#1459=DIRECTION('',(-1.,0.,0.));
#1460=DIRECTION('',(0.,0.,1.));
#1461=DIRECTION('',(0.,-1.,0.));
#1462=DIRECTION('',(0.,-1.,0.));
#1463=DIRECTION('',(1.,0.,0.));
#1464=DIRECTION('',(0.,0.,-1.));
#1465=DIRECTION('',(0.,1.,0.));
#1466=DIRECTION('',(0.,-1.,0.));
#1467=DIRECTION('',(0.,0.,-1.));
#1468=DIRECTION('',(-1.,0.,0.));
#1469=DIRECTION('',(0.,0.,1.));
#1470=DIRECTION('',(1.,0.,0.));
#1471=DIRECTION('',(0.,0.,1.));
#1472=DIRECTION('',(1.,0.,0.));
#1473=DIRECTION('',(0.,1.,0.));
#1474=DIRECTION('',(0.,0.,-1.));
#1475=DIRECTION('',(-1.,0.,0.));
#1476=DIRECTION('',(0.,-1.,0.));
#1477=DIRECTION('',(1.,0.,0.));
#1478=DIRECTION('',(0.,0.,-1.));
#1479=DIRECTION('',(1.,0.,0.));
#1480=DIRECTION('',(0.,0.,-1.));
#1481=DIRECTION('',(0.,0.,1.));
#1482=DIRECTION('',(0.,0.,-1.));
#1483=DIRECTION('',(0.,-1.,0.));
#1484=DIRECTION('',(0.,0.,-1.));
#1485=DIRECTION('',(0.,1.,0.));
#1486=DIRECTION('',(0.,0.,1.));
#1487=DIRECTION('',(0.,1.,0.));
#1488=DIRECTION('',(0.,0.,1.));
#1489=DIRECTION('',(0.,0.,1.));
#1490=DIRECTION('',(1.,0.,0.));
#1491=DIRECTION('',(0.,0.,-1.));
#1492=DIRECTION('',(0.,0.,-1.));
#1493=DIRECTION('',(0.,-1.,0.));
#1494=DIRECTION('',(0.,0.,-1.));
#1495=DIRECTION('',(1.,0.,0.));
#1496=DIRECTION('',(0.,0.,-1.));
#1497=DIRECTION('',(1.,0.,0.));
#1498=DIRECTION('',(0.,0.,-1.));
#1499=DIRECTION('',(1.,0.,0.));
#1500=DIRECTION('',(0.,0.,-1.));
#1501=DIRECTION('',(1.,0.,0.));
#1502=DIRECTION('',(0.,0.,-1.));
#1503=DIRECTION('',(1.,0.,0.));
#1504=DIRECTION('',(0.,0.,-1.));
#1505=DIRECTION('',(1.,0.,0.));
#1506=DIRECTION('',(0.,0.,-1.));
#1507=DIRECTION('',(1.,0.,0.));
#1508=DIRECTION('',(0.,0.,-1.));
#1509=DIRECTION('',(1.,0.,0.));
#1510=DIRECTION('',(0.,0.,-1.));
#1511=DIRECTION('',(-1.,0.,0.));
#1512=DIRECTION('',(0.,0.,1.));
#1513=DIRECTION('',(1.,0.,0.));
#1514=DIRECTION('',(0.,0.,-1.));
#1515=DIRECTION('',(1.,0.,0.));
#1516=DIRECTION('',(0.,0.,-1.));
#1517=DIRECTION('',(1.,0.,0.));
#1518=DIRECTION('',(0.,0.,-1.));
#1519=DIRECTION('',(-1.,0.,0.));
#1520=DIRECTION('',(0.,0.,1.));
#1521=DIRECTION('',(1.,0.,0.));
#1522=DIRECTION('',(0.,0.,-1.));
#1523=DIRECTION('',(1.,0.,0.));
#1524=DIRECTION('',(0.,0.,-1.));
#1525=DIRECTION('',(1.,0.,0.));
#1526=DIRECTION('',(0.,0.,-1.));
#1527=DIRECTION('',(1.,0.,0.));
#1528=DIRECTION('',(0.,0.,-1.));
#1529=DIRECTION('',(1.,0.,0.));
#1530=DIRECTION('',(0.,0.,-1.));
#1531=DIRECTION('',(1.,0.,0.));
#1532=DIRECTION('',(0.,0.,-1.));
#1533=DIRECTION('',(1.,0.,0.));
#1534=DIRECTION('',(0.,0.,-1.));
#1535=DIRECTION('',(0.,0.,1.));
#1536=DIRECTION('',(1.,0.,0.));
#1537=DIRECTION('',(1.,0.,0.));
#1538=DIRECTION('',(0.,0.,-1.));
#1539=DIRECTION('',(1.,0.,0.));
#1540=DIRECTION('',(0.,0.,-1.));
#1541=DIRECTION('',(1.,0.,0.));
#1542=DIRECTION('',(0.,0.,-1.));
#1543=DIRECTION('',(-1.,0.,0.));
#1544=DIRECTION('',(0.,0.,1.));
#1545=DIRECTION('',(-1.,0.,0.));
#1546=DIRECTION('',(0.,0.,1.));
#1547=DIRECTION('',(0.,-1.,6.0564956044124E-17));
#1548=DIRECTION('',(1.,0.,0.));
#1549=DIRECTION('',(0.,0.,-1.));
#1550=DIRECTION('',(0.,1.,-6.0564956044124E-17));
#1551=DIRECTION('',(-1.,0.,0.));
#1552=DIRECTION('',(0.,0.,1.));
#1553=DIRECTION('',(0.,-1.,6.0564956044124E-17));
#1554=DIRECTION('',(-1.,0.,0.));
#1555=DIRECTION('',(0.,0.,1.));
#1556=DIRECTION('',(0.,1.,-6.0564956044124E-17));
#1557=DIRECTION('',(1.,0.,0.));
#1558=DIRECTION('',(0.,0.,-1.));
#1559=DIRECTION('',(-1.,0.,0.));
#1560=DIRECTION('',(1.,0.,0.));
#1561=DIRECTION('',(0.,0.,-1.));
#1562=DIRECTION('',(-1.,0.,0.));
#1563=DIRECTION('',(1.,0.,0.));
#1564=DIRECTION('',(0.,0.,-1.));
#1565=DIRECTION('',(-1.,0.,0.));
#1566=DIRECTION('',(1.,0.,0.));
#1567=DIRECTION('',(0.,0.,-1.));
#1568=DIRECTION('',(-1.,0.,0.));
#1569=DIRECTION('',(1.,0.,0.));
#1570=DIRECTION('',(0.,0.,-1.));
#1571=DIRECTION('',(-1.,0.,0.));
#1572=DIRECTION('',(0.,0.,1.));
#1573=DIRECTION('',(1.,0.,0.));
#1574=DIRECTION('',(0.,0.,-1.));
#1575=DIRECTION('',(1.,0.,0.));
#1576=DIRECTION('',(0.,0.,-1.));
#1577=DIRECTION('',(1.,0.,0.));
#1578=DIRECTION('',(0.,0.,-1.));
#1579=DIRECTION('',(1.,0.,0.));
#1580=DIRECTION('',(0.,0.,-1.));
#1581=DIRECTION('',(1.,0.,0.));
#1582=DIRECTION('',(0.,0.,-1.));
#1583=DIRECTION('',(1.,0.,0.));
#1584=DIRECTION('',(0.,0.,-1.));
#1585=DIRECTION('',(0.,1.22464679914735E-16,1.));
#1586=DIRECTION('',(0.,-1.,1.22464679914735E-16));
#1587=DIRECTION('',(0.,1.22464679914735E-16,1.));
#1588=DIRECTION('',(0.,-1.,1.22464679914735E-16));
#1589=DIRECTION('',(0.,1.22464679914735E-16,1.));
#1590=DIRECTION('',(0.,-1.,1.22464679914735E-16));
#1591=DIRECTION('',(0.,1.,-6.12323399573677E-17));
#1592=DIRECTION('',(0.,6.12323399573677E-17,1.));
#1593=DIRECTION('',(0.,1.,-6.12323399573677E-17));
#1594=DIRECTION('',(0.,6.12323399573677E-17,1.));
#1595=DIRECTION('',(0.,1.,-6.12323399573677E-17));
#1596=DIRECTION('',(0.,6.12323399573677E-17,1.));
#1597=DIRECTION('',(1.,0.,0.));
#1598=DIRECTION('',(0.,0.,-1.));
#1599=DIRECTION('',(0.,-1.,6.05649560441239E-17));
#1600=DIRECTION('',(1.,0.,0.));
#1601=DIRECTION('',(0.,0.,-1.));
#1602=DIRECTION('',(0.,1.,-6.05649560441239E-17));
#1603=DIRECTION('',(0.,1.,-6.0564956044124E-17));
#1604=DIRECTION('',(1.,0.,0.));
#1605=DIRECTION('',(0.,0.,-1.));
#1606=DIRECTION('',(0.,-1.,6.0564956044124E-17));
#1607=DIRECTION('',(-1.,0.,0.));
#1608=DIRECTION('',(0.,0.,1.));
#1609=DIRECTION('',(-1.,0.,0.));
#1610=DIRECTION('',(-1.,0.,0.));
#1611=DIRECTION('',(-1.,0.,0.));
#1612=DIRECTION('',(0.,0.,1.));
#1613=DIRECTION('',(-1.,0.,0.));
#1614=DIRECTION('',(-1.,0.,0.));
#1615=DIRECTION('',(0.,-6.0564956044124E-17,-1.));
#1616=DIRECTION('',(0.,1.,-6.0564956044124E-17));
#1617=DIRECTION('',(0.,6.0564956044124E-17,1.));
#1618=DIRECTION('',(0.,-1.,6.0564956044124E-17));
#1619=DIRECTION('',(0.,-6.0564956044124E-17,-1.));
#1620=DIRECTION('',(0.,1.,-6.0564956044124E-17));
#1621=DIRECTION('',(0.,6.0564956044124E-17,1.));
#1622=DIRECTION('',(0.,-1.,6.0564956044124E-17));
#1623=DIRECTION('',(0.,0.,1.));
#1624=DIRECTION('',(1.,0.,0.));
#1625=CARTESIAN_POINT('',(0.,0.,0.));
#1626=CARTESIAN_POINT('DBU03-D55-d20-e20-dummy',(0.,0.,0.));
#1627=CARTESIAN_POINT('',(0.,0.,0.));
#1628=CARTESIAN_POINT('',(30.,0.,0.));
#1629=CARTESIAN_POINT('',(31.,6.5,-25.6904651573303));
#1630=CARTESIAN_POINT('',(31.,6.5,-25.9557004092696));
#1631=CARTESIAN_POINT('',(30.7925108475859,6.5,-26.4886334160399));
#1632=CARTESIAN_POINT('',(30.2657993254581,6.5,-26.7207784317748));
#1633=CARTESIAN_POINT('',(30.,6.5,-26.7207784317748));
#1634=CARTESIAN_POINT('',(31.,6.5,-25.6904651573303));
#1635=CARTESIAN_POINT('',(30.,6.5,-26.7207784317748));
#1636=CARTESIAN_POINT('',(31.,0.,0.));
#1637=CARTESIAN_POINT('',(31.,-6.5,-25.6904651573303));
#1638=CARTESIAN_POINT('',(30.,-6.5,-26.7207784317748));
#1639=CARTESIAN_POINT('',(30.2647764394866,-6.5,-26.7207784317748));
#1640=CARTESIAN_POINT('',(30.7939950787826,-6.5,-26.4880733433026));
#1641=CARTESIAN_POINT('',(31.,-6.5,-25.9547834095238));
#1642=CARTESIAN_POINT('',(31.,-6.5,-25.6904651573303));
#1643=CARTESIAN_POINT('',(30.,-6.5,-26.7207784317748));
#1644=CARTESIAN_POINT('',(30.,0.,0.));
#1645=CARTESIAN_POINT('',(31.,26.5,0.));
#1646=CARTESIAN_POINT('',(31.,0.,-1.56125112837913E-14));
#1647=CARTESIAN_POINT('',(31.,6.5,12.3995967676372));
#1648=CARTESIAN_POINT('',(31.,-6.5,12.3995967676372));
#1649=CARTESIAN_POINT('',(31.,6.5,0.));
#1650=CARTESIAN_POINT('',(31.,6.5,25.6904651573303));
#1651=CARTESIAN_POINT('',(31.,0.,0.));
#1652=CARTESIAN_POINT('',(31.,-6.5,25.6904651573303));
#1653=CARTESIAN_POINT('',(31.,-6.5,0.));
#1654=CARTESIAN_POINT('',(31.,26.5,0.));
#1655=CARTESIAN_POINT('',(31.,6.5,0.));
#1656=CARTESIAN_POINT('',(31.,6.5,-12.3995967676373));
#1657=CARTESIAN_POINT('',(31.,0.,1.21430643318376E-14));
#1658=CARTESIAN_POINT('',(31.,-6.50000000000001,-12.3995967676372));
#1659=CARTESIAN_POINT('',(31.,-6.5,0.));
#1660=CARTESIAN_POINT('',(31.,0.,0.));
#1661=CARTESIAN_POINT('',(38.,6.5,26.7207784317748));
#1662=CARTESIAN_POINT('',(30.,6.5,26.7207784317748));
#1663=CARTESIAN_POINT('',(19.,6.5,26.7207784317748));
#1664=CARTESIAN_POINT('',(19.,0.,0.));
#1665=CARTESIAN_POINT('',(19.,6.5,-26.7207784317748));
#1666=CARTESIAN_POINT('',(38.,6.5,-26.7207784317748));
#1667=CARTESIAN_POINT('',(38.,-6.5,-26.7207784317748));
#1668=CARTESIAN_POINT('',(19.,-6.5,-26.7207784317748));
#1669=CARTESIAN_POINT('',(19.,0.,0.));
#1670=CARTESIAN_POINT('',(19.,-6.5,26.7207784317748));
#1671=CARTESIAN_POINT('',(38.,-6.5,26.7207784317748));
#1672=CARTESIAN_POINT('',(30.,-6.5,26.7207784317748));
#1673=CARTESIAN_POINT('',(30.,0.,0.));
#1674=CARTESIAN_POINT('',(5.74558160553405,-27.4679140279316,-1.56248050766939));
#1675=CARTESIAN_POINT('',(7.00962555017926,-27.3273713172156,-3.21411159915887));
#1676=CARTESIAN_POINT('',(9.55942074631912,-27.185645900612,-4.11827580055496));
#1677=CARTESIAN_POINT('',(12.0794995254225,-27.3356738645659,-3.14913416889504));
#1678=CARTESIAN_POINT('',(13.2924871001746,-27.4727419583992,-1.47829813676043));
#1679=CARTESIAN_POINT('',(13.6132757395958,-27.5148311345062,0.044876149818559));
#1680=CARTESIAN_POINT('',(13.2527058190779,-27.46771711452,1.56601693017433));
#1681=CARTESIAN_POINT('',(11.9940989189644,-27.3277941824968,3.20893338358746));
#1682=CARTESIAN_POINT('',(9.44741813304314,-27.1856171283587,4.11913294721507));
#1683=CARTESIAN_POINT('',(6.92406077763702,-27.3352918320583,3.15207194928454));
#1684=CARTESIAN_POINT('',(5.707514810943,-27.4727346574739,1.48005443065907));
#1685=CARTESIAN_POINT('',(5.38716884280932,-27.5147815834289,-0.0475126958593237));
#1686=CARTESIAN_POINT('',(5.74558160553405,-27.4679140279316,-1.56248050766939));
#1687=CARTESIAN_POINT('',(7.00962555017926,-27.3273713172156,-3.21411159915887));
#1688=CARTESIAN_POINT('',(9.55942074631912,-27.185645900612,-4.11827580055496));
#1689=CARTESIAN_POINT('',(6.75826391504018,-27.3647705263474,-2.72384551542212));
#1690=CARTESIAN_POINT('',(1.,0.,0.));
#1691=CARTESIAN_POINT('',(1.,0.,-27.5));
#1692=CARTESIAN_POINT('',(5.74558160553405,-1.56248050766939,27.4679140279316));
#1693=CARTESIAN_POINT('',(7.00962555017925,-3.21411159915887,27.3273713172156));
#1694=CARTESIAN_POINT('',(9.55942074631912,-4.11827580055496,27.185645900612));
#1695=CARTESIAN_POINT('',(12.0794995254225,-3.14913416889503,27.3356738645659));
#1696=CARTESIAN_POINT('',(13.2924871001746,-1.47829813676043,27.4727419583992));
#1697=CARTESIAN_POINT('',(13.6132757395958,0.044876149818564,27.5148311345062));
#1698=CARTESIAN_POINT('',(13.2527058190779,1.56601693017433,27.46771711452));
#1699=CARTESIAN_POINT('',(11.9940989189644,3.20893338358746,27.3277941824968));
#1700=CARTESIAN_POINT('',(9.44741813304314,4.11913294721507,27.1856171283587));
#1701=CARTESIAN_POINT('',(6.92406077763701,3.15207194928455,27.3352918320583));
#1702=CARTESIAN_POINT('',(5.707514810943,1.48005443065906,27.4727346574739));
#1703=CARTESIAN_POINT('',(5.38716884280932,-0.0475126958593213,27.5147815834289));
#1704=CARTESIAN_POINT('',(5.74558160553405,-1.56248050766939,27.4679140279316));
#1705=CARTESIAN_POINT('',(7.00962555017925,-3.21411159915887,27.3273713172156));
#1706=CARTESIAN_POINT('',(9.55942074631912,-4.11827580055496,27.185645900612));
#1707=CARTESIAN_POINT('',(6.75826391504018,-2.72384551542212,27.3647705263474));
#1708=CARTESIAN_POINT('',(19.,0.,0.));
#1709=CARTESIAN_POINT('',(12.1030877602346,-2.60540206420768,9.72379882012798));
#1710=CARTESIAN_POINT('',(13.1840396036928,-4.68823149683936E-5,10.1381152764347));
#1711=CARTESIAN_POINT('',(12.1017538249943,2.60558959346755,9.72374007413332));
#1712=CARTESIAN_POINT('',(9.50449639314604,3.68296818092311,9.28536992552909));
#1713=CARTESIAN_POINT('',(6.89414340688836,2.60353285027686,9.72414947038765));
#1714=CARTESIAN_POINT('',(5.81744626057865,0.0022492657220076,10.1379118401674));
#1715=CARTESIAN_POINT('',(6.89507316095979,-2.6045163928595,9.72420263380537));
#1716=CARTESIAN_POINT('',(9.500015357323,-3.68277036592453,9.28534152943076));
#1717=CARTESIAN_POINT('',(12.1030877602346,-2.60540206420768,9.72379882012798));
#1718=CARTESIAN_POINT('',(13.1840396036928,-4.68823149683936E-5,10.1381152764347));
#1719=CARTESIAN_POINT('',(12.1017538249943,2.60558959346755,9.72374007413332));
#1720=CARTESIAN_POINT('',(12.8235,0.,10.));
#1721=CARTESIAN_POINT('',(19.,0.,0.));
#1722=CARTESIAN_POINT('',(19.,0.,-10.));
#1723=CARTESIAN_POINT('',(0.,0.,0.));
#1724=CARTESIAN_POINT('',(0.,0.,-10.));
#1725=CARTESIAN_POINT('',(12.1042993156796,-9.72407727224708,2.60416719889387));
#1726=CARTESIAN_POINT('',(9.50005357344104,-9.28528700991215,3.68348809953249));
#1727=CARTESIAN_POINT('',(6.89548639055628,-9.72414223183996,2.60288040297615));
#1728=CARTESIAN_POINT('',(5.81648947637158,-10.1380304002787,0.0043114628312091));
#1729=CARTESIAN_POINT('',(6.89756010370337,-9.72373470478985,-2.60687972076161));
#1730=CARTESIAN_POINT('',(9.4976771901718,-9.28548633905643,-3.68203065901961));
#1731=CARTESIAN_POINT('',(12.1034895729963,-9.72368808286243,-2.60599594005182));
#1732=CARTESIAN_POINT('',(13.1833027665728,-10.138058657481,0.000122148105151647));
#1733=CARTESIAN_POINT('',(12.1042993156796,-9.72407727224708,2.60416719889387));
#1734=CARTESIAN_POINT('',(9.50005357344104,-9.28528700991215,3.68348809953249));
#1735=CARTESIAN_POINT('',(6.89548639055628,-9.72414223183996,2.60288040297615));
#1736=CARTESIAN_POINT('',(9.5,-9.43156125728927,3.3235));
#1737=CARTESIAN_POINT('',(0.,0.,0.));
#1738=CARTESIAN_POINT('',(0.,0.,0.));
#1739=CARTESIAN_POINT('',(0.,0.,-26.5));
#1740=CARTESIAN_POINT('',(0.999999999999999,0.,0.));
#1741=CARTESIAN_POINT('',(30.,0.,0.));
#1742=CARTESIAN_POINT('',(30.,6.5,26.7207784317748));
#1743=CARTESIAN_POINT('',(30.2644422284248,6.5,26.7207784317748));
#1744=CARTESIAN_POINT('',(30.7925501995284,6.5,26.4893473165718));
#1745=CARTESIAN_POINT('',(31.,6.5,25.9556096303426));
#1746=CARTESIAN_POINT('',(31.,6.5,25.6904651573303));
#1747=CARTESIAN_POINT('',(31.,-6.5,25.6904651573303));
#1748=CARTESIAN_POINT('',(31.,-6.5,25.9550344437452));
#1749=CARTESIAN_POINT('',(30.791838457669,-6.5,26.4886546646792));
#1750=CARTESIAN_POINT('',(30.2677398358333,-6.5,26.7207784317748));
#1751=CARTESIAN_POINT('',(30.,-6.5,26.7207784317748));
#1752=CARTESIAN_POINT('',(9.5,3.2849313416929E-15,26.8235));
#1753=CARTESIAN_POINT('',(9.5,3.2849313416929E-15,26.8235));
#1754=CARTESIAN_POINT('',(9.5,-3.3235,26.8235));
#1755=CARTESIAN_POINT('',(9.5,3.36777869765522E-15,27.5));
#1756=CARTESIAN_POINT('',(9.5,-27.5,1.68388934882761E-15));
#1757=CARTESIAN_POINT('',(9.5,-26.8235,1.64246567084645E-15));
#1758=CARTESIAN_POINT('',(9.5,-26.8235,3.3235));
#1759=CARTESIAN_POINT('',(9.5,0.,0.));
#1760=CARTESIAN_POINT('',(19.,0.,0.));
#1761=CARTESIAN_POINT('',(19.,6.5,12.3995967676372));
#1762=CARTESIAN_POINT('',(19.,6.5,12.3995967676372));
#1763=CARTESIAN_POINT('',(19.,0.,-1.56125112837913E-14));
#1764=CARTESIAN_POINT('',(19.,-6.5,12.3995967676372));
#1765=CARTESIAN_POINT('',(19.,-6.5,26.7207784317748));
#1766=CARTESIAN_POINT('',(19.,-6.5,-12.3995967676372));
#1767=CARTESIAN_POINT('',(19.,-6.50000000000001,-12.3995967676372));
#1768=CARTESIAN_POINT('',(19.,0.,1.21430643318376E-14));
#1769=CARTESIAN_POINT('',(19.,6.5,-12.3995967676373));
#1770=CARTESIAN_POINT('',(19.,6.5,-26.7207784317748));
#1771=CARTESIAN_POINT('',(38.,0.,-1.56125112837913E-14));
#1772=CARTESIAN_POINT('',(38.,-6.5,12.3995967676372));
#1773=CARTESIAN_POINT('',(38.,6.5,12.3995967676372));
#1774=CARTESIAN_POINT('',(38.,0.,1.21430643318376E-14));
#1775=CARTESIAN_POINT('',(38.,6.5,-12.3995967676373));
#1776=CARTESIAN_POINT('',(38.,-6.50000000000001,-12.3995967676372));
#1777=CARTESIAN_POINT('',(38.,6.5,-26.7207784317748));
#1778=CARTESIAN_POINT('',(38.,-6.5,-12.3995967676372));
#1779=CARTESIAN_POINT('',(38.,6.5,12.3995967676372));
#1780=CARTESIAN_POINT('',(38.,-6.5,26.7207784317748));
#1781=CARTESIAN_POINT('',(0.,0.,0.));
#1782=CARTESIAN_POINT('',(17.,0.,0.));
#1783=CARTESIAN_POINT('',(17.,12.3995967676372,6.5));
#1784=CARTESIAN_POINT('',(11.,12.3995967676372,6.5));
#1785=CARTESIAN_POINT('',(0.,12.3995967676372,6.5));
#1786=CARTESIAN_POINT('',(11.,0.,0.));
#1787=CARTESIAN_POINT('',(11.,12.3995967676372,-6.5));
#1788=CARTESIAN_POINT('',(17.,12.3995967676372,-6.5));
#1789=CARTESIAN_POINT('',(0.,12.3995967676372,-6.5));
#1790=CARTESIAN_POINT('',(0.,0.,0.));
#1791=CARTESIAN_POINT('',(0.,-12.3995967676372,-6.5));
#1792=CARTESIAN_POINT('',(17.,-12.3995967676372,-6.5));
#1793=CARTESIAN_POINT('',(11.,-12.3995967676372,-6.5));
#1794=CARTESIAN_POINT('',(11.,0.,0.));
#1795=CARTESIAN_POINT('',(11.,-12.3995967676372,6.5));
#1796=CARTESIAN_POINT('',(17.,-12.3995967676372,6.5));
#1797=CARTESIAN_POINT('',(0.,-12.3995967676372,6.5));
#1798=CARTESIAN_POINT('',(0.,0.,0.));
#1799=CARTESIAN_POINT('',(6.,0.,0.));
#1800=CARTESIAN_POINT('',(6.,6.5,12.3995967676372));
#1801=CARTESIAN_POINT('',(6.,-6.5,12.3995967676372));
#1802=CARTESIAN_POINT('',(17.,-6.5,12.3995967676372));
#1803=CARTESIAN_POINT('',(17.,-6.5,12.3995967676372));
#1804=CARTESIAN_POINT('',(17.,0.,0.));
#1805=CARTESIAN_POINT('',(17.,-6.5,-12.3995967676372));
#1806=CARTESIAN_POINT('',(17.,-6.5,-12.3995967676372));
#1807=CARTESIAN_POINT('',(6.,-6.5,-12.3995967676372));
#1808=CARTESIAN_POINT('',(6.,0.,0.));
#1809=CARTESIAN_POINT('',(6.,6.5,-12.3995967676372));
#1810=CARTESIAN_POINT('',(17.,6.5,-12.3995967676372));
#1811=CARTESIAN_POINT('',(17.,6.5,-12.3995967676372));
#1812=CARTESIAN_POINT('',(17.,0.,0.));
#1813=CARTESIAN_POINT('',(17.,6.5,12.3995967676372));
#1814=CARTESIAN_POINT('',(17.,6.5,12.3995967676372));
#1815=CARTESIAN_POINT('',(17.,14.,0.));
#1816=CARTESIAN_POINT('',(17.,-20.5,0.));
#1817=CARTESIAN_POINT('',(17.,-20.5,-3.5));
#1818=CARTESIAN_POINT('',(17.,0.,0.));
#1819=CARTESIAN_POINT('',(17.,-6.49999999999999,26.7207784317748));
#1820=CARTESIAN_POINT('',(17.,-6.50000000000002,-26.7207784317748));
#1821=CARTESIAN_POINT('',(17.,-6.5,-26.7207784317748));
#1822=CARTESIAN_POINT('',(17.,-6.5,-26.7207784317748));
#1823=CARTESIAN_POINT('',(17.,14.,0.));
#1824=CARTESIAN_POINT('',(17.,20.5,0.));
#1825=CARTESIAN_POINT('',(17.,20.5,-3.5));
#1826=CARTESIAN_POINT('',(17.,0.,0.));
#1827=CARTESIAN_POINT('',(17.,6.5,-26.7207784317748));
#1828=CARTESIAN_POINT('',(17.,6.5,26.7207784317748));
#1829=CARTESIAN_POINT('',(17.,6.5,26.7207784317748));
#1830=CARTESIAN_POINT('',(17.,6.5,26.7207784317748));
#1831=CARTESIAN_POINT('',(17.,0.,0.));
#1832=CARTESIAN_POINT('',(6.,-6.49999999999999,26.7207784317748));
#1833=CARTESIAN_POINT('',(6.,-6.49999999999999,26.7207784317748));
#1834=CARTESIAN_POINT('',(6.,0.,0.));
#1835=CARTESIAN_POINT('',(6.,6.5,26.7207784317748));
#1836=CARTESIAN_POINT('',(6.,6.5,26.7207784317748));
#1837=CARTESIAN_POINT('',(6.,6.5,-26.7207784317748));
#1838=CARTESIAN_POINT('',(6.,6.5,-26.7207784317748));
#1839=CARTESIAN_POINT('',(6.,0.,0.));
#1840=CARTESIAN_POINT('',(6.,-6.5,-26.7207784317748));
#1841=CARTESIAN_POINT('',(6.,-6.50000000000002,-26.7207784317748));
#1842=CARTESIAN_POINT('',(0.,0.,0.));
#1843=CARTESIAN_POINT('',(0.,26.7207784317748,6.5));
#1844=CARTESIAN_POINT('',(0.,-26.7207784317748,6.50000000000002));
#1845=CARTESIAN_POINT('',(11.,-26.7207784317748,6.50000000000002));
#1846=CARTESIAN_POINT('',(11.,-26.7207784317748,6.50000000000002));
#1847=CARTESIAN_POINT('',(11.,0.,0.));
#1848=CARTESIAN_POINT('',(11.,-26.7207784317748,-6.5));
#1849=CARTESIAN_POINT('',(11.,-26.7207784317748,-6.5));
#1850=CARTESIAN_POINT('',(0.,-26.7207784317748,-6.5));
#1851=CARTESIAN_POINT('',(0.,0.,0.));
#1852=CARTESIAN_POINT('',(0.,26.7207784317748,-6.5));
#1853=CARTESIAN_POINT('',(11.,26.7207784317748,-6.5));
#1854=CARTESIAN_POINT('',(11.,26.7207784317748,-6.5));
#1855=CARTESIAN_POINT('',(11.,0.,0.));
#1856=CARTESIAN_POINT('',(11.,26.7207784317748,6.5));
#1857=CARTESIAN_POINT('',(11.,26.7207784317748,6.5));
#1858=CARTESIAN_POINT('',(0.,27.5,0.));
#1859=CARTESIAN_POINT('',(0.,0.,20.5));
#1860=CARTESIAN_POINT('',(0.,0.,24.));
#1861=CARTESIAN_POINT('',(0.,-26.7207784317748,6.5));
#1862=CARTESIAN_POINT('',(0.,-26.7207784317748,6.5));
#1863=CARTESIAN_POINT('',(0.,27.5,0.));
#1864=CARTESIAN_POINT('',(0.,0.,-20.5));
#1865=CARTESIAN_POINT('',(0.,0.,-17.));
#1866=CARTESIAN_POINT('',(0.,26.7207784317748,-6.5));
#1867=CARTESIAN_POINT('',(0.,26.7207784317748,-6.5));
#1868=CARTESIAN_POINT('',(11.,0.,0.));
#1869=CARTESIAN_POINT('',(11.,-26.7207784317748,6.5));
#1870=CARTESIAN_POINT('',(11.,26.7207784317748,-6.5));
#1871=CARTESIAN_POINT('',(11.,26.7207784317748,-6.5));
#1872=CARTESIAN_POINT('',(11.,-26.7207784317748,6.5));
#1873=CARTESIAN_POINT('',(11.,-26.7207784317748,6.5));
#1874=CARTESIAN_POINT('',(11.,-26.7207784317748,6.5));
#1875=CARTESIAN_POINT('',(11.,26.7207784317748,-6.5));
#1876=CARTESIAN_POINT('',(11.,26.7207784317748,-6.5));
#1877=CARTESIAN_POINT('',(11.,0.,0.));
#1878=CARTESIAN_POINT('',(6.,0.,0.));
#1879=CARTESIAN_POINT('',(6.,-6.5,-26.7207784317748));
#1880=CARTESIAN_POINT('',(6.,6.5,26.7207784317748));
#1881=CARTESIAN_POINT('',(6.,6.5,26.7207784317748));
#1882=CARTESIAN_POINT('',(6.,-6.5,-26.7207784317748));
#1883=CARTESIAN_POINT('',(6.,-6.5,-26.7207784317748));
#1884=CARTESIAN_POINT('',(6.,-6.5,-26.7207784317748));
#1885=CARTESIAN_POINT('',(6.,0.,0.));
#1886=CARTESIAN_POINT('',(6.,6.5,26.7207784317748));
#1887=CARTESIAN_POINT('',(6.,6.5,26.7207784317748));
#1888=CARTESIAN_POINT('',(-1.,0.,-20.5));
#1889=CARTESIAN_POINT('',(-0.7,0.,-20.5));
#1890=CARTESIAN_POINT('',(-0.7,0.,-24.));
#1891=CARTESIAN_POINT('',(-1.,0.,-20.5));
#1892=CARTESIAN_POINT('',(-1.,0.,-20.5));
#1893=CARTESIAN_POINT('',(-1.,0.,-23.7));
#1894=CARTESIAN_POINT('',(-1.,0.,20.5));
#1895=CARTESIAN_POINT('',(-0.7,0.,20.5));
#1896=CARTESIAN_POINT('',(-0.7,0.,17.));
#1897=CARTESIAN_POINT('',(-1.,0.,20.5));
#1898=CARTESIAN_POINT('',(-1.,0.,20.5));
#1899=CARTESIAN_POINT('',(-1.,0.,17.3));
#1900=CARTESIAN_POINT('',(18.,20.5,0.));
#1901=CARTESIAN_POINT('',(17.7,20.5,0.));
#1902=CARTESIAN_POINT('',(17.7,20.5,-3.5));
#1903=CARTESIAN_POINT('',(18.,20.5,0.));
#1904=CARTESIAN_POINT('',(18.,20.5,0.));
#1905=CARTESIAN_POINT('',(18.,20.5,-3.2));
#1906=CARTESIAN_POINT('',(18.,-20.5,0.));
#1907=CARTESIAN_POINT('',(17.7,-20.5,0.));
#1908=CARTESIAN_POINT('',(17.7,-20.5,-3.5));
#1909=CARTESIAN_POINT('',(18.,-20.5,0.));
#1910=CARTESIAN_POINT('',(18.,-20.5,0.));
#1911=CARTESIAN_POINT('',(18.,-20.5,-3.2));
#1912=CARTESIAN_POINT('',(-0.7,0.,20.5));
#1913=CARTESIAN_POINT('',(-0.7,0.,-20.5));
#1914=CARTESIAN_POINT('',(17.7,-20.5,0.));
#1915=CARTESIAN_POINT('',(17.7,20.5,0.));
#1916=CARTESIAN_POINT('',(-37.,2.20436423846524E-15,0.));
#1917=CARTESIAN_POINT('',(30.,0.,0.));
#1918=CARTESIAN_POINT('',(31.,25.6904651573303,6.5));
#1919=CARTESIAN_POINT('',(31.,25.9550344437452,6.5));
#1920=CARTESIAN_POINT('',(30.7918384576691,26.4886546646792,6.5));
#1921=CARTESIAN_POINT('',(30.2677398358333,26.7207784317748,6.5));
#1922=CARTESIAN_POINT('',(30.,26.7207784317748,6.5));
#1923=CARTESIAN_POINT('',(31.,25.6904651573303,6.5));
#1924=CARTESIAN_POINT('',(30.,26.7207784317748,6.50000000000001));
#1925=CARTESIAN_POINT('',(31.,0.,0.));
#1926=CARTESIAN_POINT('',(31.,25.6904651573303,-6.5));
#1927=CARTESIAN_POINT('',(30.,26.7207784317748,-6.5));
#1928=CARTESIAN_POINT('',(30.2644422284248,26.7207784317748,-6.5));
#1929=CARTESIAN_POINT('',(30.7925501995284,26.4893473165718,-6.5));
#1930=CARTESIAN_POINT('',(31.,25.9556096303426,-6.5));
#1931=CARTESIAN_POINT('',(31.,25.6904651573303,-6.5));
#1932=CARTESIAN_POINT('',(30.,26.7207784317748,-6.5));
#1933=CARTESIAN_POINT('',(30.,0.,0.));
#1934=CARTESIAN_POINT('',(31.,26.5,0.));
#1935=CARTESIAN_POINT('',(31.,1.56125112837913E-14,1.73472347597681E-15));
#1936=CARTESIAN_POINT('',(31.,-12.3995967676372,6.50000000000001));
#1937=CARTESIAN_POINT('',(31.,-12.3995967676372,-6.5));
#1938=CARTESIAN_POINT('',(31.,26.5,6.5));
#1939=CARTESIAN_POINT('',(31.,-25.6904651573303,6.5));
#1940=CARTESIAN_POINT('',(31.,0.,0.));
#1941=CARTESIAN_POINT('',(31.,-25.6904651573303,-6.5));
#1942=CARTESIAN_POINT('',(31.,26.5,-6.5));
#1943=CARTESIAN_POINT('',(31.,26.5,0.));
#1944=CARTESIAN_POINT('',(31.,26.5,6.5));
#1945=CARTESIAN_POINT('',(31.,12.3995967676372,6.5));
#1946=CARTESIAN_POINT('',(31.,-1.04083408558608E-14,-1.30104260698261E-15));
#1947=CARTESIAN_POINT('',(31.,12.3995967676372,-6.5));
#1948=CARTESIAN_POINT('',(31.,26.5,-6.5));
#1949=CARTESIAN_POINT('',(31.,0.,0.));
#1950=CARTESIAN_POINT('',(38.,26.7207784317748,-6.5));
#1951=CARTESIAN_POINT('',(19.,26.7207784317748,-6.5));
#1952=CARTESIAN_POINT('',(19.,0.,0.));
#1953=CARTESIAN_POINT('',(19.,-26.7207784317748,-6.5));
#1954=CARTESIAN_POINT('',(38.,-26.7207784317748,-6.5));
#1955=CARTESIAN_POINT('',(30.,-26.7207784317748,-6.5));
#1956=CARTESIAN_POINT('',(30.,0.,0.));
#1957=CARTESIAN_POINT('',(30.,-26.7207784317748,6.50000000000001));
#1958=CARTESIAN_POINT('',(38.,-26.7207784317748,6.50000000000001));
#1959=CARTESIAN_POINT('',(19.,-26.7207784317748,6.50000000000001));
#1960=CARTESIAN_POINT('',(19.,0.,0.));
#1961=CARTESIAN_POINT('',(19.,26.7207784317748,6.50000000000001));
#1962=CARTESIAN_POINT('',(38.,26.7207784317748,6.50000000000001));
#1963=CARTESIAN_POINT('',(9.55934485516488,27.1855344754311,-4.11913468145782));
#1964=CARTESIAN_POINT('',(7.00858814895235,27.3275052795847,-3.21253493079601));
#1965=CARTESIAN_POINT('',(5.74746410597334,27.4676951807035,-1.56514673454197));
#1966=CARTESIAN_POINT('',(5.38786747407498,27.5146895249725,-0.0540373918710387));
#1967=CARTESIAN_POINT('',(5.70335851166806,27.4732556199804,1.47135642744791));
#1968=CARTESIAN_POINT('',(6.92090561795724,27.3354935343909,3.15188281397929));
#1969=CARTESIAN_POINT('',(9.44741684275618,27.1856279109616,4.11869150160736));
#1970=CARTESIAN_POINT('',(11.9904865259119,27.3275707510785,3.21036957963941));
#1971=CARTESIAN_POINT('',(13.2478940159156,27.4671237283476,1.57350096441297));
#1972=CARTESIAN_POINT('',(13.6129546323421,27.5147899052329,0.061256505682105));
#1973=CARTESIAN_POINT('',(13.2973912761903,27.4733489034937,-1.47016446086145));
#1974=CARTESIAN_POINT('',(12.0826423702297,27.3358774296759,-3.14811052870526));
#1975=CARTESIAN_POINT('',(9.55934485516488,27.1855344754311,-4.11913468145782));
#1976=CARTESIAN_POINT('',(7.00858814895235,27.3275052795847,-3.21253493079601));
#1977=CARTESIAN_POINT('',(5.74746410597334,27.4676951807035,-1.56514673454197));
#1978=CARTESIAN_POINT('',(6.75826391504018,27.3647705263474,-2.72384551542212));
#1979=CARTESIAN_POINT('',(5.74558160553405,-1.56248050766939,27.4679140279316));
#1980=CARTESIAN_POINT('',(7.00962555017925,-3.21411159915887,27.3273713172156));
#1981=CARTESIAN_POINT('',(9.55942074631912,-4.11827580055496,27.185645900612));
#1982=CARTESIAN_POINT('',(12.0794995254225,-3.14913416889503,27.3356738645659));
#1983=CARTESIAN_POINT('',(13.2924871001746,-1.47829813676043,27.4727419583992));
#1984=CARTESIAN_POINT('',(13.6132757395958,0.044876149818564,27.5148311345062));
#1985=CARTESIAN_POINT('',(13.2527058190779,1.56601693017433,27.46771711452));
#1986=CARTESIAN_POINT('',(11.9940989189644,3.20893338358746,27.3277941824968));
#1987=CARTESIAN_POINT('',(9.44741813304314,4.11913294721507,27.1856171283587));
#1988=CARTESIAN_POINT('',(6.92406077763701,3.15207194928455,27.3352918320583));
#1989=CARTESIAN_POINT('',(5.707514810943,1.48005443065906,27.4727346574739));
#1990=CARTESIAN_POINT('',(5.38716884280932,-0.0475126958593213,27.5147815834289));
#1991=CARTESIAN_POINT('',(5.74558160553405,-1.56248050766939,27.4679140279316));
#1992=CARTESIAN_POINT('',(7.00962555017925,-3.21411159915887,27.3273713172156));
#1993=CARTESIAN_POINT('',(9.55942074631912,-4.11827580055496,27.185645900612));
#1994=CARTESIAN_POINT('',(6.75826391504018,-2.72384551542212,27.3647705263474));
#1995=CARTESIAN_POINT('',(1.,0.,0.));
#1996=CARTESIAN_POINT('',(1.,0.,-27.5));
#1997=CARTESIAN_POINT('',(19.,0.,0.));
#1998=CARTESIAN_POINT('',(12.1030877602346,-2.60540206420768,9.72379882012798));
#1999=CARTESIAN_POINT('',(13.1840396036928,-4.68823149683936E-5,10.1381152764347));
#2000=CARTESIAN_POINT('',(12.1017538249943,2.60558959346755,9.72374007413332));
#2001=CARTESIAN_POINT('',(9.50449639314604,3.68296818092311,9.28536992552909));
#2002=CARTESIAN_POINT('',(6.89414340688836,2.60353285027686,9.72414947038765));
#2003=CARTESIAN_POINT('',(5.81744626057865,0.0022492657220076,10.1379118401674));
#2004=CARTESIAN_POINT('',(6.89507316095979,-2.6045163928595,9.72420263380537));
#2005=CARTESIAN_POINT('',(9.500015357323,-3.68277036592453,9.28534152943076));
#2006=CARTESIAN_POINT('',(12.1030877602346,-2.60540206420768,9.72379882012798));
#2007=CARTESIAN_POINT('',(13.1840396036928,-4.68823149683936E-5,10.1381152764347));
#2008=CARTESIAN_POINT('',(12.1017538249943,2.60558959346755,9.72374007413332));
#2009=CARTESIAN_POINT('',(12.8235,0.,10.));
#2010=CARTESIAN_POINT('',(19.,0.,0.));
#2011=CARTESIAN_POINT('',(19.,0.,-10.));
#2012=CARTESIAN_POINT('',(0.,0.,0.));
#2013=CARTESIAN_POINT('',(0.,0.,-10.));
#2014=CARTESIAN_POINT('',(6.89570068432041,9.72407727224708,2.60416719889387));
#2015=CARTESIAN_POINT('',(9.49994642655897,9.28528700991215,3.68348809953249));
#2016=CARTESIAN_POINT('',(12.1045136094437,9.72414223183997,2.60288040297615));
#2017=CARTESIAN_POINT('',(13.1835105236284,10.1380304002787,0.00431146283121054));
#2018=CARTESIAN_POINT('',(12.1024398962966,9.72373470478986,-2.60687972076162));
#2019=CARTESIAN_POINT('',(9.50232280982821,9.28548633905643,-3.68203065901962));
#2020=CARTESIAN_POINT('',(6.8965104270037,9.72368808286242,-2.60599594005183));
#2021=CARTESIAN_POINT('',(5.81669723342717,10.138058657481,0.000122148105154249));
#2022=CARTESIAN_POINT('',(6.89570068432041,9.72407727224708,2.60416719889387));
#2023=CARTESIAN_POINT('',(9.49994642655897,9.28528700991215,3.68348809953249));
#2024=CARTESIAN_POINT('',(12.1045136094437,9.72414223183997,2.60288040297615));
#2025=CARTESIAN_POINT('',(9.5,9.43156125728927,3.3235));
#2026=CARTESIAN_POINT('',(0.,0.,0.));
#2027=CARTESIAN_POINT('',(0.,0.,0.));
#2028=CARTESIAN_POINT('',(0.,0.,-26.5));
#2029=CARTESIAN_POINT('',(0.999999999999999,0.,0.));
#2030=CARTESIAN_POINT('',(30.,0.,0.));
#2031=CARTESIAN_POINT('',(30.,-26.7207784317748,6.5));
#2032=CARTESIAN_POINT('',(30.2647764394866,-26.7207784317748,6.5));
#2033=CARTESIAN_POINT('',(30.7939950787825,-26.4880733433026,6.5));
#2034=CARTESIAN_POINT('',(31.,-25.9547834095238,6.5));
#2035=CARTESIAN_POINT('',(31.,-25.6904651573303,6.5));
#2036=CARTESIAN_POINT('',(31.,-25.6904651573303,-6.5));
#2037=CARTESIAN_POINT('',(31.,-25.9557004092696,-6.5));
#2038=CARTESIAN_POINT('',(30.7925108475859,-26.4886334160399,-6.5));
#2039=CARTESIAN_POINT('',(30.2657993254581,-26.7207784317748,-6.5));
#2040=CARTESIAN_POINT('',(30.,-26.7207784317748,-6.5));
#2041=CARTESIAN_POINT('',(9.5,3.2849313416929E-15,26.8235));
#2042=CARTESIAN_POINT('',(9.5,3.2849313416929E-15,26.8235));
#2043=CARTESIAN_POINT('',(9.5,-3.3235,26.8235));
#2044=CARTESIAN_POINT('',(9.5,3.36777869765522E-15,27.5));
#2045=CARTESIAN_POINT('',(9.5,26.8235,-1.64246567084645E-15));
#2046=CARTESIAN_POINT('',(9.5,26.8235,-1.64246567084645E-15));
#2047=CARTESIAN_POINT('',(9.5,26.8235,3.3235));
#2048=CARTESIAN_POINT('',(9.5,27.5,-1.68388934882761E-15));
#2049=CARTESIAN_POINT('',(19.,0.,0.));
#2050=CARTESIAN_POINT('',(19.,-12.3995967676372,6.5));
#2051=CARTESIAN_POINT('',(19.,-12.3995967676372,6.50000000000001));
#2052=CARTESIAN_POINT('',(19.,1.56125112837913E-14,1.73472347597681E-15));
#2053=CARTESIAN_POINT('',(19.,-12.3995967676372,-6.5));
#2054=CARTESIAN_POINT('',(19.,-26.7207784317748,-6.5));
#2055=CARTESIAN_POINT('',(19.,12.3995967676372,-6.5));
#2056=CARTESIAN_POINT('',(19.,12.3995967676372,-6.5));
#2057=CARTESIAN_POINT('',(19.,-1.04083408558608E-14,-1.30104260698261E-15));
#2058=CARTESIAN_POINT('',(19.,12.3995967676372,6.5));
#2059=CARTESIAN_POINT('',(19.,26.7207784317748,6.5));
#2060=CARTESIAN_POINT('',(38.,1.56125112837913E-14,1.73472347597681E-15));
#2061=CARTESIAN_POINT('',(38.,-12.3995967676372,-6.5));
#2062=CARTESIAN_POINT('',(38.,-12.3995967676372,6.50000000000001));
#2063=CARTESIAN_POINT('',(38.,-1.04083408558608E-14,-1.30104260698261E-15));
#2064=CARTESIAN_POINT('',(38.,12.3995967676372,6.5));
#2065=CARTESIAN_POINT('',(38.,12.3995967676372,-6.5));
#2066=CARTESIAN_POINT('',(38.,26.7207784317748,6.5));
#2067=CARTESIAN_POINT('',(38.,12.3995967676372,-6.5));
#2068=CARTESIAN_POINT('',(38.,-12.3995967676372,6.5));
#2069=CARTESIAN_POINT('',(38.,-26.7207784317748,-6.5));
#2070=CARTESIAN_POINT('',(-57.,0.,0.));
#2071=MECHANICAL_DESIGN_GEOMETRIC_PRESENTATION_REPRESENTATION('',(#1105,
#1106,#1107),#2072);
#2072=(
GEOMETRIC_REPRESENTATION_CONTEXT(3)
GLOBAL_UNCERTAINTY_ASSIGNED_CONTEXT((#2077))
GLOBAL_UNIT_ASSIGNED_CONTEXT((#2084,#2083,#2082))
REPRESENTATION_CONTEXT('DBU03-D55-d20-e20','TOP_LEVEL_ASSEMBLY_PART')
);
#2073=(
GEOMETRIC_REPRESENTATION_CONTEXT(3)
GLOBAL_UNCERTAINTY_ASSIGNED_CONTEXT((#2078))
GLOBAL_UNIT_ASSIGNED_CONTEXT((#2084,#2083,#2082))
REPRESENTATION_CONTEXT('DBU03-D55-d20-e20-dummy','COMPONENT_PART')
);
#2074=(
GEOMETRIC_REPRESENTATION_CONTEXT(3)
GLOBAL_UNCERTAINTY_ASSIGNED_CONTEXT((#2079))
GLOBAL_UNIT_ASSIGNED_CONTEXT((#2084,#2083,#2082))
REPRESENTATION_CONTEXT('DBU03-D55-d20-e20-001','COMPONENT_PART')
);
#2075=(
GEOMETRIC_REPRESENTATION_CONTEXT(3)
GLOBAL_UNCERTAINTY_ASSIGNED_CONTEXT((#2080))
GLOBAL_UNIT_ASSIGNED_CONTEXT((#2084,#2083,#2082))
REPRESENTATION_CONTEXT('DBU03-D55-d20-e20-003','COMPONENT_PART')
);
#2076=(
GEOMETRIC_REPRESENTATION_CONTEXT(3)
GLOBAL_UNCERTAINTY_ASSIGNED_CONTEXT((#2081))
GLOBAL_UNIT_ASSIGNED_CONTEXT((#2084,#2083,#2082))
REPRESENTATION_CONTEXT('DBU03-D55-d20-e20-002','COMPONENT_PART')
);
#2077=UNCERTAINTY_MEASURE_WITH_UNIT(LENGTH_MEASURE(1.E-5),#2084,
'DISTANCE_ACCURACY_VALUE','Maximum Tolerance applied to model');
#2078=UNCERTAINTY_MEASURE_WITH_UNIT(LENGTH_MEASURE(1.E-5),#2084,
'DISTANCE_ACCURACY_VALUE','Maximum Tolerance applied to model');
#2079=UNCERTAINTY_MEASURE_WITH_UNIT(LENGTH_MEASURE(1.E-5),#2084,
'DISTANCE_ACCURACY_VALUE','Maximum Tolerance applied to model');
#2080=UNCERTAINTY_MEASURE_WITH_UNIT(LENGTH_MEASURE(1.E-5),#2084,
'DISTANCE_ACCURACY_VALUE','Maximum Tolerance applied to model');
#2081=UNCERTAINTY_MEASURE_WITH_UNIT(LENGTH_MEASURE(1.E-5),#2084,
'DISTANCE_ACCURACY_VALUE','Maximum Tolerance applied to model');
#2082=(
NAMED_UNIT(*)
SI_UNIT($,.STERADIAN.)
SOLID_ANGLE_UNIT()
);
#2083=(
NAMED_UNIT(*)
PLANE_ANGLE_UNIT()
SI_UNIT($,.RADIAN.)
);
#2084=(
LENGTH_UNIT()
NAMED_UNIT(*)
SI_UNIT(.MILLI.,.METRE.)
);
#2085=PRODUCT_DEFINITION_SHAPE('','',#2094);
#2086=PRODUCT_DEFINITION_SHAPE('','',#2095);
#2087=PRODUCT_DEFINITION_SHAPE(' ','NAUO PRDDFN',#1134);
#2088=PRODUCT_DEFINITION_SHAPE('','',#2096);
#2089=PRODUCT_DEFINITION_SHAPE(' ','NAUO PRDDFN',#1135);
#2090=PRODUCT_DEFINITION_SHAPE('','',#2097);
#2091=PRODUCT_DEFINITION_SHAPE(' ','NAUO PRDDFN',#1136);
#2092=PRODUCT_DEFINITION_SHAPE('','',#2098);
#2093=PRODUCT_DEFINITION_SHAPE(' ','NAUO PRDDFN',#1137);
#2094=PRODUCT_DEFINITION('','',#2104,#2099);
#2095=PRODUCT_DEFINITION('','',#2105,#2100);
#2096=PRODUCT_DEFINITION('','',#2106,#2101);
#2097=PRODUCT_DEFINITION('','',#2107,#2102);
#2098=PRODUCT_DEFINITION('','',#2108,#2103);
#2099=PRODUCT_DEFINITION_CONTEXT('',#2130,'design');
#2100=PRODUCT_DEFINITION_CONTEXT('',#2130,'design');
#2101=PRODUCT_DEFINITION_CONTEXT('',#2130,'design');
#2102=PRODUCT_DEFINITION_CONTEXT('',#2130,'design');
#2103=PRODUCT_DEFINITION_CONTEXT('',#2130,'design');
#2104=PRODUCT_DEFINITION_FORMATION_WITH_SPECIFIED_SOURCE('','',#2114,
 .NOT_KNOWN.);
#2105=PRODUCT_DEFINITION_FORMATION_WITH_SPECIFIED_SOURCE('','',#2115,
 .NOT_KNOWN.);
#2106=PRODUCT_DEFINITION_FORMATION_WITH_SPECIFIED_SOURCE('','',#2116,
 .NOT_KNOWN.);
#2107=PRODUCT_DEFINITION_FORMATION_WITH_SPECIFIED_SOURCE('','',#2117,
 .NOT_KNOWN.);
#2108=PRODUCT_DEFINITION_FORMATION_WITH_SPECIFIED_SOURCE('','',#2118,
 .NOT_KNOWN.);
#2109=PRODUCT_RELATED_PRODUCT_CATEGORY('','',(#2114));
#2110=PRODUCT_RELATED_PRODUCT_CATEGORY('','',(#2115));
#2111=PRODUCT_RELATED_PRODUCT_CATEGORY('','',(#2116));
#2112=PRODUCT_RELATED_PRODUCT_CATEGORY('','',(#2117));
#2113=PRODUCT_RELATED_PRODUCT_CATEGORY('','',(#2118));
#2114=PRODUCT('DBU03-D55-d20-e20','DBU03-D55-d20-e20',
'DBU03-D55-d20-e20',(#2124));
#2115=PRODUCT('DBU03-D55-d20-e20-dummy','DBU03-D55-d20-e20-dummy',
'DBU03-D55-d20-e20-dummy',(#2125));
#2116=PRODUCT('DBU03-D55-d20-e20-001','DBU03-D55-d20-e20-001',
'DBU03-D55-d20-e20-001',(#2126));
#2117=PRODUCT('DBU03-D55-d20-e20-003','DBU03-D55-d20-e20-003',
'DBU03-D55-d20-e20-003',(#2127));
#2118=PRODUCT('DBU03-D55-d20-e20-002','DBU03-D55-d20-e20-002',
'DBU03-D55-d20-e20-002',(#2128));
#2119=PRODUCT_CATEGORY('','');
#2120=PRODUCT_CATEGORY('','');
#2121=PRODUCT_CATEGORY('','');
#2122=PRODUCT_CATEGORY('','');
#2123=PRODUCT_CATEGORY('','');
#2124=PRODUCT_CONTEXT('',#2130,'mechanical');
#2125=PRODUCT_CONTEXT('',#2130,'mechanical');
#2126=PRODUCT_CONTEXT('',#2130,'mechanical');
#2127=PRODUCT_CONTEXT('',#2130,'mechanical');
#2128=PRODUCT_CONTEXT('',#2130,'mechanical');
#2129=APPLICATION_PROTOCOL_DEFINITION('international standard',
'automotive_design',2010,#2130);
#2130=APPLICATION_CONTEXT(
'core data for automotive mechanical design processes');
ENDSEC;
END-ISO-10303-21;
